<svg width="70" height="70" fill="none" xmlns="http://www.w3.org/2000/svg"><path d="M15.617 11.666a.933.933 0 00.933-.933V8.866a.933.933 0 10-1.867 0v1.867c0 .515.418.933.934.933zm0 1.867a.933.933 0 00-.934.934v1.866a.933.933 0 101.867 0v-1.866a.933.933 0 00-.933-.934zm-3.734 0h1.867a.933.933 0 100-1.867h-1.867a.933.933 0 100 1.867zm5.6 0h1.867a.933.933 0 100-1.867h-1.867a.933.933 0 100 1.867zM9.309 28.829a.998.998 0 100-1.996.998.998 0 000 1.996zM62.283 22.4a3.27 3.27 0 00-3.266-3.267h-15.4V18.2c0-1.544-1.256-2.8-2.8-2.8a2.803 2.803 0 00-2.8 2.8v.933H23.55a3.27 3.27 0 00-3.267 3.267c0 1.298.767 2.412 1.867 2.939v17.127a7.504 7.504 0 00-1.999.01c-4.712.673-9.172 8.191-12.086 14.38a3.63 3.63 0 00.224 3.507 3.65 3.65 0 003.097 1.703h48.097a.933.933 0 00.934-.933V25.339a3.263 3.263 0 001.866-2.94zm-22.4-4.2a.934.934 0 011.867 0v.933h-1.867V18.2zm-1.351 42H11.386a1.77 1.77 0 01-1.522-.837 1.747 1.747 0 01-.11-1.713c3.785-8.042 7.67-12.9 10.662-13.327.27-.038.536-.056.8-.056 4.02 0 7.385 4.297 9.551 8.036a.933.933 0 001.403.251c.51-.423.975-.667 1.38-.724h.002c3.019-.43 5.526 4.014 6.745 6.703.17.374.14.786-.08 1.13-.221.341-.58.537-.988.537h-.697zm3.48 0a3.022 3.022 0 00-.014-2.438c-1.753-3.866-4.685-8.353-8.71-7.78a3.998 3.998 0 00-1.426.515c-2.453-3.98-5.107-6.534-7.845-7.57v-17.26H58.55V60.2H42.013zm17.005-36.4H23.55c-.772 0-1.4-.628-1.4-1.4 0-.772.628-1.4 1.4-1.4h35.467c.772 0 1.4.628 1.4 1.4 0 .772-.628 1.4-1.4 1.4z" fill="#A98056"/><path d="M23.55 51.212a1.054 1.054 0 100 2.109 1.054 1.054 0 000-2.109zm-5.6 0a1.054 1.054 0 100 2.109 1.054 1.054 0 000-2.109zm2.8-4.666a1.054 1.054 0 100 2.108 1.054 1.054 0 000-2.108zm30.333-10.613a1.869 1.869 0 01-1.866-1.867.933.933 0 00-.934-.933h-14a.933.933 0 00-.933.933 1.87 1.87 0 01-1.867 1.867.933.933 0 00-.933.933v5.6c0 .516.418.934.933.934 1.03 0 1.867.837 1.867 1.866 0 .516.417.934.933.934h14a.933.933 0 00.934-.934c0-1.03.837-1.866 1.866-1.866a.933.933 0 00.934-.934v-5.6a.933.933 0 00-.934-.933zm-.933 5.718a3.747 3.747 0 00-2.681 2.682h-12.37a3.747 3.747 0 00-2.682-2.682v-3.97A3.747 3.747 0 0035.098 35h12.37a3.747 3.747 0 002.682 2.682v3.97z" fill="#A98056"/></svg>