<svg width="70" height="70" fill="none" xmlns="http://www.w3.org/2000/svg"><path d="M50.364 10.267H36.397A3.737 3.737 0 0032.664 14a3.737 3.737 0 003.733 3.733h13.967A3.737 3.737 0 0054.097 14a3.737 3.737 0 00-3.733-3.733zm0 5.6H36.397A1.869 1.869 0 0134.53 14a1.87 1.87 0 011.867-1.867h13.967A1.87 1.87 0 0152.231 14a1.87 1.87 0 01-1.867 1.867z" fill="#A98056"/><path d="M58.797 11.331a4.803 4.803 0 00-4.798-4.798H34.195c-3.492 0-6.73 1.737-8.677 4.671a7.273 7.273 0 00-1.216 4.035v3.791l-3.04 10.886a2.88 2.88 0 00.484 2.536 2.88 2.88 0 002.312 1.148h1.091v4.509c-2.616 2.02-3.445 11.147-3.445 11.25a4.51 4.51 0 004.505 4.507 4.51 4.51 0 004.506-4.506c0-.107-.883-9.817-3.699-11.421v-4.34h5.918a4.098 4.098 0 003.98-3.206l.114-.527h16.02a5.756 5.756 0 005.749-5.75V11.331zM23.57 49.359c0-1.428.55-4.31 1.22-6.586-.069 3.19.042 7.012.147 8.885a2.631 2.631 0 01-1.367-2.299zm5.277 0a2.64 2.64 0 01-2.036 2.564c-.238-2.6-.222-8.539-.06-11.53.993 1.992 2.096 6.94 2.096 8.966zM56.93 24.116A3.888 3.888 0 0153.047 28h-16.77a.934.934 0 00-.913.735l-.274 1.261a2.219 2.219 0 01-2.156 1.737h-8.876a1.03 1.03 0 01-.825-.41 1.03 1.03 0 01-.173-.905l.154-.549 2.917-.003A.933.933 0 1026.13 28l-2.395.002.26-.932 4.936-.003a.933.933 0 00-.001-1.867l-4.414.003.26-.933h6.954a.933.933 0 100-1.867h-6.432l.836-2.994a.934.934 0 00.034-.251v-3.919c0-1.071.314-2.11.922-3.027A8.508 8.508 0 0134.194 8.4H54a2.935 2.935 0 012.93 2.931v12.785h.001z" fill="#A98056"/><path d="M33.13 41.533a.933.933 0 100 1.867c11.826 0 18.767 1.755 19.566 2.799-.709.898-6.522 2.602-17.713 2.786A.934.934 0 0035 50.85h.015c2.567-.042 13.168-.345 17.61-2.467a14.862 14.862 0 01-3.493 7.979c-.794.082-1.61.168-2.362.248a11.893 11.893 0 01-5.425-.686 13.161 13.161 0 00-9.85.227 5.775 5.775 0 01-3.551.332l-3.81-.847a7.672 7.672 0 00-5.335.754l-1.099.6a14.879 14.879 0 01-4.06-8.588c.965.451 2.273.85 3.99 1.199a.933.933 0 10.372-1.83c-3.529-.717-4.31-1.43-4.444-1.555.302-.375 2.01-1.324 7.148-2.047a.933.933 0 00.794-1.054.923.923 0 00-1.054-.795c-7.87 1.108-8.781 2.745-8.781 3.88v.466c0 4.753 1.992 9.042 5.176 12.101.031.035.066.063.102.092 3.01 2.847 7.06 4.607 11.521 4.607h9.334c4.954 0 9.4-2.169 12.478-5.591.018-.02.037-.038.054-.06 2.645-2.97 4.268-6.869 4.268-11.15V46.2c0-4.614-20.59-4.667-21.467-4.667zM28.463 61.6c-3.52 0-6.754-1.232-9.31-3.277l.539-.294a5.81 5.81 0 014.036-.57l3.81.847a7.63 7.63 0 004.692-.438 11.295 11.295 0 018.458-.195 13.773 13.773 0 006.222.797 14.841 14.841 0 01-9.113 3.13h-9.333zm31.209-15.202a.998.998 0 100 1.995.998.998 0 000-1.995zM13.005 28.664a.998.998 0 100 1.996.998.998 0 000-1.996zm.992-16.531a.933.933 0 00.933-.933V9.333a.933.933 0 10-1.867 0V11.2c0 .515.418.933.934.933zm.933 4.667v-1.867a.933.933 0 10-1.867 0V16.8a.933.933 0 101.867 0zm-1.867-3.733a.933.933 0 00-.933-.934h-1.867a.933.933 0 100 1.867h1.867a.933.933 0 00.933-.933zm2.801.933h1.866a.933.933 0 100-1.867h-1.867a.933.933 0 100 1.867zM52.73 32.666a3.27 3.27 0 00-3.267 3.267A3.27 3.27 0 0052.73 39.2a3.27 3.27 0 003.267-3.267 3.27 3.27 0 00-3.267-3.267zm0 4.667c-.772 0-1.4-.628-1.4-1.4 0-.772.628-1.4 1.4-1.4.772 0 1.4.628 1.4 1.4 0 .772-.628 1.4-1.4 1.4z" fill="#A98056"/></svg>