<svg width="58" height="51" fill="none" xmlns="http://www.w3.org/2000/svg"><path d="M24.652 37.548l.008.002.62-1.828-.007-.002h-.003c-4.077-1.311-7.6-2.442-10.218-3.819-2.71-1.424-4.31-3.02-5.187-5.176-.832-2.043-.895-4.198-.178-6.068.707-1.842 2.126-3.275 3.996-4.037 1.37-.558 2.802-.642 4.256-.25 1.297.35 2.374 1.022 3.05 1.523.346.258.796.313 1.2.148.406-.165.689-.518.757-.945.133-.83.435-2.063 1.118-3.22.766-1.296 1.85-2.237 3.22-2.795 1.87-.761 3.887-.727 5.679.097 1.82.837 3.28 2.423 4.112 4.466.878 2.156.848 4.416-.096 7.328l1.852.567c1.077-3.324 1.093-6.066.049-8.63-1.015-2.49-2.818-4.435-5.08-5.475-2.288-1.052-4.86-1.097-7.24-.128-1.779.724-3.183 1.94-4.172 3.616-.5.845-.882 1.786-1.14 2.808a10.603 10.603 0 00-2.776-1.214c-1.879-.506-3.733-.396-5.512.328-2.38.97-4.188 2.798-5.09 5.15-.892 2.324-.825 4.976.19 7.466 1.044 2.564 2.97 4.515 6.064 6.14 2.767 1.454 6.364 2.61 10.528 3.948z" fill="#A98056"/><path d="M33.26 47.6a1.97 1.97 0 01-1.174-.71 386.005 386.005 0 00-3.11-3.86l-.004-.006c-2.76-3.394-5.143-6.325-6.669-9.053-1.704-3.05-2.255-5.737-1.73-8.455.509-2.64 1.9-4.9 3.915-6.36 2.039-1.478 4.551-2.024 7.075-1.538 1.886.364 3.5 1.283 4.798 2.733.655.732 1.213 1.58 1.665 2.532a10.603 10.603 0 012.486-1.731c1.744-.864 3.584-1.117 5.47-.753 2.524.486 4.654 1.927 5.997 4.058 1.328 2.105 1.778 4.72 1.27 7.36-.525 2.718-2.034 5.007-4.751 7.204-2.43 1.966-5.732 3.8-9.556 5.925a380.285 380.285 0 00-4.33 2.43 1.972 1.972 0 01-1.352.224zM31.2 19.5c-1.983-.382-3.954.045-5.552 1.203-1.62 1.175-2.744 3.015-3.162 5.182-.44 2.286.03 4.497 1.523 7.168 1.443 2.583 3.778 5.454 6.48 8.778l.006.005c.944 1.163 2.016 2.48 3.125 3.88a451.654 451.654 0 014.357-2.442c3.745-2.08 6.979-3.877 9.279-5.738 2.38-1.925 3.638-3.803 4.078-6.088.418-2.167.06-4.293-1.008-5.986-1.053-1.67-2.724-2.799-4.706-3.18-1.453-.281-2.874-.084-4.224.584-1.203.596-2.129 1.465-2.693 2.088-.29.32-.72.463-1.15.38a1.225 1.225 0 01-.926-.78c-.292-.789-.829-1.939-1.724-2.94-1.005-1.122-2.25-1.833-3.703-2.113zM46.826 3.821a.955.955 0 00.956-.955V.956a.955.955 0 10-1.91 0v1.91c0 .527.426.955.954.955zm.956 4.777V6.687a.955.955 0 10-1.91 0v1.91a.955.955 0 101.91 0zm-1.911-3.822a.955.955 0 00-.955-.955h-1.91a.955.955 0 100 1.91h1.91a.955.955 0 00.955-.955zm2.866.956h1.91a.955.955 0 100-1.911h-1.91a.955.955 0 100 1.91zM4.776 41.521a.955.955 0 00.956-.955v-1.91a.955.955 0 10-1.91 0v1.91c0 .527.426.955.954.955zm.956 4.776v-1.91a.955.955 0 10-1.91 0v1.91a.955.955 0 101.91 0zm-1.911-3.821a.955.955 0 00-.955-.955H.956a.955.955 0 100 1.91h1.91a.955.955 0 00.955-.955zm2.866.956h1.91a.955.955 0 100-1.911h-1.91a.955.955 0 100 1.91zM5.38 30.865a1.53 1.53 0 00-.479-.305 1.434 1.434 0 00-1.102 0 1.31 1.31 0 00-.783.785 1.436 1.436 0 001.885 1.89c.176-.076.337-.178.479-.306a1.442 1.442 0 00.304-1.584 1.509 1.509 0 00-.304-.48zm11.6 10.15a1.53 1.53 0 00-.479-.305 1.434 1.434 0 00-1.102 0 1.31 1.31 0 00-.783.785 1.436 1.436 0 001.885 1.89c.176-.076.337-.179.479-.306a1.442 1.442 0 00.304-1.584 1.509 1.509 0 00-.304-.48zM56.55 10.15A1.434 1.434 0 0058 8.702a1.523 1.523 0 00-.42-1.029 1.459 1.459 0 00-.233-.173.819.819 0 00-.246-.13.89.89 0 00-.277-.088 1.247 1.247 0 00-.564 0 .954.954 0 00-.261.087 1.134 1.134 0 00-.263.131 2.552 2.552 0 00-.215.173 1.512 1.512 0 00-.42 1.029 1.433 1.433 0 001.449 1.448zm-5.38 6.823a1.454 1.454 0 001.586.317c.544-.226.898-.757.894-1.344a1.519 1.519 0 00-.42-1.027 3.293 3.293 0 00-.233-.173.817.817 0 00-.246-.13.891.891 0 00-.277-.087 1.348 1.348 0 00-.825.087c-.178.07-.34.173-.478.303a1.507 1.507 0 00-.42 1.027c-.005.384.146.754.42 1.027z" fill="#A98056"/></svg>