<svg width="70" height="70" fill="none" xmlns="http://www.w3.org/2000/svg"><path d="M59.367 35.819l1.39.855-.564 3.464-1.59.369-.194 1.184 7.384-1.784.201-1.234-6.432-4.048-.195 1.194zm5.068 3.096c.102.057.204.114.364.191a5.694 5.694 0 00-.406.066l-3.15.732.439-2.684 2.753 1.695zM56.91 45.17l2.658 1.453-.672 1.228-3.67.398-.62 1.132 4.35-.471 1.879 3.671.619-1.132-1.627-3.111.662-1.211 2.562 1.4.547-1-6.142-3.358-.546 1zm-9.843 9.138l1.748 1.992.661-.58 3.917 4.466.857-.752-3.917-4.465 2.722-2.387 3.916 4.465.858-.751-4.616-5.263-4.323 3.791-1.04-1.202-.783.686zm-6.77 4.409l2.41 6.572 1.004-.368 1.777-6.105c.073.229.166.482.256.726l1.497 4.084 1.07-.392-2.41-6.572-1.004.368-1.777 6.105c-.073-.229-.166-.482-.252-.717l-1.501-4.093-1.07.392zm-3.865.446l-1.89 2.472-1.46-.005.01-2.48-1.14-.005-.027 7 2.73.01c1.44.006 2.742-.659 2.748-2.269.005-1.16-.693-1.822-1.642-2.096l2.02-2.622-1.35-.005zm-.189 4.719c-.003.87-.684 1.237-1.564 1.234l-1.61-.006.01-2.47 1.61.006c.88.003 1.558.376 1.554 1.236zm-13.767-7.816l-1.396.847-2.823-2.086.398-1.583-.965-.713-1.786 7.384 1.005.742 6.54-3.872-.973-.718zm-5.07 3.094a5.61 5.61 0 00-.336.236 5.79 5.79 0 00.127-.39l.787-3.137 2.188 1.616-2.766 1.675zm-2.086-9.488l-2.496 1.719-.794-1.153 1.298-3.457-.732-1.062-1.538 4.095-4.124.025.731 1.062 3.511-.051.783 1.136-2.404 1.657.647.939 5.764-3.972-.647-.938zM11.621 36.78l-2.568.653.218.853-5.757 1.466.282 1.105 5.756-1.466.894 3.508-5.756 1.466.28 1.105 6.784-1.728-1.42-5.572 1.544-.383-.257-1.008zm-.837-8.134l-6.947-.861-.132 1.062 4.617 4.37c-.237-.039-.504-.072-.762-.104l-4.317-.535-.14 1.131 6.946.861.132-1.061-4.618-4.372c.237.04.505.073.753.104l4.327.536.14-1.131zm1.259-3.458l-1.347-2.805.667-1.3 2.206 1.134.52-1.014-6.226-3.198-1.247 2.428c-.658 1.28-.656 2.743.776 3.479 1.032.53 1.939.209 2.613-.513l1.42 2.99.618-1.201zM7.922 22.88c-.774-.397-.792-1.171-.39-1.954l.735-1.432 2.197 1.128-.735 1.432c-.402.783-1.042 1.219-1.807.826zm13.188-8.801l-.127-1.628 3.134-1.58 1.234 1.069 1.071-.54-5.786-4.923-1.116.563.51 7.583 1.08-.544zm-.477-5.92c-.014-.116-.028-.232-.06-.407.122.13.207.21.292.29l2.445 2.116-2.429 1.225-.248-3.224zm9.444 2.395L29.68 7.55l1.388-.183 2.488 2.729 1.279-.169-2.948-3.232 1.855-3.684-1.28.168-1.551 3.15-1.368.18-.382-2.895-1.13.15.914 6.94 1.13-.15zm13.285 2.561l-1.014-.23.36-1.548-5.607-1.27 1.547-6.828 1.112.252-1.313 5.793 3.53.8 1.313-5.793 1.112.252-1.313 5.793.859.195-.586 2.584zm7.438 2.822l3.908-5.808-.888-.597-5.986 2.143c.142-.194.293-.418.438-.634l2.429-3.609-.946-.636-3.908 5.808.888.597 5.986-2.143a19.16 19.16 0 00-.433.625L49.854 15.3l.946.636zm2.703 2.865l3.111.073.855 1.183-2.01 1.452.666.924 5.676-4.097-1.598-2.213c-.843-1.168-2.147-1.83-3.452-.888-.94.68-1.066 1.633-.729 2.562l-3.309-.09.79 1.094zm3.927-2.625c.705-.51 1.403-.174 1.918.54l.943 1.305-2.003 1.445-.942-1.305c-.515-.714-.613-1.482.084-1.985z" fill="#A98056"/></svg>