<svg width="20" height="20" fill="none" xmlns="http://www.w3.org/2000/svg"><g clip-path="url(#clip0)" fill="#A98056"><path d="M16.58 1.722a.586.586 0 00-.49-.049c-1.671.585-3.336 1.165-4.67 1.629a2.928 2.928 0 00-1.626-.908A3.093 3.093 0 008.12.145L7.954.063A.586.586 0 007.43 1.11l.165.083c.505.252.864.699 1.006 1.225a2.934 2.934 0 00-2.268 2.651A4009.78 4009.78 0 00.393 7.14.586.586 0 000 7.693v6.248c0 .242.151.468.393.553L16.09 19.96a.586.586 0 00.398-.005l.06-.013c.323-.075 1.183-.274 1.962-.914.983-.808 1.482-1.995 1.482-3.526v-7.81c0-.16-.039-3.983-3.412-5.97zM9.254 3.515a1.76 1.76 0 011.757 1.757 1.76 1.76 0 01-1.757 1.757 1.76 1.76 0 01-1.757-1.757 1.76 1.76 0 011.757-1.757zM6.495 6.253A2.933 2.933 0 009.255 8.2a2.932 2.932 0 002.772-3.87c1.223-.424 2.695-.937 4.185-1.458 2.578 1.69 2.609 4.789 2.609 4.82 0 2.718-1.958 4.345-2.62 4.818l-3.239-1.133a.585.585 0 00-.78.553v2.4a.586.586 0 01-1.17 0v-3.22a.586.586 0 00-.394-.554L2.366 7.691c1.4-.489 2.792-.973 4.13-1.438zM9.84 13.41L1.17 10.4V8.516l8.669 3.01v1.884zm-8.67-1.77l8.7 3.02a1.76 1.76 0 001.726 1.428c.436 0 .835-.16 1.143-.424l2.957 1.035v1.884L1.171 13.524V11.64zm14.526 3.818l-2.369-.83c.017-.096.026-.196.026-.297v-1.576l2.343.82v1.883zm3.124.044c0 1.603-.64 2.63-1.953 3.123v-5.15a7.965 7.965 0 001.953-1.997v4.024z"/><path d="M16.088 5.74a.586.586 0 100-1.171.586.586 0 000 1.171zm.782 2.733a.586.586 0 100-1.171.586.586 0 000 1.171zm-1.952 2.343a.586.586 0 100-1.171.586.586 0 000 1.171zm-1.172-2.733a.586.586 0 100-1.172.586.586 0 000 1.172z"/></g><defs><clipPath id="clip0"><path fill="#fff" d="M0 0h19.992v19.992H0z"/></clipPath></defs></svg>