<svg width="21" height="21" fill="none" xmlns="http://www.w3.org/2000/svg"><g clip-path="url(#clip0)" fill="#A98056"><path d="M20.396 5.008c-.04-.001-.85-.029-2.04-.002v-2.44a.618.618 0 00-.669-.616c-2.373.198-5.392 1.247-7.19 3.16-1.8-1.913-4.819-2.962-7.192-3.16a.618.618 0 00-.669.616v2.506c-.676-.026-1.316-.044-2-.064A.618.618 0 000 5.625V16.87c0 .325.252.595.576.616 2.456.166 6.57.184 9.678 1.51.277.118.526-.018.484 0 3.108-1.326 7.221-1.344 9.678-1.51a.617.617 0 00.576-.616V5.625a.618.618 0 00-.596-.617zM17.121 3.26v10.582c-1.78.398-4.037 1.248-6.007 3.05V6.28c1.35-1.686 3.909-2.702 6.007-3.02zm-13.25 0c2.098.318 4.657 1.334 6.008 3.02v10.612c-1.971-1.802-4.227-2.652-6.008-3.05V3.26zM1.235 16.288V6.261c.442.013.915.028 1.401.047v8.037c0 .297.212.552.504.607 1.41.265 3.243.84 4.952 2.076-2.438-.547-4.99-.635-6.857-.74zm18.522 0c-1.864.105-4.418.193-6.856.74 1.708-1.237 3.542-1.811 4.951-2.076a.617.617 0 00.504-.607V6.241a44.935 44.935 0 011.401-.01v10.057z"/><path d="M8.278 7.702a5.75 5.75 0 00-2.183-.891.617.617 0 10-.205 1.218c.679.114 1.33.441 1.682.686a.617.617 0 00.706-1.013zm-.062 3.477c-.44-.269-1.3-.74-2.12-.879a.617.617 0 00-.206 1.218c.639.107 1.39.535 1.682.715a.618.618 0 00.644-1.054zm5.204-2.464a4.501 4.501 0 011.682-.686.618.618 0 00-.206-1.218 5.75 5.75 0 00-2.182.89.617.617 0 00.706 1.014zm1.477 1.585c-.82.138-1.68.61-2.12.879a.617.617 0 10.643 1.053c.293-.178 1.044-.606 1.682-.714a.618.618 0 00-.205-1.218z"/></g><defs><clipPath id="clip0"><path fill="#fff" d="M0 0h20.992v20.992H0z"/></clipPath></defs></svg>