<svg width="20" height="20" fill="none" xmlns="http://www.w3.org/2000/svg"><path d="M1.875 7.631v9.532a2.107 2.107 0 002.113 2.106h12.03a2.106 2.106 0 002.107-2.106V7.63a2.113 2.113 0 00-2.106-2.112H14.68a3.7 3.7 0 00.488-.625 3.033 3.033 0 00.075-2.975A2.363 2.363 0 0013.125.73a3.244 3.244 0 00-2.5 1.057c-.25.264-.46.563-.625.887a3.8 3.8 0 00-.594-.887A3.244 3.244 0 006.906.73a2.375 2.375 0 00-2.125 1.182 3.031 3.031 0 00.075 2.975c.14.225.303.434.488.625H3.988A2.113 2.113 0 001.875 7.63zm15 0v9.532a.855.855 0 01-.856.856h-5.394l.044-11.25h5.369a.863.863 0 01.837.862zm-3.75-5.625a1.119 1.119 0 011.044.557 1.744 1.744 0 01-.082 1.725c-.268.468-.974 1.25-2.675 1.25h-.787c0-.757.144-2.1.869-2.894a2.043 2.043 0 011.631-.663v.025zM5.919 4.263a1.744 1.744 0 01-.081-1.725 1.119 1.119 0 011.037-.557 2.044 2.044 0 011.6.625c.731.813.863 2.157.9 2.913h-.781c-1.719 0-2.406-.788-2.675-1.256zM3.125 7.63a.862.862 0 01.863-.862h5.387l-.044 11.25H3.988a.858.858 0 01-.863-.856V7.63z" fill="#A98056"/></svg>