<svg width="18" height="18" fill="none" xmlns="http://www.w3.org/2000/svg"><path fill-rule="evenodd" clip-rule="evenodd" d="M17.672 8.828a.703.703 0 00-.12-1.25c-.517-.201-.945-.7-1.398-1.227-.475-.552-.966-1.124-1.639-1.43a2.576 2.576 0 00-.121-.052c.403-.287.781-.53 1.125-.75.686-.442 1.278-.823 1.717-1.315.521-.585.764-1.252.764-2.1a.703.703 0 10-1.406 0c0 1-.472 1.354-1.836 2.231-.47.303-1.002.645-1.578 1.079a2.36 2.36 0 00-.195-.584c-.318-.66-.902-1.136-1.466-1.596-.547-.446-1.064-.868-1.266-1.386a.703.703 0 00-1.25-.12c-.396.63-.684 1.226-.863 1.789-1.58-.671-3.053-.297-4.483 1.132C1.581 5.325-.025 9.46 0 12.662c.014 1.692.493 3.06 1.386 3.952C2.292 17.52 3.685 18 5.414 18h.003c1.859 0 4.108-.559 6.169-1.533l.102-.06c.906-.526 2.639-1.588 3.063-2.064.905-.905 1.378-1.807 1.448-2.76.044-.61-.082-1.226-.382-1.87.582-.178 1.201-.473 1.855-.885zm-3.341 1.08c.652 1.079.77 2.096-.574 3.44a2.01 2.01 0 01-.072.084c-.607.672-2.036 1.448-2.7 1.763-1.88.89-3.91 1.399-5.568 1.399h-.002c-1.33 0-2.407-.347-3.035-.974-.617-.618-.963-1.672-.974-2.97-.022-2.823 1.434-6.595 3.246-8.406 1.356-1.357 2.376-1.166 3.267-.674.016.417.107.81.275 1.175.715 1.55 2.556 1.995 3.024 2.085.161.666.668 2.176 2.038 2.807.336.155.694.245 1.075.27zm-2.842-4.536a.723.723 0 00-.037.07c-.318-.065-1.56-.375-1.98-1.286-.285-.617-.118-1.386.193-2.096.303.323.644.602.964.863l.001.001c1.108.903 1.53 1.315.859 2.448zm3.598 1.896c.257.299.53.617.843.903-.704.307-1.467.471-2.08.191-.872-.398-1.194-1.538-1.28-1.928 1.15-.677 1.579-.258 2.517.834z" fill="#A98056"/><path fill-rule="evenodd" clip-rule="evenodd" d="M9.042 10.088c-.273.273-1.236.247-1.236.247s-.026-.963.247-1.236a.7.7 0 11.989.99zM4.15 12.967c-.273.272-.247 1.236-.247 1.236s.963.025 1.236-.248a.7.7 0 00-.989-.989zm1.692-3.165a.7.7 0 00-.988 0c-.273.274-.248 1.236-.248 1.236s.963.026 1.236-.247a.7.7 0 000-.989zm1.437 2.461c-.273.273-.247 1.236-.247 1.236s.963.026 1.236-.247a.7.7 0 10-.989-.989zm-.769-5.66a.7.7 0 00-.988 0c-.273.273-.248 1.236-.248 1.236s.963.026 1.236-.247a.7.7 0 000-.989zm3.969 4.957c-.273.273-.248 1.236-.248 1.236s.963.026 1.236-.247a.7.7 0 00-.988-.989z" fill="#A98056"/></svg>