<svg width="53" height="53" fill="none" xmlns="http://www.w3.org/2000/svg"><path d="M52.807 15.034c-.476-1.28-1.866-1.976-2.33-2.825-.453-.829-.288-2.378-1.119-3.485-.815-1.086-2.342-1.36-3.032-2.05-.69-.69-.964-2.217-2.05-3.032-1.108-.832-2.657-.666-3.486-1.12-.848-.463-1.544-1.853-2.824-2.33-1.032-.384-2.151-.08-3.047-.046h-.005C33.97.18 33.34.78 33.166 1.667L29.31 21.224a1.899 1.899 0 002.23 2.23l20.022-3.947a1.612 1.612 0 001.294-1.503c.047-.881.324-1.967-.05-2.97zm-1.5 2.889c-.002.026-.016.055-.044.06l-2.383.47a20.48 20.48 0 00-14.6-14.406l.41-2.08c.06-.312.181-.259.324-.27.9-.04 1.81-.273 2.41-.049.815.303 1.485 1.616 2.621 2.237 1.123.614 2.586.463 3.299.999.688.516.964 1.968 1.883 2.888.921.92 2.373 1.196 2.89 1.884.535.714.384 2.175.998 3.298.62 1.136 1.934 1.807 2.237 2.622.218.586.001 1.47-.045 2.347z" fill="#A77E56"/><path d="M49.444 29.535c.022-.307.143-.647.258-.939a.776.776 0 10-1.444-.57c-.159.402-.326.882-.363 1.4-.091 1.282.654 2.554.468 3.415-.185.853-1.39 1.704-1.84 2.915-.447 1.201-.09 2.63-.515 3.407-.415.76-1.811 1.237-2.59 2.275-.766 1.02-.824 2.49-1.459 3.124-.635.635-2.103.692-3.124 1.459-1.038.778-1.515 2.175-2.274 2.59-.777.425-2.207.068-3.407.515-1.212.45-2.063 1.655-2.915 1.84-.86.186-2.132-.56-3.416-.468-1.282.09-2.437 1.007-3.316.946-.873-.062-1.886-1.133-3.147-1.406-1.254-.272-2.62.285-3.447-.023-.814-.303-1.486-1.616-2.621-2.237-1.123-.614-2.586-.463-3.3-.998-.687-.517-.962-1.968-1.883-2.89-.92-.92-2.372-1.195-2.888-1.883-.535-.713-.385-2.176-.999-3.298-.62-1.136-1.933-1.807-2.237-2.622-.308-.828.25-2.19-.023-3.447-.273-1.26-1.344-2.274-1.406-3.147-.062-.878.855-2.028.947-3.316.09-1.282-.654-2.555-.468-3.415.184-.854 1.389-1.704 1.84-2.915.447-1.202.09-2.63.515-3.408.415-.759 1.81-1.236 2.59-2.274.766-1.02.824-2.49 1.459-3.124.635-.636 2.103-.692 3.124-1.459 1.038-.779 1.515-2.175 2.274-2.59.778-.425 2.206-.068 3.407-.515 1.21-.45 2.062-1.655 2.915-1.84.861-.186 2.132.559 3.416.468 1.284-.091 2.439-1.008 3.315-.947.69.05 1.494.742 2.395 1.15l-.462 2.348a20.39 20.39 0 00-18.097 5.672c-7.98 7.98-7.98 20.966 0 28.947a20.304 20.304 0 0011.44 5.769c1.376.206 1.8.212 3.737.212l.028-.001c12.455-.444 21.761-11.892 19.36-24.35l2.291-.45c.223.589.58 1.114.863 1.615a.777.777 0 001.352-.764c-.338-.6-.733-1.163-.844-1.67v-.004a1.018 1.018 0 00-1.198-.795L27.301 25.87a.345.345 0 01-.406-.405L30.844 5.43a1.323 1.323 0 00-.799-1.485c-.87-.35-1.833-1.248-3.045-1.335-1.369-.096-2.582.88-3.535.947-.952.068-2.29-.727-3.635-.437-1.337.29-2.225 1.566-3.128 1.902-.89.332-2.399-.054-3.61.608-1.196.654-1.685 2.128-2.462 2.711-.751.564-2.308.621-3.29 1.603-.982.98-1.038 2.538-1.602 3.29-.583.777-2.058 1.266-2.711 2.46-.663 1.213-.277 2.722-.608 3.612-.336.902-1.612 1.79-1.902 3.127-.291 1.344.504 2.682.436 3.635-.067.954-1.044 2.166-.946 3.535.097 1.368 1.234 2.429 1.437 3.367.202.93-.395 2.368.086 3.66.476 1.28 1.866 1.975 2.33 2.824.453.829.287 2.378 1.119 3.486.815 1.086 2.342 1.36 3.032 2.05.69.69.964 2.217 2.05 3.032 1.107.83 2.657.666 3.486 1.119.848.464 1.544 1.853 2.824 2.33 1.292.48 2.728-.117 3.66.085.984.213 2.09 1.445 3.56 1.445 1.29 0 2.432-.889 3.342-.954.954-.067 2.291.727 3.634.437 1.337-.29 2.226-1.566 3.128-1.902.89-.332 2.4.054 3.611-.608 1.195-.654 1.684-2.128 2.461-2.711.752-.564 2.308-.62 3.29-1.602.982-.983 1.038-2.539 1.603-3.29.583-.778 2.058-1.267 2.71-2.462.663-1.212.277-2.72.608-3.61.337-.903 1.613-1.792 1.902-3.129.291-1.343-.504-2.68-.436-3.634z" fill="#A77E56"/></svg>