<svg width="60" height="48" fill="none" xmlns="http://www.w3.org/2000/svg"><path d="M33.667 14.333l-2.019-2.936a2 2 0 00-3.296 0l-18.198 26.47C9.242 39.194 10.192 41 11.802 41h36.396c1.61 0 2.56-1.806 1.648-3.133L35.604 17.15" stroke="#A77E56" stroke-width="1.5" stroke-linecap="round" stroke-linejoin="round"/><path d="M30.221 1.139c-2.514.02-3.261 2.134-3.113 4.446.148 2.312-.89 3.794-3.114 4.446-2.223.652-3.26 2.134-3.113 4.446.148 2.313-.89 3.795-3.113 4.447-2.224.652-3.261 2.134-3.114 4.446.148 2.312-.89 3.794-3.113 4.446-2.223.652-3.261 2.134-3.113 4.447.148 2.312-.89 3.794-3.113 4.446-2.224.652-3.262 2.134-3.114 4.446 1.09 1.102.956 2.007.279 2.725-1.112 1.176-1.395 3.094.175 2.7.62-.156 1.24-.483 1.86-.979 1.81-1.447 3.62-1.447 5.429 0 .851.682 1.703 1.042 2.555 1.082M30.222 1.141c1.975.018 3.26 2.134 3.113 4.446-.148 2.312.89 3.794 3.113 4.446 2.224.652 3.261 2.134 3.114 4.446-.148 2.313.89 3.795 3.113 4.447 2.223.652 3.261 2.134 3.113 4.446-.148 2.312.89 3.794 3.114 4.446 2.223.652 3.26 2.134 3.113 4.446-.148 2.313.89 3.795 3.113 4.447 2.224.652 3.261 2.134 3.113 4.446-1.59 1.196-1.323 2.16-.384 2.905 1.268 1.005 1.488 2.56-.13 2.619-1.663.062-3.385-.299-4.362-1.08m-37.993 0c1.809-1.447 3.618-1.447 5.427 0 1.81 1.448 3.62 1.448 5.428 0 1.81-1.447 3.619-1.447 5.428 0 1.81 1.448 3.619 1.448 5.428 0 1.81-1.447 3.619-1.447 5.428 0 1.81 1.448 3.619 1.448 5.428 0 1.81-1.447 3.618-1.447 5.428 0" stroke="#A77E56" stroke-width="1.5" stroke-linecap="round"/></svg>