<svg width="46" height="46" fill="none" xmlns="http://www.w3.org/2000/svg"><path d="M39.25 9v28A2.25 2.25 0 0137 39.25H9A2.25 2.25 0 016.75 37V9A2.25 2.25 0 019 6.75h28A2.25 2.25 0 0139.25 9z" fill="#A77E56" stroke="#A77E56" stroke-width="1.5" stroke-linecap="round" stroke-linejoin="round"/><path d="M36.131 43.84c1.264-.802 2.528-.697 3.792.314.813.65 1.625.925 2.438.826 1.096-.133 1.1-1.523.966-2.62-.099-.812.177-1.624.827-2.437 1.128-1.41 1.128-2.82 0-4.23-1.128-1.41-1.128-2.821 0-4.231 1.128-1.41 1.128-2.821 0-4.231-1.128-1.41-1.128-2.82 0-4.231 1.128-1.41 1.128-2.82 0-4.23-1.128-1.411-1.128-2.821 0-4.231 1.128-1.41 1.128-2.821 0-4.231-1.128-1.41-1.128-2.82 0-4.231.65-.813.925-1.625.826-2.438-.133-1.096-1.523-1.1-2.62-.966-.812.099-1.624-.177-2.437-.827-1.41-1.128-2.82-1.128-4.23 0-1.411 1.128-2.821 1.128-4.231 0-1.41-1.128-2.821-1.128-4.231 0-1.41 1.128-2.82 1.128-4.231 0-1.41-1.128-2.82-1.128-4.23 0-1.411 1.128-2.821 1.128-4.232 0-1.41-1.128-2.82-1.128-4.23 0-1.41 1.128-2.82 1.128-4.231 0-.813-.65-1.625-.925-2.438-.826-1.096.133-1.1 1.523-.966 2.62.099.812-.177 1.624-.827 2.437-1.128 1.41-1.128 2.82 0 4.23 1.128 1.411 1.128 2.821 0 4.232-1.128 1.41-1.128 2.82 0 4.23 1.128 1.41 1.128 2.82 0 4.231-1.128 1.41-1.128 2.82 0 4.23 1.128 1.411 1.128 2.821 0 4.232-1.128 1.41-1.128 2.82 0 4.23 1.128 1.41 1.128 2.82 0 4.231-.65.813-.925 1.625-.826 2.438.133 1.096 1.523 1.1 2.62.966.812-.099 1.624.177 2.437.827 1.41 1.128 2.82 1.128 4.23 0 1.411-1.128 2.821-1.128 4.232 0 1.41 1.128 2.82 1.128 4.23 0 1.41-1.128 2.82-1.128 4.231 0 1.41 1.128 2.82 1.128 4.23 0 1.411-1.128 2.821-1.128 4.232 0 .59.472 1.18.747 1.771.824" stroke="#A77E56" stroke-width="1.5" stroke-linecap="round"/></svg>