<svg width="35" height="35" fill="none" xmlns="http://www.w3.org/2000/svg"><path d="M27.303 22.362a1.457 1.457 0 00-.067-.137c-.344-.66-1-1.472-1.97-2.433l-.021-.022-.01-.01-.01-.012h-.011c-.44-.448-.72-.748-.836-.903-.213-.293-.261-.59-.145-.891.083-.228.393-.708.929-1.442.282-.39.506-.7.67-.936 1.19-1.688 1.707-2.766 1.548-3.236l-.061-.11c-.041-.066-.148-.126-.32-.181-.172-.055-.392-.064-.66-.028l-2.972.022a.363.363 0 00-.206.006l-.134.033-.052.027-.041.033a.472.472 0 00-.114.116.769.769 0 00-.103.193 18.53 18.53 0 01-1.104 2.476c-.254.455-.488.85-.701 1.183-.214.334-.392.58-.537.738a3.843 3.843 0 01-.392.38c-.117.095-.206.135-.268.12a7.002 7.002 0 01-.176-.043.715.715 0 01-.232-.27 1.267 1.267 0 01-.118-.43 5.03 5.03 0 01-.037-.445 10.34 10.34 0 01.006-.529 17.5 17.5 0 00.01-.462c0-.279.005-.582.015-.908l.026-.776c.007-.19.01-.393.01-.605 0-.213-.012-.38-.036-.501a1.8 1.8 0 00-.108-.353.584.584 0 00-.211-.264 1.152 1.152 0 00-.346-.148c-.364-.088-.829-.136-1.393-.143-1.279-.015-2.101.073-2.466.264a1.41 1.41 0 00-.392.33c-.123.162-.14.25-.051.264.412.066.705.224.877.473l.062.133c.048.095.096.264.144.506.048.242.08.51.093.803.034.536.034.995 0 1.376-.034.382-.067.679-.098.892a1.874 1.874 0 01-.263.76.183.183 0 01-.052.054.731.731 0 01-.278.055c-.097 0-.214-.051-.351-.154a2.546 2.546 0 01-.428-.424 5.68 5.68 0 01-.5-.754 13.44 13.44 0 01-.579-1.144l-.165-.32a28.075 28.075 0 01-.423-.897 17.886 17.886 0 01-.474-1.139.722.722 0 00-.248-.352l-.051-.033a1.042 1.042 0 00-.402-.165l-2.828.021c-.289 0-.485.07-.588.21l-.041.066a.376.376 0 00-.031.176c0 .08.02.18.062.297A37.44 37.44 0 009 15.763c.485.961.906 1.736 1.264 2.322a27.51 27.51 0 001.094 1.663c.371.52.617.855.737 1.001.12.147.215.257.284.33l.258.265c.165.176.408.387.727.633.32.245.675.488 1.063.726.389.239.841.433 1.357.584a4.41 4.41 0 001.506.181h1.187c.24-.022.423-.103.547-.242l.04-.055a.759.759 0 00.078-.203 1.19 1.19 0 00.036-.303 3.89 3.89 0 01.067-.853c.052-.253.11-.444.176-.573a1.407 1.407 0 01.397-.484.66.66 0 01.082-.038c.166-.059.36-.002.584.17.223.173.433.386.629.639s.432.537.707.853c.275.316.516.55.722.704l.206.133c.138.088.317.168.537.242.22.073.412.091.578.055l2.64-.044c.262 0 .465-.046.61-.138.144-.092.23-.193.257-.303a.907.907 0 00.006-.374 1.457 1.457 0 00-.073-.292z" fill="#A98056"/></svg>