<svg width="27" height="31" fill="none" xmlns="http://www.w3.org/2000/svg"><path d="M5.034 13.29l2.723 7.372M11.205 30l-3.448-9.338m0 0L1 23.612m6.757-11.304l1.312 2.949 2.136-.983m2.135 2.457l-3.085 1.474 2.018 5.406m2.017 5.406l-2.017-5.406m0 0l8.662-3.279m2.373-.898l-2.373.898m0 0l.949 2.788" stroke="#A98056" stroke-width="1.6" stroke-linecap="round"/><mask id="a" fill="#fff"><path fill-rule="evenodd" clip-rule="evenodd" d="M19.477 18.443c3.443-2.951 6.885-7.755 6.885-11.558a6.885 6.885 0 10-13.77 0c0 3.803 4.18 9.345 6.885 11.558zm0-9.59a2.459 2.459 0 100-4.918 2.459 2.459 0 000 4.918z"/></mask><path d="M19.477 18.443l-1.013 1.238 1.037.848 1.017-.872-1.041-1.214zm5.285-11.558c0 1.465-.684 3.31-1.904 5.244-1.2 1.902-2.814 3.72-4.422 5.099l2.082 2.43c1.835-1.573 3.664-3.632 5.046-5.82 1.361-2.157 2.398-4.615 2.398-6.953h-3.2zM19.477 1.6a5.285 5.285 0 015.285 5.285h3.2A8.485 8.485 0 0019.477-1.6v3.2zm-5.285 5.285A5.285 5.285 0 0119.477 1.6v-3.2a8.485 8.485 0 00-8.485 8.485h3.2zm6.298 10.32c-1.2-.982-2.815-2.788-4.127-4.814-1.344-2.078-2.171-4.086-2.171-5.506h-3.2c0 2.383 1.263 5.047 2.685 7.244 1.455 2.248 3.282 4.32 4.787 5.552l2.026-2.477zm-.154-10.811a.859.859 0 01-.86.859v3.2a4.06 4.06 0 004.06-4.06h-3.2zm-.86-.86a.86.86 0 01.86.86h3.2a4.059 4.059 0 00-4.06-4.06v3.2zm-.858.86a.86.86 0 01.859-.86v-3.2a4.059 4.059 0 00-4.06 4.06h3.2zm.859.859a.859.859 0 01-.86-.86h-3.2a4.059 4.059 0 004.06 4.06v-3.2z" fill="#A98056" mask="url(#a)"/></svg>