<svg width="35" height="35" fill="none" xmlns="http://www.w3.org/2000/svg"><path fill-rule="evenodd" clip-rule="evenodd" d="M21.084 9.5h-7.169A4.42 4.42 0 009.5 13.915v7.17a4.42 4.42 0 004.415 4.415h7.17a4.42 4.42 0 004.415-4.415v-7.17A4.42 4.42 0 0021.084 9.5zM17.5 13.31c-2.31 0-4.19 1.88-4.19 4.19 0 2.311 1.88 4.19 4.19 4.19 2.31 0 4.19-1.879 4.19-4.19 0-2.31-1.88-4.19-4.19-4.19zm4.572-1.143a1.148 1.148 0 00-1.143 1.143c0 .3.122.595.335.808.212.212.507.335.808.335.3 0 .595-.123.808-.335a1.148 1.148 0 000-1.617 1.148 1.148 0 00-.808-.334z" fill="#A98056"/><path fill-rule="evenodd" clip-rule="evenodd" d="M17.5 20.248a2.75 2.75 0 01-2.748-2.748 2.75 2.75 0 012.748-2.747 2.75 2.75 0 012.747 2.747 2.75 2.75 0 01-2.747 2.748z" fill="#A98056"/></svg>