<svg width="20" height="21" fill="none" xmlns="http://www.w3.org/2000/svg"><path d="M17.5 5.725H15a5 5 0 00-10 0H2.5a2.5 2.5 0 00-2.5 2.5v8.333a4.172 4.172 0 004.167 4.167h11.666A4.172 4.172 0 0020 16.558V8.225a2.5 2.5 0 00-2.5-2.5zM10 2.39a3.333 3.333 0 013.333 3.334H6.667A3.333 3.333 0 0110 2.39zm8.333 14.167a2.5 2.5 0 01-2.5 2.5H4.167a2.5 2.5 0 01-2.5-2.5V8.225A.833.833 0 012.5 7.39H5v1.667a.833.833 0 101.667 0V7.39h6.666v1.667a.833.833 0 101.667 0V7.39h2.5a.833.833 0 01.833.834v8.333z" fill="#A98056"/></svg>