<svg width="34" height="36" fill="none" xmlns="http://www.w3.org/2000/svg"><path d="M3.152 2.583a.43.43 0 00-.43.43v.862a.43.43 0 10.861 0v-.861a.43.43 0 00-.43-.43zm0-.861a.43.43 0 00.431-.43V.43a.43.43 0 10-.861 0v.86a.43.43 0 00.43.431zm1.724 0h-.861a.43.43 0 100 .861h.861a.43.43 0 100-.86zm-2.584 0h-.861a.43.43 0 100 .861h.861a.43.43 0 100-.86zm6.028.861a.43.43 0 100 .861.43.43 0 000-.86zM3.152 6.889a.43.43 0 100 .861.43.43 0 000-.861z" fill="#A98056"/><rect x="6.992" y="10" width="3" height="3" rx="1.5" fill="#A98056"/><rect x="14" y="13" width="3" height="3" rx="1.5" fill="#A98056"/><rect x="21" y="16" width="3" height="3" rx="1.5" fill="#A98056"/><rect x="18" y="23" width="3" height="3" rx="1.5" fill="#A98056"/><path d="M6.487 15.34l-3.386 5.227a2 2 0 00.612 2.78l15.2 9.586a2 2 0 002.759-.625l10.017-15.883a2 2 0 00-.625-2.759l-15.22-9.598a2 2 0 00-2.759.626l-2.11 3.354" stroke="#A98056" stroke-width="1.8" stroke-linecap="round"/></svg>