<svg width="38" height="37" fill="none" xmlns="http://www.w3.org/2000/svg"><path d="M32.481 7.757a.632.632 0 00.25.853l.012.006c.31.175.704.065.872-.249l.012-.023a.634.634 0 00-.277-.863l-.011-.006a.65.65 0 00-.858.282z" fill="#A98056" stroke="#A98056" stroke-width=".2"/><path d="M23.413 17.5c-.903-2.559-1.072-7.917 4.5-10.7m.586 12.7c10.87-2.363 8.858-12.32 6.775-17.204-.084-.196-.655-.21-.794-.05-.61.707-1.77 1.68-2.842 2.505-1.12.861-2.436 1.41-3.701 2.038a3.804 3.804 0 00-.024.012M20 14c-.833-1.333-1.887-5.2.913-8 1.785-1.784 2.445-3.122 2.604-3.987.04-.217.558-.528.73-.39 1.565 1.25 3.666 3.37 3.666 5.178m4 3.699c-1.166 1.95-4.5 6.114-8.5 7.174" stroke="#A98056" stroke-width="1.5" stroke-linecap="round"/><path d="M23.738 18.5c-2.282-5.03-8.602-7.888-13.632-5.606-5.029 2.282-7.256 8.209-4.974 13.238 2.282 5.03 8.21 7.256 13.238 4.974" stroke="#A98056" stroke-width="1.5"/><circle cx="24.238" cy="26" r="7.25" stroke="#A98056" stroke-width="1.5"/><circle cx="9.238" cy="20" r="1.25" stroke="#A98056" stroke-width="1.5"/><circle cx="27.738" cy="26.5" r="1" stroke="#A98056"/><path d="M11.18 2.23a.43.43 0 00-.41-.45l-.86-.04a.43.43 0 10-.04.86l.86.04a.43.43 0 00.45-.41zm.861.039a.43.43 0 00.41.45l.86.04a.43.43 0 10.04-.86l-.86-.04a.43.43 0 00-.45.41zm-.079 1.721l.04-.86a.43.43 0 10-.86-.04l-.04.86a.43.43 0 10.86.04zm.118-2.58l.04-.861a.43.43 0 10-.86-.04l-.04.86a.43.43 0 10.86.04zm-1.136 5.98a.43.43 0 10-.86-.039.43.43 0 00.86.04zM6.88 2.03a.43.43 0 10-.86-.039.43.43 0 00.86.04z" fill="#A98056"/></svg>