<svg width="30" height="35" fill="none" xmlns="http://www.w3.org/2000/svg"><path d="M24.598 2.583a.43.43 0 01.43.43v.862a.43.43 0 11-.861 0v-.861a.43.43 0 01.43-.43zm0-.861a.43.43 0 01-.431-.43V.43a.43.43 0 11.861 0v.86a.43.43 0 01-.43.431zm-1.724 0h.861a.43.43 0 110 .861h-.861a.43.43 0 110-.86zm2.584 0h.861a.43.43 0 110 .861h-.861a.43.43 0 110-.86zM19.43 7.583a.43.43 0 110 .861.43.43 0 010-.86zm3.775 11.324a.983.983 0 00.14 1.362.983.983 0 001.405-.121l.028-.036a.983.983 0 00-.177-1.38 1.01 1.01 0 00-1.396.175z" fill="#A98056"/><path d="M1 29.562c1.741.476 3.557.987 5.804.531m14.51-7.972c-2.927 4.555-9.254 6.906-14.51 7.972m0 0c7.546 8.756 19.154 1.09 21.476-6.335 1.588-5.077 0-13.585 0-14.406 0-1.266 1.7 3.64-11.28 6.648M6.804 30.093c-.332-1.111-.477-2.713-.111-4.489M17 16c-6.955 1.611-9.59 6.121-10.307 9.604M17 16c.929-2.786-4.972-13.138-4.972-11.291-.58 2.797-1.675 4.89-4.063 6.28C2.161 14.365.42 22.596 6.693 25.603" stroke="#A98056" stroke-width="1.6" stroke-linecap="round"/></svg>