<svg width="46" height="33" fill="none" xmlns="http://www.w3.org/2000/svg"><path d="M2.152 2.583a.43.43 0 00-.43.43v.862a.43.43 0 10.861 0v-.861a.43.43 0 00-.43-.43zm0-.861a.43.43 0 00.431-.43V.43a.43.43 0 10-.861 0v.86a.43.43 0 00.43.431zm1.724 0h-.861a.43.43 0 100 .861h.861a.43.43 0 100-.86zm-2.584 0H.431a.43.43 0 100 .861h.861a.43.43 0 100-.86zm6.028.861a.43.43 0 100 .861.43.43 0 000-.86zM2.152 6.889a.43.43 0 100 .861.43.43 0 000-.861zM43.18 27.23a.43.43 0 00-.41-.45l-.86-.04a.43.43 0 10-.04.86l.86.04a.43.43 0 00.45-.41zm.861.039a.43.43 0 00.41.45l.86.04a.43.43 0 10.04-.86l-.86-.04a.43.43 0 00-.45.41zm-.079 1.721l.04-.86a.43.43 0 10-.86-.04l-.04.86a.43.43 0 10.86.04zm.118-2.58l.04-.861a.43.43 0 10-.86-.04l-.04.86a.43.43 0 10.86.04zm-1.136 5.98a.43.43 0 10-.86-.04.43.43 0 00.86.04zm-4.064-5.36a.43.43 0 10-.86-.039.43.43 0 00.86.04zM29.25 8.974c.518 0 .938-.433.938-.967s-.42-.967-.938-.967-.938.433-.938.967.42.967.938.967zm1.254 4.512c.518 0 .937-.433.937-.967s-.42-.967-.937-.967c-.518 0-.938.433-.938.967s.42.966.938.966zm-3.126 3.867c.518 0 .937-.433.937-.967s-.42-.967-.937-.967c-.518 0-.938.433-.938.967s.42.967.938.967zm-1.876-4.513c.518 0 .938-.432.938-.966s-.42-.967-.938-.967-.938.433-.938.967.42.967.938.967z" fill="#A98056"/><path d="M4 12l15.367 5.453a.2.2 0 01.133.188v6.04c1.5 1.932 3.833 1.834 5 1v-5.113M4 12v5.75M4 12l9.917-3.5m10.583 11l5 1.5m0 0c4-3.334 9.6-11.6 0-18L21 6m8.5 15v5m0 6c2-.5 5.5-2.4 5.5-6l-.205-15M29.5 32L4 23.5v-5.75M29.5 32v-6M4 17.75l15 4.956M29.5 26L25 24.588" stroke="#A98056" stroke-width="1.6" stroke-linecap="round"/><circle cx="18" cy="8" r="3.2" stroke="#A98056" stroke-width="1.6"/><path d="M16 1c1.5.5 2 1.5 2 3.5" stroke="#A98056" stroke-width="1.6" stroke-linecap="round"/></svg>