<svg width="39" height="38" fill="none" xmlns="http://www.w3.org/2000/svg"><path d="M19.002 9.34l3.706-2.034 2.035 3.706M7.884 15.444l3.706-2.034 2.035 3.706m11.481 3.344l3.707-2.035 2.034 3.706m-16.859 4.433l3.707-2.035 2.034 3.706" stroke="#A98056" stroke-width="1.6" stroke-linecap="round"/><path d="M3.445 16.145a3 3 0 011.186-4.073l5.941-3.263a3 3 0 014.074 1.186l4.706 8.572-8.572 4.705a3 3 0 01-4.073-1.185l-3.262-5.942zM9.69 27.522a3 3 0 011.187-4.074l8.571-4.706 4.706 8.572a3 3 0 01-1.186 4.073l-5.942 3.262a3 3 0 01-4.073-1.186L9.69 27.522zm5.049-17.579a3 3 0 011.186-4.073l5.941-3.262a3 3 0 014.074 1.185l3.262 5.942a3 3 0 01-1.186 4.074l-8.571 4.705-4.706-8.57zm4.802 8.748l8.571-4.706a3 3 0 014.074 1.186l3.262 5.942a3 3 0 01-1.186 4.073l-5.942 3.262a3 3 0 01-4.073-1.186l-4.706-8.571z" stroke="#A98056" stroke-width="1.6"/><path d="M32.984 2.583a.43.43 0 00-.43.43v.862a.43.43 0 10.861 0v-.861a.43.43 0 00-.43-.43zm0-.861a.43.43 0 00.431-.43V.43a.43.43 0 10-.861 0v.86a.43.43 0 00.43.431zm1.724 0h-.861a.43.43 0 100 .861h.861a.43.43 0 100-.86zm-2.584 0h-.861a.43.43 0 100 .861h.861a.43.43 0 100-.86zm6.027 5.861a.43.43 0 100 .861.43.43 0 000-.86z" fill="#A98056"/></svg>