<svg width="16" height="16" fill="none" xmlns="http://www.w3.org/2000/svg"><path fill-rule="evenodd" clip-rule="evenodd" d="M16 1.875A1.877 1.877 0 0014.125 0H9.25C8.77 0 8.332.181 8 .479A1.867 1.867 0 006.75 0H1.875A1.877 1.877 0 000 1.875V6.75c0 .48.181.918.479 1.25C.181 8.332 0 8.77 0 9.25v4.875C0 15.159.841 16 1.875 16H6.75c.48 0 .918-.181 1.25-.479.332.298.77.479 1.25.479h4.875A1.877 1.877 0 0016 14.125V9.25c0-.48-.181-.918-.479-1.25.298-.332.479-.77.479-1.25V1.875zM14.125 14.75c.345 0 .625-.28.625-.625V9.25a.626.626 0 00-.625-.625H9.25a.626.626 0 00-.625.625v4.875c0 .345.28.625.625.625h4.875zM1.875 1.25a.626.626 0 00-.625.625V6.75c0 .345.28.625.625.625H6.75c.345 0 .625-.28.625-.625V1.875a.626.626 0 00-.625-.625H1.875zm0 13.5H6.75c.345 0 .625-.28.625-.625V9.25a.626.626 0 00-.625-.625H1.875a.626.626 0 00-.625.625v4.875c0 .345.28.625.625.625zm6.75-8c0 .345.28.625.625.625h4.875c.345 0 .625-.28.625-.625V1.875a.626.626 0 00-.625-.625H9.25a.626.626 0 00-.625.625V6.75z" fill="#A98056"/><path fill-rule="evenodd" clip-rule="evenodd" d="M3.125 2.5a.625.625 0 00-.625.625V5.5a.625.625 0 101.25 0V3.75H5.5a.625.625 0 100-1.25H3.125zm10.375 8a.625.625 0 00-.625-.625H10.5a.625.625 0 00-.625.625v2.375a.625.625 0 101.25 0v-1.75h1.75c.345 0 .625-.28.625-.625zm-.625-6.75a.625.625 0 100-1.25H10.5a.625.625 0 00-.625.625V5.5a.625.625 0 101.25 0V3.75h1.75zm-6.75 6.75c0 .345-.28.625-.625.625H3.75v1.75a.625.625 0 11-1.25 0V10.5c0-.345.28-.625.625-.625H5.5c.345 0 .625.28.625.625z" fill="#A98056"/></svg>