<svg width="218" height="174" fill="none" xmlns="http://www.w3.org/2000/svg"><g filter="url(#filter0_b)"><path d="M13 1C6.373 1 1 6.373 1 13v127c0 6.627 5.373 12 12 12h22v18.986L55.461 152H205c6.627 0 12-5.373 12-12V13c0-6.627-5.373-12-12-12H13z" fill="#FFF3F5" fill-opacity=".94"/><path d="M13 152.5h21.5v19.632l.84-.78L55.657 152.5H205c6.904 0 12.5-5.596 12.5-12.5V13c0-6.904-5.596-12.5-12.5-12.5H13C6.096.5.5 6.096.5 13v127c0 6.904 5.596 12.5 12.5 12.5z" stroke="#A77E56"/></g><defs><filter id="filter0_b" x="-8" y="-8" width="234" height="189.278" filterUnits="userSpaceOnUse" color-interpolation-filters="sRGB"><feFlood flood-opacity="0" result="BackgroundImageFix"/><feGaussianBlur in="BackgroundImage" stdDeviation="4"/><feComposite in2="SourceAlpha" operator="in" result="effect1_backgroundBlur"/><feBlend in="SourceGraphic" in2="effect1_backgroundBlur" result="shape"/></filter></defs></svg>