<svg width="54" height="44" fill="none" xmlns="http://www.w3.org/2000/svg"><path d="M42.959 42.776a1.28 1.28 0 112.449-.74 1.28 1.28 0 01-2.45.74zm6.761-9.74a.718.718 0 01-.718-.718v-1.435a.718.718 0 111.435 0v1.435a.718.718 0 01-.717.718zm0 1.435c.397 0 .718.322.718.718v1.436a.718.718 0 11-1.436 0v-1.436c0-.396.321-.718.718-.718zm2.875.001h-1.436a.718.718 0 110-1.436h1.436a.718.718 0 110 1.436zm-4.305 0h-1.436a.718.718 0 110-1.436h1.436a.718.718 0 110 1.436zM14.568 1.964a1.28 1.28 0 112.449-.74 1.28 1.28 0 01-2.45.74zM3.583 4.646a.718.718 0 01-.718-.718V2.492a.718.718 0 111.436 0v1.436a.718.718 0 01-.718.718zm0 1.435c.397 0 .718.321.718.718v1.435a.718.718 0 11-1.436 0V6.8c0-.397.321-.718.718-.718zm2.875.001H5.022a.718.718 0 110-1.436h1.436a.718.718 0 110 1.436zm-4.305 0H.718a.718.718 0 110-1.436h1.435a.718.718 0 110 1.436z" fill="#A98056"/><path d="M39.039 33.23v4.542a3.02 3.02 0 01-.983 2.243 3.036 3.036 0 01-2.323.784 30.053 30.053 0 01-13.09-4.647 29.545 29.545 0 01-9.1-9.082 29.918 29.918 0 01-4.656-13.124 3.022 3.022 0 011.796-3.041 3.04 3.04 0 011.223-.258h4.55a3.037 3.037 0 012.007.732 3.026 3.026 0 011.026 1.871 19.4 19.4 0 001.062 4.254 3.022 3.022 0 01-.683 3.193l-1.926 1.923a24.243 24.243 0 009.1 9.082l1.926-1.923a3.036 3.036 0 013.2-.68 19.51 19.51 0 004.262 1.059 3.023 3.023 0 012.609 3.073z" stroke="#A77E56" stroke-width="2" stroke-linecap="round" stroke-linejoin="round"/></svg>