<svg width="24" height="33" fill="none" xmlns="http://www.w3.org/2000/svg"><mask id="a" fill="#fff"><path fill-rule="evenodd" clip-rule="evenodd" d="M10.236 30.932c3.307-4.287 7.075-9.173 7.075-13.276a8.656 8.656 0 00-17.311 0c0 4.379 4.292 9.814 7.734 14.174.316.4.624.79.922 1.17.501-.669 1.035-1.36 1.58-2.068zM8.5 21a3.5 3.5 0 100-7 3.5 3.5 0 000 7z"/></mask><path d="M10.236 30.932L8.89 29.894l1.346 1.038zm-2.502.898l1.335-1.054-1.335 1.054zM8.656 33l-1.339 1.048 1.367 1.747 1.332-1.775L8.656 33zm6.955-15.344c0 1.579-.744 3.498-2.057 5.697-1.294 2.168-2.997 4.38-4.664 6.54l2.693 2.077c1.64-2.126 3.474-4.5 4.89-6.874 1.398-2.34 2.539-4.916 2.539-7.44h-3.4zM8.656 10.7a6.956 6.956 0 016.955 6.956h3.4c0-5.72-4.636-10.356-10.355-10.356v3.4zM1.7 17.656A6.956 6.956 0 018.656 10.7V7.3C2.936 7.3-1.7 11.936-1.7 17.656h3.4zm7.369 13.12c-1.734-2.196-3.602-4.565-5.044-6.915C2.558 21.468 1.7 19.354 1.7 17.656h-3.4c0 2.68 1.288 5.473 2.827 7.983 1.565 2.552 3.564 5.08 5.273 7.244l2.669-2.107zm.925 1.176l-.925-1.176L6.4 32.883c.316.4.622.788.917 1.165l2.678-2.096zM8.89 29.894c-.544.706-1.085 1.406-1.594 2.086l2.72 2.04c.493-.658 1.02-1.34 1.567-2.05L8.89 29.894zM10.3 17.5a1.8 1.8 0 01-1.8 1.8v3.4a5.2 5.2 0 005.2-5.2h-3.4zm-1.8-1.8a1.8 1.8 0 011.8 1.8h3.4a5.2 5.2 0 00-5.2-5.2v3.4zm-1.8 1.8a1.8 1.8 0 011.8-1.8v-3.4a5.2 5.2 0 00-5.2 5.2h3.4zm1.8 1.8a1.8 1.8 0 01-1.8-1.8H3.3a5.2 5.2 0 005.2 5.2v-3.4z" fill="#A98056" mask="url(#a)"/><path d="M18.664 3.733a.933.933 0 00.933-.933V.933a.933.933 0 10-1.867 0V2.8c0 .515.418.933.934.933zm0 1.867a.933.933 0 00-.934.933V8.4a.933.933 0 101.867 0V6.533a.933.933 0 00-.933-.933zm-3.731 0H16.8a.933.933 0 100-1.867h-1.867a.933.933 0 100 1.867zm5.598 0h1.867a.933.933 0 100-1.867H20.53a.933.933 0 100 1.867zM4.998 4.996a.998.998 0 100-1.996.998.998 0 000 1.996zm16 16a.998.998 0 100-1.996.998.998 0 000 1.996z" fill="#A98056"/></svg>