<svg width="46" height="61" fill="none" xmlns="http://www.w3.org/2000/svg"><path d="M24.754 22.537v10.185l7.76 7.76" stroke="#A98056" stroke-width="2" stroke-linecap="round" stroke-linejoin="round"/><circle cx="24.276" cy="32.722" r="16.944" stroke="#A98056" stroke-width="2"/><path d="M31.714 3.427a.856.856 0 01-.857-.857V.857a.856.856 0 111.713 0V2.57a.856.856 0 01-.856.857zm0 1.713c.473 0 .856.383.856.856V7.71a.856.856 0 11-1.713 0V5.996c0-.473.383-.856.857-.856zm3.437 0h-1.713a.856.856 0 110-1.713h1.713a.856.856 0 110 1.713zm-5.141 0h-1.713a.856.856 0 110-1.713h1.713a.856.856 0 110 1.713zm13.55 9.638a2.111 2.111 0 11.001-4.223 2.111 2.111 0 010 4.223zM2.596 49.85a1.527 1.527 0 11-1.192-2.81 1.527 1.527 0 011.192 2.81z" fill="#A98056"/><path d="M12.199 57.883a2.655 2.655 0 003.456 1.47 2.657 2.657 0 001.458-3.46 2.656 2.656 0 00-3.455-1.47 2.655 2.655 0 00-1.459 3.46z" stroke="#A77E56"/></svg>