<svg width="800" height="781" fill="none" xmlns="http://www.w3.org/2000/svg"><path opacity=".5" clip-rule="evenodd" d="M291.527 607.75c50.117 14.605 99.953 11.88 152.093 14.499 67.925 3.412 149.504 49.804 199.018 3.137 49.37-46.53 1.137-130.888 8.124-198.366 6.231-60.174 55.547-119.37 30.477-174.407-25.106-55.116-94.723-71.066-151.669-91.65-49.458-17.877-100.26-20.533-152.814-18.407-58.731 2.376-119.666-.338-169.141 31.431-55.833 35.852-102.512 89.243-118.922 153.541-17.049 66.802-11.629 143.847 28.778 199.669 38.43 53.093 111.138 62.216 174.056 80.553z" stroke="#A77E56"/></svg>