<svg width="158" height="202" fill="none" xmlns="http://www.w3.org/2000/svg"><path opacity=".5" clip-rule="evenodd" d="M35.394 71.942c8.62-11.473 21.942-17.06 34.58-23.904 14.48-7.842 27.939-20.555 44.377-18.855 17.117 1.77 33.448 12.907 42.07 27.795 8.121 14.024 1.99 31.123 1.397 47.263-.509 13.875.544 27.485-4.616 40.354-6.022 15.017-12.103 32.699-27.123 38.802-15.018 6.102-32.262-1.423-46.788-8.77-12.228-6.184-18.173-19.137-27.752-28.929-10.603-10.839-28.077-16.679-31.31-31.447-3.292-15.045 5.943-30.033 15.165-42.31z" stroke="#A77E56" stroke-width=".5"/></svg>