<svg width="23" height="26" fill="none" xmlns="http://www.w3.org/2000/svg"><path d="M9.727 10.676V15.5l3.675 3.676" stroke="#A98056" stroke-width="1.7" stroke-linecap="round" stroke-linejoin="round"/><circle cx="9.5" cy="15.5" r="7.65" stroke="#A98056" stroke-width="1.7"/><path d="M6.5 2a.5.5 0 00.5-.5v-1a.5.5 0 10-1 0v1a.5.5 0 00.5.5zm0 1a.5.5 0 00-.5.5v1a.5.5 0 101 0v-1a.5.5 0 00-.5-.5zm-2 0h1a.5.5 0 100-1h-1a.5.5 0 100 1zm3 0h1a.5.5 0 100-1h-1a.5.5 0 100 1zM.998 7.996A.998.998 0 10.998 6a.998.998 0 000 1.996zm18 18a.998.998 0 100-1.996.998.998 0 000 1.996z" fill="#A98056"/><path d="M22.5 19.5a1 1 0 11-2 0 1 1 0 012 0z" stroke="#A77E56"/></svg>