<svg width="399" height="383" fill="none" xmlns="http://www.w3.org/2000/svg"><path opacity=".5" clip-rule="evenodd" d="M174.623 2.733c38.482 3.517 70.121 26.018 103.673 45.196 38.44 21.971 86.606 34.773 105.947 74.615 20.138 41.483 17.696 94.338-4.241 134.899-20.664 38.208-68.524 48.264-106.356 69.59-32.524 18.334-62.231 39.856-99.023 46.182-42.931 7.381-92.057 18.369-127.277-7.275-35.217-25.643-42.344-75.502-46.038-118.92-3.11-36.548 18.175-68.291 27.08-103.873 9.856-39.386-1.458-87.402 27.822-115.516C86.04-1.011 133.45-1.031 174.623 2.733z" stroke="#A77E56"/></svg>