<svg width="207" height="207" fill="none" xmlns="http://www.w3.org/2000/svg"><path d="M40.81 67.03c-.01-.422.094-.925.313-1.51.114-.301.281-.629.503-.98.344-.547.762-1 1.255-1.36a4.466 4.466 0 013.406-.798 4.867 4.867 0 011.78.698c.895.563 1.533 1.241 1.914 2.035a4.05 4.05 0 01.352 2.295c-.096.748-.367 1.474-.81 2.178-.365.58-.769 1.042-1.212 1.388-.221.173-.414.3-.578.381l-.337-.611c.004.002.06-.019.17-.063.114-.05.25-.134.41-.248.16-.11.331-.25.512-.423a3.86 3.86 0 00.538-.683 3.934 3.934 0 00.586-1.59 3.288 3.288 0 00-.295-1.898c-.339-.715-.933-1.34-1.784-1.876a4.84 4.84 0 00-1.517-.64 4.177 4.177 0 00-1.522-.06 3.458 3.458 0 00-1.352.5c-.41.26-.747.598-1.014 1.014a4.123 4.123 0 00-.598 1.62 2.97 2.97 0 00-.038.537l.007.196-.688-.103zm-6.076 14.206c-.263.111-.43.227-.503.348l-.116-.077a1.91 1.91 0 01.125-.64c.15-.407.587-.712 1.313-.915.528-.152 1.263-.256 2.206-.31.55-.06 1.008-.201 1.375-.422.257-.159.457-.358.6-.596.048-.08.086-.155.113-.229l.03-.1c.08-.219.062-.514-.055-.885a3.647 3.647 0 00-.208-.472l.018.028-.61-1.146a33.352 33.352 0 00-1.687-.573 46.44 46.44 0 00-.839-.261l.423-1.147.812.334c.65.267 1.253.503 1.81.709l3.11 1.146a55.41 55.41 0 001.846.631c.175.05.455.138.84.26l-.4 1.081-5.117-1.885 2.59 4.875c.14.269.323.592.549.97.143.239.25.419.32.541l-.305.83a12.172 12.172 0 00-.462-.967 27.7 27.7 0 00-.437-.805l-1.867-3.507c.023.151.036.297.04.437-.003.22-.052.461-.148.722a1.604 1.604 0 01-.295.48c-.134.163-.3.312-.497.447-.472.316-1.048.5-1.728.555-.773.066-1.388.149-1.845.249a5.756 5.756 0 00-1.002.295zM31.522 95.12l6.11.798c.564.073 1.191.137 1.883.193l-7.262-6.591.148-1.135.864.159c.692.125 1.336.227 1.933.305l3.294.43a52.66 52.66 0 001.926.21l.875.076-.157 1.205c-.58-.11-1.163-.213-1.75-.307a58.035 58.035 0 00-1.03-.147l-5.065-.66 7.132 6.527.007.001-.158 1.212a73.852 73.852 0 00-2.776-.434l-3.3-.43a50.163 50.163 0 00-2.822-.276l.148-1.135zm-2.266 8.702l2.33-.219.027.285c.03.223.178.434.444.63.388.286.993.54 1.815.764 1.05.288 2.433.531 4.149.726a8.197 8.197 0 001.83.024 5.09 5.09 0 00.458-.062l.458 4.886a66.737 66.737 0 00-2.744.186l-3.255.305c-.246.024-.589.06-1.028.11l-.381.042c-.452.051-.792.096-1.019.135l.077.816-2.33.218-.047-.498.549-.065a8.311 8.311 0 001.165-.246 62.187 62.187 0 00-.227-3.459l-.06-.647a61.83 61.83 0 00-.217-1.957 37.883 37.883 0 00-.206-1.502c-.277-.031-.674-.033-1.189-.006l-.552.032-.047-.498zm10.837 5.968a14.779 14.779 0 00-.036-.93 25.025 25.025 0 00-.16-1.578l-.063-.386-.046-.283-.615-.008a13.418 13.418 0 01-.905-.045c-1.461-.129-2.702-.299-3.724-.512-.874-.188-1.542-.395-2.003-.622-.388-.185-.667-.381-.839-.587l.532 5.663.442-.022a40.89 40.89 0 001.997-.142l3.255-.306a65.17 65.17 0 001.222-.128l.69-.084.253-.03zm-3.789 17.495c-.138.249-.199.444-.181.584l-.14.011a1.624 1.624 0 01-.188-.309 1.86 1.86 0 01-.107-.273c-.133-.412.025-.922.472-1.53.322-.444.838-.978 1.549-1.601.395-.386.67-.778.824-1.178.105-.284.14-.564.107-.839a1.374 1.374 0 00-.053-.25l-.038-.097c-.071-.223-.267-.444-.588-.665a3.824 3.824 0 00-.453-.244l.03.011-1.185-.528a33.76 33.76 0 00-1.683.586 47.61 47.61 0 00-.822.311l-.372-1.164.846-.237a52.21 52.21 0 001.862-.555l3.158-1.01a55.503 55.503 0 001.843-.638c.17-.068.443-.171.822-.311l.35 1.096-5.193 1.662 5.04 2.25c.276.125.62.268 1.03.428.26.099.455.175.586.229l.27.842a12.08 12.08 0 00-.96-.478 26.436 26.436 0 00-.84-.366l-3.629-1.616c.111.105.211.212.3.32.134.176.243.395.328.66.051.16.072.347.063.559a2.365 2.365 0 01-.117.659c-.178.539-.518 1.039-1.021 1.501-.569.527-1.002.971-1.301 1.33-.27.323-.473.607-.608.85zm12.334 5.983l-3.965 5.134c-.475.607-.928 1.22-1.359 1.841l-.545.783-.682-1.175c.002.004.05-.047.145-.152l.54-.636.339-.4.593-.713a2.901 2.901 0 01-.083-.169 5.936 5.936 0 00-.16-.314 1.283 1.283 0 01-.069-.132 38.038 38.038 0 00-.51-.906l-.692-1.192a30.429 30.429 0 00-.462-.77 1.077 1.077 0 01-.077-.12l-.27-.414-.87.106c-.34.047-.601.079-.787.096-.258.03-.456.055-.595.075l-.295.036-.388-.669.183-.009 1.176-.096c.37-.029.933-.081 1.692-.155l.816-.083 5.924-.657.401.691zm-6.634.574c.11.216.217.412.32.588l.276.478.734 1.265c.418.72.677 1.153.778 1.3l3.355-4.292-5.463.661zm18.192 18.811c.086.394.081.787-.016 1.18-.094.396-.299.773-.613 1.131-.48.547-1.035.899-1.664 1.057a3.062 3.062 0 01-1.728-.091 4.214 4.214 0 01-1.502-.861 2.786 2.786 0 01-.844-1.295 1.887 1.887 0 01-.1-.477 1.562 1.562 0 01-.012-.193l.64-.06c-.009.188.005.367.04.537.042.169.108.346.2.53.092.185.23.358.416.521.225.198.49.359.796.483.306.125.623.19.952.197.366.004.722-.07 1.068-.221a2.77 2.77 0 00.98-.741c.265-.303.433-.614.5-.935.075-.321.073-.64-.006-.958a2.446 2.446 0 00-.359-.782 3.354 3.354 0 00-.557-.637 6.771 6.771 0 00-1.166-.79l2.543-2.914 3.272 2.874-.562.649c-.452-.444-1.09-1.047-1.913-1.811a85.572 85.572 0 00-.904-.803l-1.639 1.866c.18.083.36.184.54.301a3.88 3.88 0 011.202 1.212c.209.327.354.671.436 1.031zm11.187 6.101c.355-.188.83-.46 1.428-.816l.365-.212c.17-.098.427-.255.771-.469l.725.408c-.51.245-1.086.535-1.727.871-.398.204-.733.38-1.006.53l-4.232 2.238a39.238 39.238 0 00-2.543 1.501l-.731-.411c.628-.313 1.202-.605 1.721-.874.342-.176.675-.352.998-.529l4.231-2.237zm-4.422.043a3.357 3.357 0 01-.808-.619 2.272 2.272 0 01-.473-.764c-.214-.583-.143-1.192.213-1.827a2.42 2.42 0 01.646-.763c.255-.189.536-.313.841-.37.294-.053.6-.045.919.024.322.072.644.198.965.379.321.18.59.388.805.624.222.234.382.488.481.762.1.284.131.581.097.89-.034.308-.14.619-.316.933-.363.646-.858 1.024-1.486 1.133-.292.05-.6.041-.924-.027a3.5 3.5 0 01-.96-.375zm-.357-2.803c-.297.529-.377 1.021-.24 1.476.117.403.407.735.872.997.204.114.414.187.63.219.219.034.432.022.638-.036.45-.12.825-.446 1.125-.979.3-.542.378-1.037.237-1.484-.126-.404-.415-.733-.869-.988a1.868 1.868 0 00-.635-.223 1.442 1.442 0 00-.63.034c-.46.129-.836.457-1.128.984zm3.212 9.305a3.328 3.328 0 01-.808-.618 2.215 2.215 0 01-.47-.77c-.214-.583-.142-1.194.217-1.832.18-.321.395-.576.645-.764.256-.189.535-.31.838-.364.29-.055.594-.048.913.021.323.072.647.197.975.376.32.181.589.389.805.624.221.234.382.488.48.763.1.284.132.58.097.889a2.493 2.493 0 01-.322.945 2.402 2.402 0 01-.657.771c-.25.188-.526.309-.83.362a2.317 2.317 0 01-.923-.027 3.472 3.472 0 01-.96-.376zm-.353-2.808c-.3.533-.379 1.023-.237 1.47.06.203.164.388.313.557.153.17.34.317.558.44.204.115.414.188.63.22.22.033.432.021.639-.037.45-.119.825-.446 1.124-.978.295-.525.375-1.017.24-1.476-.124-.408-.416-.741-.877-1-.2-.112-.41-.185-.63-.219a1.502 1.502 0 00-.633.039c-.46.129-.836.457-1.127.984zm24.997 9.888c-.384.175-.887.277-1.51.304a5.503 5.503 0 01-1.1-.078 4.889 4.889 0 01-1.744-.621 4.47 4.47 0 01-2.07-2.821 4.863 4.863 0 01-.055-1.911c.167-1.044.541-1.897 1.121-2.559a4.07 4.07 0 011.974-1.224c.726-.204 1.5-.24 2.321-.108.676.108 1.26.298 1.752.57.246.136.438.264.577.383l-.43.549c0-.004-.04-.048-.124-.131a2.409 2.409 0 00-.39-.28 3.967 3.967 0 00-.59-.305 3.827 3.827 0 00-.838-.227 3.936 3.936 0 00-1.693.084 3.292 3.292 0 00-1.63 1.016c-.525.592-.867 1.384-1.027 2.376a4.846 4.846 0 00.006 1.647c.1.525.281 1 .542 1.423.262.424.592.773.991 1.048.4.275.842.453 1.33.536a4.133 4.133 0 001.725-.086c.225-.06.394-.119.508-.175l.178-.083.175.673zm15.451.019c.206.198.378.307.518.326l-.026.138a1.978 1.978 0 01-.637.136c-.433.022-.885-.262-1.357-.85-.347-.425-.73-1.061-1.15-1.908-.271-.481-.58-.847-.927-1.099a1.786 1.786 0 00-.784-.319 1.417 1.417 0 00-.254-.013l-.104.012c-.234.011-.498.144-.794.397-.132.124-.25.249-.352.376l.018-.027-.815 1.01c.031.619.076 1.211.135 1.777.036.384.066.676.089.874l-1.221.061-.011-.878a51.803 51.803 0 00-.058-1.943l-.165-3.311a56.053 56.053 0 00-.143-1.945 33.697 33.697 0 01-.089-.874l1.149-.058.272 5.447 3.469-4.293c.192-.235.418-.531.678-.887.162-.225.286-.394.372-.506l.883-.044c-.162.16-.398.427-.709.803-.2.244-.39.484-.569.718l-2.494 3.093c.13-.081.259-.15.386-.208.204-.084.445-.133.722-.147a1.58 1.58 0 01.557.083c.203.059.405.153.606.282.476.31.872.768 1.188 1.372.364.685.682 1.218.952 1.599.243.344.465.613.665.806zm14.032-2.489l-1.662-5.934a38.678 38.678 0 00-.561-1.807l-3.216 9.265-1.101.309-.193-.858a40.478 40.478 0 00-.478-1.897l-.896-3.199a51.888 51.888 0 00-.561-1.854l-.274-.835 1.17-.328c.126.577.261 1.154.404 1.73.113.436.203.771.268 1.005l1.379 4.919 3.209-9.121-.002-.006 1.177-.33a71.975 71.975 0 00.688 2.723l.899 3.205c.181.647.371 1.268.57 1.865.12.367.214.646.282.839l-1.102.309zm8.893-1.327l-1.115-2.058.252-.136c.194-.115.329-.333.406-.656.11-.469.107-1.125-.01-1.969-.146-1.079-.465-2.446-.958-4.101a8.25 8.25 0 00-.695-1.693 5.556 5.556 0 00-.237-.397l4.315-2.338a63.372 63.372 0 001.247 2.452l1.557 2.875c.118.217.286.518.504.902l.188.334c.225.396.399.691.524.885l.72-.39 1.115 2.057-.44.238-.275-.479a8.458 8.458 0 00-.684-.975c-.25.111-.681.32-1.294.627-.593.297-1.192.609-1.798.937l-.572.31a61.92 61.92 0 00-1.716.967c-.63.366-1.063.625-1.3.778.08.267.234.633.46 1.096l.246.495-.44.239zm1.241-12.309c-.267.116-.548.248-.842.397a27.37 27.37 0 00-1.388.767l-.33.209-.243.153.234.568c.087.205.191.489.313.851.455 1.395.785 2.603.989 3.626.171.879.242 1.575.214 2.087-.018.429-.089.763-.211 1.002l5.001-2.709-.194-.398a41.833 41.833 0 00-.913-1.782l-1.558-2.875a80.49 80.49 0 00-.597-1.074l-.348-.602-.127-.22zm17.58-3.375c.284.03.487.009.608-.062l.065.125a1.603 1.603 0 01-.21.293 1.863 1.863 0 01-.209.206c-.328.284-.859.339-1.592.165-.535-.122-1.229-.387-2.081-.796-.51-.213-.979-.311-1.407-.297a1.78 1.78 0 00-.814.231c-.08.047-.15.096-.209.147l-.074.072c-.177.153-.304.421-.381.802-.029.179-.044.35-.047.513l-.002-.032-.021 1.298c.405.468.805.908 1.199 1.317.265.281.468.492.608.635l-.924.799-.55-.686a53.921 53.921 0 00-1.241-1.496l-2.167-2.508a55.75 55.75 0 00-1.31-1.446c-.128-.129-.331-.34-.608-.634l.871-.752 3.565 4.126.094-5.518c.007-.304.003-.676-.011-1.116-.01-.278-.017-.487-.019-.628l.669-.578c-.028.225-.05.581-.064 1.069-.007.315-.01.621-.007.916l-.063 3.973c.053-.144.112-.278.176-.402.11-.192.269-.379.479-.56.128-.11.291-.203.49-.278.196-.077.414-.128.652-.15.565-.048 1.159.069 1.781.351.708.316 1.286.541 1.734.675.403.121.743.197 1.02.226zm.668-13.692l6.278 1.635c.744.199 1.486.375 2.226.528l.934.195-.814 1.088a1.323 1.323 0 00-.196-.074l-.797-.247-.501-.155-.888-.267a2.87 2.87 0 01-.124.143 6.019 6.019 0 00-.225.27c-.039.052-.071.09-.095.116-.215.272-.426.547-.633.825l-.826 1.103a29.379 29.379 0 00-.607.845l-.275.411.439.759c.176.293.308.522.397.686.128.226.229.398.302.518l.149.257-.464.619-.079-.165-.55-1.044c-.171-.328-.44-.827-.806-1.495l-.396-.718-2.927-5.192.478-.641zm3.129 5.878c.156-.186.294-.361.416-.524l.331-.443.876-1.171c.498-.666.795-1.074.891-1.224l-5.264-1.405 2.75 4.767zm10.172-24.111a2.55 2.55 0 011.092-.448c.401-.069.828-.029 1.281.12.691.228 1.233.6 1.624 1.116.345.461.543 1.003.594 1.626a4.213 4.213 0 01-.203 1.719c-.17.515-.456.943-.861 1.284a1.908 1.908 0 01-.399.279 1.752 1.752 0 01-.173.087l-.306-.566c.176-.065.336-.147.478-.246.139-.105.276-.236.409-.393.134-.156.24-.352.317-.587a2.805 2.805 0 00-.061-1.874 2.572 2.572 0 00-.622-.896 2.769 2.769 0 00-1.065-.61c-.383-.126-.735-.158-1.057-.095a2.014 2.014 0 00-.878.382 2.43 2.43 0 00-.58.637 3.413 3.413 0 00-.367.762c-.043.132-.1.359-.17.683a7.259 7.259 0 00-.1.699l-3.677-1.196 1.361-4.137.817.262c-.231.59-.536 1.413-.916 2.47-.085.246-.213.628-.384 1.146l2.359.777c.006-.199.028-.404.065-.615a3.896 3.896 0 01.644-1.581c.219-.32.479-.589.778-.805zm1.226-12.684a36.3 36.3 0 00-1.311-.993l-.338-.253a35.29 35.29 0 00-.734-.525l.091-.827c.425.374.918.789 1.478 1.247.344.286.638.526.883.718l3.717 3.016a40.836 40.836 0 002.379 1.751l-.092.834c-.534-.456-1.027-.869-1.479-1.241a44.376 44.376 0 00-.877-.711l-3.717-3.016zm1.773 4.052a3.34 3.34 0 01-.252.986 2.282 2.282 0 01-.518.735c-.452.425-1.04.599-1.764.519a2.42 2.42 0 01-.955-.294 2.01 2.01 0 01-.67-.629 2.311 2.311 0 01-.338-.854 3.528 3.528 0 01-.031-1.037c.04-.366.127-.694.259-.985.128-.295.299-.543.512-.742a2 2 0 01.781-.437c.297-.09.625-.115.982-.076.737.081 1.279.389 1.625.923.161.249.273.536.338.861.061.321.071.664.031 1.03zm-2.438 1.427c.603.066 1.087-.053 1.451-.358.326-.265.517-.662.575-1.192a1.798 1.798 0 00-.045-.666 1.481 1.481 0 00-.283-.573c-.287-.367-.734-.584-1.342-.651-.616-.063-1.102.058-1.458.364-.322.274-.512.67-.568 1.187-.026.232-.011.456.044.671.051.211.144.4.278.567.299.373.748.59 1.348.651zm7.3-6.603a3.37 3.37 0 01-.251.986 2.22 2.22 0 01-.525.734c-.452.425-1.042.598-1.77.519a2.414 2.414 0 01-.955-.294 1.963 1.963 0 01-.664-.629 2.25 2.25 0 01-.339-.848 3.737 3.737 0 01-.036-1.043c.04-.366.126-.695.258-.986.128-.295.299-.542.513-.741.223-.203.483-.348.78-.438.298-.089.63-.114.996-.074.37.041.693.141.967.302.271.156.49.363.658.621.164.249.277.536.337.861.061.321.071.664.031 1.03zm-2.444 1.426c.607.067 1.089-.053 1.445-.358a1.47 1.47 0 00.389-.507 2.15 2.15 0 00.186-.686c.025-.232.01-.454-.045-.665a1.487 1.487 0 00-.284-.574c-.286-.367-.734-.584-1.341-.65-.599-.066-1.083.053-1.451.357-.327.274-.519.674-.576 1.199-.025.229-.01.451.045.666.055.211.15.4.284.567.299.373.748.59 1.348.651zm-.706-26.873c.312.284.603.708.872 1.27.14.292.26.64.36 1.043.156.626.193 1.242.112 1.848a4.474 4.474 0 01-1.783 3.009 4.872 4.872 0 01-1.737.8c-1.026.256-1.957.246-2.793-.028a4.058 4.058 0 01-1.9-1.335c-.472-.588-.809-1.286-1.01-2.093-.165-.665-.219-1.276-.162-1.835.029-.28.07-.507.125-.681l.675.18a1.055 1.055 0 00-.073.165 2.494 2.494 0 00-.105.468 4.043 4.043 0 00-.049.663c.005.27.045.558.12.86a3.95 3.95 0 00.741 1.524c.422.53.947.897 1.574 1.102.75.251 1.613.255 2.589.012a4.847 4.847 0 001.512-.65 4.17 4.17 0 001.097-1.058 3.46 3.46 0 00.575-1.322 3.287 3.287 0 00-.028-1.433 4.134 4.134 0 00-.755-1.553 2.945 2.945 0 00-.361-.4l-.147-.13.551-.426zm-6.04-14.222c.101-.266.134-.467.096-.603l.137-.031c.081.077.157.17.23.279.048.068.096.153.145.254.19.39.107.917-.249 1.582-.256.485-.69 1.087-1.305 1.805-.336.439-.552.867-.647 1.284-.064.296-.059.578.014.846.024.09.053.17.087.24l.052.09c.102.21.328.402.677.575.165.073.327.132.483.176l-.032-.006 1.249.354a32.994 32.994 0 001.582-.82c.339-.185.596-.326.769-.425l.535 1.099-.804.354a53.42 53.42 0 00-1.764.816l-2.981 1.45c-.433.21-1.01.508-1.734.894-.158.091-.414.233-.769.425l-.503-1.035 4.904-2.386-5.31-1.508a21.067 21.067 0 00-1.081-.276 28.287 28.287 0 01-.612-.143l-.387-.795c.211.086.55.198 1.017.337.303.088.598.169.884.242l3.823 1.082a3.55 3.55 0 01-.343-.274 2.178 2.178 0 01-.418-.607 1.602 1.602 0 01-.142-.545 2.37 2.37 0 01.021-.668c.099-.56.365-1.103.797-1.631.487-.604.853-1.104 1.098-1.503.221-.358.381-.667.481-.928zm-7.793-11.932l-4.806 3.856c-.443.356-.924.764-1.443 1.225l9.784-.675.716.892-.713.514c-.569.412-1.089.807-1.558 1.184l-2.591 2.078c-.46.37-.955.783-1.487 1.243l-.66.58-.76-.948c.481-.342.959-.692 1.433-1.05.357-.275.63-.489.819-.64l3.985-3.198-9.649.625-.005.004-.765-.953a70.775 70.775 0 002.235-1.702l2.596-2.082c.524-.42 1.021-.84 1.493-1.256.289-.255.51-.451.661-.589l.715.892zm-4.707-7.66l-1.456 1.832-.224-.178c-.181-.133-.436-.172-.762-.116-.475.082-1.078.343-1.808.78-.935.558-2.068 1.388-3.397 2.49a8.23 8.23 0 00-1.285 1.304 5.35 5.35 0 00-.272.374l-3.842-3.053a65.385 65.385 0 001.766-2.108l2.034-2.56c.154-.194.364-.466.633-.818l.233-.304a19.7 19.7 0 00.608-.828l-.641-.51 1.456-1.832.392.311-.334.441c-.271.383-.48.72-.629 1.011.2.187.562.502 1.084.945.506.429 1.029.858 1.568 1.287l.509.404c.495.393 1.016.793 1.562 1.2.584.435.993.733 1.227.89.213-.178.489-.462.827-.853l.359-.42.392.311zm-11.81 3.685c.211.2.443.407.696.619a25.932 25.932 0 001.249.976l.322.222.236.163.431-.438c.154-.16.374-.367.66-.622 1.104-.965 2.087-1.742 2.948-2.331.741-.502 1.353-.84 1.836-1.016.402-.15.737-.217 1.004-.198l-4.453-3.538-.29.334a40.252 40.252 0 00-1.281 1.54l-2.034 2.56c-.197.247-.448.57-.754.97l-.417.556-.153.203zm-9.998-14.849c-.083-.273-.182-.451-.295-.535l.089-.109c.111.011.228.037.353.079.08.024.17.061.271.11.389.191.648.658.776 1.401.098.54.126 1.282.083 2.226.005.553.098 1.023.279 1.41.133.273.31.492.532.66.074.055.146.1.216.134l.097.04c.21.103.505.115.887.036.176-.044.339-.097.489-.158l-.028.015 1.202-.49c.272-.557.52-1.097.742-1.62.154-.354.269-.623.345-.808l1.098.537-.415.774a52.85 52.85 0 00-.89 1.729l-1.458 2.977a57.227 57.227 0 00-.816 1.771c-.068.17-.183.439-.345.809l-1.033-.506 2.397-4.898-5.113 2.077a20.7 20.7 0 00-1.022.448c-.251.118-.441.206-.571.264l-.794-.39c.219-.061.555-.181 1.009-.36.293-.116.575-.234.846-.352l3.679-1.5a3.642 3.642 0 01-.439-.004 2.177 2.177 0 01-.702-.221 1.606 1.606 0 01-.448-.342 2.35 2.35 0 01-.394-.54c-.266-.502-.391-1.094-.376-1.777.013-.775-.006-1.395-.059-1.86a5.715 5.715 0 00-.192-1.027zm-12.857 4.753l-.958-6.415a40.573 40.573 0 00-.387-2.255l-.187-.936 1.32.322a1.378 1.378 0 00.009.21l.085.83.054.522.103.921c.025.006.085.026.18.057.09.032.203.066.336.103.063.015.111.029.144.041.335.09.67.177 1.007.26l1.339.326c.295.072.586.138.875.2.034.004.081.013.14.027l.486.092.526-.702c.201-.276.36-.487.475-.633.158-.207.277-.367.359-.481l.178-.238.751.183-.12.138-.745.916a95.01 95.01 0 00-1.06 1.327l-.505.646-3.629 4.729-.776-.19zm4.18-5.182a12.27 12.27 0 00-.646-.178l-.536-.13-1.421-.347a32.293 32.293 0 00-1.476-.34l.772 5.394 3.307-4.4zm-26.168.096a2.554 2.554 0 01-.84-.828c-.221-.343-.352-.751-.392-1.226-.062-.726.068-1.37.39-1.932a3.059 3.059 0 011.262-1.184 4.212 4.212 0 011.661-.487c.54-.046 1.046.05 1.519.288.181.09.32.175.413.259.098.078.147.12.148.124l-.4.504a2.1 2.1 0 00-.415-.343 2.583 2.583 0 00-.521-.223 1.722 1.722 0 00-.664-.061 2.785 2.785 0 00-.9.24 2.64 2.64 0 00-.8.55 2.57 2.57 0 00-.581.924c-.135.36-.183.766-.144 1.22.034.4.143.737.327 1.009.18.276.412.495.696.658.246.14.518.234.813.283.291.049.573.062.845.039a7.074 7.074 0 001.377-.293l.342 3.852-4.34.37-.079-.855c.634-.02 1.51-.061 2.632-.126.259-.018.66-.05 1.205-.096l-.211-2.474a4.251 4.251 0 01-.591.18 3.897 3.897 0 01-1.707.028 3.245 3.245 0 01-1.045-.4zm-12.149 3.846c-.11.387-.243.918-.4 1.595l-.1.41c-.047.191-.112.485-.195.881l-.797.241c.177-.537.366-1.154.568-1.849.128-.428.233-.792.314-1.093l1.317-4.602a39.747 39.747 0 00.678-2.875l.803-.243c-.21.67-.396 1.286-.562 1.848-.11.368-.213.73-.31 1.085l-1.316 4.602zm3.032-3.22a3.349 3.349 0 011.006-.155c.32.008.612.07.879.19.569.248.959.721 1.17 1.418.106.353.14.684.103.994a2.02 2.02 0 01-.316.863 2.315 2.315 0 01-.653.646 3.544 3.544 0 01-.942.434 3.214 3.214 0 01-1.007.15 2.188 2.188 0 01-.884-.182 2.001 2.001 0 01-.708-.546 2.46 2.46 0 01-.455-.874c-.215-.71-.144-1.328.212-1.857.166-.245.386-.461.66-.648a3.48 3.48 0 01.935-.433zm2.269 1.684c-.176-.58-.476-.979-.899-1.195-.371-.195-.812-.216-1.322-.062a1.82 1.82 0 00-.595.303 1.494 1.494 0 00-.416.486c-.225.407-.25.904-.072 1.488.183.592.485.992.906 1.2.378.189.817.208 1.314.057.224-.068.424-.17.6-.304.175-.13.312-.289.413-.478.226-.422.25-.92.07-1.495zm-8.937-4.127a3.347 3.347 0 011.006-.155c.319.007.612.072.88.195.57.249.96.724 1.172 1.425.107.352.141.684.104.994a1.97 1.97 0 01-.318.857c-.16.247-.376.462-.647.644a3.7 3.7 0 01-.946.442 3.215 3.215 0 01-1.008.149 2.188 2.188 0 01-.883-.18 2.001 2.001 0 01-.709-.547 2.494 2.494 0 01-.458-.887 2.41 2.41 0 01-.102-1.008c.038-.31.142-.593.314-.849.165-.249.384-.465.66-.648.27-.181.582-.325.935-.432zm2.27 1.69c-.177-.585-.476-.982-.896-1.19a1.457 1.457 0 00-.619-.158 2.166 2.166 0 00-.704.097 1.82 1.82 0 00-.594.302 1.496 1.496 0 00-.417.486c-.225.408-.249.904-.072 1.49.174.576.474.974.898 1.194.38.193.823.213 1.329.06.22-.067.418-.167.594-.302.173-.134.31-.295.41-.484.226-.422.25-.92.071-1.495z" fill="#A98056"/></svg>