<svg width="484" height="484" fill="none" xmlns="http://www.w3.org/2000/svg"><path opacity=".5" clip-rule="evenodd" d="M215.635 47.157c35.298 4.066 66.494 20.812 100.372 34.304 44.133 17.577 106.71 7.541 127.755 56.55 20.983 48.865-28.901 96.719-39.714 148.475-9.642 46.154 8.44 104.33-20.021 137.443-28.503 33.161-76.553 24.317-117.565 22.633-35.618-1.463-68.649-14.532-101.717-31.64-36.954-19.119-76.466-35.142-100.858-73.169-27.526-42.912-45.24-96.034-41.162-148.235 4.238-54.234 25.136-109.365 63.566-138.521 36.55-27.731 85.028-12.946 129.344-7.84z" stroke="#A77E56"/></svg>