<svg width="220" height="220" fill="none" xmlns="http://www.w3.org/2000/svg"><path d="M190.996 102.489c-.415.919-1.085 1.392-2.01 1.417a2.526 2.526 0 01-1.154-.227 2.393 2.393 0 01-1.065-.983c-.317-.54-.488-1.223-.51-2.048a9.51 9.51 0 01.016-.824c.017-.303.021-.64.011-1.012l-.021-.765 1.816.028c.45-.004.796-.009 1.038-.016l3.006-.083a69.543 69.543 0 001.866-.077c.177-.01.369-.019.576-.029.208-.01.422-.018.642-.024l.141 5.106-.681.019c.043-.957.066-1.843.07-2.661.006-.38.003-.83-.012-1.348a57.929 57.929 0 00-2.23.023l-1.134.03c.027.346.042.6.047.765.031 1.118-.106 2.022-.412 2.709zm-3.618-.212c.379.405.918.598 1.618.578.613-.017 1.084-.272 1.412-.765.258-.388.418-.913.482-1.576.027-.26.037-.54.029-.838a9.753 9.753 0 00-.044-.647l-4.044.112c.007.241.003.507-.01.798-.019.26-.026.48-.021.662.02.73.213 1.289.578 1.676zm4.97 5.934c.472.051 1.117.104 1.932.16l.869.046-.546 5.151-.671-.071c.118-.7.24-1.522.366-2.465l.193-1.576-3.417-.363a144.2 144.2 0 00-.313 3.631l-.664-.07c.053-.416.094-.727.125-.932l.023-.161.149-1.151.164-1.371-3.889-.393a74.154 74.154 0 00-.228 2.825l-.074 1.256-.664-.07.548-5.17a132.3 132.3 0 001.753.251c.437.055.781.096 1.03.122l3.314.351zm-8.474 14.841c-.142-.396-.2-.905-.174-1.526.014-.322.071-.684.171-1.087a4.88 4.88 0 01.767-1.68 4.453 4.453 0 012.978-1.815 4.853 4.853 0 011.905.107c1.023.256 1.838.7 2.447 1.332a4.059 4.059 0 011.048 2.066c.141.739.111 1.511-.09 2.316-.166.663-.404 1.227-.716 1.692-.157.233-.3.413-.429.541l-.51-.474c.004.001.051-.037.141-.112.093-.084.196-.205.312-.363.118-.154.236-.34.353-.56.123-.241.221-.513.297-.815a3.93 3.93 0 00.06-1.689 3.281 3.281 0 00-.87-1.707c-.543-.572-1.301-.979-2.274-1.222a4.824 4.824 0 00-1.637-.134 4.136 4.136 0 00-1.46.417 3.44 3.44 0 00-1.126.895 3.267 3.267 0 00-.645 1.276 4.096 4.096 0 00.068 2.242l.068.184-.684.116zm-1.999 11.621a39.02 39.02 0 00-1.813-.724l-.359-.133-.466-.163.448-1.049 5.647 2.409c.214.091.506.211.875.359l.331.134.514.198.413.155c.08-.186.15-.345.21-.474l.573-1.278.26-.608c.147-.346.363-.862.647-1.549l.293-.721c.059-.149.13-.323.215-.521l-5.175-2.209a40.536 40.536 0 00-1.795-.716 58.878 58.878 0 00-.823-.302l.476-1.115c.448.215.984.468 1.608.757.402.181.716.32.943.416l3.047 1.3c.533.228 1.136.466 1.809.716l.829.304-.651 1.527.006.002-1.038 2.433-.305.715-.283.662c-.063.138-.147.33-.253.576l-.198.465-.387.907c-.444-.214-.978-.465-1.602-.754-.41-.185-.726-.324-.949-.419l-3.047-1.3zm.022 6.935a23.272 23.272 0 001.79 1.341c.071-.119.17-.278.299-.478.142-.238.239-.396.29-.476.072-.129.124-.218.157-.269l.442.283-3.83 5.969c-.396-.279-.879-.615-1.449-1.006-.374-.25-.662-.441-.866-.571l-2.805-1.8a40.473 40.473 0 00-1.655-1.009 44.64 44.64 0 00-.762-.434l.596-.928 5.172 3.319c.284.182.65.412 1.098.69l.638.386.2.12c.045-.069.09-.135.135-.198.094-.145.171-.262.233-.351l.305-.451c.143-.222.252-.388.328-.499.292-.439.489-.739.592-.899.126-.196.225-.346.296-.449.065-.102.162-.261.29-.476l-.173-.127a38.486 38.486 0 01-1.791-1.349c-1.409-1.135-2.442-2.15-3.1-3.044-.529-.72-.807-1.34-.833-1.86a1.218 1.218 0 01.18-.747c.032-.051.081-.112.147-.183a.83.83 0 01.252-.2l.13-.071.368.267-.107.047a.683.683 0 00-.285.264 1.048 1.048 0 00-.092.18c-.109.274-.039.665.209 1.174.285.573.885 1.314 1.8 2.225a29.442 29.442 0 001.801 1.61zm-6.948 13.865l-6.089-2.186a39.556 39.556 0 00-2.165-.725l-.91-.277.906-1.008c-.003.003.06.034.189.091l.769.317.484.199.858.345c.018-.02.063-.063.136-.132.07-.065.152-.147.248-.247.043-.048.078-.084.105-.107.237-.251.471-.505.702-.762l.919-1.023c.202-.225.398-.449.588-.674.02-.028.05-.065.091-.11l.31-.384-.368-.793a18.659 18.659 0 01-.332-.717 28.338 28.338 0 00-.254-.542l-.125-.268.516-.574.064.171.453 1.087c.14.341.363.86.666 1.557l.329.749 2.443 5.42-.533.593zm-2.581-6.119c-.172.171-.325.332-.461.483l-.368.41-.975 1.085c-.555.617-.886.996-.995 1.137l5.103 1.866-2.304-4.981zm-5.17 12.906a54.618 54.618 0 002.067-1.924l.423.508-5.097 4.243-.423-.508c.337-.224.803-.562 1.4-1.014.28-.204.565-.425.857-.663l-3.608-4.334a51.178 51.178 0 00-1.261-1.464l-.586-.643.887-.738c.296.389.657.856 1.083 1.401.275.345.492.611.649.801l3.609 4.335zm-16.173 4.356a39.262 39.262 0 00-1.048-1.646c-.214-.32-.378-.562-.492-.725l.943-.571 2.265 3.744.181-.101c.129-.079.237-.142.325-.189l.925-.537 1.007-.602c.326-.197.734-.449 1.225-.756l.352-.22.559-.354.279-.176-.812-1.343a39.487 39.487 0 00-1.042-1.635c-.213-.32-.376-.56-.488-.72l1.004-.607c.079.139.22.393.422.76.34.613.663 1.172.97 1.679l1.714 2.835c.249.41.597.957 1.046 1.64.105.149.269.391.491.726l-.943.57-2.05-3.389a1.13 1.13 0 00-.147.081l-.153.085c-.416.232-.857.488-1.323.77a56.04 56.04 0 00-.841.501l-.477.289a59.99 59.99 0 00-.992.615c-.262.158-.513.315-.753.47-.1.061-.158.098-.174.113l.611 1.01c.243.403.59.946 1.038 1.629l.489.72-1.01.611c-.232-.426-.518-.94-.857-1.543-.225-.389-.4-.687-.526-.894l-1.718-2.84zm-4.275 4.526c-.22.104-.466.209-.74.316-1.023.398-1.908.568-2.654.51-.482-.035-.894-.171-1.237-.409-.345-.232-.603-.567-.774-1.006a2.573 2.573 0 01-.177-1.169c.046-.491.234-.936.566-1.334.396-.474.982-.862 1.759-1.164.226-.088.487-.175.782-.263.291-.085.61-.195.956-.33l.713-.277.584 1.713c.158.43.28.756.366.978l1.091 2.803a64.445 64.445 0 00.701 1.731l.221.533c.08.191.159.39.239.595l-1.045.407a54.535 54.535 0 00-.94-2.577l-.411-1.057zm-5.042 3.311c.21.54.444 1.107.704 1.702l.318.711-1.088.423c-.13-.394-.305-.904-.524-1.528a50.317 50.317 0 00-.353-.941l-1.279-3.287a52.785 52.785 0 00-.736-1.786l-.352-.795 1.088-.423c.157.462.351 1.02.581 1.672.152.414.273.736.362.966l1.279 3.286zm2.013-7.072c-.681.265-1.142.635-1.384 1.109-.253.493-.253 1.066.001 1.718.222.572.621.93 1.196 1.072.451.112 1 .086 1.646-.077.255-.062.521-.147.798-.255a9.4 9.4 0 00.595-.259l-1.467-3.77a7.907 7.907 0 01-.757.253c-.278.085-.487.155-.628.209zm-15.928 4.098l1.21 6.025c.112.555.252 1.168.422 1.839l3.892-8.973 1.118-.225.128.867a40.2 40.2 0 00.333 1.923l.653 3.248c.115.577.255 1.205.418 1.887l.21.85-1.188.239a62.884 62.884 0 00-.272-1.751c-.08-.442-.144-.782-.192-1.019l-1.003-4.996-3.873 8.831.001.007-1.195.24a76.07 76.07 0 00-.481-2.76l-.654-3.254a40.374 40.374 0 00-.427-1.898 64.263 64.263 0 00-.218-.856l1.118-.224zm5.876 10.226a.948.948 0 00-.132-.324.852.852 0 00-.253-.24 1.035 1.035 0 00-.787-.133c-.347.07-.585.214-.713.434-.101.175-.141.396-.118.665l-.438.055a1.778 1.778 0 01-.009-.573 1.302 1.302 0 01.575-.923 1.54 1.54 0 01.581-.235c.432-.087.808-.015 1.128.216.145.108.268.242.371.402.099.165.171.345.214.539l-.419.117zm-21.6-4.961c-.89-.477-1.316-1.177-1.279-2.101.017-.419.119-.798.305-1.137a2.39 2.39 0 011.052-.996c.561-.28 1.253-.404 2.078-.371.242.01.516.034.821.072a12 12 0 001.009.079l.764.031-.15 1.81c-.026.449-.044.794-.054 1.036l-.12 3.006a68.787 68.787 0 00-.049 1.866l-.01.577c-.004.208-.01.422-.019.642l-5.104-.204.027-.68c.951.107 1.835.19 2.65.249.379.032.828.059 1.346.079a55.402 55.402 0 00.128-2.226l.045-1.134c-.346.003-.601.002-.765-.005-1.119-.044-2.01-.242-2.675-.593zm.455-3.596c-.429.351-.658.876-.686 1.575-.025.614.198 1.1.668 1.461.37.283.883.478 1.54.587.258.045.536.073.834.085.181.007.398.007.649 0l.161-4.042c-.242-.01-.507-.031-.795-.064a6.81 6.81 0 00-.659-.065c-.73-.03-1.301.125-1.712.463zm-11.102 6.741a5.165 5.165 0 01-1.777-.701 4.382 4.382 0 01-1.299-1.234 4.281 4.281 0 01-.682-1.671 5.01 5.01 0 01.03-1.952c.144-.72.4-1.341.765-1.863a4.1 4.1 0 011.332-1.233 4.522 4.522 0 011.663-.571 5.567 5.567 0 011.851.068c.665.134 1.26.364 1.785.691.525.33.956.736 1.296 1.219.346.489.58 1.038.699 1.649a5.08 5.08 0 01-.035 1.95c-.188.932-.576 1.711-1.165 2.338a4.384 4.384 0 01-2.032 1.224 5.061 5.061 0 01-2.431.086zm.135-.541c.25.05.52.067.81.05a3.85 3.85 0 002.572-1.181c.547-.569.908-1.29 1.084-2.163a4.912 4.912 0 00.062-1.621 3.934 3.934 0 00-.474-1.424 3.483 3.483 0 00-.985-1.118 3.72 3.72 0 00-1.443-.621 3.557 3.557 0 00-1.682.078 3.68 3.68 0 00-1.696 1.001c-.545.56-.908 1.294-1.09 2.201a4.856 4.856 0 00-.061 1.614c.07.53.226 1.011.47 1.444.249.447.582.82.997 1.12.411.303.89.51 1.436.62zm-14.729-10.66c.25-.639.475-1.25.67-1.832.126-.365.218-.642.279-.832l1.025.403-1.6 4.073.19.082c.142.055.258.103.349.144l.988.409 1.09.435c.354.139.802.311 1.344.514l.388.146.62.23.31.115.574-1.46c.249-.632.47-1.239.667-1.821.125-.364.217-.639.276-.825l1.092.429c-.063.147-.179.413-.348.797a51.86 51.86 0 00-.745 1.789l-1.212 3.084a54.83 54.83 0 00-.669 1.826 35.44 35.44 0 01-.278.832l-1.025-.404 1.448-3.686a1.17 1.17 0 00-.154-.068l-.16-.07c-.437-.19-.909-.384-1.415-.584a66.792 66.792 0 00-.91-.364l-.518-.203a61.797 61.797 0 00-1.09-.415 29.269 29.269 0 00-.832-.313 1.71 1.71 0 00-.196-.07l-.431 1.098a56.096 56.096 0 00-.664 1.815l-.276.825-1.098-.431c.197-.443.432-.982.705-1.618.173-.415.303-.735.392-.96l1.213-3.09zm-7.418-2.249c.212-.362.529-.915.952-1.659a70.7 70.7 0 00.827-1.484l.254-.475c.064-.118.094-.178.09-.18l.969.565-.155.239c-.23.352-.54.851-.932 1.498-.132.218-.328.549-.587.994l-.525.902.071 2.247c.022.633.064 1.437.125 2.413l.016.167c.021.358.04.614.055.768l-1.232-.718a.972.972 0 00.016-.208c.01-.465.013-.903.008-1.316l-.007-2.022v-.346c-.003-.391-.005-.64-.008-.747l-.649.327-.321.166-1.867.938-.736.374-.183.096c-.154.075-.258.13-.313.163a.93.93 0 00-.18.105l-.718-.418.123-.056.209-.088a1.399 1.399 0 01.132-.059l.508-.229c.377-.166.83-.377 1.36-.633l.752-.365 1.947-.959zm-8.718-10.992c.42.034.907.191 1.463.471.287.145.594.346.92.603.504.4.91.863 1.214 1.391a4.451 4.451 0 01.427 3.462 4.862 4.862 0 01-.882 1.691c-.655.827-1.395 1.387-2.223 1.681a4.05 4.05 0 01-2.314.103c-.73-.176-1.422-.521-2.073-1.036-.535-.423-.95-.873-1.246-1.35a3.528 3.528 0 01-.317-.613l.643-.269a1.26 1.26 0 00.043.175c.039.118.106.263.203.433a4 4 0 00.365.553c.169.211.375.413.62.606.464.367.969.617 1.513.751.656.16 1.294.13 1.914-.09.745-.259 1.429-.782 2.051-1.569a4.8 4.8 0 00.797-1.436 4.161 4.161 0 00.221-1.502 3.453 3.453 0 00-.352-1.395 3.277 3.277 0 00-.896-1.113 4.106 4.106 0 00-2.071-.862l-.196-.014.176-.671zm-12.879-7.801c-.223-.984.026-1.765.749-2.342a2.53 2.53 0 011.058-.515 2.383 2.383 0 011.441.142c.58.239 1.127.681 1.643 1.326.15.189.312.411.484.667.168.252.369.524.601.814l.478.597-1.466 1.074a53.9 53.9 0 00-.818.638l-2.348 1.879a67.35 67.35 0 00-1.442 1.187l-.442.37c-.16.133-.325.269-.497.406l-3.192-3.988.531-.426c.543.789 1.06 1.511 1.55 2.165.224.308.498.664.822 1.069a60.86 60.86 0 001.765-1.363l.886-.709c-.23-.259-.395-.453-.498-.581-.7-.874-1.135-1.677-1.305-2.41zm3.014-2.013c-.547-.094-1.093.077-1.64.515-.479.383-.7.871-.665 1.462.029.464.218.98.567 1.548.135.224.295.452.482.685.113.142.255.305.425.49l3.158-2.527a10.693 10.693 0 01-.473-.643 6.8 6.8 0 00-.382-.541c-.457-.57-.947-.9-1.472-.989zm-7.543-1.737a55.17 55.17 0 00-1.638 1.038l-.72.487-2.671-4.438.578-.348c.328.63.726 1.359 1.194 2.187l.797 1.374 2.944-1.771a143.528 143.528 0 00-1.94-3.085l.572-.345c.21.364.363.637.463.819l.078.142.576 1.008.695 1.193 3.34-2.032a72.36 72.36 0 00-1.522-2.39l-.698-1.048.572-.344 2.68 4.455c-.43.233-.946.519-1.55.857-.382.22-.68.394-.895.523l-2.855 1.718zm-2.19-16.948c.352.231.705.602 1.06 1.113.183.265.356.588.518.97.253.592.386 1.193.402 1.802a4.453 4.453 0 01-1.282 3.245 4.849 4.849 0 01-1.584 1.062c-.97.413-1.888.551-2.755.413a4.045 4.045 0 01-2.082-1.016c-.558-.504-1-1.138-1.324-1.902-.268-.628-.418-1.222-.45-1.782a3.526 3.526 0 01.017-.69l.692.071a1.23 1.23 0 00-.045.175 2.431 2.431 0 00-.03.477c-.001.194.017.414.056.66.048.266.133.543.255.829a3.92 3.92 0 00.97 1.384 3.285 3.285 0 001.723.837c.779.128 1.63-.004 2.551-.397a4.84 4.84 0 001.387-.879c.39-.364.695-.768.914-1.214a3.45 3.45 0 00.358-1.393 3.269 3.269 0 00-.254-1.406 4.103 4.103 0 00-1.407-1.748l-.165-.106.475-.505zm-5.412-10.476a39.233 39.233 0 001.883-.516l.366-.111.47-.15.276 1.107-5.957 1.483c-.227.056-.532.137-.915.241l-.345.093-.53.152-.423.125c.05.197.089.366.119.505l.313 1.365.16.642c.09.365.23.907.418 1.626l.2.752c.044.154.091.336.143.545l5.46-1.359a38.98 38.98 0 001.864-.511c.37-.11.649-.195.839-.255l.292 1.176a149 149 0 00-1.739.366c-.43.098-.764.177-1.003.237l-3.215.8a40.38 40.38 0 00-1.874.52l-.845.257-.401-1.61-.006.001-.64-2.566-.187-.755-.174-.698a23.52 23.52 0 00-.146-.612l-.122-.491-.238-.956c.483-.098 1.061-.22 1.733-.365.438-.1.775-.179 1.01-.238l3.214-.8zm-4.2-5.518a27.825 27.825 0 00-1.263-.02c-.32.003-.645.012-.973.029.015.138.031.325.05.562.03.275.048.46.055.555.02.146.032.249.037.309l-.523.04-.544-7.071c.484-.016 1.072-.039 1.763-.071.448-.025.793-.048 1.035-.066l3.322-.256a51.964 51.964 0 002.798-.306l.085 1.099-6.128.471c-.336.026-.766.063-1.291.112l-.742.077-.232.024c.006.082.01.162.012.24.013.172.021.313.025.421l.03.544c.02.262.033.461.038.595.032.526.056.884.07 1.074.018.232.03.411.035.537.01.12.028.305.056.555l.214-.004a38.156 38.156 0 012.243-.003c1.807.056 3.243.242 4.308.559.856.255 1.451.582 1.786.981.186.22.288.455.307.704a1.36 1.36 0 01-.008.235.817.817 0 01-.08.312l-.06.135-.455.009.057-.102a.677.677 0 00.068-.383 1.107 1.107 0 00-.035-.199c-.078-.284-.37-.554-.875-.81-.572-.285-1.498-.515-2.777-.69a29.359 29.359 0 00-2.408-.198zm-2.817-15.251l6.175-1.928a39.616 39.616 0 002.163-.728l.894-.327-.115 1.35c0-.004-.068.01-.205.041l-.805.212-.506.132-.893.243a3 3 0 01-.029.186c-.016.094-.033.21-.049.348a1.276 1.276 0 01-.019.148c-.038.343-.071.688-.1 1.032l-.117 1.37c-.025.3-.046.598-.063.892a103.754 103.754 0 00-.022.636l.773.41c.303.156.535.28.697.372.228.123.404.216.53.279l.26.139-.065.769-.154-.098-1.017-.594a100.98 100.98 0 00-1.47-.84l-.715-.4-5.216-2.85.068-.794zm5.748 3.325c.034-.24.059-.462.076-.664l.047-.549.123-1.453c.07-.827.107-1.33.109-1.507l-5.197 1.588 4.842 2.585zm-3.657-13.415a52.621 52.621 0 00-.49 2.782l-.644-.15 1.508-6.459.644.15a30.39 30.39 0 00-.506 1.653c-.1.332-.194.68-.284 1.046l5.492 1.282c.686.16 1.316.296 1.889.407l.855.16-.262 1.124c-.471-.132-1.04-.287-1.71-.466-.427-.108-.76-.19-1-.247l-5.492-1.282zM51.03 72.387c.638.254 1.248.481 1.83.68.363.127.64.221.829.283l-.408 1.023-4.065-1.621-.083.19c-.056.14-.104.256-.145.347l-.414.986-.441 1.088c-.141.353-.315.8-.521 1.341l-.148.388-.233.62-.117.309 1.458.581c.63.251 1.236.477 1.817.676.363.126.638.22.823.28l-.434 1.09c-.147-.064-.412-.181-.795-.352a52.64 52.64 0 00-1.786-.755l-3.077-1.227a55.417 55.417 0 00-1.823-.679c-.174-.055-.45-.149-.83-.282l.408-1.023 3.68 1.467a1.22 1.22 0 00.068-.154l.07-.16c.193-.435.39-.906.592-1.412.082-.195.205-.497.369-.906l.206-.518c.106-.265.246-.628.42-1.089.114-.285.22-.561.317-.83.044-.108.067-.173.071-.195l-1.096-.437a54.674 54.674 0 00-1.81-.673l-.825-.28.438-1.096c.441.2.98.437 1.613.713.415.175.734.307.96.397l3.082 1.23zm.682-6.189c.112-.215.245-.448.4-.698.576-.934 1.178-1.603 1.808-2.007.406-.263.817-.403 1.234-.42.415-.023.823.089 1.224.336.357.22.64.495.847.826.26.42.377.888.352 1.406-.03.616-.264 1.279-.701 1.99a9.887 9.887 0 01-.465.68c-.181.243-.37.523-.564.84l-.402.651-1.498-1.015a59.52 59.52 0 00-.882-.56l-2.56-1.578a69.281 69.281 0 00-1.604-.957l-.498-.292a30.493 30.493 0 01-.55-.332l.59-.954a53.108 53.108 0 002.304 1.489l.965.595zm2.025-5.682a46.05 46.05 0 00-1.587-.933l-.683-.375.612-.993c.342.236.789.537 1.34.902.356.23.64.41.849.538l3.002 1.851c.5.309 1.055.636 1.665.98l.76.424-.613.993c-.404-.275-.895-.603-1.472-.984a56.16 56.16 0 00-.87-.552l-3.003-1.85zm2.658 6.856c.383-.622.529-1.195.436-1.72-.095-.545-.44-1.002-1.037-1.37-.522-.322-1.056-.366-1.6-.133-.428.183-.85.534-1.267 1.054a6.14 6.14 0 00-.483.685 9.636 9.636 0 00-.318.565l3.443 2.123c.143-.232.293-.451.452-.658.17-.235.295-.417.374-.546zM66.63 54.5l-4.598-4.078c-.424-.375-.906-.78-1.446-1.212l2.307 9.505-.757.854-.625-.615c-.5-.49-.976-.935-1.425-1.333l-2.48-2.198c-.439-.39-.93-.808-1.47-1.253l-.681-.551.804-.907c.417.416.841.826 1.273 1.232.33.305.586.537.767.698l3.813 3.38-2.235-9.38-.005-.005.808-.912a73.687 73.687 0 002.049 1.911l2.483 2.203c.501.444.996.863 1.486 1.256.299.242.529.426.69.55l-.758.854zm-10.853-4.616a.95.95 0 00.3.18.883.883 0 00.347.039 1.04 1.04 0 00.708-.369c.235-.265.337-.524.307-.776-.025-.2-.127-.401-.307-.602l.316-.308c.143.132.26.283.354.452.09.166.144.339.164.518.02.186-.002.374-.067.564-.062.188-.17.367-.322.539-.292.33-.635.499-1.03.507-.18.002-.36-.03-.538-.096a1.802 1.802 0 01-.496-.301l.264-.347zM76 40.817c.997-.156 1.76.145 2.287.905.24.344.387.708.442 1.09.072.482-.008.958-.239 1.429-.278.562-.756 1.078-1.433 1.55a9.865 9.865 0 01-.699.437 11.91 11.91 0 00-.852.545l-.629.437-.972-1.535a57.87 57.87 0 00-.58-.86l-1.718-2.47a69.695 69.695 0 00-1.086-1.518 203.63 203.63 0 01-.34-.466 31.183 31.183 0 01-.372-.524l4.195-2.915.389.56c-.824.487-1.579.954-2.264 1.399a29.72 29.72 0 00-1.123.748 57.599 57.599 0 001.24 1.853l.649.932c.274-.211.478-.364.613-.458.92-.639 1.75-1.018 2.492-1.14zm1.805 3.142c.131-.538-.003-1.095-.403-1.67-.35-.504-.821-.758-1.413-.762-.466-.003-.993.15-1.583.46a6.32 6.32 0 00-.716.435c-.15.104-.322.234-.518.391l2.309 3.322c.198-.138.423-.28.673-.428a6.79 6.79 0 00.565-.346c.6-.416.962-.884 1.086-1.402zm4.792-12.072a5.153 5.153 0 011.84-.511 4.37 4.37 0 011.78.2c.572.19 1.089.498 1.552.923.466.418.85.943 1.154 1.574.318.662.49 1.311.513 1.948a4.09 4.09 0 01-.32 1.787 4.516 4.516 0 01-.982 1.458 5.553 5.553 0 01-1.518 1.062 5.358 5.358 0 01-1.84.526 4.483 4.483 0 01-1.769-.192 4.21 4.21 0 01-1.552-.894 5.089 5.089 0 01-1.148-1.577c-.412-.857-.572-1.712-.48-2.567a4.38 4.38 0 01.883-2.202 5.07 5.07 0 011.887-1.535zm.219.514c-.23.11-.456.26-.677.448a3.859 3.859 0 00-1.34 2.494c-.092.783.054 1.576.44 2.378.246.51.555.954.928 1.33a3.92 3.92 0 001.237.851c.463.204.95.303 1.46.298a3.716 3.716 0 001.525-.375 3.6 3.6 0 00.688-.439 3.56 3.56 0 00.607-.637 3.68 3.68 0 00.75-1.821c.096-.776-.056-1.58-.457-2.414a4.857 4.857 0 00-.926-1.324 3.975 3.975 0 00-1.245-.869 3.417 3.417 0 00-1.471-.291c-.51.005-1.017.13-1.52.37zm18.178-.379a48.834 48.834 0 00.849 2.697l-1.061.298-1.18-4.214-.201.05c-.146.04-.267.072-.364.095l-1.035.27-1.132.31c-.366.102-.827.235-1.383.4l-.397.117-.634.191-.316.096.422 1.51c.183.654.372 1.272.567 1.855.12.365.212.64.277.824l-1.13.316a73.524 73.524 0 01-.202-.845 52.773 52.773 0 00-.485-1.877l-.893-3.19a55.37 55.37 0 00-.568-1.861 34.872 34.872 0 01-.28-.83l1.062-.298 1.067 3.815c.022-.002.077-.015.164-.04l.17-.04c.463-.112.957-.24 1.481-.387.205-.053.52-.14.944-.258l.537-.15c.275-.077.648-.186 1.12-.327.296-.083.58-.167.852-.252a1.78 1.78 0 00.198-.062l-.318-1.136a55.024 55.024 0 00-.564-1.849l-.278-.824 1.136-.318c.11.472.248 1.044.413 1.716.113.435.202.769.267 1.002l.895 3.196zm7.272-2.678c.05.416.131 1.049.241 1.897.076.588.154 1.148.236 1.683l.083.532c.021.132.033.198.037.198l-1.113.134-.022-.285a51.506 51.506 0 00-.159-1.757 75.62 75.62 0 00-.131-1.146l-.125-1.037-1.412-1.75a86.568 86.568 0 00-1.555-1.85l-.113-.123a22.884 22.884 0 00-.507-.579l1.416-.17a.95.95 0 00.113.175c.271.377.534.728.786 1.055l1.226 1.609.209.275c.238.311.39.508.456.592l.32-.653.157-.325.923-1.875.362-.742.088-.187c.078-.153.128-.259.151-.318a.914.914 0 00.081-.193l.824-.099-.064.119a13.6 13.6 0 00-.113.196.576.576 0 00-.032.063l-.038.063-.268.49c-.2.359-.434.8-.702 1.325l-.38.744-.975 1.94zm13.584 3.511c-.355.226-.839.395-1.451.507a5.488 5.488 0 01-1.097.073 4.878 4.878 0 01-1.808-.377 4.454 4.454 0 01-2.428-2.504 4.87 4.87 0 01-.316-1.881c.023-1.054.276-1.948.759-2.68a4.049 4.049 0 011.784-1.48c.689-.3 1.449-.44 2.278-.423.683.015 1.286.124 1.809.325.261.101.469.2.622.3l-.35.601a1.33 1.33 0 00-.14-.113 2.433 2.433 0 00-.423-.223 4.019 4.019 0 00-.624-.222 3.862 3.862 0 00-.86-.11 3.928 3.928 0 00-1.661.314 3.276 3.276 0 00-1.473 1.226c-.438.656-.668 1.486-.69 2.488a4.851 4.851 0 00.23 1.626c.171.505.414.95.73 1.332.316.383.69.684 1.121.9a3.26 3.26 0 001.387.349 4.111 4.111 0 001.693-.32c.214-.09.373-.171.479-.242l.164-.107.265.641z" fill="#A98056"/></svg>