<svg width="730" height="676" fill="none" xmlns="http://www.w3.org/2000/svg"><path opacity=".5" clip-rule="evenodd" d="M283.509 583.557c-45.664-18.451-85.483-43.74-121.934-76.861-43.191-39.246-97.017-74.906-108.137-132.195-11.63-59.915 22.751-116.694 49.143-171.727 30.48-63.56 46.406-155.986 115.258-171.098 71.126-15.61 123.388 66.913 185.381 105.114 41.017 25.275 78.135 50.404 115.783 80.466 50.591 40.398 125.345 62.849 142.031 125.403 17.043 63.893-18.771 132.037-59.453 184.17-38.571 49.429-95.872 82.97-157.595 93.978-55.418 9.884-108.284-16.161-160.477-37.25z" stroke="#A77E56"/></svg>