<svg width="16" height="16" fill="none" xmlns="http://www.w3.org/2000/svg"><path d="M15.922 4.722a5.792 5.792 0 00-.372-1.965A4.089 4.089 0 0013.215.42a5.86 5.86 0 00-1.94-.372C10.423.01 10.153 0 7.986 0 5.82 0 5.543 0 4.696.049A5.86 5.86 0 002.757.42 4.086 4.086 0 00.42 2.757a5.813 5.813 0 00-.37 1.938C.012 5.549 0 5.82 0 7.985c0 2.167 0 2.444.05 3.292a5.85 5.85 0 00.371 1.94 4.088 4.088 0 002.337 2.334 5.84 5.84 0 001.938.4c.854.037 1.125.049 3.29.049 2.167 0 2.444 0 3.292-.05a5.844 5.844 0 001.938-.371 4.093 4.093 0 002.336-2.336 5.844 5.844 0 00.372-1.94c.038-.853.05-1.124.05-3.29-.002-2.167-.002-2.442-.052-3.29zm-7.942 7.36a4.1 4.1 0 01-4.1-4.1 4.1 4.1 0 114.1 4.1zm4.264-7.397a.955.955 0 11-.002-1.91.955.955 0 01.002 1.91z" fill="#C29E81"/><path d="M7.98 10.645a2.664 2.664 0 100-5.327 2.664 2.664 0 000 5.327z" fill="#C29E81"/></svg>