<svg width="17" height="16" fill="none" xmlns="http://www.w3.org/2000/svg"><path d="M11.429 0H6.518C2.036 0 .973 1.062.973 5.544v4.912C.973 14.938 2.036 16 6.518 16h4.911c4.482 0 5.544-1.063 5.544-5.544V5.544C16.973 1.062 15.9 0 11.43 0zm2.461 11.414h-1.162c-.44 0-.575-.35-1.367-1.151-.687-.667-.991-.755-1.16-.755-.24 0-.308.067-.308.396v1.05c0 .28-.089.45-.834.45-1.232 0-2.599-.745-3.557-2.133C4.056 7.237 3.66 5.713 3.66 5.398c0-.17.067-.328.393-.328h1.164c.294 0 .406.136.52.45.576 1.662 1.535 3.118 1.93 3.118.146 0 .214-.068.214-.44V6.482c-.045-.792-.461-.86-.461-1.14a.28.28 0 01.291-.272h1.83c.248 0 .34.136.34.427v2.315c0 .25.111.339.179.339.146 0 .27-.089.541-.36.836-.937 1.435-2.383 1.435-2.383a.513.513 0 01.508-.328h1.164c.349 0 .427.18.349.43-.146.677-1.57 2.687-1.57 2.687-.123.203-.17.292 0 .518.125.17.531.521.802.836.497.565.88 1.04.981 1.367.115.326-.054.495-.383.495h.002z" fill="#C29E81"/></svg>