<svg width="878" height="857" fill="none" xmlns="http://www.w3.org/2000/svg"><path opacity=".5" clip-rule="evenodd" d="M315.575 661.548c-42.136-37.674-68.188-85.02-100.47-131.421-42.056-60.449-131.421-108.813-116.92-181.042 14.459-72.018 119.596-76.043 177.586-121.128 51.711-40.204 77.838-119.43 142.766-127.934 65.022-8.516 119.565 46.301 171.106 86.824 44.763 35.194 76.313 80.344 104.474 129.844 31.47 55.318 68.879 109.744 68.041 173.402-.945 71.836-23.249 145.315-72.917 197.234-51.603 53.94-125.49 93.107-199.927 87.972-70.798-4.884-120.841-66.454-173.739-113.751z" stroke="#A77E56"/></svg>