<svg width="691" height="698" fill="none" xmlns="http://www.w3.org/2000/svg"><path opacity=".5" clip-rule="evenodd" d="M237.829 136.025c41.126-8.853 82.738-1.61 126.047.878 56.42 3.242 122.422-32.206 165.595 15.88 43.046 47.945 6.392 121.858 15.018 185.287 7.692 56.561 51.22 116.284 32.634 165.11-18.613 48.898-75.92 57.159-122.484 70.928-40.441 11.957-82.633 9.63-126.484 2.688-49.006-7.757-99.633-10.988-142.154-45.213-47.984-38.622-89.076-92.695-105.416-154.056-16.976-63.749-15.668-134.903 15.656-183.013 29.793-45.757 89.958-47.375 141.588-58.489z" stroke="#A77E56"/></svg>