<svg width="289" height="336" fill="none" xmlns="http://www.w3.org/2000/svg"><path opacity=".5" clip-rule="evenodd" d="M18.096 165.797c6.184-26.006 20.01-47.5 32.042-71.373 15.674-31.1 15.671-79.157 48.977-89.386 33.209-10.2 58.552 32.623 90.359 46.592 28.363 12.456 67.196 5.487 85.35 30.577 18.18 25.127 7.66 60.153 2.409 90.713-4.561 26.541-16.237 49.827-30.485 72.684-15.923 25.542-30.138 53.354-56.803 67.337-30.091 15.779-65.673 23.044-98.449 14.074-34.052-9.319-66.976-31.232-81.598-63.348-13.907-30.546.435-65.22 8.198-97.87z" stroke="#A77E56"/></svg>