<svg width="162" height="163" fill="none" xmlns="http://www.w3.org/2000/svg"><path opacity=".5" clip-rule="evenodd" d="M126.286 46.097c5.015 10.481 4.044 22.139 4.232 33.775.215 13.332 4.31 27.753-3.06 38.924-7.675 11.631-21.783 19.195-35.7 19.82-13.111.588-23.098-10.21-34.468-16.672-9.774-5.555-19.943-9.888-27.255-18.407-8.533-9.94-18.957-20.92-17.722-33.99C13.55 56.48 25.404 46.908 36.115 39.223c9.016-6.47 20.542-5.895 31.159-9.113 11.75-3.561 22.482-13.927 34.298-10.726 12.037 3.26 19.347 15.499 24.714 26.713z" stroke="#A77E56" stroke-width=".5"/></svg>