<svg width="844" height="851" fill="none" xmlns="http://www.w3.org/2000/svg"><path opacity=".5" clip-rule="evenodd" d="M290.186 165.174c50.214-10.809 101.022-1.966 153.902 1.072 68.889 3.959 149.475-39.323 202.189 19.389 52.56 58.541 7.805 148.788 18.337 226.234 9.392 69.061 62.54 141.981 39.846 201.598-22.726 59.704-92.698 69.79-149.552 86.601-49.377 14.6-100.894 11.759-154.435 3.283-59.835-9.471-121.651-13.416-173.569-55.204-58.588-47.158-108.761-113.181-128.711-188.101-20.728-77.837-19.131-164.716 19.116-223.457 36.377-55.869 109.837-57.845 172.877-71.415z" stroke="#A77E56"/></svg>