<svg width="78" height="68" fill="none" xmlns="http://www.w3.org/2000/svg"><path d="M33.03 50.31l.01.004.831-2.45-.01-.003h-.003c-5.464-1.756-10.183-3.272-13.691-5.116-3.63-1.908-5.775-4.047-6.951-6.936-1.115-2.738-1.2-5.625-.238-8.13.947-2.468 2.848-4.389 5.354-5.41 1.835-.747 3.754-.86 5.703-.334 1.737.47 3.18 1.368 4.085 2.04.465.346 1.067.42 1.61.2a1.641 1.641 0 001.013-1.268c.178-1.113.583-2.764 1.498-4.313 1.027-1.738 2.479-2.998 4.314-3.746 2.506-1.02 5.208-.974 7.61.13 2.438 1.121 4.394 3.246 5.51 5.984 1.176 2.89 1.136 5.917-.128 9.819l2.48.759c1.444-4.454 1.465-8.128.066-11.563-1.359-3.337-3.776-5.942-6.806-7.335-3.066-1.41-6.511-1.471-9.7-.173-2.384.971-4.266 2.601-5.592 4.845a14.204 14.204 0 00-1.526 3.763 14.201 14.201 0 00-3.72-1.626c-2.517-.68-5.002-.531-7.386.44-3.19 1.298-5.611 3.749-6.82 6.9-1.195 3.113-1.105 6.666.254 10.003 1.399 3.435 3.981 6.05 8.126 8.228 3.707 1.948 8.526 3.496 14.107 5.289z" fill="#A98056"/><path d="M44.564 63.779a2.64 2.64 0 01-1.572-.952 513.01 513.01 0 00-4.166-5.171l-.007-.008c-3.698-4.548-6.891-8.475-8.935-12.13-2.285-4.088-3.022-7.688-2.32-11.33.683-3.537 2.546-6.564 5.246-8.521 2.733-1.98 6.1-2.713 9.48-2.06 2.528.487 4.691 1.719 6.43 3.661.877.98 1.624 2.118 2.23 3.393a14.204 14.204 0 013.332-2.32c2.336-1.157 4.802-1.496 7.33-1.009 3.38.652 6.234 2.583 8.034 5.438 1.78 2.821 2.383 6.323 1.7 9.861-.701 3.642-2.724 6.71-6.364 9.654-3.257 2.634-7.681 5.092-12.804 7.938-1.75.972-3.735 2.074-5.801 3.257a2.643 2.643 0 01-1.813.299zm-2.76-37.65c-2.656-.512-5.298.06-7.438 1.611-2.172 1.575-3.677 4.04-4.237 6.943-.59 3.063.039 6.026 2.04 9.605 1.934 3.46 5.062 7.307 8.684 11.76l.006.009a522.16 522.16 0 014.188 5.198c2.088-1.19 4.08-2.297 5.838-3.273 5.017-2.787 9.35-5.194 12.433-7.687 3.188-2.58 4.874-5.095 5.465-8.158.56-2.903.08-5.752-1.352-8.021-1.41-2.236-3.65-3.75-6.306-4.261-1.946-.376-3.85-.112-5.659.784-1.612.798-2.852 1.961-3.609 2.797a1.64 1.64 0 01-1.54.509 1.641 1.641 0 01-1.241-1.045c-.391-1.057-1.11-2.598-2.31-3.939-1.346-1.504-3.016-2.457-4.962-2.832zM62.74 5.12a1.28 1.28 0 001.28-1.28V1.28a1.28 1.28 0 10-2.56 0v2.56c0 .707.573 1.28 1.28 1.28zm1.28 6.4V8.96a1.28 1.28 0 10-2.56 0v2.56a1.28 1.28 0 102.56 0zM61.463 6.4a1.28 1.28 0 00-1.28-1.28h-2.56a1.28 1.28 0 100 2.56h2.56a1.28 1.28 0 001.28-1.28zm3.839 1.28h2.56a1.28 1.28 0 100-2.56h-2.56a1.28 1.28 0 100 2.56zM6.398 55.634a1.28 1.28 0 001.28-1.28v-2.56a1.28 1.28 0 10-2.56 0v2.56c0 .707.573 1.28 1.28 1.28zm1.28 6.4v-2.56a1.28 1.28 0 10-2.56 0v2.56a1.28 1.28 0 102.56 0zm-2.558-5.12a1.28 1.28 0 00-1.28-1.28H1.28a1.28 1.28 0 100 2.56h2.56a1.28 1.28 0 001.28-1.28zm3.839 1.28h2.56a1.28 1.28 0 100-2.56h-2.56a1.28 1.28 0 100 2.56zM7.207 41.356a2.049 2.049 0 00-.641-.409 1.921 1.921 0 00-1.477 0A1.75 1.75 0 004.041 42a1.923 1.923 0 002.525 2.531c.235-.1.452-.238.641-.409A1.933 1.933 0 007.615 42a2.02 2.02 0 00-.408-.643zm15.543 13.6a2.048 2.048 0 00-.64-.409 1.922 1.922 0 00-1.478 0 1.75 1.75 0 00-1.048 1.052 1.923 1.923 0 002.525 2.531c.235-.1.452-.238.641-.409a1.933 1.933 0 00.408-2.122 2.02 2.02 0 00-.408-.643zM75.772 13.6a1.921 1.921 0 001.943-1.94 2.04 2.04 0 00-.563-1.378 1.955 1.955 0 00-.311-.232 1.106 1.106 0 00-.33-.176 1.192 1.192 0 00-.371-.116 1.67 1.67 0 00-.757 0 1.28 1.28 0 00-.35.116 1.484 1.484 0 00-.35.175c-.101.073-.198.15-.29.233a2.026 2.026 0 00-.563 1.377 1.921 1.921 0 001.942 1.94zm-7.208 9.142a1.948 1.948 0 002.124.424 1.937 1.937 0 001.198-1.8 2.035 2.035 0 00-.564-1.375 4.39 4.39 0 00-.311-.232c-.1-.077-.21-.136-.33-.175a1.195 1.195 0 00-.371-.116 1.807 1.807 0 00-1.106.116 2.003 2.003 0 00-.64.407A2.02 2.02 0 0068 21.366a1.91 1.91 0 00.564 1.376z" fill="#A98056"/></svg>