<svg width="622" height="509" fill="none" xmlns="http://www.w3.org/2000/svg"><path opacity=".5" clip-rule="evenodd" d="M297.053 11.018C351.545 12.371 405.43.606 456.316 20.146c63.503 24.386 148.319 48.095 162.818 114.556 14.783 67.758-72.395 113.107-99.195 177.071-23.329 55.678-.228 131.597-46.419 170.465-46.353 39.004-116.358 24.624-176.467 17.085-53.531-6.715-102.858-26.622-146.988-57.658-44.757-31.477-81.976-70.927-105.852-120.16-26.95-55.571-54.956-117.268-38.108-176.687 17.047-60.124 69.06-106.61 125.837-132.721 51.258-23.573 108.71-2.478 165.111-1.079z" stroke="#A77E56"/></svg>