<svg width="18" height="19" fill="none" xmlns="http://www.w3.org/2000/svg"><path d="M16.895 3.509l-.042-.111a.5.5 0 00-.855-.136l-.075.092c-.02.025-1.977 2.409-4.553 2.777-.49.07-.946.16-1.387.262C10.103 4.39 9.286 2.48 7.549.7L7.467.616a.5.5 0 00-.839.214l-.032.114c-.006.02-.599 2.06-2.104 2.978-1.649 1.01-2.699 2.125-3.205 3.407a5.003 5.003 0 00-.036 3.8 3.4 3.4 0 001.838 1.854c.082.031.165.058.25.08a5.185 5.185 0 00.147 1.689c-.306.027-.599.04-.873.04a7.242 7.242 0 01-1.767-.183.527.527 0 00-.617.322l-.05.134a.476.476 0 00.325.633c.69.168 1.4.246 2.111.231.44-.001.88-.029 1.318-.082.187.328.416.63.682.898a4.696 4.696 0 003.402 1.25 8.893 8.893 0 005.287-1.895l.167-.13c1.563-1.225 6.315-4.946 3.424-12.461zM3.532 11.924a.009.009 0 01-.011.006 2.244 2.244 0 01-1.228-1.251 3.863 3.863 0 01.049-2.93c.413-1.047 1.308-1.981 2.74-2.857A6.202 6.202 0 007.338 2.17a5.845 5.845 0 011.487 4.22.492.492 0 01-.34.43A8.397 8.397 0 005.42 8.705a7.196 7.196 0 00-1.888 3.22zm9.24 3.148l-.17.135c-2.313 1.831-5.735 2.18-7.182.734a3.09 3.09 0 01-.267-.306c2.235-.51 4.94-1.794 7.733-4.683a.492.492 0 00-.023-.704l-.1-.093a.51.51 0 00-.712.024c-2.724 2.814-5.331 3.99-7.43 4.412a4.066 4.066 0 01-.135-1.638 5.856 5.856 0 011.737-3.446C7.395 8.335 9.132 7.6 11.53 7.257a8.799 8.799 0 004.606-2.473c1.93 6.142-1.887 9.132-3.364 10.288z" fill="#A98056" stroke="#A98056" stroke-width=".2"/><path d="M13.447 8.598a.507.507 0 00.064.706l.105.089a.493.493 0 00.701-.064l.1-.124a.494.494 0 00-.086-.7l-.108-.083a.508.508 0 00-.706.088l-.07.088z" fill="#A98056" stroke="#A98056" stroke-width=".2"/></svg>