<svg width="106" height="60" fill="none" xmlns="http://www.w3.org/2000/svg"><path d="M68.988 49.91a6.501 6.501 0 002.239-.81l-.498-1.159-.255.17a6.073 6.073 0 01-.726.386 6.297 6.297 0 01-2.556.545 4.173 4.173 0 01-1.868-.444 4.562 4.562 0 01-1.502-1.22 5.62 5.62 0 01-.972-1.81 7.13 7.13 0 01-.344-2.243 6.876 6.876 0 01.819-3.498 4.343 4.343 0 011.891-1.799 4.956 4.956 0 012.239-.517 5.27 5.27 0 011.27.143 8 8 0 01.969.308c.234.09.458.204.668.34.15.1.224.155.224.17l.575-1.131a5.468 5.468 0 00-1.008-.432 8.915 8.915 0 00-2.81-.433 7.919 7.919 0 00-3.35.687 5.814 5.814 0 00-2.568 2.22 7.262 7.262 0 00-1.027 3.95 7.099 7.099 0 00.518 2.729 6.137 6.137 0 001.47 2.146c.63.6 1.377 1.067 2.193 1.37a7.684 7.684 0 002.745.479 8.27 8.27 0 001.664-.147zM12.033 36.778L7.257 47.536 2.996 36.778H.483L0 49.76h1.17l.332-10.72 4.524 10.72h1.44l4.89-10.797.418 10.797h2.073l-.487-12.982h-2.327zM23.56 49.76v-5.775l4.188-7.207h-1.324l-3.393 6.114-3.694-6.114h-2.583l4.802 7.45v5.532h2.004zm23.632-.502a2.769 2.769 0 01-.335-.317 7.208 7.208 0 01-.896-1.216 21.17 21.17 0 01-1.193-2.316 3.28 3.28 0 00-1.092-1.401 2.633 2.633 0 00-1.259-.433 5.049 5.049 0 002.316-1.158 2.702 2.702 0 00.877-2.023 3.33 3.33 0 00-1.131-2.67c-.83-.7-2.125-1.05-3.888-1.05h-4.485V49.76h2.069v-5.88h1.93c.26.005.52.042.772.112a2.1 2.1 0 01.563.244c.32.238.591.536.8.876l.799 1.459c.29.517.575.988.857 1.409.288.43.62.829.992 1.189.287.286.636.504 1.019.637a2.941 2.941 0 00.753.073c.174.001.347-.018.517-.058a1.31 1.31 0 00.656-.34 1.1 1.1 0 01-.64-.223zm-6.122-6.293a5.62 5.62 0 01-1.324.143h-1.571v-5.474h2.115a3.686 3.686 0 012.363.676 2.617 2.617 0 01.864 2.135 2.18 2.18 0 01-1.073 1.957 4.264 4.264 0 01-1.374.563zm16.912 5.795h-5.86l-.02-5.377h5.12v-.95h-5.12v-4.64h5.807v-1.015h-7.902V49.76h7.975v-1zm23.995 0h-5.86l-.019-5.377h5.115v-.95h-5.115v-4.64H81.9v-1.015h-7.898V49.76h7.975v-1zM93.42 37.831a4.343 4.343 0 00-1.61-.872 7.633 7.633 0 00-2.317-.313h-4.18v13.125h2.096v-5.59h1.262a11.11 11.11 0 002.316-.227 5.546 5.546 0 002.575-1.158 2.915 2.915 0 001-2.259c.002-.5-.091-.997-.274-1.463a3.282 3.282 0 00-.869-1.243zm-1.29 3.915a2.83 2.83 0 01-1.722 1.277 7.395 7.395 0 01-2.165.302h-.846v-5.71h1.872a3.401 3.401 0 012.317.772 2.81 2.81 0 01.806 2.189 2.44 2.44 0 01-.266 1.177l.004-.007zm3.899-4.968v.95h3.941v12.03h2.089v-12.03H106v-.95h-9.971zM44.594 22.575v4.833h16.6v-4.833a8.94 8.94 0 003.39-3.474c1.543-2.915.864-5.717-1.815-7.308a5.578 5.578 0 00-3.776-.733 5.594 5.594 0 00-.884-1.313c-1.185-1.3-2.922-1.957-5.153-1.957-2.231 0-4.053.703-5.25 2.03a5.607 5.607 0 00-.846 1.252 5.57 5.57 0 00-3.86.721c-2.679 1.59-3.374 4.393-1.81 7.308a8.932 8.932 0 003.404 3.474zm14.809 3.015H46.397v-2.223h13.006v2.223zm.281-11.368a8.044 8.044 0 00-.123-1.421 3.786 3.786 0 012.316.54c2.49 1.483 1.787 3.71 1.158 4.907-1.181 2.208-3.652 3.748-4.991 3.088a2.492 2.492 0 01-.691-.475c.146-.181.293-.386.432-.575a11.195 11.195 0 001.9-6.064zm-10.639-3.197c.857-.953 2.178-1.432 3.922-1.432 1.745 0 3.008.444 3.822 1.37a4.818 4.818 0 011.116 3.259 9.327 9.327 0 01-1.637 5.08c-1.008 1.463-2.27 2.316-3.474 2.316-1.205 0-2.386-.81-3.343-2.22a9.18 9.18 0 01-1.544-4.953c.011-1.003.204-2.381 1.138-3.42zm-5.103 2.316a3.806 3.806 0 012.316-.54 8.388 8.388 0 00-.158 1.617c.023 2.127.667 4.2 1.853 5.965.139.204.282.386.428.579-.184.156-.39.286-.61.386-1.335.64-3.81-.9-4.99-3.088-.626-1.209-1.329-3.436 1.161-4.919z" fill="#A77E56"/><path d="M52.944 7.79a2.463 2.463 0 00.876-4.767c1.158-2.502 4.362-1.977 4.362-1.977S58.06 0 57.634 0c-2.644 0-3.783 2.316-4.05 2.945a2.493 2.493 0 00-.64-.088 2.467 2.467 0 000 4.933zm-.772-4.018a.556.556 0 11-.008 0h.008zM24.39 55.97h-.618l-1.36 1.44v-1.44h-.501v2.861h.502v-.83l.444-.459.976 1.29h.606l-1.239-1.63 1.19-1.231zm2.343-.046a1.478 1.478 0 101.49 1.475 1.463 1.463 0 00-1.49-1.475zm0 2.494a.98.98 0 01-.97-1.02.963.963 0 011.663-.712.98.98 0 01.272.713.973.973 0 01-.965 1.019zm4.577-1.258h-1.362v-1.19h-.502v2.861h.502v-1.204h1.363v1.204h.502v-2.86h-.502v1.189zm4.159-1.185h-1.992v.386a4.293 4.293 0 01-.363 2.003h-.278v1.085h.44l.05-.61h2.011v.61h.417l.07-1.062h-.355v-2.412zm-.502 2.408h-1.32a3.76 3.76 0 00.324-1.636v-.325h1.008l-.012 1.961zm2.413-.323v-2.09h-.495v2.861h.475l1.44-2.084v2.084h.494v-2.86h-.467l-1.448 2.088zm3.064-1.622h.908v2.393h.505v-2.393h.907v-.467h-2.32v.467zm3.965 1.174h1.432v-.448H44.41v-.741h1.617v-.452h-2.119v2.86h2.139v-.451H44.41v-.768zm3.973-1.637h-1.124v2.86h.502v-.93h.568c.625 0 1.158-.336 1.158-.977 0-.64-.436-.953-1.104-.953zm-.039 1.486h-.583v-1.027h.583c.386 0 .614.174.614.51 0 .335-.236.513-.614.513v.004zm3.597.957a1.02 1.02 0 010-2.034 1.134 1.134 0 01.8.355l.323-.386a1.49 1.49 0 00-1.119-.444 1.478 1.478 0 00-.02 2.953 1.478 1.478 0 001.159-.506l-.325-.328a1.103 1.103 0 01-.818.39zm4.76-2.448h-.617l-1.36 1.44v-1.44h-.501v2.861h.502v-.83l.448-.459.972 1.29h.61l-1.239-1.63 1.185-1.231zm1.591 2.09v-2.09h-.494v2.861h.475l1.44-2.084v2.084h.494v-2.86h-.471l-1.444 2.088zm3.759 0v-2.09h-.494v2.861h.475l1.44-2.084v2.084h.494v-2.86h-.467l-1.448 2.088zm1.37-2.884l-.304-.058a.344.344 0 01-.676 0l-.308.058a.633.633 0 00.648.57.626.626 0 00.64-.57zm5.03 1.907h-.795v-.657h1.633v-.451h-2.12v2.86h1.27c.653 0 1.063-.313 1.063-.884s-.402-.868-1.05-.868zm-.135 1.297h-.66v-.861h.75c.385 0 .582.143.582.42 0 .352-.24.44-.66.44h-.012zm3.54-.745l-.888-1.664h-.563l1.193 2.166a.565.565 0 01-.452.308.678.678 0 01-.351-.088l-.19.386c.172.095.365.145.56.142a.973.973 0 00.904-.667l1.115-2.236h-.544l-.784 1.653zm2.213-1.197h.907v2.393h.506v-2.393h.907v-.467h-2.32v.467zm3.956 1.622v-2.09h-.494v2.861h.475l1.44-2.084v2.084h.494v-2.86h-.47l-1.445 2.088zm5.745-2.09h-.614l-1.363 1.44v-1.44h-.502v2.861h.502v-.83l.448-.459.973 1.29h.61l-1.24-1.63 1.186-1.231z" fill="#A77E56"/></svg>