<svg width="578" height="654" fill="none" xmlns="http://www.w3.org/2000/svg"><path opacity=".5" clip-rule="evenodd" d="M501.064 263.127c10.238 48.328 31.929 93.366 25.354 142.335-8.206 61.112-11.343 140.871-66.974 167.616-56.715 27.266-115.038-40.071-177.128-50.264-54.047-8.873-116.223 27.442-160.226-5.119-44.157-32.675-46.148-97.417-52.102-151.997-5.302-48.608 1.924-96.28 20.064-141.707 18.398-46.073 45.417-87.175 83.871-118.567 43.405-35.435 91.996-73.086 147.986-70.713 56.653 2.4 108.604 38.493 143.566 83.068 31.563 40.242 24.993 95.326 35.589 145.348z" stroke="#A77E56"/></svg>