<svg width="50" height="55" fill="none" xmlns="http://www.w3.org/2000/svg"><path d="M44.664 3.733a.933.933 0 00.933-.933V.933a.933.933 0 10-1.867 0V2.8c0 .515.418.933.934.933zm0 1.867a.933.933 0 00-.934.933V8.4a.933.933 0 101.867 0V6.533a.933.933 0 00-.933-.933zm-3.731 0H42.8a.933.933 0 100-1.867h-1.867a.933.933 0 100 1.867zm5.598 0h1.867a.933.933 0 100-1.867H46.53a.933.933 0 100 1.867zm2.467 15.396a.998.998 0 100-1.996.998.998 0 000 1.996z" fill="#A98056"/><path d="M6.5 16.017H4a1 1 0 00-1 1v2m30.5-3H35a1 1 0 011 1v2" stroke="#A98056" stroke-width="1.6" stroke-linecap="round"/><path d="M38 27.517v-7.5a1 1 0 00-1-1H2a1 1 0 00-1 1v22a1 1 0 001 1h35a1 1 0 001-1v-6.75" stroke="#A98056" stroke-width="1.6"/><path d="M33.5 19.017l.74-1.104a1 1 0 00-.263-1.381l-11.541-7.95a1 1 0 00-1.39.255l-7.044 10.18" stroke="#A98056" stroke-width="1.6"/><path d="M6.176 19.517l.572-7.503a1 1 0 011.073-.921L19 11.945" stroke="#A98056" stroke-width="1.6"/><path d="M17.998 28.012a.998.998 0 100-1.995.998.998 0 000 1.995z" fill="#A98056"/><path d="M1 23.017h37" stroke="#A77E56" stroke-width="1.6"/><path d="M1 39.017h6.5m30.5 0H11.5" stroke="#A77E56" stroke-width="1.6" stroke-linecap="round"/><mask id="a" fill="#fff"><path d="M27 31.517a4.5 4.5 0 014.5-4.5H39a1 1 0 011 1v7a1 1 0 01-1 1h-7.5a4.5 4.5 0 01-4.5-4.5z"/></mask><path d="M27 31.517a4.5 4.5 0 014.5-4.5H39a1 1 0 011 1v7a1 1 0 01-1 1h-7.5a4.5 4.5 0 01-4.5-4.5z" stroke="#A98056" stroke-width="3.2" mask="url(#a)"/><circle cx="31.5" cy="31.517" r="2" stroke="#A98056"/></svg>