<svg width="59" height="57" fill="none" xmlns="http://www.w3.org/2000/svg"><path d="M13.754 40.731a.8.8 0 101.492-.578l-1.492.578zM44.1 8.834l-.742.298.742-.298zM9.154 21.122L41.809 8.46l-.578-1.492L8.576 19.63l.578 1.492zm6.092 19.03L8.469 22.675l-1.492.579 6.777 17.478 1.492-.578zm28.11-31.02l4.688 11.666 1.484-.596-4.687-11.667-1.484.597zM41.81 8.46a1.2 1.2 0 011.548.672l1.484-.597a2.8 2.8 0 00-3.61-1.567l.578 1.492zM8.576 19.63a2.8 2.8 0 00-1.599 3.623l1.492-.579a1.2 1.2 0 01.685-1.552l-.578-1.492z" fill="#A77E56"/><path d="M10.829 28.196l3.67-1.696m31.457-12.116L29.998 20.5" stroke="#A77E56" stroke-width="1.6" stroke-linecap="round"/><path d="M15 28h36.5" stroke="#A77E56" stroke-width="1.7"/><rect x="14.8" y="20.8" width="37.4" height="24.4" rx="1.2" stroke="#A77E56" stroke-width="1.6"/><path d="M19 33h19m-19 3h19m-19 3h19" stroke="#A98056" stroke-width="1.6" stroke-linecap="round" stroke-linejoin="round"/><path d="M56.93 1.972h-.985V.986a.986.986 0 00-1.973 0v.986h-.986a.986.986 0 000 1.973h.986v.986a.986.986 0 001.973 0v-.986h.986a.986.986 0 000-1.973zm-42 51h-.985v-.986a.986.986 0 00-1.973 0v.986h-.986a.986.986 0 000 1.973h.986v.986a.986.986 0 101.973 0v-.986h.986a.986.986 0 000-1.973zM41.998 2.996a.998.998 0 100-1.996.998.998 0 000 1.996z" fill="#A98056"/><path d="M3.5 47a1.5 1.5 0 11-3 0 1.5 1.5 0 013 0z" stroke="#A77E56"/><path d="M57.998 18.996a.998.998 0 100-1.996.998.998 0 000 1.996z" fill="#A98056"/></svg>