<svg width="41" height="47" fill="none" xmlns="http://www.w3.org/2000/svg"><path d="M26.556 2.456c.34 0 .614-.275.614-.614V.614a.614.614 0 10-1.227 0v1.228c0 .339.274.614.613.614zm0 1.227a.614.614 0 00-.613.614v1.228a.614.614 0 001.227 0V4.297a.614.614 0 00-.614-.614zm-2.456 0h1.228a.614.614 0 100-1.227h-1.227a.614.614 0 000 1.227zm3.685.001h1.228a.614.614 0 100-1.228h-1.228a.614.614 0 000 1.228zm2.608 5.525a.767.767 0 100 1.535.767.767 0 000-1.535z" fill="#A98056"/><path d="M2 39.297c2.302.629 4.703 1.304 7.674.702m19.184-10.54C24.988 35.48 16.623 38.59 9.674 40m0 0c9.976 11.576 25.324 1.44 28.393-8.376 2.1-6.713 0-17.961 0-19.046 0-1.674 1.812 4.327-15.348 8.302M9.674 40c-.44-1.47-.631-3.588-.147-5.935M22.719 20.88c-9.194 2.13-12.267 8.694-13.192 13.185M22.719 20.88c1.228-3.683-6.139-16.882-6.139-14.441-.767 3.698-2.214 6.465-5.371 8.302-7.674 4.465-9.976 15.348-1.682 19.324" stroke="#A98056" stroke-width="2.302" stroke-linecap="round"/></svg>