<svg width="63" height="56" fill="none" xmlns="http://www.w3.org/2000/svg"><path d="M26.778 40.785l.008.003.674-1.986-.008-.002-.003-.001c-4.43-1.423-8.255-2.652-11.099-4.147-2.943-1.547-4.681-3.28-5.635-5.623-.904-2.22-.972-4.56-.193-6.59.768-2.002 2.31-3.559 4.34-4.386 1.488-.606 3.044-.697 4.624-.27 1.408.38 2.578 1.108 3.311 1.653.378.28.866.34 1.306.161.44-.18.747-.563.821-1.027.145-.902.472-2.241 1.214-3.497.833-1.408 2.01-2.43 3.498-3.036 2.03-.827 4.222-.79 6.169.105 1.976.91 3.562 2.632 4.466 4.851.953 2.342.922 4.797-.104 7.96l2.011.615c1.17-3.61 1.188-6.589.054-9.373-1.102-2.706-3.061-4.817-5.518-5.947-2.486-1.143-5.278-1.192-7.864-.14-1.932.787-3.457 2.109-4.532 3.928-.543.918-.958 1.94-1.238 3.05a11.511 11.511 0 00-3.016-1.318c-2.04-.55-4.054-.43-5.987.356-2.585 1.053-4.549 3.04-5.529 5.594-.968 2.524-.895 5.404.207 8.11 1.134 2.784 3.227 4.903 6.587 6.67 3.005 1.579 6.912 2.834 11.436 4.287z" fill="#A98056"/><path d="M36.127 51.703a2.14 2.14 0 01-1.275-.772 418.457 418.457 0 00-3.377-4.192l-.006-.006c-2.997-3.687-5.586-6.87-7.243-9.834-1.852-3.313-2.45-6.231-1.88-9.183.553-2.869 2.063-5.322 4.252-6.909 2.216-1.605 4.945-2.199 7.686-1.67 2.049.395 3.802 1.394 5.211 2.968a11.514 11.514 0 011.808 2.75 11.515 11.515 0 012.702-1.88c1.893-.938 3.893-1.213 5.941-.818 2.741.529 5.055 2.094 6.514 4.408 1.442 2.287 1.931 5.126 1.378 7.995-.569 2.952-2.208 5.438-5.16 7.825-2.64 2.136-6.226 4.128-10.38 6.435-1.418.789-3.027 1.682-4.702 2.641a2.14 2.14 0 01-1.47.242zm-2.238-30.521c-2.153-.415-4.294.048-6.03 1.306-1.76 1.276-2.98 3.275-3.434 5.628-.48 2.483.03 4.885 1.653 7.787 1.568 2.805 4.104 5.923 7.04 9.534l.005.006a408.036 408.036 0 013.395 4.214 491.732 491.732 0 014.733-2.653c4.067-2.26 7.58-4.21 10.079-6.232 2.584-2.09 3.95-4.13 4.43-6.613.453-2.353.064-4.663-1.096-6.502-1.143-1.813-2.959-3.04-5.112-3.455-1.578-.304-3.121-.09-4.587.636-1.308.647-2.313 1.59-2.926 2.267a1.33 1.33 0 01-1.249.413 1.33 1.33 0 01-1.006-.847c-.317-.857-.9-2.106-1.872-3.193-1.092-1.22-2.445-1.992-4.023-2.296zM50.863 4.15c.574 0 1.038-.464 1.038-1.037V1.038a1.037 1.037 0 10-2.076 0v2.075c0 .573.464 1.038 1.038 1.038zM51.9 9.339V7.264a1.037 1.037 0 10-2.075 0v2.075a1.037 1.037 0 102.076 0zm-2.074-4.151c0-.573-.465-1.037-1.038-1.037h-2.075a1.037 1.037 0 100 2.075h2.075c.574 0 1.038-.465 1.038-1.038zm3.112 1.038h2.076a1.037 1.037 0 100-2.075h-2.076a1.037 1.037 0 100 2.075zM5.188 45.1c.574 0 1.038-.464 1.038-1.037v-2.075a1.037 1.037 0 10-2.076 0v2.075c0 .573.464 1.037 1.038 1.037zm1.038 5.189v-2.075a1.037 1.037 0 10-2.076 0v2.075a1.037 1.037 0 102.076 0zM4.15 46.138c0-.573-.464-1.038-1.037-1.038H1.038a1.037 1.037 0 100 2.076h2.075c.573 0 1.038-.465 1.038-1.038zm3.113 1.038H9.34a1.037 1.037 0 100-2.076H7.263a1.037 1.037 0 100 2.076zm-1.42-13.65a1.662 1.662 0 00-.52-.331 1.558 1.558 0 00-1.197 0 1.42 1.42 0 00-.85.852 1.56 1.56 0 002.047 2.052c.191-.081.367-.193.52-.331a1.567 1.567 0 00.331-1.721 1.638 1.638 0 00-.33-.521zM18.444 44.55a1.665 1.665 0 00-.52-.33 1.558 1.558 0 00-1.198 0 1.419 1.419 0 00-.85.852 1.56 1.56 0 002.047 2.052c.191-.081.367-.193.52-.332a1.565 1.565 0 00.331-1.72 1.64 1.64 0 00-.33-.521zm42.981-33.525A1.558 1.558 0 0063 9.452a1.654 1.654 0 00-.457-1.117 1.578 1.578 0 00-.252-.188.888.888 0 00-.268-.142.966.966 0 00-.3-.095 1.354 1.354 0 00-.613 0c-.099.018-.194.05-.284.095-.1.034-.196.082-.285.142-.081.058-.16.121-.234.188-.288.301-.452.7-.457 1.117a1.557 1.557 0 001.575 1.573zm-5.843 7.411a1.58 1.58 0 001.722.344 1.57 1.57 0 00.971-1.46 1.65 1.65 0 00-.457-1.114 3.585 3.585 0 00-.252-.188.887.887 0 00-.268-.142.97.97 0 00-.3-.094 1.464 1.464 0 00-.897.094 1.63 1.63 0 00-.52.33c-.288.3-.451.699-.456 1.114-.005.418.16.82.457 1.116z" fill="#A98056"/></svg>