<svg width="56" height="54" fill="none" xmlns="http://www.w3.org/2000/svg"><path d="M2.95 24.416a.998.998 0 10-1.997 0 .998.998 0 001.997 0zM5.45 4.6a.933.933 0 00.934-.933V1.8a.933.933 0 00-1.867 0v1.867c0 .515.418.933.933.933zm0 1.867a.933.933 0 00-.933.933v1.867a.933.933 0 001.867 0V7.4a.933.933 0 00-.934-.933zm-3.733 0h1.867a.933.933 0 000-1.867H1.717a.933.933 0 000 1.867zm5.6 0h1.867a.933.933 0 000-1.867H7.317a.933.933 0 000 1.867zM48.85 19.533a3.27 3.27 0 003.267-3.266A3.27 3.27 0 0048.85 13a3.27 3.27 0 00-3.266 3.267 3.27 3.27 0 003.266 3.266zm0-4.666a1.4 1.4 0 010 2.8c-.772 0-1.4-.628-1.4-1.4 0-.772.628-1.4 1.4-1.4zm5.368 15.085a.998.998 0 100 1.995.998.998 0 000-1.995zm-2.003 17.581H47.45V29.208a4.08 4.08 0 00-4.075-4.075h-9.3c.8-.455 1.554-1.051 2.152-1.836 2.437-3.193 1.21-8.054 1.156-8.26a.956.956 0 00-.915-.697c-.212.002-5.225.103-7.661 3.296a6.274 6.274 0 00-.364.54c-2.237-2.272-6.04-2.35-6.212-2.352-.464-.014-.808.283-.915.699-.046.178-1.113 4.406 1.014 7.193a6.02 6.02 0 001.578 1.418H12.326a4.08 4.08 0 00-4.076 4.075v18.324H3.584a.933.933 0 00-.934.934v.223a4.449 4.449 0 004.444 4.443h41.611a4.449 4.449 0 004.444-4.443v-.223a.933.933 0 00-.934-.934zM45.584 32.6V41H10.117v-8.4h35.467zm-9.86-16.335c.209 1.317.42 4.064-.98 5.9-1.396 1.828-4.107 2.354-5.435 2.504-.208-1.318-.42-4.065.982-5.9 1.395-1.829 4.107-2.354 5.434-2.504zm-12.743 1.49c1.156.145 3.315.608 4.438 2.079.075.099.138.204.202.308-.425 1.617-.357 3.263-.217 4.38-1.175-.245-2.704-.778-3.59-1.938-1.122-1.471-.998-3.676-.833-4.829zM12.326 27h31.05a2.21 2.21 0 012.208 2.209v1.524H10.117V29.21a2.21 2.21 0 012.209-2.209zm-2.209 15.867h35.467v4.666H10.117v-4.666zm38.588 8.4H7.095A2.582 2.582 0 014.616 49.4h46.567a2.582 2.582 0 01-2.477 1.867z" fill="#A98056"/><path d="M42.755 36.531a.962.962 0 100-1.923.962.962 0 000 1.923zm-3.845 2.885a.962.962 0 10-.001-1.923.962.962 0 000 1.923zm-7.694 0a.962.962 0 100-1.923.962.962 0 000 1.923zm-7.693 0a.962.962 0 100-1.923.962.962 0 000 1.923zm-7.693 0a.962.962 0 100-1.923.962.962 0 000 1.923zm19.232-2.885a.962.962 0 100-1.923.962.962 0 000 1.923zm-7.692 0a.962.962 0 100-1.923.962.962 0 000 1.923zm-7.693 0a.962.962 0 100-1.923.962.962 0 000 1.923zm-6.732 0a.962.962 0 100-1.923.962.962 0 000 1.923z" fill="#A98056"/></svg>