<svg width="62" height="56" fill="none" xmlns="http://www.w3.org/2000/svg"><path d="M23.97 9.355h19.256m-19.255 0L7.678 19.527M23.97 9.355l9.627 10.172m9.628-10.172L61 19.527M43.226 9.355l-9.628 10.172m27.402 0L33.598 54.403M61 19.527H49.891m-42.213 0l25.92 34.876M7.678 19.527h9.627m16.293 0v34.876m0-34.876h16.293m-16.293 0H17.305m16.293 34.876l16.293-34.876M33.598 54.403L17.305 19.527" stroke="#A77E56" stroke-width="1.8" stroke-linecap="round" stroke-linejoin="round"/><path d="M58.11 44a.917.917 0 100 1.834.917.917 0 000-1.834zM.917 25a.917.917 0 100 1.835.917.917 0 000-1.835zM9.29 3.432a.858.858 0 00.858-.858V.858a.858.858 0 10-1.716 0v1.716c0 .474.383.858.858.858zm.858 4.29V6.006a.858.858 0 10-1.716 0v1.716a.858.858 0 101.716 0zM8.432 4.29a.858.858 0 00-.858-.858H5.858a.858.858 0 100 1.717h1.716a.858.858 0 00.858-.859zm2.575.859h1.716a.858.858 0 100-1.717h-1.716a.858.858 0 100 1.717zm39.996 44.367A3.007 3.007 0 0048 52.52a3.007 3.007 0 003.003 3.004 3.007 3.007 0 003.003-3.004 3.007 3.007 0 00-3.003-3.003zm0 4.29a1.288 1.288 0 010-2.574 1.288 1.288 0 010 2.574z" fill="#A98056"/></svg>