<svg width="61" height="64" fill="none" xmlns="http://www.w3.org/2000/svg"><path d="M24.32 62a24.32 24.32 0 1124.32-24.319 24.346 24.346 0 01-24.32 24.32zm0-46.917A22.599 22.599 0 1046.918 37.68 22.625 22.625 0 0024.32 15.083z" fill="#A77E56"/><path d="M24.32 53.964A16.285 16.285 0 1140.604 37.68 16.3 16.3 0 0124.32 53.964zm0-30.846A14.563 14.563 0 1038.882 37.68 14.578 14.578 0 0024.32 23.118z" fill="#A77E56"/><path d="M24.32 45.929a8.25 8.25 0 118.248-8.25 8.258 8.258 0 01-8.249 8.25zm0-14.775a6.528 6.528 0 106.526 6.526 6.533 6.533 0 00-6.527-6.526zM51.268 11.6a.86.86 0 01-.608-1.468l3.605-3.606a.861.861 0 011.216 1.218l-3.604 3.605a.855.855 0 01-.609.252z" fill="#A77E56"/><path d="M24.323 38.543a.86.86 0 01-.608-1.47l21.328-21.326a.86.86 0 011.217 1.217L24.932 38.29a.855.855 0 01-.609.253z" fill="#A77E56"/><path d="M49.498 17.777a.902.902 0 01-.124-.01l-3.833-.56a.872.872 0 01-.75-.723l-.597-3.88a.857.857 0 01.242-.739l5.613-5.613a.86.86 0 011.46.477l.5 3.251 3.23.482a.864.864 0 01.481 1.463l-5.613 5.6a.863.863 0 01-.609.252zm-3.1-2.181l2.802.408 4.096-4.087-2.141-.32a.869.869 0 01-.748-.721l-.344-2.201-4.101 4.1.437 2.82z" fill="#A77E56"/><path d="M6.207 10.962a.998.998 0 10-1.635-1.145.998.998 0 001.635 1.145zm48.858 37.613a2.524 2.524 0 003.51-.618 2.524 2.524 0 00-.618-3.51 2.524 2.524 0 00-3.51.618 2.524 2.524 0 00.618 3.51zm2.066-2.95a1.081 1.081 0 01-1.24 1.77 1.081 1.081 0 011.24-1.77zm-9.383 8.392a.913.913 0 001.046-1.494.913.913 0 00-1.046 1.494zm.747-1.067a.391.391 0 11-.45.64.391.391 0 01.45-.64zM21 2.4a.6.6 0 00.6-.6V.6a.6.6 0 00-1.2 0v1.2a.6.6 0 00.6.6zm0 1.2a.6.6 0 00-.6.6v1.2a.6.6 0 101.2 0V4.2a.6.6 0 00-.6-.6zm-2.4 0h1.2a.6.6 0 100-1.2h-1.2a.6.6 0 000 1.2zm3.6 0h1.2a.6.6 0 100-1.2h-1.2a.6.6 0 000 1.2zM53 59.2a.8.8 0 00.8-.8v-1.6a.8.8 0 00-1.6 0v1.6a.8.8 0 00.8.8zm0 1.6a.8.8 0 00-.8.8v1.6a.8.8 0 001.6 0v-1.6a.8.8 0 00-.8-.8zm-3.2 0h1.6a.8.8 0 000-1.6h-1.6a.8.8 0 000 1.6zm4.8 0h1.6a.8.8 0 000-1.6h-1.6a.8.8 0 000 1.6z" fill="#A98056"/></svg>