<svg width="25" height="17" fill="none" xmlns="http://www.w3.org/2000/svg"><path d="M24.841 8.014C24.618 7.708 19.296.534 12.5.534 5.703.533.382 7.707.159 8.013a.825.825 0 000 .972c.223.306 5.544 7.481 12.34 7.481 6.797 0 12.119-7.175 12.342-7.48a.824.824 0 000-.973zM12.5 14.819c-5.006 0-9.342-4.762-10.626-6.32C3.156 6.942 7.483 2.183 12.5 2.183c5.006 0 9.342 4.761 10.626 6.319-1.282 1.558-5.61 6.318-10.626 6.318z" fill="#ABA5A0"/><path d="M12.5 3.554A4.95 4.95 0 007.555 8.5a4.95 4.95 0 004.945 4.945A4.95 4.95 0 0017.445 8.5 4.95 4.95 0 0012.5 3.554zm0 8.242A3.3 3.3 0 019.203 8.5 3.3 3.3 0 0112.5 5.203 3.3 3.3 0 0115.796 8.5a3.3 3.3 0 01-3.296 3.296z" fill="#ABA5A0"/></svg>