<svg width="35" height="35" fill="none" xmlns="http://www.w3.org/2000/svg"><g clip-path="url(#clip0)"><path d="M30.602 4.401A14.929 14.929 0 0019.976 0 14.929 14.929 0 009.35 4.401a14.929 14.929 0 00-4.401 10.626c0 3.67 1.307 7.138 3.7 9.875L.304 33.248a1.027 1.027 0 001.451 1.451l8.346-8.345a14.916 14.916 0 009.875 3.7c4.014 0 7.787-1.563 10.626-4.401a14.929 14.929 0 004.4-10.626 14.93 14.93 0 00-4.4-10.626zm-1.452 19.8c-5.059 5.059-13.29 5.059-18.348 0-5.059-5.058-5.059-13.29 0-18.348a12.932 12.932 0 019.174-3.794c3.322 0 6.645 1.265 9.174 3.794 5.058 5.059 5.058 13.29 0 18.348z" fill="#fff"/></g><defs><clipPath id="clip0"><path fill="#fff" d="M0 0h35v35H0z"/></clipPath></defs></svg>