<svg width="895" height="857" viewBox="0 0 895 857" fill="none" xmlns="http://www.w3.org/2000/svg">
<path opacity="0.5" fill-rule="evenodd" clip-rule="evenodd" d="M315.575 661.548C273.439 623.874 247.387 576.528 215.105 530.127C173.049 469.678 83.6837 421.314 98.1852 349.085C112.644 277.067 217.781 273.042 275.771 227.957C327.482 187.753 353.609 108.527 418.537 100.023C483.559 91.5066 538.102 146.324 589.643 186.847C634.406 222.041 665.956 267.191 694.117 316.691C725.587 372.01 762.996 426.435 762.158 490.093C761.213 561.929 738.909 635.408 689.241 687.327C637.638 741.267 563.751 780.434 489.314 775.299C418.516 770.415 368.473 708.845 315.575 661.548Z" stroke="#A77E56"/>
</svg>
