<svg width="70" height="70" viewBox="0 0 70 70" fill="none" xmlns="http://www.w3.org/2000/svg">
<path d="M9.94956 32.4164C9.94956 31.8653 9.50273 31.4185 8.95159 31.4185C8.40046 31.4185 7.95386 31.8653 7.95386 32.4164C7.95386 32.9676 8.40069 33.4142 8.95159 33.4142C9.50249 33.4142 9.94956 32.9676 9.94956 32.4164Z" fill="#A98056"/>
<path d="M12.4504 12.6C12.9659 12.6 13.3838 12.1821 13.3838 11.6667V9.80003C13.3838 9.2846 12.9659 8.8667 12.4504 8.8667C11.935 8.8667 11.5171 9.2846 11.5171 9.80003V11.6667C11.5171 12.1821 11.935 12.6 12.4504 12.6Z" fill="#A98056"/>
<path d="M12.4504 14.4668C11.935 14.4668 11.5171 14.8847 11.5171 15.4001V17.2668C11.5171 17.7822 11.935 18.2001 12.4504 18.2001C12.9659 18.2001 13.3838 17.7822 13.3838 17.2668V15.4001C13.3838 14.8847 12.9659 14.4668 12.4504 14.4668Z" fill="#A98056"/>
<path d="M8.71702 14.4668H10.5837C11.0991 14.4668 11.517 14.0489 11.517 13.5334C11.517 13.018 11.0991 12.6001 10.5837 12.6001H8.71702C8.20159 12.6001 7.78369 13.018 7.78369 13.5334C7.78369 14.0489 8.20159 14.4668 8.71702 14.4668Z" fill="#A98056"/>
<path d="M14.317 14.4668H16.1837C16.6991 14.4668 17.117 14.0489 17.117 13.5334C17.117 13.018 16.6991 12.6001 16.1837 12.6001H14.317C13.8016 12.6001 13.3837 13.018 13.3837 13.5334C13.3837 14.0489 13.8016 14.4668 14.317 14.4668Z" fill="#A98056"/>
<path d="M55.8503 27.5333C57.6514 27.5333 59.1169 26.0678 59.1169 24.2667C59.1169 22.4656 57.6514 21 55.8503 21C54.0492 21 52.5836 22.4656 52.5836 24.2667C52.5836 26.0678 54.0492 27.5333 55.8503 27.5333ZM55.8503 22.8667C56.6224 22.8667 57.2503 23.4946 57.2503 24.2667C57.2503 25.0388 56.6224 25.6667 55.8503 25.6667C55.0782 25.6667 54.4503 25.0388 54.4503 24.2667C54.4503 23.4946 55.0782 22.8667 55.8503 22.8667Z" fill="#A98056"/>
<path d="M61.2182 37.9519C60.6671 37.9519 60.2205 38.3987 60.2205 38.9499C60.2205 39.501 60.6673 39.9476 61.2182 39.9476C61.7691 39.9476 62.2162 39.5008 62.2162 38.9499C62.2162 38.399 61.7693 37.9519 61.2182 37.9519Z" fill="#A98056"/>
<path d="M59.2155 55.5334H54.4504V37.2085C54.4504 34.9613 52.6225 33.1334 50.3752 33.1334H41.0741C41.8742 32.6777 42.6288 32.0817 43.2271 31.2973C45.6638 28.1043 44.4367 23.2431 44.3832 23.0377C44.2747 22.6222 43.8778 22.3387 43.4681 22.3396C43.2558 22.3424 38.2431 22.4425 35.8068 25.6364C35.6734 25.8114 35.5553 25.9929 35.4431 26.1768C33.2056 23.9043 29.4032 23.8262 29.231 23.8241C28.7667 23.8098 28.4235 24.1066 28.3159 24.5227C28.2695 24.7014 27.2034 28.9287 29.3304 31.7163C29.777 32.3018 30.3242 32.7621 30.9082 33.1336H19.3256C17.0783 33.1336 15.2504 34.9615 15.2504 37.2088V55.5334H10.5837C10.0683 55.5334 9.65039 55.9513 9.65039 56.4667V56.69C9.65039 59.14 11.6438 61.1334 14.0938 61.1334H55.7055C58.1555 61.1334 60.1489 59.14 60.1489 56.69V56.4667C60.1489 55.9513 59.731 55.5334 59.2155 55.5334ZM52.5837 40.6V49H17.1171V40.6H52.5837ZM42.7249 24.2648C42.9328 25.5822 43.1442 28.329 41.7433 30.1651C40.3482 31.9931 37.6366 32.5185 36.3092 32.6686C36.1013 31.3512 35.8899 28.6044 37.2908 26.7683C38.6859 24.9403 41.3975 24.4149 42.7249 24.2648ZM29.981 25.7551C31.1371 25.8996 33.2959 26.3627 34.4185 27.8337C34.4941 27.9326 34.5571 28.0376 34.6213 28.1419C34.1961 29.7594 34.2638 31.4053 34.4036 32.5216C33.2294 32.2773 31.6999 31.7443 30.8147 30.584C29.6921 29.1126 29.8155 26.908 29.981 25.7551ZM19.3256 35H50.3752C51.593 35 52.5837 35.9908 52.5837 37.2085V38.7334H17.1171V37.2085C17.1171 35.9908 18.1078 35 19.3256 35ZM17.1171 50.8667H52.5837V55.5334H17.1171V50.8667ZM55.7055 59.2667H14.0938C12.9194 59.2667 11.9254 58.4764 11.6165 57.4H58.1828C57.8739 58.4764 56.8799 59.2667 55.7055 59.2667Z" fill="#A98056"/>
<path d="M49.7555 44.5313C50.2866 44.5313 50.7171 44.1008 50.7171 43.5697C50.7171 43.0387 50.2866 42.6082 49.7555 42.6082C49.2244 42.6082 48.7939 43.0387 48.7939 43.5697C48.7939 44.1008 49.2244 44.5313 49.7555 44.5313Z" fill="#A98056"/>
<path d="M45.909 47.4163C46.44 47.4163 46.8705 46.9858 46.8705 46.4547C46.8705 45.9237 46.44 45.4932 45.909 45.4932C45.3779 45.4932 44.9474 45.9237 44.9474 46.4547C44.9474 46.9858 45.3779 47.4163 45.909 47.4163Z" fill="#A98056"/>
<path d="M38.216 47.4163C38.747 47.4163 39.1775 46.9858 39.1775 46.4547C39.1775 45.9237 38.747 45.4932 38.216 45.4932C37.6849 45.4932 37.2544 45.9237 37.2544 46.4547C37.2544 46.9858 37.6849 47.4163 38.216 47.4163Z" fill="#A98056"/>
<path d="M30.5232 47.4163C31.0543 47.4163 31.4848 46.9858 31.4848 46.4547C31.4848 45.9237 31.0543 45.4932 30.5232 45.4932C29.9921 45.4932 29.5616 45.9237 29.5616 46.4547C29.5616 46.9858 29.9919 47.4163 30.5232 47.4163Z" fill="#A98056"/>
<path d="M22.8302 47.4163C23.3613 47.4163 23.7918 46.9858 23.7918 46.4547C23.7918 45.9237 23.3613 45.4932 22.8302 45.4932C22.2992 45.4932 21.8687 45.9237 21.8687 46.4547C21.8687 46.9858 22.2992 47.4163 22.8302 47.4163Z" fill="#A98056"/>
<path d="M42.0624 44.5313C42.5935 44.5313 43.024 44.1008 43.024 43.5697C43.024 43.0387 42.5935 42.6082 42.0624 42.6082C41.5313 42.6082 41.1008 43.0387 41.1008 43.5697C41.1008 44.1008 41.5313 44.5313 42.0624 44.5313Z" fill="#A98056"/>
<path d="M34.3694 44.5313C34.9005 44.5313 35.331 44.1008 35.331 43.5697C35.331 43.0387 34.9005 42.6082 34.3694 42.6082C33.8383 42.6082 33.4078 43.0387 33.4078 43.5697C33.4078 44.1008 33.8383 44.5313 34.3694 44.5313Z" fill="#A98056"/>
<path d="M26.6767 44.5313C27.2077 44.5313 27.6382 44.1008 27.6382 43.5697C27.6382 43.0387 27.2077 42.6082 26.6767 42.6082C26.1456 42.6082 25.7151 43.0387 25.7151 43.5697C25.7149 44.1008 26.1456 44.5313 26.6767 44.5313Z" fill="#A98056"/>
<path d="M19.9452 44.5313C20.4763 44.5313 20.9068 44.1008 20.9068 43.5697C20.9068 43.0387 20.4763 42.6082 19.9452 42.6082C19.4141 42.6082 18.9836 43.0387 18.9836 43.5697C18.9836 44.1008 19.4141 44.5313 19.9452 44.5313Z" fill="#A98056"/>
</svg>
