<svg width="58" height="51" viewBox="0 0 58 51" fill="none" xmlns="http://www.w3.org/2000/svg">
<path d="M24.6523 37.5478L24.6596 37.5503L25.2803 35.7222L25.2728 35.7198L25.2704 35.7191C21.1926 34.409 17.6709 33.2775 15.0524 31.9014C12.3428 30.4775 10.7428 28.881 9.86481 26.725C9.03268 24.6816 8.96958 22.5267 9.6869 20.6571C10.3938 18.8152 11.8128 17.3816 13.6829 16.62C15.0526 16.0622 16.4848 15.9783 17.9393 16.3706C19.2358 16.7205 20.3129 17.3916 20.9881 17.8931C21.3354 18.151 21.7845 18.2064 22.1897 18.0414C22.5948 17.8764 22.8775 17.523 22.9458 17.0958C23.0788 16.2652 23.3806 15.0326 24.0637 13.8766C24.8303 12.5798 25.9137 11.6393 27.2836 11.0814C29.1534 10.32 31.1705 10.3543 32.9628 11.1784C34.7822 12.015 36.2425 13.601 37.0746 15.6444C37.9526 17.8004 37.9231 20.0604 36.9794 22.9721L38.8305 23.5388C39.9082 20.2148 39.9237 17.4728 38.8798 14.9092C37.8655 12.4186 36.0617 10.4743 33.8001 9.43441C31.5117 8.38227 28.9406 8.33656 26.5605 9.3058C24.7814 10.0303 23.3774 11.2469 22.3875 12.9218C21.8878 13.7673 21.5064 14.7082 21.2483 15.7297C20.3502 15.1791 19.4198 14.7723 18.4718 14.5164C16.5934 14.0096 14.7389 14.1199 12.9598 14.8444C10.5795 15.8137 8.77206 17.6425 7.86968 19.9941C6.97802 22.318 7.04538 24.9695 8.05965 27.4601C9.10359 30.0236 11.0305 31.9747 14.1239 33.6003C16.891 35.0545 20.4875 36.2099 24.6523 37.5478Z" fill="#A98056"/>
<path d="M33.2595 47.5996C32.7943 47.5099 32.3778 47.2577 32.0863 46.8892C30.9852 45.4995 29.9182 44.1873 28.9769 43.0297L28.9721 43.0237C26.2121 39.6299 23.8289 36.6991 22.3035 33.9705C20.5985 30.9202 20.0484 28.2338 20.5725 25.5159C21.0817 22.8753 22.4721 20.6167 24.4875 19.1558C26.5269 17.6776 29.0394 17.1315 31.563 17.6181C33.4492 17.9818 35.0635 18.9014 36.361 20.3511C37.0157 21.0828 37.5735 21.9314 38.0256 22.8829C38.7993 22.1678 39.6323 21.5874 40.5125 21.1516C42.256 20.2883 44.0964 20.0349 45.9826 20.3986C48.506 20.8852 50.6356 22.3265 51.9791 24.457C53.3068 26.5625 53.7574 29.1761 53.2482 31.8167C52.7242 34.5346 51.2148 36.8239 48.4979 39.0213C46.0674 40.9873 42.7655 42.8216 38.942 44.9457C37.6355 45.6713 36.1548 46.494 34.6124 47.3768C34.2051 47.6101 33.7244 47.6893 33.2595 47.5996ZM31.2 19.5006C29.2174 19.1183 27.246 19.5453 25.6485 20.703C24.0271 21.8783 22.9041 23.7185 22.4863 25.885C22.0456 28.1708 22.5152 30.3817 24.0088 33.0535C25.4523 35.6361 27.7867 38.5067 30.4896 41.8305L30.4946 41.8365C31.4395 42.9986 32.5107 44.3159 33.6199 45.7158C35.1785 44.828 36.665 44.0021 37.9768 43.2737C41.7215 41.1932 44.9555 39.3969 47.2559 37.5362C49.6356 35.6113 50.8936 33.7335 51.3344 31.4477C51.7521 29.2812 51.3939 27.1554 50.3258 25.4615C49.2735 23.7928 47.602 22.6634 45.6196 22.2811C44.1672 22.001 42.7462 22.198 41.3961 22.8664C40.1928 23.4623 39.2673 24.3306 38.7026 24.9541C38.4122 25.2747 37.9825 25.4166 37.553 25.3338C37.1234 25.251 36.7773 24.9594 36.627 24.5538C36.3348 23.7651 35.7985 22.615 34.9029 21.6143C33.8981 20.4918 32.6522 19.7806 31.2 19.5006Z" fill="#A98056"/>
<path d="M46.8264 3.82116C47.3544 3.82116 47.7817 3.39343 47.7817 2.86587V0.955291C47.7817 0.427731 47.3544 0 46.8264 0C46.2983 0 45.8711 0.427731 45.8711 0.955291V2.86587C45.8711 3.39343 46.2983 3.82116 46.8264 3.82116Z" fill="#A98056"/>
<path d="M47.7817 8.59756V6.68698C47.7817 6.15942 47.3544 5.73169 46.8264 5.73169C46.2983 5.73169 45.8711 6.15942 45.8711 6.68698V8.59756C45.8711 9.12512 46.2983 9.55285 46.8264 9.55285C47.3544 9.55285 47.7817 9.12512 47.7817 8.59756Z" fill="#A98056"/>
<path d="M45.8712 4.77634C45.8712 4.24878 45.444 3.82104 44.9159 3.82104H43.0053C42.4773 3.82104 42.05 4.24878 42.05 4.77634C42.05 5.30389 42.4773 5.73163 43.0053 5.73163H44.9159C45.444 5.73163 45.8712 5.30389 45.8712 4.77634Z" fill="#A98056"/>
<path d="M48.7372 5.73163H50.6477C51.1758 5.73163 51.603 5.30389 51.603 4.77634C51.603 4.24878 51.1758 3.82104 50.6477 3.82104H48.7372C48.2091 3.82104 47.7819 4.24878 47.7819 4.77634C47.7819 5.30389 48.2091 5.73163 48.7372 5.73163Z" fill="#A98056"/>
<path d="M4.77646 41.5211C5.30449 41.5211 5.73175 41.0934 5.73175 40.5658V38.6552C5.73175 38.1277 5.30449 37.7 4.77646 37.7C4.24842 37.7 3.82117 38.1277 3.82117 38.6552V40.5658C3.82117 41.0934 4.24842 41.5211 4.77646 41.5211Z" fill="#A98056"/>
<path d="M5.73175 46.2975V44.3869C5.73175 43.8594 5.30449 43.4316 4.77646 43.4316C4.24842 43.4316 3.82117 43.8594 3.82117 44.3869V46.2975C3.82117 46.8251 4.24842 47.2528 4.77646 47.2528C5.30449 47.2528 5.73175 46.8251 5.73175 46.2975Z" fill="#A98056"/>
<path d="M3.82116 42.4763C3.82116 41.9487 3.39391 41.521 2.86587 41.521H0.95529C0.427254 41.521 0 41.9487 0 42.4763C0 43.0038 0.427254 43.4316 0.95529 43.4316H2.86587C3.39391 43.4316 3.82116 43.0038 3.82116 42.4763Z" fill="#A98056"/>
<path d="M6.6871 43.4316H8.59768C9.12572 43.4316 9.55297 43.0038 9.55297 42.4763C9.55297 41.9487 9.12572 41.521 8.59768 41.521H6.6871C6.15907 41.521 5.73181 41.9487 5.73181 42.4763C5.73181 43.0038 6.15907 43.4316 6.6871 43.4316Z" fill="#A98056"/>
<path d="M5.37971 30.8651C5.24094 30.7346 5.0781 30.631 4.9011 30.5601C4.54852 30.4132 4.15203 30.4132 3.79874 30.5601C3.43483 30.692 3.14809 30.9801 3.0164 31.3447C2.78488 31.8853 2.90524 32.5124 3.32013 32.9288C3.73573 33.3445 4.3616 33.4651 4.9011 33.2339C5.07669 33.1594 5.23811 33.0565 5.37971 32.9288C5.7946 32.5124 5.91496 31.8853 5.68415 31.3447C5.61406 31.1673 5.51069 31.0042 5.37971 30.8651Z" fill="#A98056"/>
<path d="M16.9797 41.015C16.8409 40.8845 16.6781 40.7809 16.5011 40.71C16.1485 40.5631 15.752 40.5631 15.3987 40.71C15.0348 40.8419 14.7481 41.13 14.6164 41.4946C14.3849 42.0352 14.5052 42.6623 14.9201 43.0787C15.3357 43.4944 15.9616 43.615 16.5011 43.3838C16.6767 43.3093 16.8381 43.2064 16.9797 43.0787C17.3946 42.6623 17.5149 42.0352 17.2841 41.4946C17.214 41.3172 17.1107 41.1541 16.9797 41.015Z" fill="#A98056"/>
<path d="M56.55 10.1499C56.9358 10.1542 57.3068 10.0028 57.5794 9.73056C57.8519 9.4576 58.0035 9.08704 57.9999 8.70164C57.9943 8.31835 57.8442 7.95133 57.5794 7.67342C57.5079 7.60836 57.43 7.54966 57.3472 7.50016C57.2728 7.44288 57.19 7.39833 57.1008 7.36933C57.0137 7.32549 56.9203 7.29579 56.824 7.28235C56.6385 7.23922 56.4452 7.23922 56.2597 7.28235C56.1691 7.29862 56.0813 7.32761 55.9985 7.36933C55.9057 7.40116 55.8179 7.445 55.7365 7.50016C55.6615 7.5539 55.5893 7.61189 55.5206 7.67342C55.2551 7.95063 55.1043 8.31835 55.1001 8.70164C55.0958 9.08704 55.2473 9.4576 55.5199 9.73056C55.7932 10.0028 56.1641 10.1542 56.55 10.1499Z" fill="#A98056"/>
<path d="M51.1706 16.9726C51.5855 17.3891 52.2121 17.5147 52.7558 17.2895C53.3002 17.0644 53.6535 16.5329 53.65 15.9457C53.6443 15.5631 53.4942 15.1968 53.2294 14.9194C53.1565 14.8615 53.0843 14.8044 52.9972 14.7465C52.9229 14.6893 52.84 14.6448 52.7508 14.6159C52.6638 14.5722 52.5703 14.5425 52.474 14.5291C52.1965 14.4705 51.9076 14.5009 51.6485 14.6159C51.4715 14.6858 51.3087 14.7888 51.1706 14.9194C50.9051 15.1961 50.7543 15.5631 50.7501 15.9457C50.7458 16.3303 50.8973 16.7002 51.1706 16.9726Z" fill="#A98056"/>
</svg>
