<svg width="70" height="70" viewBox="0 0 70 70" fill="none" xmlns="http://www.w3.org/2000/svg">
<path d="M15.6167 11.6664C16.1326 11.6664 16.55 11.2485 16.55 10.7331V8.86644C16.55 8.35101 16.1326 7.93311 15.6167 7.93311C15.1008 7.93311 14.6833 8.35101 14.6833 8.86644V10.7331C14.6833 11.2485 15.1008 11.6664 15.6167 11.6664Z" fill="#A98056"/>
<path d="M15.6167 13.5332C15.1008 13.5332 14.6833 13.9511 14.6833 14.4665V16.3332C14.6833 16.8486 15.1008 17.2665 15.6167 17.2665C16.1326 17.2665 16.55 16.8486 16.55 16.3332V14.4665C16.55 13.9511 16.1323 13.5332 15.6167 13.5332Z" fill="#A98056"/>
<path d="M11.8834 13.5332H13.7501C14.266 13.5332 14.6834 13.1153 14.6834 12.5998C14.6834 12.0844 14.266 11.6665 13.7501 11.6665H11.8834C11.3675 11.6665 10.9501 12.0844 10.9501 12.5998C10.9501 13.1153 11.3675 13.5332 11.8834 13.5332Z" fill="#A98056"/>
<path d="M17.4834 13.5332H19.35C19.8659 13.5332 20.2834 13.1153 20.2834 12.5998C20.2834 12.0844 19.8659 11.6665 19.35 11.6665H17.4834C16.9675 11.6665 16.55 12.0844 16.55 12.5998C16.55 13.1153 16.9675 13.5332 17.4834 13.5332Z" fill="#A98056"/>
<path d="M9.30865 28.829C9.85978 28.829 10.3064 28.3821 10.3064 27.831C10.3064 27.2799 9.85954 26.8333 9.30865 26.8333C8.75775 26.8333 8.31091 27.2801 8.31091 27.831C8.31091 28.3819 8.75775 28.829 9.30865 28.829Z" fill="#A98056"/>
<path d="M62.2834 22.3997C62.2834 20.5986 60.8178 19.133 59.0167 19.133H43.6167V18.1997C43.6167 16.6557 42.3607 15.3997 40.8167 15.3997C39.2728 15.3997 38.0167 16.6557 38.0167 18.1997V19.133H23.5501C21.749 19.133 20.2834 20.5986 20.2834 22.3997C20.2834 23.6977 21.0504 24.8123 22.1501 25.3387V42.4661C21.4865 42.3835 20.8198 42.3802 20.1513 42.4759C15.4392 43.1486 10.9785 50.6671 8.06536 56.8555C7.53126 57.9907 7.61503 59.3018 8.28866 60.3632C8.96486 61.4296 10.1234 62.0663 11.3857 62.0663H59.4834C59.9993 62.0663 60.4167 61.6484 60.4167 61.133V25.3387C61.5162 24.8123 62.2834 23.6977 62.2834 22.3997ZM39.8834 18.1997C39.8834 17.6852 40.3018 17.2663 40.8167 17.2663C41.3317 17.2663 41.7501 17.6852 41.7501 18.1997V19.133H39.8834V18.1997ZM38.5317 60.1997H11.3857C10.7569 60.1997 10.2018 59.8947 9.86436 59.3629C9.52976 58.8365 9.48986 58.2121 9.75493 57.6503C13.5394 49.608 17.4248 44.7504 20.4155 44.3234C20.6852 44.2852 20.9524 44.2665 21.2167 44.2665C25.2354 44.2665 28.6006 48.564 30.7671 52.3032C30.9047 52.5407 31.1399 52.7057 31.4106 52.754C31.6822 52.8018 31.9585 52.7295 32.1699 52.554C32.6804 52.1312 33.1452 51.8874 33.5507 51.8298C33.5517 51.8293 33.5517 51.8293 33.5517 51.8293C36.5705 51.4009 39.0779 55.8438 40.2973 58.5327C40.467 58.9072 40.4378 59.3193 40.2161 59.663C39.9956 60.0044 39.6365 60.1999 39.2291 60.1999H38.5317V60.1997ZM42.0128 60.1997C42.3409 59.4234 42.3542 58.5484 41.9981 57.7625C40.2453 53.8962 37.3132 49.4094 33.2882 49.9813C33.2873 49.9813 33.2873 49.9818 33.2873 49.9818C32.8197 50.0483 32.343 50.2209 31.8619 50.4967C29.4086 46.5163 26.7549 43.9634 24.017 42.9279V25.6663H58.5503V60.1997H42.0128ZM59.0167 23.7997H23.5501C22.778 23.7997 22.1501 23.1718 22.1501 22.3997C22.1501 21.6276 22.778 20.9997 23.5501 20.9997H59.0167C59.7888 20.9997 60.4167 21.6276 60.4167 22.3997C60.4167 23.1718 59.7886 23.7997 59.0167 23.7997Z" fill="#A98056"/>
<path d="M23.55 51.2122C22.9679 51.2122 22.4958 51.6842 22.4958 52.2664C22.4958 52.8485 22.9679 53.3206 23.55 53.3206C24.1322 53.3206 24.6042 52.8485 24.6042 52.2664C24.6042 51.6842 24.1322 51.2122 23.55 51.2122Z" fill="#A98056"/>
<path d="M17.9501 51.2122C17.3679 51.2122 16.8959 51.6842 16.8959 52.2664C16.8959 52.8485 17.3679 53.3206 17.9501 53.3206C18.5322 53.3206 19.0043 52.8485 19.0043 52.2664C19.0043 51.6842 18.5322 51.2122 17.9501 51.2122Z" fill="#A98056"/>
<path d="M20.75 46.5457C20.1678 46.5457 19.6958 47.0177 19.6958 47.5999C19.6958 48.182 20.1678 48.6541 20.75 48.6541C21.3322 48.6541 21.8042 48.182 21.8042 47.5999C21.8042 47.0177 21.3322 46.5457 20.75 46.5457Z" fill="#A98056"/>
<path d="M51.0834 35.9331C50.0544 35.9331 49.2167 35.0959 49.2167 34.0664C49.2167 33.551 48.7993 33.1331 48.2834 33.1331H34.2834C33.7675 33.1331 33.35 33.551 33.35 34.0664C33.35 35.0959 32.5124 35.9331 31.4834 35.9331C30.9675 35.9331 30.55 36.351 30.55 36.8664V42.4664C30.55 42.9818 30.9675 43.3997 31.4834 43.3997C32.5124 43.3997 33.35 44.2369 33.35 45.2664C33.35 45.7818 33.7675 46.1997 34.2834 46.1997H48.2834C48.7993 46.1997 49.2167 45.7818 49.2167 45.2664C49.2167 44.2369 50.0544 43.3997 51.0834 43.3997C51.5993 43.3997 52.0167 42.9818 52.0167 42.4664V36.8664C52.0167 36.351 51.599 35.9331 51.0834 35.9331ZM50.15 41.6511C48.8403 41.9897 47.8067 43.0229 47.4686 44.3331H35.0982C34.7601 43.0229 33.7264 41.9897 32.4167 41.6511V37.6817C33.7264 37.3431 34.7601 36.3099 35.0982 34.9997H47.4686C47.8067 36.3099 48.8403 37.3431 50.15 37.6817V41.6511Z" fill="#A98056"/>
</svg>
