<svg width="70" height="70" viewBox="0 0 70 70" fill="none" xmlns="http://www.w3.org/2000/svg">
<path d="M50.3639 10.2666H36.3968C34.3379 10.2666 32.6635 11.9415 32.6635 13.9999C32.6635 16.0584 34.3379 17.7333 36.3968 17.7333H50.3639C52.4228 17.7333 54.0972 16.0584 54.0972 13.9999C54.0972 11.9415 52.4228 10.2666 50.3639 10.2666ZM50.3639 15.8666H36.3968C35.3678 15.8666 34.5301 15.0294 34.5301 13.9999C34.5301 12.9705 35.3678 12.1333 36.3968 12.1333H50.3639C51.3929 12.1333 52.2306 12.9705 52.2306 13.9999C52.2306 15.0294 51.3929 15.8666 50.3639 15.8666Z" fill="#A98056"/>
<path d="M58.7967 11.331C58.7967 8.68547 56.6446 6.5332 53.9989 6.5332H34.1947C30.7029 6.5332 27.4654 8.27037 25.5184 11.2045C24.7218 12.4046 24.3016 13.7999 24.3016 15.2391V19.0303L21.2629 29.9162C21.0158 30.798 21.1927 31.7222 21.7459 32.4519C22.2991 33.1815 23.1422 33.5999 24.0582 33.5999H25.1493V38.1086C22.5332 40.129 21.7039 49.2558 21.7039 49.3597C21.7039 51.8442 23.7246 53.8656 26.2093 53.8656C28.6941 53.8656 30.7148 51.8444 30.7148 49.3597C30.7148 49.2526 29.8325 39.5426 27.016 37.9389V33.5999H32.934C34.8352 33.5999 36.5087 32.2514 36.9144 30.3934L37.0283 29.8665H53.0471C56.2172 29.8665 58.7967 27.287 58.7967 24.1165V11.331ZM23.5706 49.3594C23.5706 47.931 24.1201 45.0498 24.7916 42.7727C24.7225 45.9623 24.8334 49.7853 24.9384 51.6578C24.1273 51.207 23.5706 50.3513 23.5706 49.3594ZM28.8479 49.3594C28.8479 50.6064 27.9759 51.6482 26.8118 51.9226C26.574 49.3226 26.5897 43.384 26.7518 40.3929C27.7447 42.3853 28.8479 47.3332 28.8479 49.3594ZM56.93 24.1165C56.93 26.2576 55.1882 27.9999 53.0471 27.9999H36.2763C35.8369 27.9999 35.4577 28.3058 35.3639 28.7349L35.0895 29.9963C34.8707 31.0024 33.9639 31.733 32.934 31.733H24.0582C23.7311 31.733 23.4303 31.5834 23.2325 31.3232C23.0355 31.0626 22.9728 30.7331 23.0603 30.4181L23.2136 29.8691L26.1309 29.8665C26.6468 29.8661 27.0643 29.4477 27.0633 28.9323C27.0624 28.4173 26.645 27.9999 26.13 27.9999H26.1291L23.7346 28.0022L23.995 27.0696L28.9309 27.0665C29.4459 27.0661 29.8633 26.6482 29.8633 26.1327C29.8633 25.6173 29.445 25.1999 28.93 25.1999C28.93 25.1999 28.93 25.1999 28.9291 25.1999L24.5163 25.2027L24.7767 24.2698H31.73C32.2459 24.2698 32.6633 23.8519 32.6633 23.3365C32.6633 22.821 32.2459 22.4031 31.73 22.4031H25.2979L26.1337 19.409C26.1566 19.3269 26.1683 19.2426 26.1683 19.1579V15.2391C26.1683 14.1676 26.4819 13.1295 27.0897 12.2125C28.6738 9.8253 31.3298 8.39987 34.1945 8.39987H53.9986C55.6147 8.39987 56.9298 9.7147 56.9298 11.331V24.1165H56.93Z" fill="#A98056"/>
<path d="M33.1301 41.5332C32.6142 41.5332 32.1968 41.9511 32.1968 42.4665C32.1968 42.982 32.6142 43.3999 33.1301 43.3999C44.9564 43.3999 51.8971 45.1552 52.6956 46.1989C51.9874 47.0973 46.1741 48.8011 34.9832 48.9847C34.4683 48.9933 34.0572 49.418 34.0653 49.9334C34.0735 50.4435 34.49 50.8514 34.9987 50.8514H35.014C37.5812 50.8091 48.1824 50.5056 52.6235 48.3836C52.2747 51.4109 51.0174 54.1612 49.1314 56.3627C48.3372 56.4446 47.5212 56.5305 46.7691 56.6114C44.9417 56.8079 43.064 56.5708 41.3441 55.9247C38.1405 54.7235 34.6412 54.8031 31.4949 56.1522C30.3665 56.6352 29.1387 56.751 27.9429 56.484L24.1321 55.6373C22.3247 55.2352 20.427 55.5029 18.7983 56.3907L17.6991 56.9904C15.5018 54.7 14.026 51.718 13.6398 48.4028C14.6039 48.8543 15.9115 49.2523 17.6291 49.6016C17.6921 49.6145 17.7539 49.6203 17.816 49.6203C18.2507 49.6203 18.6399 49.3153 18.7293 48.8729C18.8322 48.368 18.506 47.8754 18.001 47.7723C14.4723 47.0546 13.6916 46.3413 13.5567 46.2174C13.8589 45.8419 15.5662 44.8932 20.7054 44.1699C21.2159 44.0978 21.5713 43.6262 21.4992 43.1157C21.4271 42.6051 20.9669 42.243 20.4445 42.3214C12.5742 43.4293 11.6635 45.0659 11.6635 46.2001V46.6668C11.6635 51.42 13.6564 55.7091 16.8402 58.7681C16.8712 58.8027 16.906 58.8311 16.9415 58.8601C19.9524 61.707 24.0024 63.4665 28.4635 63.4665H37.7968C42.7507 63.4665 47.1971 61.2982 50.275 57.8756C50.2932 57.8556 50.3123 57.8381 50.3287 57.8166C52.974 54.8467 54.5968 50.9473 54.5968 46.6665V46.1999C54.5968 41.5862 34.007 41.5332 33.1301 41.5332ZM28.4635 61.5999C24.9432 61.5999 21.7092 60.3681 19.1535 58.3227L19.6918 58.0292C20.9259 57.3565 22.3597 57.1565 23.7277 57.4591L27.5385 58.3059C29.1182 58.6578 30.7415 58.5059 32.2297 57.8679C34.9321 56.7085 37.9373 56.6406 40.688 57.6729C42.6623 58.413 44.8145 58.6872 46.9101 58.4699C44.3852 60.4239 41.2291 61.5999 37.7968 61.5999H28.4635Z" fill="#A98056"/>
<path d="M59.6722 46.3975C59.121 46.3975 58.6744 46.8443 58.6744 47.3952C58.6744 47.9461 59.121 48.3932 59.6722 48.3932C60.2231 48.3932 60.6699 47.9463 60.6699 47.3952C60.6699 46.8441 60.2231 46.3975 59.6722 46.3975Z" fill="#A98056"/>
<path d="M13.0055 28.6641C12.4544 28.6641 12.0078 29.1109 12.0078 29.6618C12.0078 30.2127 12.4544 30.6598 13.0055 30.6598C13.5564 30.6598 14.0033 30.2129 14.0033 29.6618C14.0033 29.1107 13.5564 28.6641 13.0055 28.6641Z" fill="#A98056"/>
<path d="M13.9968 12.1332C14.5127 12.1332 14.9301 11.7153 14.9301 11.1999V9.33324C14.9301 8.8178 14.5127 8.3999 13.9968 8.3999C13.4809 8.3999 13.0635 8.8178 13.0635 9.33324V11.1999C13.0635 11.7153 13.4809 12.1332 13.9968 12.1332Z" fill="#A98056"/>
<path d="M14.9301 16.7998V14.9331C14.9301 14.4177 14.5127 13.9998 13.9968 13.9998C13.4809 13.9998 13.0635 14.4177 13.0635 14.9331V16.7998C13.0635 17.3152 13.4809 17.7331 13.9968 17.7331C14.5127 17.7331 14.9301 17.3152 14.9301 16.7998Z" fill="#A98056"/>
<path d="M13.0634 13.0666C13.0634 12.5512 12.646 12.1333 12.1301 12.1333H10.2634C9.74751 12.1333 9.33008 12.5512 9.33008 13.0666C9.33008 13.5821 9.74751 14 10.2634 14H12.1301C12.646 14 13.0634 13.5821 13.0634 13.0666Z" fill="#A98056"/>
<path d="M15.8635 14H17.7302C18.2461 14 18.6635 13.5821 18.6635 13.0666C18.6635 12.5512 18.2461 12.1333 17.7302 12.1333H15.8635C15.3476 12.1333 14.9302 12.5512 14.9302 13.0666C14.9302 13.5821 15.3476 14 15.8635 14Z" fill="#A98056"/>
<path d="M52.73 32.6665C50.9289 32.6665 49.4634 34.1321 49.4634 35.9332C49.4634 37.7343 50.9289 39.1998 52.73 39.1998C54.5311 39.1998 55.9967 37.7343 55.9967 35.9332C55.9967 34.1321 54.5311 32.6665 52.73 32.6665ZM52.73 37.3332C51.9579 37.3332 51.33 36.7053 51.33 35.9332C51.33 35.1611 51.9579 34.5332 52.73 34.5332C53.5021 34.5332 54.13 35.1611 54.13 35.9332C54.13 36.7053 53.5019 37.3332 52.73 37.3332Z" fill="#A98056"/>
</svg>
