<svg width="70" height="70" viewBox="0 0 70 70" fill="none" xmlns="http://www.w3.org/2000/svg">
<path d="M59.367 35.8189L60.7575 36.6739L60.1925 40.1381L58.6024 40.5069L58.4092 41.6913L65.7928 39.9066L65.994 38.6729L59.5618 34.6247L59.367 35.8189ZM64.4347 38.9151C64.5368 38.9723 64.639 39.0294 64.7987 39.1062C64.6229 39.1281 64.5079 39.1499 64.3929 39.1717L61.2438 39.9043L61.6817 37.2198L64.4347 38.9151Z" fill="#A98056"/>
<path d="M56.9096 45.1692L59.5681 46.623L58.8964 47.8513L55.2256 48.2489L54.6066 49.3807L58.9559 48.9097L60.8347 52.5812L61.4536 51.4494L59.8272 48.3375L60.4893 47.1267L63.0513 48.5277L63.5983 47.5275L57.4565 44.169L56.9096 45.1692Z" fill="#A98056"/>
<path d="M47.0673 54.3081L48.8146 56.3005L49.4762 55.7202L53.3929 60.186L54.2499 59.4343L50.3333 54.9685L53.0549 52.5816L56.9715 57.0474L57.8286 56.2957L53.213 51.033L48.89 54.8244L47.8492 53.6224L47.0673 54.3081Z" fill="#A98056"/>
<path d="M40.2966 58.7172L42.7065 65.2893L43.7111 64.9209L45.488 58.816C45.5612 59.0448 45.6542 59.2983 45.7437 59.5424L47.2413 63.6265L48.3116 63.234L45.9017 56.6619L44.8971 57.0303L43.1202 63.1352C43.047 62.9064 42.954 62.6529 42.868 62.4182L41.3669 58.3247L40.2966 58.7172Z" fill="#A98056"/>
<path d="M36.4316 59.1626L34.5421 61.6353L33.0821 61.6297L33.0917 59.1497L31.9517 59.1453L31.9246 66.1453L34.6546 66.1558C36.0946 66.1614 37.3972 65.4964 37.4034 63.8864C37.4079 62.7264 36.7104 62.0637 35.7615 61.79L37.7816 59.1678L36.4316 59.1626ZM36.2434 63.8819C36.24 64.7519 35.5586 65.1193 34.6786 65.1159L33.0686 65.1097L33.0782 62.6397L34.6882 62.6459C35.5682 62.6493 36.2467 63.0219 36.2434 63.8819Z" fill="#A98056"/>
<path d="M22.4757 56.0665L21.0799 56.9127L18.2566 54.8273L18.655 53.2443L17.6898 52.5313L15.9037 59.9146L16.9091 60.6573L23.449 56.7854L22.4757 56.0665ZM17.4062 59.1596C17.3087 59.2243 17.2111 59.289 17.0699 59.396C17.1307 59.2296 17.1639 59.1174 17.197 59.0051L17.9842 55.8693L20.172 57.4853L17.4062 59.1596Z" fill="#A98056"/>
<path d="M15.3191 49.6715L12.8239 51.3906L12.0296 50.2377L13.3276 46.7811L12.5957 45.7188L11.0579 49.8143L6.93356 49.8386L7.66546 50.9009L11.1763 50.8499L11.9593 51.9863L9.55479 53.643L10.2016 54.5818L15.9658 50.6102L15.3191 49.6715Z" fill="#A98056"/>
<path d="M11.6213 36.7791L9.0533 37.4333L9.27055 38.2861L3.5144 39.7525L3.79584 40.8572L9.55198 39.3908L10.4457 42.8988L4.68952 44.3652L4.97095 45.4699L11.7543 43.7418L10.3348 38.1698L11.878 37.7869L11.6213 36.7791Z" fill="#A98056"/>
<path d="M10.7835 28.6458L3.83665 27.7848L3.70503 28.8466L8.32243 33.2178C8.08548 33.1783 7.81753 33.1451 7.5595 33.1131L3.24254 32.5781L3.10231 33.7094L10.0492 34.5704L10.1808 33.5086L5.56338 29.1374C5.80032 29.1769 6.06827 29.2101 6.31638 29.2408L10.6433 29.7771L10.7835 28.6458Z" fill="#A98056"/>
<path d="M12.0427 25.1879L10.6957 22.3825L11.3628 21.0838L13.5687 22.2169L14.0896 21.2029L7.86303 18.0045L6.61567 20.4329C5.95772 21.7138 5.95971 23.1763 7.39183 23.9119C8.42366 24.4419 9.33058 24.1208 10.0048 23.3992L11.4258 26.3888L12.0427 25.1879ZM7.92184 22.8801C7.14797 22.4826 7.12954 21.7086 7.53162 20.9259L8.26725 19.4938L10.4643 20.6223L9.72872 22.0544C9.32664 22.8372 8.68682 23.273 7.92184 22.8801Z" fill="#A98056"/>
<path d="M21.1097 14.0785L20.9833 12.4511L24.1173 10.8705L25.3508 11.9396L26.4223 11.3992L20.6362 6.4775L19.5201 7.04038L20.0293 14.6234L21.1097 14.0785ZM20.633 8.15905C20.6192 8.04282 20.6054 7.92659 20.5735 7.75229C20.6947 7.88156 20.7799 7.96176 20.8652 8.04197L23.3098 10.1578L20.8812 11.3826L20.633 8.15905Z" fill="#A98056"/>
<path d="M30.0766 10.5542L29.6808 7.55017L31.0688 7.36729L33.5565 10.0957L34.8355 9.92721L31.8879 6.69453L33.7426 3.0107L32.4637 3.1792L30.9118 6.3289L29.5436 6.50916L29.1622 3.61418L28.032 3.76309L28.9463 10.7031L30.0766 10.5542Z" fill="#A98056"/>
<path d="M43.362 13.1152L42.3477 12.8854L42.7088 11.3369L37.101 10.0663L38.6478 3.23932L39.7597 3.49124L38.447 9.28439L41.9775 10.0843L43.2902 4.29118L44.402 4.5431L43.0894 10.3363L43.9476 10.5307L43.362 13.1152Z" fill="#A98056"/>
<path d="M50.7999 15.9365L54.7079 10.129L53.8202 9.53165L47.834 11.6747C47.9763 11.4812 48.127 11.2572 48.2722 11.0415L50.7007 7.43249L49.7549 6.79604L45.8469 12.6036L46.7346 13.2009L52.7208 11.0579C52.5786 11.2514 52.4278 11.4754 52.2882 11.6828L49.8541 15.3001L50.7999 15.9365Z" fill="#A98056"/>
<path d="M53.5032 18.8017L56.6144 18.8746L57.469 20.0584L55.4581 21.5099L56.1253 22.4342L61.8011 18.3372L60.2033 16.1236C59.3604 14.956 58.0563 14.2941 56.7509 15.2364C55.8103 15.9154 55.6849 16.8693 56.022 17.7976L52.7131 17.7071L53.5032 18.8017ZM57.4298 16.177C58.1352 15.6678 58.8332 16.0026 59.3483 16.7161L60.2906 18.0215L58.2879 19.4672L57.3456 18.1618C56.8305 17.4483 56.7325 16.6803 57.4298 16.177Z" fill="#A98056"/>
</svg>
