<svg width="20" height="20" viewBox="0 0 20 20" fill="none" xmlns="http://www.w3.org/2000/svg">
<g clip-path="url(#clip0)">
<path d="M16.5801 1.72164C16.4316 1.63409 16.252 1.61648 16.0893 1.67342C14.4188 2.25803 12.7535 2.83792 11.4193 3.302C10.9987 2.84019 10.4325 2.51371 9.79432 2.39419C9.62845 1.42851 9.01806 0.594459 8.11915 0.144985L7.95426 0.0625562C7.66507 -0.0820751 7.31318 0.035184 7.16847 0.324486C7.0238 0.613788 7.14106 0.965643 7.4304 1.11027L7.59529 1.1927C8.09998 1.44507 8.45863 1.89189 8.60076 2.41785C7.36339 2.70106 6.42278 3.76975 6.33348 5.06948C4.4252 5.73266 2.39958 6.4375 0.392231 7.14008C0.157283 7.22228 3.90473e-05 7.44403 3.90473e-05 7.69288H0V13.9405H0.000507615C0.000546663 14.1827 0.151387 14.4094 0.39309 14.4936L16.0901 19.9602C16.1528 19.982 16.2178 19.9928 16.2827 19.9928C16.3528 19.9928 16.4225 19.9803 16.4884 19.9555C16.5043 19.9516 16.5242 19.9472 16.5476 19.9418C16.8713 19.8669 17.7314 19.668 18.5097 19.0282C19.4934 18.2196 19.9922 17.0333 19.9922 15.5023V7.69288C19.9922 7.53114 19.9535 3.7095 16.5801 1.72164ZM9.25422 3.51481C10.2231 3.51481 11.0114 4.30306 11.0114 5.27194C11.0114 6.24082 10.2231 7.02907 9.25422 7.02907C8.28534 7.02907 7.49709 6.24082 7.49709 5.27194C7.49709 4.30306 8.28534 3.51481 9.25422 3.51481ZM6.49537 6.25332C6.89978 7.38682 7.98354 8.20049 9.25422 8.20049C10.869 8.20049 12.1828 6.88674 12.1828 5.27194C12.1828 4.94277 12.1274 4.62649 12.0268 4.33094C13.2495 3.9056 14.7216 3.3929 16.2118 2.87158C18.7904 4.56151 18.8208 7.6609 18.8208 7.69288C18.8208 10.4096 16.8635 12.0375 16.2011 12.5104L12.962 11.3767C12.7828 11.314 12.5844 11.3419 12.4296 11.4518C12.2747 11.5616 12.1828 11.7397 12.1828 11.9295V14.3309C12.1828 14.6539 11.92 14.9166 11.5971 14.9166C11.2741 14.9166 11.0114 14.6539 11.0114 14.3309V11.1095C11.0114 10.8601 10.8534 10.638 10.6178 10.5562L2.36615 7.69104C3.76635 7.20232 5.158 6.71818 6.49537 6.25332ZM9.83993 13.41L1.17142 10.4V8.51623L9.83993 11.5262V13.41ZM1.17142 11.6401L9.87144 14.6609C10.0263 15.4726 10.7409 16.0881 11.5971 16.0881C12.0332 16.0881 12.4325 15.928 12.74 15.6639L15.697 16.6989V18.5829L1.17142 13.5242V11.6401ZM15.697 15.4578L13.3284 14.6288C13.3451 14.5319 13.3542 14.4325 13.3542 14.331V12.7551L15.697 13.5751V15.4578ZM18.8208 15.5023C18.8208 17.1045 18.1804 18.1313 16.8685 18.6252V13.4742C17.2986 13.1704 18.1255 12.5064 18.8208 11.4777V15.5023Z" fill="#A98056"/>
<path d="M16.0877 5.74002C16.4111 5.74002 16.6734 5.47779 16.6734 5.15431C16.6734 4.83083 16.4111 4.5686 16.0877 4.5686C15.7642 4.5686 15.502 4.83083 15.502 5.15431C15.502 5.47779 15.7642 5.74002 16.0877 5.74002Z" fill="#A98056"/>
<path d="M16.8709 8.4733C17.1943 8.4733 17.4566 8.21107 17.4566 7.88759C17.4566 7.56411 17.1943 7.30188 16.8709 7.30188C16.5474 7.30188 16.2852 7.56411 16.2852 7.88759C16.2852 8.21107 16.5474 8.4733 16.8709 8.4733Z" fill="#A98056"/>
<path d="M14.9177 10.8162C15.2412 10.8162 15.5035 10.554 15.5035 10.2305C15.5035 9.90701 15.2412 9.64478 14.9177 9.64478C14.5943 9.64478 14.332 9.90701 14.332 10.2305C14.332 10.554 14.5943 10.8162 14.9177 10.8162Z" fill="#A98056"/>
<path d="M13.7459 8.0828C14.0693 8.0828 14.3316 7.82057 14.3316 7.49709C14.3316 7.17361 14.0693 6.91138 13.7459 6.91138C13.4224 6.91138 13.1602 7.17361 13.1602 7.49709C13.1602 7.82057 13.4224 8.0828 13.7459 8.0828Z" fill="#A98056"/>
</g>
<defs>
<clipPath id="clip0">
<rect width="19.9922" height="19.9922" fill="white"/>
</clipPath>
</defs>
</svg>
