<svg width="21" height="21" viewBox="0 0 21 21" fill="none" xmlns="http://www.w3.org/2000/svg">
<g clip-path="url(#clip0)">
<path d="M20.3963 5.0082C20.3569 5.00684 19.5461 4.97947 18.356 5.00577V2.56565C18.356 2.20594 18.0488 1.92065 17.6872 1.95037C15.3142 2.14848 12.295 3.19706 10.4961 5.10962C8.69721 3.19706 5.67807 2.14848 3.30504 1.95037C2.94406 1.92098 2.63625 2.20499 2.63625 2.56565V5.07175C1.96006 5.04623 1.32045 5.02824 0.635736 5.00812C0.290393 4.99721 0 5.27538 0 5.62525V16.8693C0 17.1942 0.251783 17.4635 0.575969 17.4853C3.03198 17.6506 7.14601 17.6692 10.2539 18.9948C10.5309 19.1131 10.7796 18.9772 10.7384 18.9948C13.8462 17.6692 17.9595 17.6507 20.4164 17.4853C20.7405 17.4635 20.9923 17.1942 20.9923 16.8693V5.62525C20.9922 5.29262 20.7288 5.01981 20.3963 5.0082ZM17.1211 3.26008V13.8421C15.3407 14.2404 13.0843 15.0903 11.1135 16.8924C11.1135 16.3489 11.1135 6.57348 11.1135 6.27951C12.4645 4.59395 15.0229 3.57801 17.1211 3.26008ZM3.87109 3.26008C5.96937 3.57801 8.52779 4.59395 9.8787 6.27951V16.8924C7.90798 15.0903 5.65156 14.2404 3.87109 13.8421V3.26008ZM1.23484 16.2883V6.26111C1.67695 6.2742 2.14981 6.28897 2.63625 6.30754V14.3454C2.63625 14.6424 2.84782 14.8974 3.13978 14.9522C4.54959 15.2168 6.38292 15.7912 8.0916 17.0279C5.65383 16.4812 3.10216 16.3933 1.23484 16.2883ZM19.7574 16.2883C17.8931 16.3931 15.3394 16.4809 12.9006 17.0279C14.6093 15.7912 16.4426 15.2168 17.8524 14.9522C18.1444 14.8974 18.3559 14.6424 18.3559 14.3454V6.24102C18.9242 6.2283 19.4082 6.22814 19.7574 6.23131V16.2883H19.7574Z" fill="#A98056"/>
<path d="M8.27785 7.7018C7.79964 7.36864 6.97523 6.95971 6.0954 6.81103C5.75932 6.75398 5.44057 6.98074 5.38372 7.31695C5.32692 7.65315 5.55343 7.97178 5.88968 8.02858C6.56896 8.14338 7.22046 8.47008 7.57198 8.71499C7.85167 8.90985 8.23653 8.84119 8.43151 8.56133C8.62641 8.28156 8.55763 7.8967 8.27785 7.7018Z" fill="#A98056"/>
<path d="M8.21603 11.1787C7.77606 10.9101 6.9155 10.4386 6.0954 10.3C5.75932 10.2431 5.44057 10.4697 5.38372 10.8059C5.32692 11.1422 5.55343 11.4608 5.88968 11.5176C6.52854 11.6255 7.27928 12.0535 7.57239 12.2326C7.86377 12.4104 8.24361 12.3182 8.42114 12.0275C8.59887 11.7365 8.50704 11.3565 8.21603 11.1787Z" fill="#A98056"/>
<path d="M13.4196 8.71502C13.7711 8.47011 14.4226 8.14341 15.1019 8.02861C15.4381 7.97181 15.6646 7.65318 15.6079 7.31698C15.5511 6.98073 15.2323 6.75389 14.8962 6.81106C14.0164 6.9597 13.1919 7.36868 12.7137 7.70184C12.434 7.89673 12.3652 8.28159 12.5601 8.56136C12.7551 8.8413 13.1401 8.90979 13.4196 8.71502Z" fill="#A98056"/>
<path d="M14.8968 10.3C14.0767 10.4385 13.2161 10.91 12.7762 11.1787C12.4852 11.3564 12.3933 11.7364 12.5711 12.0274C12.7488 12.3184 13.1288 12.4102 13.4198 12.2325C13.7129 12.0535 14.4637 11.6255 15.1025 11.5175C15.4387 11.4607 15.6652 11.1421 15.6085 10.8059C15.5516 10.4696 15.2329 10.2428 14.8968 10.3Z" fill="#A98056"/>
</g>
<defs>
<clipPath id="clip0">
<rect width="20.9922" height="20.9922" fill="white"/>
</clipPath>
</defs>
</svg>
