<svg width="20" height="20" viewBox="0 0 20 20" fill="none" xmlns="http://www.w3.org/2000/svg">
<path d="M1.87501 7.63126V17.1625C1.87501 17.4396 1.92969 17.714 2.03593 17.97C2.14217 18.2259 2.29788 18.4584 2.49412 18.6541C2.69037 18.8497 2.9233 19.0047 3.17956 19.1102C3.43583 19.2157 3.71039 19.2696 3.98751 19.2688H16.0188C16.5774 19.2688 17.1131 19.0469 17.5081 18.6519C17.9031 18.2569 18.125 17.7211 18.125 17.1625V7.63126C18.125 7.07207 17.9033 6.53569 17.5085 6.1397C17.1137 5.74371 16.5779 5.52041 16.0188 5.51876H14.6813C14.8657 5.32852 15.0291 5.11898 15.1688 4.89376C15.436 4.44618 15.5833 3.93724 15.5965 3.4161C15.6096 2.89496 15.4881 2.37924 15.2438 1.91876C15.0312 1.54755 14.7218 1.24102 14.3487 1.03188C13.9755 0.822744 13.5526 0.71884 13.125 0.731261C12.6567 0.716335 12.1908 0.803022 11.7592 0.985359C11.3277 1.1677 10.9407 1.44135 10.625 1.78751C10.3753 2.05191 10.1648 2.35079 10 2.67501C9.84485 2.35271 9.64496 2.05392 9.40626 1.78751C9.09055 1.44135 8.7036 1.1677 8.27204 0.985359C7.84047 0.803022 7.37453 0.716335 6.90626 0.731261C6.47849 0.718433 6.0552 0.821428 5.68115 1.02936C5.30709 1.23729 4.99617 1.54243 4.78126 1.91251C4.53689 2.37299 4.41541 2.88871 4.42854 3.40985C4.44168 3.93099 4.589 4.43993 4.85626 4.88751C4.99587 5.11273 5.15931 5.32227 5.34376 5.51251H3.98751C3.70957 5.51251 3.43435 5.56736 3.17764 5.67391C2.92094 5.78046 2.68778 5.93663 2.49153 6.13346C2.29529 6.33028 2.13981 6.5639 2.03402 6.82092C1.92822 7.07794 1.87419 7.35332 1.87501 7.63126ZM16.875 7.63126V17.1625C16.875 17.275 16.8529 17.3863 16.8098 17.4902C16.7668 17.5941 16.7037 17.6885 16.6242 17.768C16.5447 17.8475 16.4503 17.9106 16.3464 17.9536C16.2425 17.9966 16.1312 18.0188 16.0188 18.0188H10.625L10.6688 6.76876H16.0375C16.2619 6.77527 16.4749 6.869 16.6313 7.03005C16.7877 7.1911 16.8751 7.40678 16.875 7.63126ZM13.125 2.00626C13.3336 1.9922 13.5419 2.03687 13.7264 2.13518C13.9109 2.2335 14.0641 2.38154 14.1688 2.56251C14.3062 2.83235 14.3709 3.13331 14.3567 3.43578C14.3424 3.73824 14.2497 4.03178 14.0875 4.28751C13.8188 4.75626 13.1125 5.53751 11.4125 5.53751H10.625C10.625 4.78126 10.7688 3.43751 11.4938 2.64376C11.6991 2.41874 11.9521 2.24247 12.2344 2.12785C12.5166 2.01322 12.8209 1.96314 13.125 1.98126V2.00626ZM5.91876 4.26251C5.75661 4.00678 5.66385 3.71324 5.6496 3.41078C5.63535 3.10831 5.70011 2.80735 5.83751 2.53751C5.94166 2.35753 6.09392 2.21015 6.27718 2.11189C6.46044 2.01363 6.66747 1.9684 6.87501 1.98126C7.17108 1.96309 7.46756 2.00958 7.74386 2.1175C8.02016 2.22543 8.26965 2.39221 8.47501 2.60626C9.20626 3.41876 9.33751 4.76251 9.37501 5.51876H8.59376C6.87501 5.51876 6.18751 4.73126 5.91876 4.26251ZM3.12501 7.63126C3.12501 7.40251 3.21588 7.18313 3.37763 7.02138C3.53938 6.85963 3.75876 6.76876 3.98751 6.76876H9.37501L9.33126 18.0188H3.98751C3.87454 18.0196 3.76252 17.998 3.65792 17.9554C3.55331 17.9127 3.45818 17.8498 3.378 17.7702C3.29783 17.6906 3.2342 17.5959 3.19078 17.4916C3.14736 17.3873 3.12501 17.2755 3.12501 17.1625V7.63126Z" fill="#A98056"/>
</svg>
