<svg width="18" height="18" viewBox="0 0 18 18" fill="none" xmlns="http://www.w3.org/2000/svg">
<path fill-rule="evenodd" clip-rule="evenodd" d="M17.6718 8.82839C17.8966 8.68688 18.0224 8.43074 17.9971 8.16633C17.9718 7.90192 17.7996 7.67435 17.552 7.57813C17.0345 7.37682 16.6066 6.87873 16.1535 6.35142C15.6786 5.79876 15.1876 5.22726 14.5155 4.92038C14.4752 4.90196 14.4346 4.88501 14.394 4.86891C14.7975 4.58221 15.1753 4.33918 15.519 4.11811C16.2049 3.6769 16.7973 3.29584 17.2362 2.80358C17.7575 2.21897 18.0003 1.55156 18.0003 0.703135C18.0003 0.314799 17.6855 9.32749e-06 17.2972 9.32749e-06C16.9089 9.32749e-06 16.5941 0.314799 16.5941 0.703135C16.5941 1.70358 16.1223 2.05795 14.7582 2.93542C14.2873 3.23829 13.7563 3.58005 13.1799 4.01359C13.1419 3.81514 13.0772 3.62079 12.9852 3.43003C12.6668 2.76997 12.0834 2.29427 11.5192 1.83418C10.9718 1.38784 10.4547 0.966175 10.2532 0.448252C10.157 0.200681 9.92942 0.0285211 9.66501 0.00317339C9.40035 -0.0219634 9.14449 0.103685 9.00295 0.328475C8.60677 0.957702 8.31922 1.55441 8.13961 2.11695C6.5593 1.44567 5.08671 1.81984 3.65729 3.24922C1.58131 5.3252 -0.0250518 9.45972 0.000295868 12.6618C0.0136904 14.3544 0.492836 15.7211 1.38605 16.6143C2.29214 17.5203 3.68503 17.9995 5.41415 18H5.41672C7.27603 18 9.52456 17.4412 11.5859 16.4666L11.6878 16.4077C12.594 15.8812 14.3268 14.8189 14.7511 14.343C15.6557 13.4383 16.1292 12.5355 16.1987 11.583C16.243 10.9738 16.1172 10.3565 15.8173 9.71275C16.3991 9.53489 17.018 9.2401 17.6718 8.82839ZM14.3306 9.90737C14.9835 10.9869 15.1013 12.004 13.7566 13.3486C13.7342 13.3764 13.7103 13.4043 13.6849 13.4325C13.0785 14.1045 11.6489 14.8804 10.9849 15.1953C9.10476 16.0841 7.0755 16.5937 5.41676 16.5937H5.41454C4.08556 16.5934 3.00802 16.2475 2.38038 15.6199C1.76261 15.0022 1.41674 13.9477 1.40648 12.6507C1.38419 9.82676 2.83994 6.05533 4.65168 4.24366C6.00812 2.88715 7.02779 3.07805 7.91897 3.56971C7.93455 3.98701 8.02599 4.37911 8.19446 4.74456C8.90925 6.29517 10.7496 6.73996 11.2178 6.82961C11.3793 7.49604 11.8861 9.00551 13.2557 9.63688C13.5919 9.79181 13.9505 9.88178 14.3306 9.90737ZM11.489 5.37224C11.4754 5.3952 11.4633 5.41861 11.4525 5.44245C11.1338 5.37695 9.89166 5.06709 9.47154 4.15584C9.18702 3.53867 9.35402 2.7698 9.66462 2.06027C9.96761 2.38349 10.3093 2.66213 10.6294 2.9232L10.6304 2.92406C11.7377 3.82695 12.1603 4.23852 11.489 5.37224ZM15.0868 7.2678C15.3437 7.5667 15.6174 7.88532 15.9304 8.1709C15.2255 8.47792 14.4628 8.6422 13.8494 8.36201C12.9783 7.96418 12.6561 6.82409 12.5696 6.43393C13.72 5.75735 14.1486 6.17571 15.0868 7.2678Z" fill="#A98056"/>
<path fill-rule="evenodd" clip-rule="evenodd" d="M9.04162 10.0881C8.76856 10.3611 7.80563 10.3353 7.80563 10.3353C7.80563 10.3353 7.77979 9.37233 8.05281 9.0993C8.32587 8.82624 8.76856 8.82624 9.04162 9.0993C9.31464 9.37233 9.31464 9.81505 9.04162 10.0881ZM4.15046 12.9665C3.8774 13.2395 3.90328 14.2025 3.90328 14.2025C3.90328 14.2025 4.86621 14.2283 5.13927 13.9553C5.41229 13.6822 5.41229 13.2395 5.13927 12.9665C4.86621 12.6934 4.42352 12.6934 4.15046 12.9665ZM5.84239 9.80243C5.56933 9.52937 5.12665 9.52937 4.85362 9.80243C4.58056 10.0755 4.60644 11.0384 4.60644 11.0384C4.60644 11.0384 5.56937 11.0642 5.84243 10.7912C6.11542 10.5182 6.11542 10.0755 5.84239 9.80243ZM7.27937 12.2634C7.00631 12.5364 7.03219 13.4993 7.03219 13.4993C7.03219 13.4993 7.99512 13.5252 8.26818 13.2521C8.5412 12.9791 8.5412 12.5364 8.26818 12.2634C7.99512 11.9903 7.55243 11.9903 7.27937 12.2634ZM6.51036 6.60321C6.2373 6.33015 5.79462 6.33015 5.52159 6.60321C5.24853 6.87623 5.27441 7.83916 5.27441 7.83916C5.27441 7.83916 6.23734 7.865 6.5104 7.59198C6.78339 7.31895 6.78339 6.87623 6.51036 6.60321ZM10.4786 11.5602C10.2055 11.8333 10.2314 12.7962 10.2314 12.7962C10.2314 12.7962 11.1943 12.822 11.4674 12.549C11.7404 12.276 11.7404 11.8333 11.4674 11.5602C11.1943 11.2872 10.7517 11.2872 10.4786 11.5602Z" fill="#A98056"/>
</svg>
