<svg width="60" height="48" viewBox="0 0 60 48" fill="none" xmlns="http://www.w3.org/2000/svg">
<path d="M48.1979 40.25H11.8021C10.7956 40.25 10.2018 39.1212 10.772 38.2918L28.9699 11.8221C29.4666 11.0997 30.5334 11.0997 31.0301 11.8221L34.986 17.5762L49.228 38.2918C49.7982 39.1212 49.2044 40.25 48.1979 40.25Z" fill="#A77E56" stroke="#A77E56" stroke-width="1.5" stroke-linecap="round" stroke-linejoin="round"/>
<path d="M30.221 1.13867C27.7069 1.15945 26.9598 3.27262 27.1077 5.58492C27.2556 7.89722 26.2178 9.37931 23.9944 10.0312C21.771 10.6831 20.7332 12.1651 20.8811 14.4774C21.029 16.7897 19.9912 18.2718 17.7678 18.9237C15.5444 19.5756 14.5066 21.0576 14.6545 23.3699C14.8024 25.6822 13.7646 27.1643 11.5412 27.8162C9.31775 28.4681 8.27998 29.9502 8.42788 32.2625C8.57578 34.5748 7.53801 36.0568 5.31458 36.7087C3.09114 37.3606 2.05338 38.8427 2.20128 41.155C3.29052 42.2571 3.15749 43.1622 2.47964 43.8796C1.36831 45.0558 1.08538 46.9741 2.65473 46.5796C3.2751 46.4236 3.89548 46.0975 4.51585 45.6012C6.32515 44.1538 8.13443 44.1538 9.94373 45.6012C10.7955 46.2827 11.6473 46.6433 12.4991 46.6831M30.2217 1.14065C32.1972 1.15945 33.4829 3.2746 33.335 5.5869C33.1871 7.8992 34.2248 9.38128 36.4483 10.0332C38.6717 10.685 39.7095 12.1671 39.5616 14.4794C39.4137 16.7917 40.4514 18.2738 42.6749 18.9257C44.8983 19.5775 45.9361 21.0596 45.7882 23.3719C45.6403 25.6842 46.678 27.1663 48.9015 27.8182C51.1249 28.4701 52.1627 29.9521 52.0148 32.2644C51.8669 34.5767 52.9046 36.0588 55.1281 36.7107C57.3515 37.3626 58.3893 38.8447 58.2414 41.157C56.6502 42.3529 56.918 43.3175 57.857 44.0619C59.125 45.0671 59.3449 46.6212 57.7279 46.681C56.0644 46.7426 54.3416 46.3824 53.3651 45.6012M15.3716 45.6012C17.1809 44.1538 18.9902 44.1538 20.7995 45.6012C22.6088 47.0486 24.4181 47.0487 26.2274 45.6012C28.0367 44.1538 29.846 44.1538 31.6553 45.6012C33.4645 47.0486 35.2738 47.0487 37.0831 45.6012C38.8924 44.1538 40.7017 44.1538 42.511 45.6012C44.3203 47.0487 46.1296 47.0487 47.9389 45.6012C49.7482 44.1538 51.5574 44.1538 53.3667 45.6012" stroke="#A77E56" stroke-width="1.5" stroke-linecap="round"/>
</svg>
