<svg width="46" height="46" viewBox="0 0 46 46" fill="none" xmlns="http://www.w3.org/2000/svg">
<path d="M12.2632 6H9C7.34315 6 6 7.34315 6 9V37C6 38.6569 7.34315 40 9 40H37C38.6569 40 40 38.6569 40 37V9C40 7.34315 38.6569 6 37 6H15.8421" stroke="#A77E56" stroke-width="1.5" stroke-linecap="round" stroke-linejoin="round"/>
<path d="M36.1313 43.8391C37.3952 43.0378 38.6592 43.1427 39.9231 44.1538C40.7356 44.8039 41.5481 45.0794 42.3606 44.9804C43.4571 44.8468 43.4609 43.4571 43.3273 42.3606C43.2283 41.5481 43.5038 40.7356 44.1538 39.9231C45.282 38.5128 45.282 37.1026 44.1538 35.6923C43.0256 34.2821 43.0256 32.8718 44.1538 31.4615C45.2821 30.0513 45.2821 28.641 44.1538 27.2308C43.0256 25.8205 43.0256 24.4103 44.1538 23C45.2821 21.5897 45.2821 20.1795 44.1538 18.7692C43.0256 17.359 43.0256 15.9487 44.1538 14.5385C45.2821 13.1282 45.2821 11.7179 44.1538 10.3077C43.0256 8.89743 43.0256 7.48718 44.1538 6.07692C44.8039 5.26441 45.0794 4.4519 44.9804 3.63939C44.8468 2.54293 43.4571 2.5391 42.3606 2.67268C41.5481 2.77167 40.7356 2.49616 39.9231 1.84615C38.5128 0.717948 37.1026 0.717948 35.6923 1.84615C34.282 2.97436 32.8718 2.97436 31.4615 1.84615C30.0513 0.717948 28.641 0.717948 27.2308 1.84615C25.8205 2.97436 24.4103 2.97436 23 1.84615C21.5897 0.717948 20.1795 0.717948 18.7692 1.84615C17.359 2.97436 15.9487 2.97436 14.5384 1.84615C13.1282 0.717947 11.7179 0.717949 10.3077 1.84615C8.8974 2.97436 7.48714 2.97436 6.07689 1.84615C5.26437 1.19615 4.45187 0.920636 3.63936 1.01962C2.54289 1.1532 2.53906 2.54293 2.67264 3.63939C2.77163 4.4519 2.49612 5.26441 1.84611 6.07692C0.717905 7.48718 0.717909 8.89744 1.84611 10.3077C2.97432 11.718 2.97432 13.1282 1.84611 14.5385C0.717909 15.9487 0.717908 17.359 1.84611 18.7692C2.97432 20.1795 2.97432 21.5897 1.84611 23C0.717908 24.4103 0.717908 25.8205 1.84611 27.2308C2.97432 28.641 2.97432 30.0513 1.84611 31.4615C0.717908 32.8718 0.717908 34.2821 1.84611 35.6923C2.97432 37.1026 2.97432 38.5128 1.84611 39.9231C1.1961 40.7356 0.920607 41.5481 1.01961 42.3606C1.15321 43.4571 2.54293 43.4609 3.63939 43.3273C4.4519 43.2283 5.26442 43.5038 6.07693 44.1538C7.48719 45.2821 8.89744 45.2821 10.3077 44.1538C11.718 43.0256 13.1282 43.0256 14.5385 44.1538C15.9487 45.2821 17.359 45.2821 18.7692 44.1538C20.1795 43.0256 21.5898 43.0256 23 44.1538C24.4103 45.2821 25.8205 45.2821 27.2308 44.1538C28.641 43.0256 30.0513 43.0256 31.4616 44.1538C32.0521 44.6263 32.6427 44.9009 33.2332 44.9777" stroke="#A77E56" stroke-width="1.5" stroke-linecap="round"/>
</svg>
