<svg width="53" height="53" viewBox="0 0 53 53" fill="none" xmlns="http://www.w3.org/2000/svg">
<path d="M52.8072 15.0339C52.3309 13.7542 50.9411 13.0583 50.4773 12.2095C50.024 11.3802 50.1894 9.83107 49.3584 8.72354C48.5432 7.63784 47.016 7.36449 46.3257 6.67425C45.6351 5.98361 45.3622 4.45675 44.2761 3.64157C43.1685 2.81021 41.6194 2.97599 40.7901 2.5223C39.9417 2.05891 39.2458 0.66913 37.9656 0.192392C36.9337 -0.191748 35.8149 0.112329 34.9192 0.145891C34.9172 0.145891 34.914 0.146295 34.914 0.146295C33.9698 0.179453 33.3402 0.77952 33.1655 1.66749C33.0034 2.48915 29.5902 19.8074 29.3112 21.2239C29.0504 22.5477 30.2177 23.7135 31.5404 23.4531C32.2068 23.3217 50.282 19.7593 51.563 19.507C52.2856 19.3642 52.8181 18.7464 52.8569 18.0044C52.9042 17.1229 53.1808 16.0372 52.8072 15.0339ZM51.3066 17.9227C51.305 17.949 51.2913 17.9777 51.2626 17.9833L31.1046 21.9295C30.8187 21.9933 30.7351 21.9291 30.8348 21.5239L34.6891 1.96793C34.7506 1.65536 34.8715 1.70833 35.0138 1.6962C35.9143 1.65738 36.8237 1.42447 37.4242 1.64808C38.2386 1.95135 38.9094 3.2643 40.0453 3.88499C41.1678 4.4988 42.6311 4.34838 43.344 4.88375C44.0318 5.39971 44.3076 6.85176 45.2275 7.77208C46.1482 8.69281 47.6003 8.96817 48.1162 9.65599C48.652 10.3697 48.5008 11.8314 49.1146 12.9543C49.7357 14.0902 51.0486 14.7614 51.3519 15.5758C51.5703 16.1621 51.3531 17.0456 51.3066 17.9227Z" fill="#A77E56"/>
<path d="M49.4441 29.5353C49.4659 29.228 49.5868 28.8883 49.702 28.5964C49.8597 28.1977 49.664 27.7468 49.2653 27.5891C48.8666 27.4318 48.4154 27.6271 48.2577 28.0258C48.0992 28.4278 47.9322 28.9077 47.895 29.4253C47.804 30.7079 48.5492 31.9804 48.3628 32.8409C48.1784 33.6937 46.9738 34.5453 46.5234 35.7559C46.0762 36.9573 46.4336 38.3855 46.0082 39.1635C45.5934 39.9224 44.1967 40.3996 43.4179 41.4376C42.6517 42.4586 42.5942 43.9272 41.9594 44.562C41.3241 45.1969 39.8563 45.2539 38.8349 46.0206C37.7969 46.7994 37.3198 48.1956 36.5612 48.6105C35.784 49.0355 34.3538 48.6788 33.1537 49.1256C31.9422 49.5765 31.0915 50.7807 30.2387 50.9655C29.379 51.1519 28.1073 50.4066 26.8226 50.4976C25.5408 50.5886 24.386 51.5045 23.5073 51.4442C22.6339 51.3824 21.621 50.3108 20.3598 50.0379C19.1059 49.7661 17.7408 50.3233 16.913 50.0152C16.0987 49.7119 15.4274 48.3986 14.2916 47.7779C13.1691 47.1645 11.7061 47.3149 10.9928 46.7795C10.305 46.2632 10.03 44.8119 9.10932 43.8908C8.189 42.9705 6.73696 42.6951 6.22059 42.0073C5.68563 41.2944 5.83565 39.8311 5.22224 38.7086C4.60155 37.5727 3.2886 36.9019 2.98493 36.0871C2.67681 35.259 3.23442 33.8963 2.96228 32.6404C2.68934 31.3796 1.61779 30.3658 1.55593 29.4928C1.49366 28.615 2.41114 27.465 2.50253 26.1775C2.59351 24.8945 1.84868 23.6224 2.03469 22.7615C2.21948 21.9083 3.42366 21.0579 3.87452 19.8469C4.32173 18.6455 3.96428 17.2173 4.38967 16.4389C4.80454 15.68 6.20078 15.2032 6.97997 14.1652C7.74623 13.1442 7.80365 11.6756 8.43849 11.0408C9.07374 10.4055 10.5416 10.3489 11.5626 9.58224C12.601 8.80305 13.0777 7.4068 13.8367 6.99233C14.6147 6.56695 16.0429 6.9244 17.2442 6.47678C18.4549 6.02632 19.3064 4.82214 20.1592 4.63735C21.0201 4.45135 22.2906 5.19577 23.5748 5.10479C24.8587 5.01381 26.0139 4.09713 26.8902 4.15819C27.5804 4.20752 28.3835 4.90018 29.2852 5.30778L25.5 26.0671C25.4887 26.3144 25 27.5 25.931 27.5891L47.582 23.4546C47.8048 24.0437 48.1627 24.569 48.4453 25.07C48.6564 25.4432 49.1299 25.5746 49.5035 25.3639C49.8767 25.1529 50.0081 24.679 49.7975 24.3057C49.459 23.7069 49.064 23.1432 48.9532 22.6357L48.9524 22.6321C48.8331 22.0777 48.3074 21.7292 47.7555 21.8375L27.3006 25.869C27.0592 25.9159 26.8477 25.7052 26.8954 25.4638L30.8436 5.42868C30.9665 4.80395 30.6309 4.18002 30.0454 3.94428C29.1748 3.59451 28.2124 2.69562 26.9998 2.60909C25.6314 2.51285 24.4175 3.48817 23.4644 3.55569C22.5134 3.62403 21.1742 2.82866 19.8301 3.11939C18.4929 3.40932 17.6049 4.68507 16.7024 5.02149C15.8124 5.35266 14.3033 4.9669 13.0914 5.62924C11.8962 6.28268 11.4073 7.75657 10.6301 8.34006C9.87882 8.90373 8.32163 8.96115 7.34026 9.94253C6.35848 10.9239 6.30187 12.4811 5.73779 13.2328C5.15471 14.0096 3.68042 14.4988 3.02698 15.6937C2.36424 16.9056 2.75 18.4146 2.41883 19.3046C2.08281 20.2072 0.806652 21.0955 0.517132 22.4323C0.225994 23.776 1.02096 25.114 0.953435 26.0671C0.885502 27.0214 -0.090618 28.2333 0.00683233 29.6024C0.103878 30.9696 1.24134 32.0306 1.44432 32.9687C1.6461 33.8991 1.04886 35.3374 1.52964 36.6285C2.00598 37.9083 3.39576 38.6042 3.85955 39.453C4.31284 40.2819 4.14745 41.8314 4.97881 42.939C5.7936 44.0247 7.32126 44.2984 8.01109 44.9882C8.70133 45.6785 8.97467 47.2061 10.0608 48.0209C11.1679 48.8519 12.7178 48.6869 13.5468 49.1398C14.3951 49.6036 15.0914 50.9934 16.3712 51.4701C17.6627 51.9509 19.0994 51.3532 20.031 51.555C21.0152 51.7681 22.1204 52.9998 23.5906 52.9998C24.8809 52.9998 26.0228 52.111 26.933 52.0463C27.8865 51.9788 29.2241 52.7733 30.5674 52.4826C31.9042 52.1931 32.7926 50.9165 33.6951 50.5805C34.5851 50.2493 36.0942 50.6351 37.306 49.9728C38.5013 49.3193 38.9898 47.845 39.767 47.2619C40.5187 46.6979 42.0754 46.6413 43.0572 45.6595C44.0394 44.6773 44.0952 43.1213 44.6597 42.3692C45.2428 41.592 46.7175 41.1032 47.3705 39.9079C48.0329 38.696 47.6471 37.1874 47.9783 36.2974C48.3147 35.3948 49.5908 34.5061 49.8804 33.1693C50.1715 31.8256 49.3765 30.4884 49.4441 29.5353Z" fill="#A77E56"/>
</svg>
