<svg width="35" height="35" viewBox="0 0 35 35" fill="none" xmlns="http://www.w3.org/2000/svg">
<path d="M27.303 22.3624C27.2791 22.3072 27.2567 22.2615 27.2359 22.2248C26.8921 21.5642 26.2351 20.7533 25.2653 19.792L25.2448 19.77L25.2345 19.7592L25.2241 19.7481H25.2137C24.7736 19.3005 24.4948 18.9995 24.3781 18.8454C24.1645 18.5518 24.1167 18.2547 24.2334 17.9536C24.3159 17.7261 24.6257 17.2458 25.162 16.5118C25.4441 16.1228 25.6676 15.8111 25.8326 15.5762C27.0226 13.8883 27.5386 12.8097 27.3803 12.34L27.3188 12.2303C27.2775 12.1642 27.1709 12.1037 26.9991 12.0486C26.827 11.9936 26.6069 11.9845 26.3386 12.0212L23.3672 12.043C23.3191 12.0249 23.2504 12.0265 23.1608 12.0486C23.0714 12.0707 23.0266 12.0817 23.0266 12.0817L22.9749 12.1093L22.9339 12.1424C22.8995 12.1643 22.8616 12.2028 22.8203 12.2579C22.7792 12.3127 22.7449 12.3771 22.7174 12.4505C22.3939 13.3384 22.0261 14.164 21.6133 14.9271C21.3588 15.3822 21.125 15.7765 20.9116 16.1105C20.6984 16.4443 20.5196 16.6902 20.3752 16.8478C20.2307 17.0056 20.1002 17.1321 19.9831 17.2276C19.8661 17.3231 19.7768 17.3635 19.715 17.3487C19.653 17.3339 19.5946 17.3193 19.5394 17.3046C19.4431 17.2385 19.3657 17.1487 19.3074 17.0349C19.2488 16.9212 19.2093 16.7781 19.1887 16.6056C19.1681 16.433 19.156 16.2846 19.1525 16.1598C19.1493 16.0352 19.1508 15.8589 19.1578 15.6314C19.1649 15.4038 19.1681 15.2498 19.1681 15.1691C19.1681 14.8902 19.1732 14.5875 19.1835 14.2609C19.1939 13.9344 19.2023 13.6757 19.2093 13.485C19.2163 13.2942 19.2196 13.0924 19.2196 12.8796C19.2196 12.6667 19.2074 12.4998 19.1835 12.3787C19.1597 12.2577 19.1234 12.1403 19.0754 12.0264C19.0272 11.9127 18.9565 11.8247 18.8639 11.7623C18.771 11.6999 18.6556 11.6504 18.5183 11.6136C18.1537 11.5256 17.6894 11.478 17.1253 11.4706C15.846 11.4559 15.0239 11.544 14.6594 11.7348C14.515 11.8155 14.3842 11.9256 14.2674 12.0649C14.1435 12.2265 14.1263 12.3146 14.2157 12.3291C14.6284 12.395 14.9206 12.5528 15.0926 12.8023L15.1546 12.9345C15.2028 13.0299 15.2509 13.1988 15.2991 13.4409C15.3472 13.683 15.3782 13.9509 15.3919 14.2443C15.4262 14.78 15.4262 15.2387 15.3919 15.6202C15.3575 16.0019 15.3249 16.299 15.2939 16.5118C15.2629 16.7247 15.2165 16.8971 15.1546 17.0292C15.0926 17.1612 15.0514 17.242 15.0307 17.2713C15.0101 17.3006 14.9929 17.319 14.9792 17.3263C14.8898 17.3628 14.7968 17.3815 14.7006 17.3815C14.6042 17.3815 14.4873 17.33 14.3498 17.2273C14.2123 17.1245 14.0696 16.9833 13.9217 16.8035C13.7738 16.6236 13.607 16.3723 13.4212 16.0494C13.2355 15.7266 13.0429 15.345 12.8434 14.9047L12.6784 14.5854C12.5752 14.38 12.4343 14.0809 12.2555 13.6884C12.0765 13.2957 11.9183 12.9159 11.7808 12.549C11.7259 12.3949 11.6433 12.2775 11.5332 12.1968L11.4816 12.1637C11.4473 12.1344 11.3922 12.1033 11.3166 12.0701C11.2409 12.037 11.1619 12.0132 11.0792 11.9986L8.25225 12.0205C7.96336 12.0205 7.76735 12.0904 7.66414 12.2298L7.62284 12.2958C7.6022 12.3325 7.5918 12.3912 7.5918 12.472C7.5918 12.5527 7.61243 12.6518 7.65374 12.7691C8.06643 13.8039 8.51522 14.8019 9.00011 15.7632C9.48501 16.7245 9.90637 17.4988 10.264 18.0855C10.6216 18.6727 10.9862 19.2268 11.3576 19.7477C11.7291 20.2687 11.975 20.6027 12.0953 20.7494C12.2157 20.8963 12.3103 21.0062 12.3791 21.0796L12.6371 21.3437C12.8021 21.5199 13.0446 21.7308 13.3644 21.9766C13.6843 22.2225 14.0385 22.4647 14.4271 22.7033C14.8158 22.9417 15.268 23.1361 15.784 23.2865C16.2998 23.4371 16.8019 23.4975 17.2903 23.4683H18.4769C18.7175 23.4462 18.8998 23.3654 19.0237 23.2261L19.0648 23.1709C19.0924 23.1271 19.1182 23.0591 19.1421 22.9675C19.1662 22.8758 19.1782 22.7748 19.1782 22.6648C19.1712 22.3493 19.1937 22.065 19.2451 21.8119C19.2966 21.5588 19.3552 21.368 19.4207 21.2395C19.4862 21.1111 19.5602 21.0028 19.6425 20.9149C19.7249 20.8269 19.7837 20.7736 19.8182 20.7553C19.8524 20.7368 19.8798 20.7243 19.9004 20.7167C20.0655 20.6581 20.2598 20.7149 20.4835 20.8875C20.7071 21.0599 20.9168 21.2729 21.113 21.5259C21.309 21.7792 21.5446 22.0634 21.8196 22.3789C22.0949 22.6945 22.3356 22.9291 22.5419 23.0835L22.7481 23.2155C22.8859 23.3037 23.0647 23.3844 23.2849 23.4578C23.5046 23.5311 23.6972 23.5495 23.8625 23.5128L26.5037 23.4688C26.7649 23.4688 26.9682 23.4227 27.1124 23.3311C27.2569 23.2394 27.3427 23.1384 27.3704 23.0284C27.398 22.9184 27.3995 22.7936 27.3756 22.654C27.3511 22.5148 27.327 22.4174 27.303 22.3624Z" fill="#A98056"/>
</svg>
