<svg width="30" height="17" viewBox="0 0 30 17" fill="none" xmlns="http://www.w3.org/2000/svg">
<path d="M14.5 1H4.05936C4.02277 1 3.9891 1.01999 3.97157 1.05211L1.08066 6.35211C1.04432 6.41875 1.09255 6.5 1.16845 6.5H11.4406C11.4772 6.5 11.5109 6.48001 11.5284 6.44789L14.5 1ZM14.5 1H25.4451C25.4793 1 25.5111 1.01747 25.5295 1.04631L28.9022 6.34631C28.9446 6.41288 28.8967 6.5 28.8178 6.5H18.5509C18.5189 6.5 18.4889 6.48469 18.47 6.45882L14.5 1ZM14.5 1V15.5M14.5 15.5H25.4C25.4552 15.5 25.5 15.4552 25.5 15.4V6.5M14.5 15.5H4.1C4.04477 15.5 4 15.4552 4 15.4V6.5" stroke="#A77E56" stroke-width="1.7"/>
</svg>
