<svg width="35" height="35" viewBox="0 0 35 35" fill="none" xmlns="http://www.w3.org/2000/svg">
<path fill-rule="evenodd" clip-rule="evenodd" d="M21.0845 9.5H13.9153C11.4807 9.5 9.5 11.4808 9.5 13.9154V21.0846C9.5 23.5193 11.4807 25.5 13.9153 25.5H21.0845C23.5193 25.5 25.5 23.5192 25.5 21.0846V13.9154C25.5001 11.4808 23.5193 9.5 21.0845 9.5ZM17.4999 13.3099C15.1893 13.3099 13.3095 15.1898 13.3095 17.5005C13.3095 19.8111 15.1893 21.6908 17.4999 21.6908C19.8106 21.6908 21.6904 19.8111 21.6904 17.5005C21.6904 15.1898 19.8106 13.3099 17.4999 13.3099ZM22.0715 12.1671C21.7712 12.1671 21.4762 12.2887 21.2642 12.5016C21.0511 12.7136 20.9286 13.0087 20.9286 13.31C20.9286 13.6103 21.0512 13.9053 21.2642 14.1183C21.4761 14.3302 21.7712 14.4528 22.0715 14.4528C22.3728 14.4528 22.6668 14.3302 22.8798 14.1183C23.0928 13.9053 23.2143 13.6102 23.2143 13.31C23.2143 13.0087 23.0928 12.7136 22.8798 12.5016C22.6678 12.2887 22.3728 12.1671 22.0715 12.1671Z" fill="#A98056"/>
<path fill-rule="evenodd" clip-rule="evenodd" d="M17.4995 20.2476C15.9846 20.2476 14.752 19.0152 14.752 17.5002C14.752 15.9851 15.9845 14.7526 17.4995 14.7526C19.0146 14.7526 20.2471 15.9851 20.2471 17.5002C20.2471 19.0152 19.0145 20.2476 17.4995 20.2476Z" fill="#A98056"/>
</svg>
