<svg width="27" height="31" viewBox="0 0 27 31" fill="none" xmlns="http://www.w3.org/2000/svg">
<path d="M5.03437 13.2906L7.75652 20.6624M11.2046 30L7.75652 20.6624M7.75652 20.6624L1 23.6112M7.75652 12.3077L9.06874 15.2565L11.2046 14.2736M13.3404 16.7308L10.2553 18.2052L12.2725 23.6112M14.2897 29.0171L12.2725 23.6112M12.2725 23.6112L20.9345 20.3322M23.3077 19.4338L20.9345 20.3322M20.9345 20.3322L21.8838 23.1197" stroke="#A98056" stroke-width="1.6" stroke-linecap="round"/>
<mask id="path-2-inside-1" fill="white">
<path fill-rule="evenodd" clip-rule="evenodd" d="M19.477 18.4426C22.9197 15.4918 26.3623 10.6879 26.3623 6.88525C26.3623 3.08263 23.2797 0 19.477 0C15.6744 0 12.5918 3.08263 12.5918 6.88525C12.5918 10.6879 16.7721 16.2295 19.477 18.4426ZM19.4767 8.85256C20.8348 8.85256 21.9357 7.75162 21.9357 6.39354C21.9357 5.03546 20.8348 3.93452 19.4767 3.93452C18.1186 3.93452 17.0177 5.03546 17.0177 6.39354C17.0177 7.75162 18.1186 8.85256 19.4767 8.85256Z"/>
</mask>
<path d="M19.477 18.4426L18.4639 19.681L19.5009 20.5295L20.5183 19.6574L19.477 18.4426ZM24.7623 6.88525C24.7623 8.35015 24.0781 10.1959 22.8577 12.1293C21.6574 14.0307 20.0437 15.8496 18.4358 17.2278L20.5183 19.6574C22.353 18.0849 24.1819 16.0264 25.5636 13.8374C26.9252 11.6805 27.9623 9.22296 27.9623 6.88525H24.7623ZM19.477 1.6C22.396 1.6 24.7623 3.96628 24.7623 6.88525H27.9623C27.9623 2.19897 24.1633 -1.6 19.477 -1.6V1.6ZM14.1918 6.88525C14.1918 3.96628 16.5581 1.6 19.477 1.6V-1.6C14.7908 -1.6 10.9918 2.19897 10.9918 6.88525H14.1918ZM20.4902 17.2043C19.2903 16.2225 17.6749 14.4174 16.3633 12.3907C15.019 10.3134 14.1918 8.30523 14.1918 6.88525H10.9918C10.9918 9.26788 12.2547 11.9318 13.6768 14.1293C15.1316 16.3774 16.9589 18.4496 18.4639 19.681L20.4902 17.2043ZM20.3357 6.39354C20.3357 6.86796 19.9511 7.25256 19.4767 7.25256V10.4526C21.7184 10.4526 23.5357 8.63527 23.5357 6.39354H20.3357ZM19.4767 5.53452C19.9511 5.53452 20.3357 5.91912 20.3357 6.39354H23.5357C23.5357 4.15181 21.7184 2.33452 19.4767 2.33452V5.53452ZM18.6177 6.39354C18.6177 5.91912 19.0023 5.53452 19.4767 5.53452V2.33452C17.2349 2.33452 15.4177 4.15181 15.4177 6.39354H18.6177ZM19.4767 7.25256C19.0023 7.25256 18.6177 6.86796 18.6177 6.39354H15.4177C15.4177 8.63527 17.2349 10.4526 19.4767 10.4526V7.25256Z" fill="#A98056" mask="url(#path-2-inside-1)"/>
</svg>
