<svg width="20" height="21" viewBox="0 0 20 21" fill="none" xmlns="http://www.w3.org/2000/svg">
<path d="M17.5 5.72461H15C15 4.39853 14.4732 3.12676 13.5355 2.18908C12.5979 1.25139 11.3261 0.724609 10 0.724609C8.67392 0.724609 7.40215 1.25139 6.46447 2.18908C5.52678 3.12676 5 4.39853 5 5.72461H2.5C1.83696 5.72461 1.20107 5.988 0.732233 6.45684C0.263392 6.92568 0 7.56157 0 8.22461L0 16.5579C0.00132321 17.6626 0.440735 18.7216 1.22185 19.5028C2.00296 20.2839 3.062 20.7233 4.16667 20.7246H15.8333C16.938 20.7233 17.997 20.2839 18.7782 19.5028C19.5593 18.7216 19.9987 17.6626 20 16.5579V8.22461C20 7.56157 19.7366 6.92568 19.2678 6.45684C18.7989 5.988 18.163 5.72461 17.5 5.72461ZM10 2.39128C10.8841 2.39128 11.7319 2.74247 12.357 3.36759C12.9821 3.99271 13.3333 4.84055 13.3333 5.72461H6.66667C6.66667 4.84055 7.01786 3.99271 7.64298 3.36759C8.2681 2.74247 9.11594 2.39128 10 2.39128ZM18.3333 16.5579C18.3333 17.221 18.0699 17.8569 17.6011 18.3257C17.1323 18.7945 16.4964 19.0579 15.8333 19.0579H4.16667C3.50363 19.0579 2.86774 18.7945 2.3989 18.3257C1.93006 17.8569 1.66667 17.221 1.66667 16.5579V8.22461C1.66667 8.0036 1.75446 7.79163 1.91074 7.63535C2.06702 7.47907 2.27899 7.39128 2.5 7.39128H5V9.05794C5 9.27896 5.0878 9.49092 5.24408 9.6472C5.40036 9.80348 5.61232 9.89128 5.83333 9.89128C6.05435 9.89128 6.26631 9.80348 6.42259 9.6472C6.57887 9.49092 6.66667 9.27896 6.66667 9.05794V7.39128H13.3333V9.05794C13.3333 9.27896 13.4211 9.49092 13.5774 9.6472C13.7337 9.80348 13.9457 9.89128 14.1667 9.89128C14.3877 9.89128 14.5996 9.80348 14.7559 9.6472C14.9122 9.49092 15 9.27896 15 9.05794V7.39128H17.5C17.721 7.39128 17.933 7.47907 18.0893 7.63535C18.2455 7.79163 18.3333 8.0036 18.3333 8.22461V16.5579Z" fill="#A98056"/>
</svg>
