<svg width="38" height="37" viewBox="0 0 38 37" fill="none" xmlns="http://www.w3.org/2000/svg">
<path d="M32.481 7.75692C32.3169 8.06337 32.428 8.43901 32.7308 8.60958L32.7429 8.61639C33.0532 8.79112 33.4469 8.6813 33.6147 8.36728C33.6189 8.35949 33.623 8.35169 33.6272 8.34388C33.7946 8.03006 33.6675 7.64193 33.3502 7.48109L33.3386 7.47522C33.0281 7.31778 32.6453 7.44994 32.481 7.75692Z" fill="#A98056" stroke="#A98056" stroke-width="0.2"/>
<path d="M23.4133 17.5C22.5102 14.9415 22.3411 9.58323 27.9131 6.80073M28.499 19.5C39.369 17.137 37.3566 7.17977 35.2737 2.29567C35.1903 2.10005 34.6194 2.08527 34.4804 2.24625C33.87 2.9533 32.7107 3.9269 31.6378 4.75126C30.5174 5.61211 29.2024 6.16042 27.937 6.78885C27.929 6.7928 27.921 6.79676 27.9131 6.80073M20 14C19.1667 12.6667 18.1133 8.8 20.9133 6C22.6975 4.2158 23.3583 2.87824 23.5167 2.01321C23.5564 1.79647 24.0753 1.48523 24.2475 1.62276C25.8121 2.87257 27.9131 4.99356 27.9131 6.80073M31.9131 10.5C30.7465 12.4497 27.4134 16.6142 23.4133 17.6745" stroke="#A98056" stroke-width="1.5" stroke-linecap="round"/>
<path d="M23.7383 18.5C21.4562 13.4707 15.1357 10.6116 10.1064 12.8936C5.07708 15.1757 2.84995 21.1027 5.13199 26.132C7.41402 31.1614 13.3411 33.3885 18.3704 31.1065" stroke="#A98056" stroke-width="1.5"/>
<circle cx="24.2383" cy="26" r="7.25" stroke="#A98056" stroke-width="1.5"/>
<circle cx="9.23828" cy="20" r="1.25" stroke="#A98056" stroke-width="1.5"/>
<circle cx="27.7383" cy="26.5" r="1" stroke="#A98056"/>
<path d="M11.1806 2.22938C11.1916 1.99164 11.0079 1.79041 10.7704 1.77946L9.91016 1.73982C9.67264 1.72888 9.4712 1.91237 9.46025 2.1501C9.44929 2.38784 9.63301 2.58907 9.87053 2.60002L10.7307 2.63965C10.9682 2.6506 11.1697 2.46711 11.1806 2.22938Z" fill="#A98056"/>
<path d="M12.0413 2.269C12.0303 2.50674 12.2141 2.70797 12.4516 2.71891L13.3118 2.75855C13.5493 2.7695 13.7507 2.58601 13.7617 2.34827C13.7726 2.11054 13.5889 1.9093 13.3514 1.89836L12.4912 1.85872C12.2537 1.84778 12.0523 2.03137 12.0413 2.269Z" fill="#A98056"/>
<path d="M11.962 3.99052L12.0017 3.13033C12.0126 2.89259 11.8289 2.69136 11.5914 2.68041C11.3539 2.66947 11.1524 2.85295 11.1415 3.09069L11.1018 3.95088C11.0909 4.18862 11.2746 4.38986 11.5121 4.4008C11.7496 4.41174 11.9511 4.22826 11.962 3.99052Z" fill="#A98056"/>
<path d="M12.0802 1.40922L12.1198 0.549028C12.1308 0.311292 11.9471 0.110057 11.7096 0.0991129C11.472 0.0881683 11.2706 0.271656 11.2596 0.509392L11.22 1.36959C11.2091 1.60732 11.3928 1.80856 11.6303 1.8195C11.8678 1.83045 12.0693 1.64696 12.0802 1.40922Z" fill="#A98056"/>
<path d="M10.9435 7.39054C10.9544 7.15296 10.7707 6.95156 10.5332 6.94062C10.2956 6.92967 10.0942 7.11342 10.0833 7.3509C10.0724 7.58839 10.2561 7.78988 10.4935 7.80082C10.731 7.81176 10.9326 7.62802 10.9435 7.39054Z" fill="#A98056"/>
<path d="M6.88002 2.03092C6.89097 1.79334 6.70724 1.59195 6.46969 1.581C6.23213 1.57005 6.03076 1.7538 6.01982 1.99128C6.00888 2.22877 6.1926 2.43026 6.43005 2.4412C6.66751 2.45214 6.86908 2.2684 6.88002 2.03092Z" fill="#A98056"/>
</svg>
