<svg width="39" height="38" viewBox="0 0 39 38" fill="none" xmlns="http://www.w3.org/2000/svg">
<path d="M19.002 9.34033L22.7082 7.30553L24.743 11.0117" stroke="#A98056" stroke-width="1.6" stroke-linecap="round"/>
<path d="M7.88379 15.4445L11.59 13.4097L13.6248 17.1159" stroke="#A98056" stroke-width="1.6" stroke-linecap="round"/>
<path d="M25.1064 20.4594L28.8126 18.4246L30.8474 22.1308" stroke="#A98056" stroke-width="1.6" stroke-linecap="round"/>
<path d="M13.9883 26.5635L17.6945 24.5287L19.7293 28.2349" stroke="#A98056" stroke-width="1.6" stroke-linecap="round"/>
<path d="M3.44477 16.145C2.64738 14.6926 3.17835 12.8689 4.63071 12.0715L10.5722 8.80943C12.0246 8.01205 13.8483 8.54301 14.6457 9.99537L19.3516 18.5666L10.7803 23.2724C9.32796 24.0698 7.50419 23.5388 6.7068 22.0865L3.44477 16.145Z" stroke="#A98056" stroke-width="1.6"/>
<path d="M9.69086 27.5218C8.89348 26.0695 9.42444 24.2457 10.8768 23.4483L19.448 18.7425L24.1539 27.3137C24.9512 28.7661 24.4203 30.5898 22.9679 31.3872L17.0264 34.6493C15.5741 35.4466 13.7503 34.9157 12.9529 33.4633L9.69086 27.5218Z" stroke="#A98056" stroke-width="1.6"/>
<path d="M14.7387 9.94308C13.9413 8.49072 14.4723 6.66695 15.9247 5.86957L21.8662 2.60753C23.3185 1.81014 25.1423 2.34111 25.9397 3.79347L29.2017 9.73497C29.9991 11.1873 29.4681 13.0111 28.0158 13.8085L19.4445 18.5143L14.7387 9.94308Z" stroke="#A98056" stroke-width="1.6"/>
<path d="M19.541 18.691L28.1122 13.9852C29.5646 13.1878 31.3884 13.7188 32.1858 15.1712L35.4478 21.1127C36.2452 22.565 35.7142 24.3888 34.2619 25.1862L28.3204 28.4482C26.868 29.2456 25.0442 28.7146 24.2468 27.2623L19.541 18.691Z" stroke="#A98056" stroke-width="1.6"/>
<path d="M32.9845 2.58333C32.7465 2.58333 32.5539 2.77611 32.5539 3.01388V3.87499C32.5539 4.11276 32.7465 4.30554 32.9845 4.30554C33.2225 4.30554 33.415 4.11276 33.415 3.87499V3.01388C33.415 2.77611 33.2225 2.58333 32.9845 2.58333Z" fill="#A98056"/>
<path d="M32.9845 1.72217C33.2225 1.72217 33.415 1.52939 33.415 1.29161V0.430508C33.415 0.192734 33.2225 -4.57764e-05 32.9845 -4.57764e-05C32.7465 -4.57764e-05 32.5539 0.192734 32.5539 0.430508V1.29161C32.5539 1.52939 32.7466 1.72217 32.9845 1.72217Z" fill="#A98056"/>
<path d="M34.7081 1.72239H33.847C33.609 1.72239 33.4165 1.91517 33.4165 2.15294C33.4165 2.39072 33.609 2.5835 33.847 2.5835H34.7081C34.9461 2.5835 35.1387 2.39072 35.1387 2.15294C35.1387 1.91517 34.9461 1.72239 34.7081 1.72239Z" fill="#A98056"/>
<path d="M32.1241 1.72239H31.263C31.025 1.72239 30.8325 1.91517 30.8325 2.15294C30.8325 2.39072 31.025 2.5835 31.263 2.5835H32.1241C32.3621 2.5835 32.5547 2.39072 32.5547 2.15294C32.5547 1.91517 32.3621 1.72239 32.1241 1.72239Z" fill="#A98056"/>
<path d="M38.1515 7.5831C37.9136 7.5831 37.7209 7.7759 37.7209 8.01371C37.7209 8.25151 37.9137 8.44421 38.1515 8.44421C38.3892 8.44421 38.582 8.25141 38.582 8.01371C38.582 7.776 38.3892 7.5831 38.1515 7.5831Z" fill="#A98056"/>
</svg>
