<svg width="34" height="36" viewBox="0 0 34 36" fill="none" xmlns="http://www.w3.org/2000/svg">
<path d="M3.15245 2.58333C2.91447 2.58333 2.7219 2.77611 2.7219 3.01388V3.87499C2.7219 4.11276 2.91447 4.30554 3.15245 4.30554C3.39044 4.30554 3.58301 4.11276 3.58301 3.87499V3.01388C3.58301 2.77611 3.39044 2.58333 3.15245 2.58333Z" fill="#A98056"/>
<path d="M3.15245 1.72217C3.39044 1.72217 3.58301 1.52939 3.58301 1.29161V0.430508C3.58301 0.192734 3.39044 -4.57764e-05 3.15245 -4.57764e-05C2.91447 -4.57764e-05 2.7219 0.192734 2.7219 0.430508V1.29161C2.7219 1.52939 2.91457 1.72217 3.15245 1.72217Z" fill="#A98056"/>
<path d="M4.87609 1.72239H4.01498C3.77699 1.72239 3.58443 1.91517 3.58443 2.15294C3.58443 2.39072 3.77699 2.5835 4.01498 2.5835H4.87609C5.11408 2.5835 5.30664 2.39072 5.30664 2.15294C5.30664 1.91517 5.11408 1.72239 4.87609 1.72239Z" fill="#A98056"/>
<path d="M2.2921 1.72239H1.431C1.19301 1.72239 1.00044 1.91517 1.00044 2.15294C1.00044 2.39072 1.19301 2.5835 1.431 2.5835H2.2921C2.53009 2.5835 2.72266 2.39072 2.72266 2.15294C2.72266 1.91517 2.53009 1.72239 2.2921 1.72239Z" fill="#A98056"/>
<path d="M8.31944 2.5831C8.08161 2.5831 7.88888 2.7759 7.88888 3.01371C7.88888 3.25151 8.08171 3.44421 8.31944 3.44421C8.55718 3.44421 8.75 3.25141 8.75 3.01371C8.75 2.776 8.55718 2.5831 8.31944 2.5831Z" fill="#A98056"/>
<path d="M3.15245 6.88901C2.91462 6.88901 2.72189 7.08181 2.72189 7.31961C2.72189 7.55742 2.91472 7.75012 3.15245 7.75012C3.39018 7.75012 3.58301 7.55732 3.58301 7.31961C3.58301 7.08191 3.39018 6.88901 3.15245 6.88901Z" fill="#A98056"/>
<rect x="6.99219" y="9.99988" width="3" height="3" rx="1.5" fill="#A98056"/>
<rect x="14" y="12.9999" width="3" height="3" rx="1.5" fill="#A98056"/>
<rect x="21" y="15.9999" width="3" height="3" rx="1.5" fill="#A98056"/>
<rect x="18" y="22.9999" width="3" height="3" rx="1.5" fill="#A98056"/>
<path d="M6.48725 15.3396L3.10094 20.5672C2.49526 21.5022 2.77033 22.7519 3.71263 23.3462L18.9132 32.933C19.8474 33.5222 21.0825 33.2425 21.6717 32.3082L31.689 16.4251C32.2782 15.4908 31.9985 14.2558 31.0642 13.6665L15.8447 4.06781C14.9097 3.47817 13.6738 3.75871 13.0851 4.6942L10.9744 8.04794" stroke="#A98056" stroke-width="1.8" stroke-linecap="round"/>
</svg>
