<svg width="30" height="35" viewBox="0 0 30 35" fill="none" xmlns="http://www.w3.org/2000/svg">
<path d="M24.5975 2.58333C24.8355 2.58333 25.0281 2.77611 25.0281 3.01388V3.87499C25.0281 4.11276 24.8355 4.30554 24.5975 4.30554C24.3596 4.30554 24.167 4.11276 24.167 3.87499V3.01388C24.167 2.77611 24.3596 2.58333 24.5975 2.58333Z" fill="#A98056"/>
<path d="M24.5975 1.72217C24.3596 1.72217 24.167 1.52939 24.167 1.29161V0.430508C24.167 0.192734 24.3596 -4.57764e-05 24.5975 -4.57764e-05C24.8355 -4.57764e-05 25.0281 0.192734 25.0281 0.430508V1.29161C25.0281 1.52939 24.8354 1.72217 24.5975 1.72217Z" fill="#A98056"/>
<path d="M22.8739 1.72239H23.735C23.973 1.72239 24.1656 1.91517 24.1656 2.15294C24.1656 2.39072 23.973 2.5835 23.735 2.5835H22.8739C22.6359 2.5835 22.4434 2.39072 22.4434 2.15294C22.4434 1.91517 22.6359 1.72239 22.8739 1.72239Z" fill="#A98056"/>
<path d="M25.4579 1.72239H26.319C26.557 1.72239 26.7496 1.91517 26.7496 2.15294C26.7496 2.39072 26.557 2.5835 26.319 2.5835H25.4579C25.2199 2.5835 25.0273 2.39072 25.0273 2.15294C25.0273 1.91517 25.2199 1.72239 25.4579 1.72239Z" fill="#A98056"/>
<path d="M19.4306 7.5831C19.6684 7.5831 19.8611 7.7759 19.8611 8.01371C19.8611 8.25151 19.6683 8.44421 19.4306 8.44421C19.1928 8.44421 19 8.25141 19 8.01371C19 7.776 19.1928 7.5831 19.4306 7.5831Z" fill="#A98056"/>
<path d="M23.2051 18.9072C22.8736 19.3229 22.9403 19.9238 23.3448 20.2689C23.7651 20.6277 24.4057 20.5802 24.7499 20.1478C24.7594 20.1359 24.7689 20.1239 24.7784 20.1119C25.1159 19.6871 25.029 19.065 24.6012 18.7312C24.1742 18.398 23.5428 18.4838 23.2051 18.9072Z" fill="#A98056"/>
<path d="M1 29.5621C2.74128 30.0377 4.55749 30.5488 6.80426 30.093M21.3149 22.1214C18.3873 26.6755 12.0604 29.0267 6.80426 30.093M6.80426 30.093C14.3498 38.8489 25.9583 31.1822 28.28 23.7579C29.8677 18.6807 28.28 10.1729 28.28 9.35202C28.28 8.08634 29.9791 12.9929 17 15.9999M6.80426 30.093C6.47221 28.9817 6.32708 27.3795 6.69283 25.604M17 15.9999C10.0454 17.6111 7.41028 22.1214 6.69283 25.604M17 15.9999C17.9287 13.2138 12.0281 2.86239 12.0281 4.70869C11.4477 7.5057 10.3534 9.59853 7.96512 10.9883C2.16085 14.3657 0.419574 22.5968 6.69283 25.604" stroke="#A98056" stroke-width="1.6" stroke-linecap="round"/>
</svg>
