<svg width="46" height="33" viewBox="0 0 46 33" fill="none" xmlns="http://www.w3.org/2000/svg">
<path d="M2.15245 2.58333C1.91447 2.58333 1.7219 2.77611 1.7219 3.01388V3.87499C1.7219 4.11276 1.91447 4.30554 2.15245 4.30554C2.39044 4.30554 2.58301 4.11276 2.58301 3.87499V3.01388C2.58301 2.77611 2.39044 2.58333 2.15245 2.58333Z" fill="#A98056"/>
<path d="M2.15245 1.72217C2.39044 1.72217 2.58301 1.52939 2.58301 1.29161V0.430508C2.58301 0.192734 2.39044 -4.57764e-05 2.15245 -4.57764e-05C1.91447 -4.57764e-05 1.7219 0.192734 1.7219 0.430508V1.29161C1.7219 1.52939 1.91457 1.72217 2.15245 1.72217Z" fill="#A98056"/>
<path d="M3.87609 1.72239H3.01498C2.77699 1.72239 2.58443 1.91517 2.58443 2.15294C2.58443 2.39072 2.77699 2.5835 3.01498 2.5835H3.87609C4.11408 2.5835 4.30664 2.39072 4.30664 2.15294C4.30664 1.91517 4.11408 1.72239 3.87609 1.72239Z" fill="#A98056"/>
<path d="M1.2921 1.72239H0.430996C0.193008 1.72239 0.000442982 1.91517 0.000442982 2.15294C0.000442982 2.39072 0.193008 2.5835 0.430996 2.5835H1.2921C1.53009 2.5835 1.72266 2.39072 1.72266 2.15294C1.72266 1.91517 1.53009 1.72239 1.2921 1.72239Z" fill="#A98056"/>
<path d="M7.31944 2.5831C7.08161 2.5831 6.88888 2.7759 6.88888 3.01371C6.88888 3.25151 7.08171 3.44421 7.31944 3.44421C7.55718 3.44421 7.75 3.25141 7.75 3.01371C7.75 2.776 7.55718 2.5831 7.31944 2.5831Z" fill="#A98056"/>
<path d="M2.15245 6.88901C1.91462 6.88901 1.72189 7.08181 1.72189 7.31961C1.72189 7.55742 1.91472 7.75012 2.15245 7.75012C2.39018 7.75012 2.58301 7.55732 2.58301 7.31961C2.58301 7.08191 2.39018 6.88901 2.15245 6.88901Z" fill="#A98056"/>
<path d="M43.1806 27.2293C43.1916 26.9915 43.0079 26.7903 42.7704 26.7793L41.9102 26.7397C41.6726 26.7288 41.4712 26.9122 41.4602 27.15C41.4493 27.3877 41.633 27.589 41.8705 27.5999L42.7307 27.6395C42.9682 27.6505 43.1697 27.467 43.1806 27.2293Z" fill="#A98056"/>
<path d="M44.0413 27.2689C44.0303 27.5066 44.2141 27.7078 44.4516 27.7188L45.3118 27.7584C45.5493 27.7694 45.7507 27.5859 45.7617 27.3482C45.7726 27.1104 45.5889 26.9092 45.3514 26.8982L44.4912 26.8586C44.2537 26.8477 44.0523 27.0312 44.0413 27.2689Z" fill="#A98056"/>
<path d="M43.962 28.9904L44.0017 28.1302C44.0126 27.8925 43.8289 27.6912 43.5914 27.6803C43.3539 27.6693 43.1524 27.8528 43.1415 28.0906L43.1018 28.9508C43.0909 29.1885 43.2746 29.3897 43.5121 29.4007C43.7496 29.4116 43.9511 29.2281 43.962 28.9904Z" fill="#A98056"/>
<path d="M44.0802 26.4091L44.1198 25.5489C44.1308 25.3112 43.9471 25.1099 43.7096 25.099C43.472 25.088 43.2706 25.2715 43.2596 25.5093L43.22 26.3695C43.2091 26.6072 43.3928 26.8084 43.6303 26.8194C43.8678 26.8303 44.0693 26.6468 44.0802 26.4091Z" fill="#A98056"/>
<path d="M42.9435 32.3904C42.9544 32.1528 42.7707 31.9514 42.5332 31.9405C42.2956 31.9296 42.0942 32.1133 42.0833 32.3508C42.0724 32.5883 42.2561 32.7898 42.4935 32.8007C42.731 32.8116 42.9326 32.6279 42.9435 32.3904Z" fill="#A98056"/>
<path d="M38.88 27.0308C38.891 26.7932 38.7072 26.5918 38.4697 26.5809C38.2321 26.5699 38.0308 26.7537 38.0198 26.9912C38.0089 27.2286 38.1926 27.4301 38.4301 27.4411C38.6675 27.452 38.8691 27.2683 38.88 27.0308Z" fill="#A98056"/>
<path d="M29.25 8.97375C29.7678 8.97375 30.1875 8.5409 30.1875 8.00696C30.1875 7.47301 29.7678 7.04016 29.25 7.04016C28.7322 7.04016 28.3125 7.47301 28.3125 8.00696C28.3125 8.5409 28.7322 8.97375 29.25 8.97375Z" fill="#A98056"/>
<path d="M30.5039 13.4855C31.0217 13.4855 31.4414 13.0526 31.4414 12.5187C31.4414 11.9847 31.0217 11.5519 30.5039 11.5519C29.9861 11.5519 29.5664 11.9847 29.5664 12.5187C29.5664 13.0526 29.9861 13.4855 30.5039 13.4855Z" fill="#A98056"/>
<path d="M27.3779 17.3527C27.8957 17.3527 28.3154 16.9198 28.3154 16.3859C28.3154 15.8519 27.8957 15.4191 27.3779 15.4191C26.8602 15.4191 26.4404 15.8519 26.4404 16.3859C26.4404 16.9198 26.8602 17.3527 27.3779 17.3527Z" fill="#A98056"/>
<path d="M25.502 12.8409C26.0197 12.8409 26.4395 12.4081 26.4395 11.8741C26.4395 11.3402 26.0197 10.9073 25.502 10.9073C24.9842 10.9073 24.5645 11.3402 24.5645 11.8741C24.5645 12.4081 24.9842 12.8409 25.502 12.8409Z" fill="#A98056"/>
<path d="M4 11.9999L19.3669 17.4526C19.4467 17.481 19.5 17.5565 19.5 17.6411V23.6817C21 25.6131 23.3333 25.515 24.5 24.6817V19.5685M4 11.9999V17.7499M4 11.9999L13.9167 8.49988M24.5 19.4999L29.5 20.9999M29.5 20.9999C33.5 17.6665 39.1 9.39988 29.5 2.99988L21 5.99988M29.5 20.9999V25.9999M29.5 31.9999C31.5 31.4999 35 29.5999 35 25.9999L34.7954 10.9999M29.5 31.9999L4 23.4999V17.7499M29.5 31.9999V26.4999V25.9999M4 17.7499L19 22.7058M29.5 25.9999L25 24.5881" stroke="#A98056" stroke-width="1.6" stroke-linecap="round"/>
<circle cx="18" cy="7.99988" r="3.2" stroke="#A98056" stroke-width="1.6"/>
<path d="M16 0.999878C17.5 1.49988 18 2.49988 18 4.49988" stroke="#A98056" stroke-width="1.6" stroke-linecap="round"/>
</svg>
