<svg width="16" height="16" viewBox="0 0 16 16" fill="none" xmlns="http://www.w3.org/2000/svg">
<path fill-rule="evenodd" clip-rule="evenodd" d="M16 1.875C16 0.841125 15.1589 0 14.125 0H9.25C8.77016 0 8.332 0.181406 8 0.478969C7.668 0.181406 7.22984 0 6.75 0H1.875C0.841125 0 0 0.841125 0 1.875V6.75C0 7.22984 0.181406 7.668 0.478969 8C0.181406 8.332 0 8.77016 0 9.25V14.125C0 15.1589 0.841125 16 1.875 16H6.75C7.22984 16 7.668 15.8186 8 15.521C8.332 15.8186 8.77016 16 9.25 16H14.125C15.1589 16 16 15.1589 16 14.125V11V9.25C16 8.77016 15.8186 8.332 15.521 8C15.8186 7.668 16 7.22984 16 6.75V1.875ZM14.125 14.75C14.4696 14.75 14.75 14.4696 14.75 14.125V11V9.25C14.75 8.90537 14.4696 8.625 14.125 8.625H9.25C8.90537 8.625 8.625 8.90537 8.625 9.25V14.125C8.625 14.4696 8.90537 14.75 9.25 14.75H14.125ZM1.875 1.25C1.53038 1.25 1.25 1.53038 1.25 1.875V6.75C1.25 7.09462 1.53038 7.375 1.875 7.375H6.75C7.09462 7.375 7.375 7.09462 7.375 6.75V1.875C7.375 1.53038 7.09462 1.25 6.75 1.25H1.875ZM1.875 14.75H6.75C7.09462 14.75 7.375 14.4696 7.375 14.125V9.25C7.375 8.90537 7.09462 8.625 6.75 8.625H1.875C1.53038 8.625 1.25 8.90537 1.25 9.25V14.125C1.25 14.4696 1.53038 14.75 1.875 14.75ZM8.625 6.75C8.625 7.09462 8.90537 7.375 9.25 7.375H14.125C14.4696 7.375 14.75 7.09462 14.75 6.75V1.875C14.75 1.53038 14.4696 1.25 14.125 1.25H9.25C8.90537 1.25 8.625 1.53038 8.625 1.875V6.75Z" fill="#A98056"/>
<path fill-rule="evenodd" clip-rule="evenodd" d="M3.125 2.5C2.77981 2.5 2.5 2.77981 2.5 3.125V5.5C2.5 5.84519 2.77981 6.125 3.125 6.125C3.47019 6.125 3.75 5.84519 3.75 5.5V3.75H5.5C5.84519 3.75 6.125 3.47019 6.125 3.125C6.125 2.77981 5.84519 2.5 5.5 2.5H3.125ZM13.5 10.5C13.5 10.1548 13.2202 9.875 12.875 9.875H10.5C10.1548 9.875 9.875 10.1548 9.875 10.5V12.875C9.875 13.2202 10.1548 13.5 10.5 13.5C10.8452 13.5 11.125 13.2202 11.125 12.875V11.125H12.875C13.2202 11.125 13.5 10.8452 13.5 10.5ZM12.875 3.75C13.2202 3.75 13.5 3.47019 13.5 3.125C13.5 2.77981 13.2202 2.5 12.875 2.5H10.5C10.1548 2.5 9.875 2.77981 9.875 3.125V5.5C9.875 5.84519 10.1548 6.125 10.5 6.125C10.8452 6.125 11.125 5.84519 11.125 5.5V3.75H12.875ZM6.125 10.5C6.125 10.8452 5.84519 11.125 5.5 11.125H3.75V12.875C3.75 13.2202 3.47019 13.5 3.125 13.5C2.77981 13.5 2.5 13.2202 2.5 12.875V10.5C2.5 10.1548 2.77981 9.875 3.125 9.875H5.5C5.84519 9.875 6.125 10.1548 6.125 10.5Z" fill="#A98056"/>
</svg>
