<svg width="16" height="17" viewBox="0 0 16 17" fill="none" xmlns="http://www.w3.org/2000/svg">
<path fill-rule="evenodd" clip-rule="evenodd" d="M11.0276 1.5C10.3877 1.5 9.77404 1.7542 9.32156 2.20668L2.63324 8.895C1.90764 9.6206 1.5 10.6047 1.5 11.6309C1.5 12.657 1.90764 13.6412 2.63324 14.3668C3.35884 15.0924 4.34297 15.5 5.36912 15.5C6.39528 15.5 7.3794 15.0924 8.105 14.3668L14.7933 7.67844C14.9886 7.48318 15.3052 7.48318 15.5004 7.67844C15.6957 7.8737 15.6957 8.19029 15.5004 8.38555L8.81211 15.0739C7.89897 15.987 6.66049 16.5 5.36912 16.5C4.07775 16.5 2.83927 15.987 1.92613 15.0739C1.013 14.1607 0.5 12.9222 0.5 11.6309C0.5 10.3395 1.013 9.10103 1.92613 8.18789L8.61445 1.49957C9.25447 0.859556 10.1225 0.5 11.0276 0.5C11.9327 0.5 12.8008 0.859556 13.4408 1.49957C14.0808 2.13958 14.4404 3.00763 14.4404 3.91275C14.4404 4.81786 14.0808 5.68591 13.4408 6.32592L6.74521 13.0142C6.37832 13.3811 5.88071 13.5873 5.36184 13.5873C4.84298 13.5873 4.34537 13.3811 3.97848 13.0142C3.61159 12.6474 3.40547 12.1497 3.40547 11.6309C3.40547 11.112 3.61159 10.6144 3.97848 10.2475L10.1576 4.07571C10.3529 3.88056 10.6695 3.88075 10.8647 4.07613C11.0598 4.2715 11.0596 4.58809 10.8642 4.78323L4.68559 10.9546C4.50623 11.134 4.40547 11.3772 4.40547 11.6309C4.40547 11.8845 4.50623 12.1278 4.68559 12.3071C4.86494 12.4865 5.1082 12.5873 5.36184 12.5873C5.61549 12.5873 5.85875 12.4865 6.0381 12.3071L12.7337 5.61882C13.1862 5.16634 13.4404 4.55265 13.4404 3.91275C13.4404 3.27285 13.1862 2.65916 12.7337 2.20668C12.2812 1.7542 11.6675 1.5 11.0276 1.5Z" fill="#A98056"/>
</svg>
