<svg width="54" height="44" viewBox="0 0 54 44" fill="none" xmlns="http://www.w3.org/2000/svg">
<path d="M42.9585 42.7759C42.7542 42.0995 43.137 41.3858 43.8133 41.1815C44.4896 40.9772 45.2033 41.3601 45.4075 42.0362C45.6117 42.7123 45.229 43.4264 44.553 43.6305C43.8769 43.8347 43.1627 43.452 42.9585 42.7759Z" fill="#A98056"/>
<path d="M49.7197 33.036C49.3229 33.036 49.0019 32.7146 49.0019 32.3182V30.8826C49.0019 30.4862 49.3229 30.1648 49.7197 30.1648C50.1165 30.1648 50.4375 30.4862 50.4375 30.8826V32.3182C50.4375 32.7146 50.1165 33.036 49.7197 33.036Z" fill="#A98056"/>
<path d="M49.7197 34.4712C50.1165 34.4712 50.4375 34.7926 50.4375 35.189V36.6246C50.4375 37.021 50.1165 37.3424 49.7197 37.3424C49.3229 37.3424 49.0019 37.021 49.0019 36.6246V35.189C49.0019 34.7926 49.3231 34.4712 49.7197 34.4712Z" fill="#A98056"/>
<path d="M52.5947 34.472H51.1591C50.7623 34.472 50.4413 34.1506 50.4413 33.7542C50.4413 33.3578 50.7623 33.0364 51.1591 33.0364H52.5947C52.9915 33.0364 53.3125 33.3578 53.3125 33.7542C53.3125 34.1506 52.9915 34.472 52.5947 34.472Z" fill="#A98056"/>
<path d="M48.29 34.472H46.8544C46.4576 34.472 46.1366 34.1506 46.1366 33.7542C46.1366 33.3578 46.4576 33.0364 46.8544 33.0364H48.29C48.6868 33.0364 49.0078 33.3578 49.0078 33.7542C49.0078 34.1506 48.6868 34.472 48.29 34.472Z" fill="#A98056"/>
<path d="M14.5679 1.96414C14.3636 1.28774 14.7463 0.574015 15.4227 0.369745C16.099 0.165476 16.8127 0.548345 17.0169 1.22446C17.2211 1.90058 16.8384 2.61459 16.1623 2.81877C15.4863 3.02295 14.7721 2.64025 14.5679 1.96414Z" fill="#A98056"/>
<path d="M3.58298 4.64587C3.18621 4.64587 2.86518 4.32447 2.86518 3.92806V2.49246C2.86518 2.09605 3.18621 1.77466 3.58298 1.77466C3.97974 1.77466 4.30078 2.09605 4.30078 2.49246V3.92806C4.30078 4.32447 3.97974 4.64587 3.58298 4.64587Z" fill="#A98056"/>
<path d="M3.58298 6.08105C3.97974 6.08105 4.30078 6.40245 4.30078 6.79886V8.23446C4.30078 8.63087 3.97974 8.95226 3.58298 8.95226C3.18621 8.95226 2.86518 8.63087 2.86518 8.23446V6.79886C2.86518 6.40245 3.18639 6.08105 3.58298 6.08105Z" fill="#A98056"/>
<path d="M6.45798 6.08184H5.02238C4.62561 6.08184 4.30457 5.76045 4.30457 5.36404C4.30457 4.96764 4.62561 4.64624 5.02238 4.64624H6.45798C6.85474 4.64624 7.17578 4.96764 7.17578 5.36404C7.17578 5.76045 6.85474 6.08184 6.45798 6.08184Z" fill="#A98056"/>
<path d="M2.15329 6.08184H0.717689C0.320924 6.08184 -0.000113249 5.76045 -0.000113249 5.36404C-0.000113249 4.96764 0.320924 4.64624 0.717689 4.64624H2.15329C2.55006 4.64624 2.87109 4.96764 2.87109 5.36404C2.87109 5.76045 2.55006 6.08184 2.15329 6.08184Z" fill="#A98056"/>
<path d="M39.0388 33.2306V37.7716C39.0406 38.1932 38.954 38.6105 38.7848 38.9967C38.6156 39.383 38.3674 39.7297 38.0562 40.0147C37.7449 40.2997 37.3774 40.5166 36.9773 40.6517C36.5772 40.7868 36.1532 40.8369 35.7325 40.799C31.0654 40.2929 26.5824 38.7012 22.6436 36.152C18.979 33.828 15.8721 30.7273 13.5435 27.07C10.9803 23.1211 9.38515 18.6252 8.88731 13.9464C8.84941 13.5279 8.89925 13.106 9.03367 12.7077C9.16809 12.3094 9.38413 11.9434 9.66804 11.633C9.95196 11.3226 10.2975 11.0746 10.6827 10.9047C11.068 10.7349 11.4844 10.647 11.9055 10.6466H16.4555C17.1916 10.6394 17.9052 10.8995 18.4632 11.3785C19.0213 11.8575 19.3859 12.5227 19.4889 13.2501C19.6809 14.7034 20.0371 16.1303 20.5506 17.5036C20.7546 18.0453 20.7988 18.6341 20.6778 19.2002C20.5568 19.7663 20.2758 20.2859 19.868 20.6974L17.9419 22.6198C20.1009 26.4093 23.2449 29.547 27.0419 31.7018L28.9681 29.7794C29.3805 29.3725 29.9011 29.092 30.4683 28.9713C31.0355 28.8506 31.6254 28.8946 32.1683 29.0983C33.5443 29.6107 34.974 29.9662 36.4302 30.1579C37.1669 30.2616 37.8398 30.632 38.3207 31.1985C38.8017 31.7651 39.0573 32.4883 39.0388 33.2306Z" stroke="#A77E56" stroke-width="2" stroke-linecap="round" stroke-linejoin="round"/>
</svg>
