<svg width="46" height="61" viewBox="0 0 46 61" fill="none" xmlns="http://www.w3.org/2000/svg">
<path d="M24.7539 22.5371V32.7216L32.5135 40.4812" stroke="#A98056" stroke-width="2" stroke-linecap="round" stroke-linejoin="round"/>
<circle cx="24.2761" cy="32.7217" r="16.9441" stroke="#A98056" stroke-width="2"/>
<path d="M31.7137 3.42663C31.2401 3.42663 30.857 3.04306 30.857 2.56997V0.856657C30.857 0.383568 31.2401 0 31.7137 0C32.1872 0 32.5703 0.383568 32.5703 0.856657V2.56997C32.5703 3.04306 32.1872 3.42663 31.7137 3.42663Z" fill="#A98056"/>
<path d="M31.7137 5.13965C32.1872 5.13965 32.5703 5.52322 32.5703 5.99631V7.70962C32.5703 8.18271 32.1872 8.56628 31.7137 8.56628C31.2401 8.56628 30.857 8.18271 30.857 7.70962V5.99631C30.857 5.52322 31.2404 5.13965 31.7137 5.13965Z" fill="#A98056"/>
<path d="M35.1512 5.14032H33.4378C32.9643 5.14032 32.5812 4.75675 32.5812 4.28366C32.5812 3.81057 32.9643 3.427 33.4378 3.427H35.1512C35.6247 3.427 36.0078 3.81057 36.0078 4.28366C36.0078 4.75675 35.6247 5.14032 35.1512 5.14032Z" fill="#A98056"/>
<path d="M30.0105 5.14032H28.2972C27.8237 5.14032 27.4406 4.75675 27.4406 4.28366C27.4406 3.81057 27.8237 3.427 28.2972 3.427H30.0105C30.484 3.427 30.8672 3.81057 30.8672 4.28366C30.8672 4.75675 30.484 5.14032 30.0105 5.14032Z" fill="#A98056"/>
<path d="M43.5608 14.7776C42.3947 14.7776 41.4497 13.8322 41.4497 12.6662C41.4497 11.5003 42.3952 10.5554 43.5608 10.5554C44.7264 10.5554 45.6719 11.5007 45.6719 12.6662C45.6719 13.8317 44.7264 14.7776 43.5608 14.7776Z" fill="#A98056"/>
<path d="M2.59633 49.8506C1.8201 50.18 0.923998 49.8178 0.594546 49.0416C0.265095 48.2655 0.62746 47.3694 1.40336 47.0401C2.17926 46.7107 3.0757 47.0729 3.40501 47.8487C3.73432 48.6245 3.37223 49.5212 2.59633 49.8506Z" fill="#A98056"/>
<path d="M12.199 57.8833C12.751 59.2463 14.2987 59.903 15.6547 59.3538C17.0101 58.8048 17.665 57.2552 17.1133 55.8929C16.5616 54.5308 15.0132 53.8742 13.6577 54.4232C12.3022 54.9722 11.647 56.5206 12.199 57.8833Z" stroke="#A77E56"/>
</svg>
