<svg width="158" height="202" viewBox="0 0 158 202" fill="none" xmlns="http://www.w3.org/2000/svg">
<path opacity="0.5" fill-rule="evenodd" clip-rule="evenodd" d="M35.3939 71.9419C44.0131 60.4689 57.3355 54.8815 69.9735 48.0375C84.4531 40.1962 97.9126 27.4831 114.351 29.1832C131.468 30.9533 147.799 42.09 156.421 56.9776C164.542 71.0019 158.411 88.1011 157.818 104.241C157.309 118.116 158.362 131.726 153.202 144.595C147.18 159.612 141.099 177.294 126.079 183.397C111.061 189.499 93.8172 181.974 79.2906 174.627C67.0627 168.443 61.1179 155.49 51.5391 145.698C40.9363 134.859 23.4625 129.019 20.2299 114.251C16.9366 99.2064 26.1716 84.2176 35.3939 71.9419Z" stroke="#A77E56" stroke-width="0.5"/>
</svg>
