<svg width="800" height="781" viewBox="0 0 800 781" fill="none" xmlns="http://www.w3.org/2000/svg">
<path opacity="0.5" fill-rule="evenodd" clip-rule="evenodd" d="M291.527 607.75C341.644 622.355 391.48 619.63 443.62 622.249C511.545 625.661 593.124 672.053 642.638 625.386C692.008 578.856 643.775 494.498 650.762 427.02C656.993 366.846 706.309 307.65 681.239 252.613C656.133 197.497 586.516 181.547 529.57 160.963C480.112 143.086 429.31 140.43 376.756 142.556C318.025 144.932 257.09 142.218 207.615 173.987C151.782 209.839 105.103 263.23 88.693 327.528C71.6442 394.33 77.0643 471.375 117.471 527.197C155.901 580.29 228.609 589.413 291.527 607.75Z" stroke="#A77E56"/>
</svg>
