<svg width="24" height="33" viewBox="0 0 24 33" fill="none" xmlns="http://www.w3.org/2000/svg">
<mask id="path-1-inside-1" fill="white">
<path fill-rule="evenodd" clip-rule="evenodd" d="M10.2365 30.9321C13.5433 26.6446 17.3115 21.7589 17.3115 17.6557C17.3115 12.8753 13.4362 9 8.65574 9C3.87531 9 0 12.8753 0 17.6557C0 22.0347 4.29179 27.47 7.73433 31.8297C8.04992 32.2294 8.35838 32.62 8.65574 33C9.15739 32.3311 9.69064 31.6397 10.2365 30.9321ZM8.5 21C10.433 21 12 19.433 12 17.5C12 15.567 10.433 14 8.5 14C6.567 14 5 15.567 5 17.5C5 19.433 6.567 21 8.5 21Z"/>
</mask>
<path d="M10.2365 30.9321L8.89032 29.8938L8.89032 29.8938L10.2365 30.9321ZM7.73433 31.8297L9.06853 30.7762L9.06853 30.7762L7.73433 31.8297ZM8.65574 33L7.31698 34.0477L8.68445 35.7951L10.0157 34.02L8.65574 33ZM15.6115 17.6557C15.6115 19.2349 14.8675 21.1539 13.5544 23.3533C12.2603 25.5209 10.5573 27.7325 8.89032 29.8938L11.5826 31.9703C13.2224 29.8441 15.057 27.4692 16.4737 25.0962C17.8714 22.7551 19.0115 20.1798 19.0115 17.6557H15.6115ZM8.65574 10.7C12.4973 10.7 15.6115 13.8142 15.6115 17.6557H19.0115C19.0115 11.9364 14.3751 7.3 8.65574 7.3V10.7ZM1.7 17.6557C1.7 13.8142 4.81419 10.7 8.65574 10.7V7.3C2.93642 7.3 -1.7 11.9364 -1.7 17.6557H1.7ZM9.06853 30.7762C7.3347 28.5804 5.4667 26.2113 4.02538 23.8612C2.55781 21.4682 1.7 19.3536 1.7 17.6557H-1.7C-1.7 20.3369 -0.411913 23.1294 1.12704 25.6387C2.69225 28.1909 4.69141 30.7193 6.40012 32.8832L9.06853 30.7762ZM9.9945 31.9523C9.69447 31.5689 9.38368 31.1753 9.06853 30.7762L6.40012 32.8832C6.71616 33.2835 7.02229 33.6712 7.31698 34.0477L9.9945 31.9523ZM8.89032 29.8938C8.34594 30.5996 7.8055 31.3003 7.29574 31.98L10.0157 34.02C10.5093 33.3619 11.0353 32.6798 11.5826 31.9703L8.89032 29.8938ZM10.3 17.5C10.3 18.4941 9.49411 19.3 8.5 19.3V22.7C11.3719 22.7 13.7 20.3719 13.7 17.5H10.3ZM8.5 15.7C9.49411 15.7 10.3 16.5059 10.3 17.5H13.7C13.7 14.6281 11.3719 12.3 8.5 12.3V15.7ZM6.7 17.5C6.7 16.5059 7.50589 15.7 8.5 15.7V12.3C5.62812 12.3 3.3 14.6281 3.3 17.5H6.7ZM8.5 19.3C7.50589 19.3 6.7 18.4941 6.7 17.5H3.3C3.3 20.3719 5.62812 22.7 8.5 22.7V19.3Z" fill="#A98056" mask="url(#path-1-inside-1)"/>
<path d="M18.6638 3.73333C19.1797 3.73333 19.5971 3.31543 19.5971 2.8V0.933333C19.5971 0.4179 19.1797 0 18.6638 0C18.1479 0 17.7305 0.4179 17.7305 0.933333V2.8C17.7305 3.31543 18.1479 3.73333 18.6638 3.73333Z" fill="#A98056"/>
<path d="M18.6638 5.6001C18.1479 5.6001 17.7305 6.018 17.7305 6.53343V8.4001C17.7305 8.91553 18.1479 9.33343 18.6638 9.33343C19.1797 9.33343 19.5971 8.91553 19.5971 8.4001V6.53343C19.5971 6.018 19.1795 5.6001 18.6638 5.6001Z" fill="#A98056"/>
<path d="M14.9333 5.60006H16.8C17.3159 5.60006 17.7333 5.18216 17.7333 4.66673C17.7333 4.1513 17.3159 3.7334 16.8 3.7334H14.9333C14.4174 3.7334 14 4.1513 14 4.66673C14 5.18216 14.4174 5.60006 14.9333 5.60006Z" fill="#A98056"/>
<path d="M20.531 5.60006H22.3977C22.9136 5.60006 23.331 5.18216 23.331 4.66673C23.331 4.1513 22.9136 3.7334 22.3977 3.7334H20.531C20.0151 3.7334 19.5977 4.1513 19.5977 4.66673C19.5977 5.18216 20.0151 5.60006 20.531 5.60006Z" fill="#A98056"/>
<path d="M4.99773 4.9957C5.54886 4.9957 5.99546 4.54887 5.99546 3.99773C5.99546 3.4466 5.54863 3 4.99773 3C4.44683 3 4 3.44683 4 3.99773C4 4.54863 4.44683 4.9957 4.99773 4.9957Z" fill="#A98056"/>
<path d="M20.9977 20.9957C21.5489 20.9957 21.9955 20.5489 21.9955 19.9977C21.9955 19.4466 21.5486 19 20.9977 19C20.4468 19 20 19.4468 20 19.9977C20 20.5486 20.4468 20.9957 20.9977 20.9957Z" fill="#A98056"/>
</svg>
