<svg width="23" height="26" viewBox="0 0 23 26" fill="none" xmlns="http://www.w3.org/2000/svg">
<path d="M9.72656 10.6757V15.5L13.4022 19.1757" stroke="#A98056" stroke-width="1.7" stroke-linecap="round" stroke-linejoin="round"/>
<circle cx="9.5" cy="15.5" r="7.65" stroke="#A98056" stroke-width="1.7"/>
<path d="M6.49999 1.99998C6.77637 1.99998 6.99999 1.77611 6.99999 1.49998V0.499995C6.99999 0.223873 6.77637 0 6.49999 0C6.22362 0 6 0.223873 6 0.499995V1.49998C6 1.77611 6.22362 1.99998 6.49999 1.99998Z" fill="#A98056"/>
<path d="M6.49999 3C6.22362 3 6 3.22387 6 3.49999V4.49998C6 4.77611 6.22362 4.99998 6.49999 4.99998C6.77637 4.99998 6.99999 4.77611 6.99999 4.49998V3.49999C6.99999 3.22387 6.77624 3 6.49999 3Z" fill="#A98056"/>
<path d="M4.49999 2.99999H5.49998C5.77636 2.99999 5.99998 2.77612 5.99998 2.49999C5.99998 2.22387 5.77636 2 5.49998 2H4.49999C4.22362 2 4 2.22387 4 2.49999C4 2.77612 4.22362 2.99999 4.49999 2.99999Z" fill="#A98056"/>
<path d="M7.49999 2.99999H8.49998C8.77636 2.99999 8.99998 2.77612 8.99998 2.49999C8.99998 2.22387 8.77636 2 8.49998 2H7.49999C7.22362 2 7 2.22387 7 2.49999C7 2.77612 7.22362 2.99999 7.49999 2.99999Z" fill="#A98056"/>
<path d="M0.997732 7.9957C1.54886 7.9957 1.99546 7.54887 1.99546 6.99773C1.99546 6.4466 1.54863 6 0.997732 6C0.446833 6 0 6.44683 0 6.99773C0 7.54863 0.446833 7.9957 0.997732 7.9957Z" fill="#A98056"/>
<path d="M18.9977 25.9957C19.5489 25.9957 19.9955 25.5489 19.9955 24.9977C19.9955 24.4466 19.5486 24 18.9977 24C18.4468 24 18 24.4468 18 24.9977C18 25.5486 18.4468 25.9957 18.9977 25.9957Z" fill="#A98056"/>
<path d="M22.5 19.4998C22.5 20.0523 22.0523 20.5 21.5 20.5C20.948 20.5 20.5 20.0519 20.5 19.4998C20.5 18.9479 20.9479 18.5 21.5 18.5C22.0522 18.5 22.5 18.9476 22.5 19.4998Z" stroke="#A77E56"/>
</svg>
