<svg width="207" height="207" viewBox="0 0 207 207" fill="none" xmlns="http://www.w3.org/2000/svg">
<path d="M40.8107 67.0295C40.7997 66.6078 40.9038 66.1049 41.1229 65.5209C41.2365 65.2186 41.4041 64.8914 41.6257 64.5393C41.9697 63.9929 42.3883 63.5396 42.8814 63.1792C43.3722 62.8226 43.9068 62.5754 44.4851 62.4376C45.0753 62.2972 45.6759 62.2785 46.287 62.3815C46.9017 62.4869 47.4951 62.7196 48.0671 63.0798C48.9619 63.6431 49.6 64.3214 49.9814 65.1145C50.3199 65.8294 50.4373 66.5946 50.3335 67.41C50.2365 68.158 49.9663 68.884 49.523 69.5881C49.1582 70.1675 48.7543 70.6301 48.3113 70.9759C48.0898 71.1488 47.8972 71.2758 47.7334 71.3571L47.3964 70.7455C47.4001 70.7478 47.4566 70.7271 47.5661 70.6834C47.6802 70.6323 47.8169 70.5494 47.9762 70.4346C48.1369 70.3258 48.3075 70.1849 48.4881 70.0119C48.6803 69.8205 48.8595 69.5928 49.0257 69.3287C49.342 68.8264 49.5374 68.2965 49.6118 67.7391C49.7012 67.0683 49.6029 66.4355 49.3169 65.8406C48.9784 65.1257 48.3838 64.5004 47.533 63.9648C47.0416 63.6554 46.5359 63.442 46.0159 63.3246C45.4935 63.2108 44.9862 63.191 44.4941 63.2651C44.0019 63.3393 43.5512 63.5062 43.142 63.7657C42.7328 64.0253 42.3947 64.3629 42.1279 64.7787C41.8139 65.2774 41.6146 65.8176 41.53 66.3993C41.4976 66.6298 41.4848 66.8087 41.4917 66.9359L41.4987 67.1323L40.8107 67.0295Z" fill="#A98056"/>
<path d="M34.7339 81.2361C34.4713 81.3472 34.3039 81.4633 34.2315 81.5844L34.1147 81.5067C34.114 81.3957 34.128 81.2761 34.1567 81.1482C34.173 81.0664 34.2006 80.9727 34.2395 80.867C34.3893 80.4603 34.8273 80.1553 35.5534 79.9517C36.0805 79.7996 36.8159 79.6964 37.7594 79.6423C38.3084 79.5813 38.7666 79.4407 39.134 79.2204C39.3912 79.0612 39.5914 78.8625 39.7346 78.6243C39.7823 78.5449 39.8197 78.4686 39.8466 78.3954L39.8765 78.2956C39.9574 78.076 39.9392 77.7807 39.8219 77.4096C39.7601 77.239 39.6909 77.082 39.6145 76.9384L39.6322 76.9657L39.0223 75.8196C38.4408 75.6054 37.8785 75.4144 37.3353 75.2467C36.9675 75.1296 36.6878 75.0427 36.4962 74.986L36.9187 73.8393L37.7308 74.1732C38.3806 74.4403 38.9839 74.6764 39.541 74.8816L42.6516 76.0276C43.103 76.1939 43.7181 76.4044 44.4971 76.659C44.6724 76.7098 44.9521 76.7967 45.3363 76.9197L44.9385 77.9993L39.8213 76.114L42.4103 80.9886C42.5513 81.2576 42.7345 81.5814 42.9598 81.9599C43.1032 82.1975 43.21 82.3777 43.2802 82.5005L42.9746 83.33C42.8907 83.119 42.737 82.7968 42.5133 82.3634C42.3672 82.0833 42.2213 81.8148 42.0758 81.558L40.2091 78.051C40.2318 78.2025 40.245 78.3482 40.2489 78.4882C40.2461 78.7089 40.1968 78.9493 40.1009 79.2095C40.0425 79.3681 39.9442 79.5282 39.8062 79.6898C39.6722 79.8528 39.5065 80.0019 39.309 80.1369C38.8371 80.4526 38.261 80.6375 37.5806 80.6917C36.8081 80.758 36.1933 80.8409 35.7364 80.9405C35.3251 81.0291 34.9909 81.1276 34.7339 81.2361Z" fill="#A98056"/>
<path d="M31.5224 95.1209L37.6327 95.9177C38.1956 95.9911 38.823 96.0555 39.515 96.1108L32.2528 89.5198L32.4008 88.3854C32.8148 88.4613 33.1029 88.5141 33.265 88.544C33.9566 88.6692 34.6011 88.7707 35.1984 88.8486L38.492 89.2781C39.0764 89.3543 39.7183 89.4249 40.4178 89.4899L41.2929 89.5647L41.1358 90.77C40.5559 90.6594 39.9727 90.5571 39.3862 90.4632C38.9405 90.3963 38.5973 90.3472 38.3567 90.3158L33.2906 89.6551L40.4232 96.1833L40.4297 96.1842L40.2717 97.3959C39.7078 97.2962 39.126 97.2006 38.5261 97.1093C38.0803 97.0424 37.7371 96.9933 37.4965 96.9619L34.1964 96.5315C33.5304 96.4447 32.8839 96.3756 32.2569 96.3245C31.8722 96.2918 31.5781 96.2687 31.3745 96.2553L31.5224 95.1209Z" fill="#A98056"/>
<path d="M29.2563 103.822L31.586 103.603L31.6127 103.888C31.6424 104.111 31.7906 104.322 32.0572 104.518C32.4452 104.804 33.0502 105.058 33.872 105.282C34.9219 105.57 36.3048 105.813 38.0206 106.008C38.6065 106.084 39.2166 106.092 39.8508 106.032C40.0148 106.017 40.1673 105.996 40.3085 105.97L40.7673 110.856C40.2255 110.881 39.6499 110.915 39.0404 110.959C38.5995 110.992 38.2604 111.02 38.0231 111.042L34.7679 111.347C34.522 111.371 34.1794 111.407 33.7402 111.457L33.359 111.499C32.9068 111.55 32.5672 111.595 32.3401 111.634L32.4167 112.45L30.0869 112.668L30.0401 112.17L30.589 112.105C31.0525 112.036 31.4409 111.954 31.7541 111.859C31.7501 111.585 31.7269 111.106 31.6845 110.423C31.6441 109.761 31.5917 109.086 31.5273 108.4L31.4665 107.753C31.4073 107.123 31.3352 106.471 31.25 105.796C31.1604 105.073 31.0916 104.572 31.0437 104.294C30.7666 104.263 30.3704 104.261 29.855 104.288L29.303 104.32L29.2563 103.822ZM40.0927 109.79C40.0914 109.498 40.0797 109.188 40.0575 108.86C40.0493 108.725 40.0294 108.49 39.9978 108.154C39.9694 107.852 39.9356 107.561 39.8963 107.282L39.834 106.896L39.7878 106.613L39.1734 106.605C38.9514 106.604 38.6496 106.589 38.2682 106.56C36.8068 106.431 35.5656 106.261 34.5445 106.048C33.6695 105.86 33.0015 105.653 32.5406 105.426C32.1533 105.241 31.8737 105.045 31.7021 104.839L32.2338 110.502L32.6757 110.48C33.0267 110.464 33.4486 110.438 33.9413 110.4C34.1013 110.389 34.3453 110.369 34.6732 110.338L37.9283 110.032C38.2433 110.003 38.6506 109.96 39.1502 109.904L39.8409 109.82L40.0927 109.79Z" fill="#A98056"/>
<path d="M36.3045 127.285C36.1658 127.534 36.1052 127.729 36.1227 127.869L35.9828 127.88C35.914 127.792 35.8515 127.69 35.7953 127.571C35.7579 127.497 35.7219 127.406 35.6876 127.298C35.5555 126.886 35.7131 126.376 36.1603 125.768C36.4822 125.324 36.9984 124.79 37.709 124.167C38.1042 123.781 38.3789 123.389 38.533 122.989C38.6379 122.705 38.6734 122.425 38.6398 122.15C38.6285 122.058 38.611 121.974 38.5873 121.9L38.5494 121.803C38.478 121.58 38.282 121.359 37.9612 121.138C37.8075 121.042 37.6564 120.961 37.5078 120.894L37.5385 120.905L36.3526 120.377C35.7624 120.566 35.2016 120.761 34.6702 120.963C34.3082 121.097 34.0342 121.201 33.8483 121.274L33.4759 120.11L34.3215 119.873C34.9981 119.684 35.619 119.499 36.1844 119.318L39.3417 118.308C39.7998 118.161 40.4143 117.949 41.1851 117.67C41.3544 117.602 41.6284 117.499 42.0069 117.359L42.3576 118.455L37.1636 120.117L42.2037 122.367C42.4803 122.492 42.824 122.635 43.2345 122.795C43.4937 122.894 43.6888 122.97 43.8197 123.024L44.0891 123.866C43.8932 123.751 43.5737 123.592 43.1308 123.388C42.8432 123.257 42.5631 123.135 42.2903 123.022L38.661 121.406C38.7721 121.511 38.8723 121.618 38.9614 121.726C39.095 121.902 39.204 122.121 39.2885 122.386C39.3401 122.546 39.3611 122.733 39.3517 122.945C39.3464 123.156 39.3075 123.376 39.2348 123.604C39.0571 124.143 38.7167 124.643 38.2136 125.105C37.6454 125.632 37.2118 126.076 36.9129 126.435C36.6431 126.758 36.4403 127.042 36.3045 127.285Z" fill="#A98056"/>
<path d="M48.638 133.268L44.6733 138.402C44.1984 139.009 43.7454 139.622 43.3141 140.243L42.7687 141.026L42.0868 139.851C42.089 139.855 42.1373 139.804 42.2318 139.699L42.7717 139.063L43.1109 138.663L43.7044 137.95C43.6913 137.928 43.6635 137.871 43.621 137.781C43.5807 137.694 43.5275 137.589 43.4617 137.467C43.4291 137.411 43.4059 137.367 43.3923 137.335C43.2258 137.03 43.0555 136.728 42.8815 136.429L42.1899 135.237C42.0376 134.974 41.8838 134.718 41.7284 134.467C41.7073 134.44 41.6815 134.4 41.651 134.347C41.6016 134.271 41.5114 134.132 41.3806 133.933L40.5105 134.039C40.1717 134.086 39.9096 134.118 39.7243 134.135C39.4659 134.165 39.2675 134.19 39.129 134.21L38.8341 134.246L38.4459 133.577L38.6288 133.568L39.8053 133.472C40.1744 133.443 40.7381 133.391 41.4966 133.317L42.3128 133.234L48.2367 132.577L48.638 133.268ZM42.004 133.842C42.1145 134.058 42.2209 134.254 42.3232 134.43L42.6005 134.908L43.3345 136.173C43.7521 136.893 44.0112 137.326 44.1116 137.473L47.4675 133.181L42.004 133.842Z" fill="#A98056"/>
<path d="M60.1956 152.653C60.2824 153.047 60.2772 153.44 60.1798 153.833C60.0856 154.229 59.8813 154.606 59.5667 154.964C59.0862 155.511 58.5317 155.863 57.9032 156.021C57.344 156.158 56.7679 156.128 56.1747 155.93C55.626 155.753 55.1254 155.467 54.6729 155.069C54.2659 154.711 53.9847 154.28 53.8292 153.774C53.7676 153.582 53.7343 153.422 53.7292 153.297C53.7181 153.172 53.7139 153.108 53.7168 153.104L54.3577 153.044C54.3484 153.232 54.3615 153.411 54.397 153.581C54.4386 153.75 54.5053 153.927 54.5971 154.111C54.6889 154.296 54.8275 154.469 55.0131 154.632C55.2377 154.83 55.503 154.991 55.8089 155.115C56.1148 155.24 56.4322 155.305 56.7612 155.312C57.1268 155.316 57.4828 155.242 57.8292 155.091C58.1817 154.939 58.5081 154.692 58.8084 154.35C59.0744 154.047 59.2416 153.736 59.3099 153.415C59.3843 153.094 59.3821 152.775 59.3032 152.457C59.2332 152.183 59.1135 151.922 58.944 151.675C58.7778 151.431 58.5921 151.218 58.387 151.038C58.2828 150.947 58.0956 150.805 57.8253 150.614C57.6262 150.479 57.4249 150.357 57.2213 150.248L59.7641 147.334L63.0358 150.208L62.4744 150.857C62.022 150.413 61.3842 149.81 60.5611 149.046C60.3686 148.871 60.0673 148.604 59.6571 148.243L58.0183 150.109C58.1987 150.192 58.3787 150.293 58.5583 150.41C58.7117 150.504 58.8715 150.625 59.0375 150.771C59.3143 151.014 59.5552 151.297 59.7604 151.622C59.9689 151.949 60.114 152.293 60.1956 152.653Z" fill="#A98056"/>
<path d="M71.3835 158.754C71.738 158.566 72.2139 158.294 72.8111 157.938L73.1765 157.726C73.3461 157.628 73.603 157.471 73.9471 157.257L74.6724 157.665C74.1619 157.91 73.5862 158.2 72.9453 158.536C72.5474 158.74 72.2119 158.916 71.9389 159.066L67.7069 161.304C67.1292 161.615 66.5345 161.957 65.9228 162.329C65.613 162.518 65.3599 162.676 65.1635 162.805L64.4325 162.394C65.0608 162.081 65.6346 161.789 66.154 161.52C66.4962 161.344 66.8287 161.168 67.1516 160.991L71.3835 158.754ZM66.9608 158.797C66.6397 158.616 66.3702 158.41 66.1525 158.178C65.9368 157.943 65.7794 157.688 65.6801 157.414C65.4658 156.831 65.5369 156.222 65.8935 155.587C66.0739 155.266 66.289 155.012 66.5386 154.824C66.7942 154.635 67.0747 154.511 67.3801 154.454C67.6737 154.401 67.9799 154.409 68.2986 154.478C68.6211 154.55 68.9429 154.676 69.264 154.857C69.5851 155.037 69.8535 155.245 70.0691 155.481C70.2906 155.715 70.451 155.969 70.5503 156.243C70.6491 156.527 70.6813 156.824 70.647 157.133C70.6127 157.441 70.5074 157.752 70.3312 158.066C69.9683 158.712 69.4727 159.09 68.8446 159.199C68.5531 159.249 68.2451 159.24 67.9205 159.172C67.6018 159.102 67.2819 158.977 66.9608 158.797ZM66.6043 155.994C66.3071 156.523 66.2271 157.015 66.3642 157.47C66.4806 157.873 66.7711 158.205 67.2357 158.467C67.4397 158.581 67.6496 158.654 67.8654 158.686C68.0849 158.72 68.298 158.708 68.5045 158.65C68.9546 158.53 69.3293 158.204 69.6286 157.671C69.9283 157.129 70.0075 156.634 69.8662 156.187C69.7402 155.783 69.4505 155.454 68.9972 155.199C68.7932 155.084 68.5814 155.01 68.3619 154.976C68.1482 154.941 67.9381 154.952 67.7316 155.01C67.2714 155.139 66.8956 155.467 66.6043 155.994ZM69.8159 165.299C69.4947 165.119 69.2253 164.913 69.0076 164.681C68.7919 164.446 68.6356 164.189 68.5384 163.911C68.324 163.328 68.3962 162.717 68.755 162.079C68.9354 161.758 69.1504 161.503 69.4001 161.315C69.6557 161.126 69.9351 161.005 70.2384 160.951C70.5282 160.896 70.8325 160.903 71.1512 160.972C71.4737 161.044 71.7984 161.169 72.1255 161.348C72.4466 161.529 72.7149 161.737 72.9306 161.972C73.1521 162.206 73.3125 162.46 73.4117 162.735C73.5106 163.019 73.5428 163.315 73.5085 163.624C73.4741 163.933 73.3668 164.248 73.1863 164.569C73.0038 164.894 72.7847 165.151 72.5292 165.34C72.2795 165.528 72.003 165.649 71.6997 165.702C71.4061 165.756 71.0981 165.746 70.7756 165.675C70.4569 165.605 70.137 165.48 69.8159 165.299ZM69.4626 162.491C69.1633 163.024 69.0843 163.514 69.2257 163.961C69.2858 164.164 69.3903 164.349 69.5393 164.518C69.6921 164.688 69.8781 164.835 70.0972 164.958C70.3012 165.073 70.5111 165.146 70.7268 165.178C70.9464 165.211 71.1594 165.199 71.3659 165.141C71.816 165.022 72.1907 164.695 72.49 164.163C72.7851 163.638 72.8651 163.146 72.7301 162.687C72.6062 162.279 72.3139 161.946 71.853 161.687C71.6527 161.575 71.4429 161.502 71.2233 161.468C71.0076 161.436 70.7964 161.449 70.5899 161.507C70.1297 161.636 69.7539 161.964 69.4626 162.491Z" fill="#A98056"/>
<path d="M94.4595 172.379C94.0759 172.554 93.5725 172.656 92.9493 172.683C92.6267 172.697 92.26 172.671 91.8492 172.605C91.2117 172.503 90.6305 172.296 90.1057 171.984C89.5851 171.672 89.1481 171.277 88.7946 170.799C88.434 170.311 88.1813 169.766 88.0365 169.163C87.8924 168.557 87.8738 167.92 87.9809 167.252C88.1482 166.208 88.522 165.355 89.102 164.693C89.627 164.102 90.2849 163.694 91.0757 163.469C91.8018 163.265 92.5756 163.229 93.3971 163.361C94.0731 163.469 94.6571 163.659 95.1489 163.931C95.3948 164.067 95.5872 164.195 95.7262 164.314L95.2957 164.863C95.2964 164.859 95.2552 164.815 95.172 164.732C95.0803 164.647 94.9504 164.553 94.7824 164.452C94.6193 164.347 94.4227 164.245 94.1927 164.147C93.9413 164.045 93.6616 163.969 93.3535 163.92C92.7674 163.826 92.2033 163.854 91.6614 164.004C91.0092 164.185 90.4656 164.524 90.0305 165.02C89.5056 165.612 89.1636 166.404 89.0044 167.396C88.9125 167.97 88.9145 168.519 89.0103 169.043C89.1105 169.568 89.2911 170.043 89.5524 170.466C89.8136 170.89 90.1438 171.239 90.543 171.514C90.9423 171.789 91.3854 171.967 91.8725 172.05C92.4544 172.143 93.0295 172.114 93.5978 171.964C93.8225 171.904 93.9921 171.845 94.1064 171.789L94.2844 171.706L94.4595 172.379Z" fill="#A98056"/>
<path d="M109.911 172.398C110.117 172.596 110.289 172.705 110.429 172.724L110.403 172.862C110.301 172.906 110.186 172.94 110.057 172.964C109.975 172.981 109.878 172.992 109.766 172.998C109.333 173.02 108.881 172.736 108.409 172.148C108.062 171.723 107.679 171.087 107.259 170.24C106.988 169.759 106.679 169.393 106.332 169.141C106.085 168.967 105.823 168.861 105.548 168.822C105.456 168.81 105.371 168.805 105.294 168.809L105.19 168.821C104.956 168.832 104.692 168.965 104.396 169.218C104.264 169.342 104.146 169.467 104.044 169.594L104.062 169.567L103.247 170.577C103.278 171.196 103.323 171.788 103.382 172.354C103.418 172.738 103.448 173.03 103.471 173.228L102.25 173.289L102.239 172.411C102.23 171.708 102.211 171.061 102.181 170.468L102.016 167.157C101.992 166.677 101.944 166.028 101.873 165.212C101.851 165.031 101.821 164.739 101.784 164.338L102.933 164.28L103.205 169.727L106.674 165.434C106.866 165.199 107.092 164.903 107.352 164.547C107.514 164.322 107.638 164.153 107.724 164.041L108.607 163.997C108.445 164.157 108.209 164.424 107.898 164.8C107.698 165.044 107.508 165.284 107.329 165.518L104.835 168.611C104.965 168.53 105.094 168.461 105.221 168.403C105.425 168.319 105.666 168.27 105.943 168.256C106.112 168.247 106.297 168.275 106.5 168.339C106.703 168.398 106.905 168.492 107.106 168.621C107.582 168.931 107.978 169.389 108.294 169.993C108.658 170.678 108.976 171.211 109.246 171.592C109.489 171.936 109.711 172.205 109.911 172.398Z" fill="#A98056"/>
<path d="M123.943 169.909L122.281 163.975C122.127 163.429 121.941 162.826 121.72 162.168L118.504 171.433L117.403 171.742C117.31 171.331 117.246 171.045 117.21 170.884C117.054 170.199 116.894 169.567 116.732 168.987L115.836 165.788C115.677 165.221 115.49 164.603 115.275 163.934L115.001 163.099L116.171 162.771C116.297 163.348 116.432 163.925 116.575 164.501C116.688 164.937 116.778 165.272 116.843 165.506L118.222 170.425L121.431 161.304L121.429 161.298L122.606 160.968C122.735 161.526 122.875 162.099 123.026 162.686C123.14 163.123 123.229 163.458 123.294 163.691L124.193 166.896C124.374 167.543 124.564 168.164 124.763 168.761C124.883 169.128 124.977 169.407 125.045 169.6L123.943 169.909Z" fill="#A98056"/>
<path d="M132.836 168.582L131.721 166.524L131.973 166.388C132.167 166.273 132.302 166.055 132.379 165.732C132.489 165.263 132.486 164.607 132.369 163.763C132.223 162.684 131.904 161.317 131.411 159.662C131.251 159.093 131.019 158.529 130.716 157.969C130.637 157.824 130.558 157.692 130.479 157.572L134.794 155.234C135.029 155.723 135.286 156.239 135.566 156.783C135.769 157.175 135.927 157.476 136.041 157.686L137.598 160.561C137.716 160.778 137.884 161.079 138.102 161.463L138.29 161.797C138.515 162.193 138.689 162.488 138.814 162.682L139.534 162.292L140.649 164.349L140.209 164.587L139.934 164.108C139.688 163.709 139.46 163.384 139.25 163.133C139 163.244 138.569 163.453 137.956 163.76C137.363 164.057 136.764 164.369 136.158 164.697L135.586 165.007C135.03 165.308 134.458 165.631 133.87 165.974C133.24 166.34 132.807 166.599 132.57 166.752C132.65 167.019 132.804 167.385 133.03 167.848L133.276 168.343L132.836 168.582ZM134.077 156.273C133.81 156.389 133.529 156.521 133.235 156.67C133.115 156.73 132.907 156.841 132.609 157.002C132.343 157.146 132.089 157.292 131.847 157.437L131.517 157.646L131.274 157.799L131.508 158.367C131.595 158.572 131.699 158.856 131.821 159.218C132.276 160.613 132.606 161.821 132.81 162.844C132.981 163.723 133.052 164.419 133.024 164.931C133.006 165.36 132.935 165.694 132.813 165.933L137.814 163.224L137.62 162.826C137.468 162.509 137.278 162.131 137.051 161.693C136.978 161.55 136.863 161.333 136.707 161.044L135.149 158.169C134.998 157.891 134.799 157.533 134.552 157.095L134.204 156.493L134.077 156.273Z" fill="#A98056"/>
<path d="M151.657 152.898C151.941 152.928 152.144 152.907 152.265 152.836L152.33 152.961C152.277 153.058 152.207 153.156 152.12 153.254C152.066 153.318 151.996 153.387 151.911 153.46C151.583 153.744 151.052 153.799 150.319 153.625C149.784 153.503 149.09 153.238 148.238 152.829C147.728 152.616 147.259 152.518 146.831 152.532C146.529 152.547 146.258 152.624 146.017 152.763C145.937 152.81 145.867 152.859 145.808 152.91L145.734 152.982C145.557 153.135 145.43 153.403 145.353 153.784C145.324 153.963 145.309 154.134 145.306 154.297L145.304 154.265L145.283 155.563C145.688 156.031 146.088 156.471 146.482 156.88C146.747 157.161 146.95 157.372 147.09 157.515L146.166 158.314L145.616 157.628C145.177 157.08 144.763 156.582 144.375 156.132L142.208 153.624C141.893 153.26 141.457 152.778 140.898 152.178C140.77 152.049 140.567 151.838 140.29 151.544L141.161 150.792L144.726 154.918L144.82 149.4C144.827 149.096 144.823 148.724 144.809 148.284C144.799 148.006 144.792 147.797 144.79 147.656L145.459 147.078C145.431 147.303 145.409 147.659 145.395 148.147C145.388 148.462 145.385 148.768 145.388 149.063L145.325 153.036C145.378 152.892 145.437 152.758 145.501 152.634C145.611 152.442 145.77 152.255 145.98 152.074C146.108 151.964 146.271 151.871 146.47 151.796C146.666 151.719 146.884 151.668 147.122 151.646C147.687 151.598 148.281 151.715 148.903 151.997C149.611 152.313 150.189 152.538 150.637 152.672C151.04 152.793 151.38 152.869 151.657 152.898Z" fill="#A98056"/>
<path d="M152.325 139.206L158.603 140.841C159.347 141.04 160.089 141.216 160.829 141.369L161.763 141.564L160.949 142.652C160.952 142.649 160.887 142.624 160.753 142.578L159.956 142.331L159.455 142.176L158.567 141.909C158.551 141.93 158.51 141.978 158.443 142.052C158.379 142.124 158.304 142.213 158.218 142.322C158.179 142.374 158.147 142.412 158.123 142.438C157.908 142.71 157.697 142.985 157.49 143.263L156.664 144.366C156.483 144.609 156.307 144.851 156.138 145.093C156.12 145.123 156.094 145.162 156.057 145.211C156.006 145.286 155.915 145.423 155.782 145.622L156.221 146.381C156.397 146.674 156.529 146.903 156.618 147.067C156.746 147.293 156.847 147.465 156.92 147.585L157.069 147.842L156.605 148.461L156.526 148.296L155.976 147.252C155.805 146.924 155.536 146.425 155.17 145.757L154.774 145.039L151.847 139.847L152.325 139.206ZM155.454 145.084C155.61 144.898 155.748 144.723 155.87 144.56L156.201 144.117L157.077 142.946C157.575 142.28 157.872 141.872 157.968 141.722L152.704 140.317L155.454 145.084Z" fill="#A98056"/>
<path d="M165.626 120.973C165.954 120.739 166.318 120.589 166.718 120.525C167.119 120.456 167.546 120.496 167.999 120.645C168.69 120.873 169.232 121.245 169.623 121.761C169.968 122.222 170.166 122.764 170.217 123.387C170.27 123.961 170.202 124.534 170.014 125.106C169.844 125.621 169.558 126.049 169.153 126.39C169 126.522 168.867 126.615 168.754 126.669C168.643 126.728 168.585 126.757 168.581 126.756L168.275 126.19C168.451 126.125 168.611 126.043 168.753 125.944C168.892 125.839 169.029 125.708 169.162 125.551C169.296 125.395 169.402 125.199 169.479 124.964C169.572 124.68 169.616 124.373 169.611 124.043C169.605 123.713 169.541 123.395 169.418 123.09C169.278 122.752 169.071 122.453 168.796 122.194C168.518 121.929 168.163 121.726 167.731 121.584C167.348 121.458 166.996 121.426 166.674 121.489C166.349 121.546 166.057 121.674 165.796 121.871C165.57 122.043 165.377 122.255 165.216 122.508C165.057 122.757 164.935 123.011 164.849 123.27C164.806 123.402 164.749 123.629 164.679 123.953C164.634 124.189 164.6 124.422 164.579 124.652L160.902 123.456L162.263 119.319L163.08 119.581C162.849 120.171 162.544 120.994 162.164 122.051C162.079 122.297 161.951 122.679 161.78 123.197L164.139 123.974C164.145 123.775 164.167 123.57 164.204 123.359C164.231 123.181 164.279 122.986 164.348 122.777C164.463 122.427 164.63 122.094 164.848 121.778C165.067 121.458 165.327 121.189 165.626 120.973Z" fill="#A98056"/>
<path d="M166.852 108.289C166.539 108.037 166.103 107.706 165.541 107.296L165.203 107.043C165.046 106.926 164.801 106.751 164.469 106.518L164.56 105.691C164.985 106.065 165.478 106.48 166.038 106.938C166.382 107.224 166.676 107.464 166.921 107.656L170.638 110.672C171.152 111.081 171.699 111.494 172.281 111.911C172.576 112.122 172.822 112.293 173.017 112.423L172.925 113.257C172.391 112.801 171.898 112.388 171.446 112.016C171.15 111.77 170.858 111.533 170.569 111.305L166.852 108.289ZM168.625 112.341C168.585 112.707 168.501 113.036 168.373 113.327C168.241 113.618 168.068 113.863 167.855 114.062C167.403 114.487 166.815 114.661 166.091 114.581C165.725 114.541 165.407 114.443 165.136 114.287C164.861 114.126 164.638 113.917 164.466 113.658C164.301 113.409 164.189 113.124 164.128 112.804C164.067 112.479 164.057 112.133 164.097 111.767C164.137 111.401 164.224 111.073 164.356 110.782C164.484 110.487 164.655 110.239 164.868 110.04C165.091 109.838 165.351 109.692 165.649 109.603C165.946 109.513 166.274 109.488 166.631 109.527C167.368 109.608 167.91 109.916 168.256 110.45C168.417 110.699 168.529 110.986 168.594 111.311C168.655 111.632 168.665 111.975 168.625 112.341ZM166.187 113.768C166.79 113.834 167.274 113.715 167.638 113.41C167.964 113.145 168.155 112.748 168.213 112.218C168.239 111.985 168.224 111.763 168.168 111.552C168.114 111.337 168.019 111.146 167.885 110.979C167.598 110.612 167.151 110.395 166.543 110.328C165.927 110.265 165.441 110.386 165.085 110.692C164.763 110.966 164.573 111.362 164.517 111.879C164.491 112.111 164.506 112.335 164.561 112.55C164.612 112.761 164.705 112.95 164.839 113.117C165.138 113.49 165.587 113.707 166.187 113.768ZM173.487 107.165C173.447 107.531 173.363 107.86 173.236 108.151C173.104 108.442 172.929 108.686 172.711 108.885C172.259 109.31 171.669 109.483 170.941 109.404C170.575 109.364 170.256 109.266 169.986 109.11C169.711 108.949 169.49 108.739 169.322 108.481C169.157 108.236 169.044 107.954 168.983 107.633C168.923 107.308 168.911 106.961 168.947 106.59C168.987 106.224 169.073 105.895 169.205 105.604C169.333 105.309 169.504 105.062 169.718 104.863C169.941 104.66 170.201 104.515 170.498 104.425C170.796 104.336 171.128 104.311 171.494 104.351C171.864 104.392 172.187 104.492 172.461 104.653C172.732 104.809 172.951 105.016 173.119 105.274C173.283 105.523 173.396 105.81 173.456 106.135C173.517 106.456 173.527 106.799 173.487 107.165ZM171.043 108.591C171.65 108.658 172.132 108.538 172.488 108.233C172.651 108.098 172.78 107.929 172.877 107.726C172.974 107.519 173.036 107.29 173.063 107.04C173.088 106.808 173.073 106.586 173.018 106.375C172.963 106.16 172.869 105.968 172.734 105.801C172.448 105.434 172 105.217 171.393 105.151C170.794 105.085 170.31 105.204 169.942 105.508C169.615 105.782 169.423 106.182 169.366 106.707C169.341 106.936 169.356 107.158 169.411 107.373C169.466 107.584 169.561 107.773 169.695 107.94C169.994 108.313 170.443 108.53 171.043 108.591Z" fill="#A98056"/>
<path d="M170.337 81.7184C170.649 82.0025 170.94 82.4259 171.209 82.9884C171.349 83.2797 171.469 83.6272 171.569 84.0308C171.725 84.6574 171.762 85.2733 171.681 85.8786C171.598 86.4797 171.406 87.0365 171.105 87.5491C170.798 88.0721 170.395 88.5184 169.898 88.8878C169.396 89.2583 168.817 89.5252 168.161 89.6885C167.135 89.9439 166.204 89.9345 165.368 89.6604C164.618 89.4095 163.984 88.9642 163.468 88.3247C162.996 87.7367 162.659 87.039 162.458 86.2317C162.293 85.5673 162.239 84.9555 162.296 84.3965C162.325 84.1169 162.366 83.89 162.421 83.7156L163.096 83.896C163.091 83.897 163.067 83.9522 163.023 84.0614C162.981 84.1791 162.946 84.3351 162.918 84.5295C162.886 84.7208 162.869 84.9415 162.869 85.1916C162.874 85.4628 162.914 85.7497 162.989 86.0525C163.133 86.6286 163.38 87.1365 163.73 87.5761C164.152 88.1052 164.677 88.4726 165.304 88.6782C166.054 88.9291 166.917 88.9331 167.893 88.6903C168.456 88.55 168.96 88.333 169.405 88.0392C169.849 87.7412 170.215 87.3889 170.502 86.9825C170.789 86.576 170.981 86.1354 171.077 85.6604C171.173 85.1855 171.164 84.7078 171.049 84.2274C170.906 83.6555 170.655 83.1376 170.294 82.6737C170.15 82.4907 170.03 82.3576 169.933 82.2745L169.786 82.1435L170.337 81.7184Z" fill="#A98056"/>
<path d="M164.297 67.4961C164.398 67.2298 164.431 67.0286 164.393 66.8925L164.53 66.862C164.611 66.9385 164.687 67.0314 164.76 67.1407C164.808 67.209 164.856 67.2938 164.905 67.3952C165.095 67.7848 165.012 68.312 164.656 68.9768C164.4 69.4624 163.966 70.0643 163.351 70.7825C163.015 71.2208 162.799 71.6487 162.704 72.0663C162.64 72.3621 162.645 72.6441 162.718 72.9124C162.742 73.0018 162.771 73.0816 162.805 73.1517L162.857 73.2424C162.959 73.4528 163.185 73.6442 163.534 73.8166C163.699 73.8901 163.861 73.949 164.017 73.9933L163.985 73.9871L165.234 74.3408C165.792 74.0696 166.319 73.7963 166.816 73.5206C167.155 73.3363 167.412 73.1947 167.585 73.0958L168.12 74.1946L167.316 74.5493C166.674 74.8331 166.086 75.1048 165.552 75.3646L162.571 76.815C162.138 77.0254 161.561 77.3234 160.837 77.7091C160.679 77.8004 160.423 77.942 160.068 78.1339L159.565 77.0994L164.469 74.7133L159.159 73.2053C158.868 73.1208 158.507 73.0287 158.078 72.9291C157.807 72.868 157.603 72.8203 157.466 72.7859L157.079 71.991C157.29 72.0766 157.629 72.1888 158.096 72.3275C158.399 72.4161 158.694 72.4968 158.98 72.5697L162.803 73.6517C162.678 73.5631 162.563 73.4718 162.46 73.3776C162.303 73.2228 162.163 73.0207 162.042 72.7713C161.968 72.6194 161.921 72.4377 161.9 72.2262C161.875 72.0166 161.882 71.7938 161.921 71.5578C162.02 70.9988 162.286 70.4551 162.718 69.9268C163.205 69.3235 163.571 68.8226 163.816 68.4241C164.037 68.066 164.197 67.7567 164.297 67.4961Z" fill="#A98056"/>
<path d="M156.504 55.5644L151.698 59.4205C151.255 59.7757 150.774 60.1838 150.255 60.6447L160.039 59.9701L160.755 60.8624C160.414 61.1086 160.176 61.2798 160.042 61.3761C159.473 61.7884 158.953 62.183 158.484 62.5599L155.893 64.6385C155.433 65.0073 154.938 65.4215 154.406 65.881L153.746 66.4606L152.986 65.5125C153.467 65.1708 153.945 64.8209 154.419 64.4629C154.776 64.1876 155.049 63.9741 155.238 63.8222L159.223 60.625L149.574 61.2497L149.569 61.2538L148.804 60.3006C149.267 59.963 149.739 59.6094 150.22 59.2399C150.577 58.9646 150.85 58.751 151.039 58.5992L153.635 56.5165C154.159 56.0962 154.656 55.6776 155.128 55.2607C155.417 55.0059 155.638 54.8096 155.789 54.6721L156.504 55.5644Z" fill="#A98056"/>
<path d="M151.797 47.9042L150.341 49.7363L150.117 49.5584C149.936 49.4251 149.681 49.3863 149.355 49.4423C148.88 49.5244 148.277 49.7846 147.547 50.2229C146.612 50.7804 145.479 51.6102 144.15 52.7124C143.69 53.0828 143.261 53.5174 142.865 54.0161C142.763 54.1451 142.672 54.2696 142.593 54.3896L138.751 51.337C139.108 50.929 139.482 50.4899 139.872 50.0196C140.154 49.6789 140.369 49.4152 140.517 49.2286L142.551 46.6686C142.705 46.4753 142.915 46.2028 143.184 45.8513L143.417 45.547C143.693 45.1854 143.896 44.9093 144.025 44.7186L143.384 44.2092L144.84 42.377L145.232 42.6883L144.898 43.129C144.627 43.5116 144.418 43.8487 144.269 44.1402C144.469 44.327 144.831 44.6418 145.353 45.0847C145.859 45.514 146.382 45.943 146.921 46.3716L147.43 46.7759C147.925 47.1695 148.446 47.5694 148.992 47.9756C149.576 48.4115 149.985 48.7085 150.219 48.8668C150.432 48.6881 150.708 48.4036 151.046 48.0133L151.405 47.5928L151.797 47.9042ZM139.987 51.5886C140.198 51.7895 140.43 51.9958 140.683 52.2075C140.785 52.2944 140.969 52.443 141.233 52.6533C141.471 52.842 141.704 53.0188 141.932 53.1839L142.254 53.4061L142.49 53.5687L142.921 53.1308C143.075 52.9712 143.295 52.764 143.581 52.5093C144.685 51.5439 145.668 50.7667 146.529 50.1777C147.27 49.6764 147.882 49.338 148.365 49.1624C148.767 49.0115 149.102 48.9454 149.369 48.9641L144.916 45.4262L144.626 45.7602C144.394 46.0242 144.121 46.3469 143.807 46.7283C143.704 46.8512 143.55 47.0415 143.345 47.2994L141.311 49.8594C141.114 50.1071 140.863 50.4304 140.557 50.8294L140.14 51.386L139.987 51.5886Z" fill="#A98056"/>
<path d="M129.989 36.7399C129.906 36.4674 129.807 36.2889 129.694 36.2046L129.783 36.0963C129.894 36.107 130.011 36.1331 130.136 36.1747C130.216 36.1993 130.306 36.2363 130.407 36.2858C130.796 36.4763 131.055 36.9432 131.183 37.6863C131.281 38.2262 131.309 38.9682 131.266 39.9123C131.271 40.4646 131.364 40.9348 131.545 41.3228C131.678 41.5949 131.855 41.8144 132.077 41.9811C132.151 42.0367 132.223 42.0816 132.293 42.1159L132.39 42.1558C132.6 42.2587 132.895 42.2708 133.277 42.192C133.453 42.1479 133.616 42.0951 133.766 42.0338L133.738 42.0486L134.94 41.5588C135.212 41.0023 135.46 40.4624 135.682 39.9392C135.836 39.5852 135.951 39.3158 136.027 39.1311L137.125 39.6684L136.71 40.4422C136.378 41.0613 136.081 41.6374 135.82 42.1706L134.362 45.148C134.151 45.58 133.879 46.1705 133.546 46.9194C133.478 47.0886 133.363 47.3579 133.201 47.7275L132.168 47.2217L134.565 42.3236L129.452 44.4014C129.17 44.5143 128.829 44.6635 128.43 44.849C128.179 44.9674 127.989 45.0552 127.859 45.1125L127.065 44.7238C127.284 44.6619 127.62 44.5418 128.074 44.3636C128.367 44.2468 128.649 44.1291 128.92 44.0106L132.599 42.5116C132.446 42.5187 132.3 42.517 132.16 42.5066C131.941 42.4813 131.707 42.4077 131.458 42.2857C131.306 42.2114 131.157 42.0974 131.01 41.9436C130.861 41.7937 130.73 41.6136 130.616 41.4033C130.35 40.9016 130.225 40.3097 130.24 39.6274C130.253 38.852 130.234 38.2321 130.181 37.7674C130.135 37.3492 130.071 37.0067 129.989 36.7399Z" fill="#A98056"/>
<path d="M117.132 41.4935L116.174 35.078C116.065 34.3156 115.936 33.5638 115.787 32.8227L115.6 31.8873L116.92 32.2091C116.916 32.2081 116.919 32.278 116.929 32.4187L117.014 33.2491L117.068 33.7706L117.171 34.6922C117.196 34.6984 117.256 34.7175 117.351 34.7495C117.441 34.7805 117.554 34.8145 117.687 34.8516C117.75 34.867 117.798 34.8809 117.831 34.8933C118.166 34.9839 118.501 35.0702 118.838 35.1523L120.177 35.4787C120.472 35.5506 120.763 35.6172 121.052 35.6786C121.086 35.6826 121.133 35.6917 121.192 35.7061C121.281 35.7235 121.444 35.754 121.678 35.7979L122.204 35.0964C122.405 34.8199 122.564 34.6088 122.679 34.463C122.837 34.2561 122.956 34.0957 123.038 33.9817L123.216 33.7442L123.967 33.9274L123.847 34.0653L123.102 34.9808C122.867 35.267 122.514 35.7094 122.042 36.3081L121.537 36.9543L117.908 41.6829L117.132 41.4935ZM121.312 36.3108C121.08 36.2407 120.864 36.1815 120.666 36.1333L120.13 36.0024L118.709 35.656C117.9 35.4589 117.408 35.3456 117.233 35.3162L118.005 40.7096L121.312 36.3108Z" fill="#A98056"/>
<path d="M95.1436 36.4072C94.7995 36.1973 94.5194 35.9211 94.3032 35.5785C94.0827 35.2364 93.9522 34.8278 93.9117 34.3529C93.8499 33.6275 93.9799 32.9836 94.3016 32.4213C94.5897 31.9227 95.0105 31.528 95.5642 31.2373C96.0714 30.9636 96.6251 30.8012 97.2253 30.75C97.765 30.704 98.2712 30.8001 98.7437 31.0382C98.9253 31.1271 99.0631 31.2132 99.1572 31.2965C99.2552 31.3751 99.3044 31.4166 99.3048 31.4209L98.9041 31.9247C98.775 31.7879 98.637 31.6735 98.49 31.5817C98.339 31.4945 98.1652 31.4201 97.9686 31.3586C97.772 31.2971 97.5507 31.2768 97.3046 31.2978C97.0067 31.3232 96.7069 31.4031 96.4052 31.5375C96.1035 31.6719 95.8365 31.8556 95.6041 32.0885C95.348 32.3495 95.1546 32.6574 95.0239 33.0121C94.8893 33.3715 94.8413 33.7779 94.8799 34.2312C94.9141 34.6328 95.0232 34.9692 95.2073 35.2406C95.3873 35.5166 95.6191 35.7361 95.9027 35.8989C96.1494 36.0388 96.4206 36.1331 96.7161 36.1819C97.0073 36.231 97.289 36.244 97.561 36.2208C97.6991 36.209 97.9308 36.1719 98.256 36.1094C98.4909 36.0589 98.7184 35.9982 98.9385 35.9273L99.2798 39.7797L94.9406 40.1494L94.8612 39.2951C95.4946 39.2759 96.3717 39.2338 97.4925 39.1687C97.7519 39.151 98.1537 39.1189 98.6977 39.0726L98.4869 36.5985C98.3017 36.6709 98.1046 36.7311 97.8956 36.7794C97.7212 36.8247 97.5238 36.8567 97.3036 36.8755C96.9366 36.9068 96.565 36.8841 96.1888 36.8074C95.8083 36.7311 95.4599 36.5977 95.1436 36.4072Z" fill="#A98056"/>
<path d="M82.9949 40.2534C82.8854 40.6396 82.7521 41.1713 82.5947 41.8482L82.4949 42.2587C82.4484 42.4493 82.3834 42.7429 82.2997 43.1395L81.5033 43.3805C81.6801 42.8426 81.8693 42.2262 82.071 41.5313C82.1994 41.1031 82.3042 40.7386 82.3852 40.4379L83.702 35.8356C83.8772 35.2031 84.0425 34.5373 84.1976 33.8384C84.2761 33.4842 84.337 33.1918 84.3804 32.9613L85.183 32.7184C84.9737 33.3884 84.7866 34.0042 84.6215 34.5658C84.5112 34.9342 84.4079 35.296 84.3117 35.6511L82.9949 40.2534ZM86.0271 37.0334C86.3797 36.9267 86.7149 36.875 87.0329 36.8784C87.3521 36.8859 87.645 36.9489 87.9118 37.0674C88.4806 37.3163 88.8705 37.7891 89.0814 38.4859C89.1881 38.8385 89.2227 39.1698 89.1853 39.4799C89.145 39.7955 89.0396 40.0832 88.8693 40.343C88.7047 40.592 88.4869 40.8074 88.2159 40.989C87.9407 41.1719 87.6269 41.3167 87.2743 41.4234C86.9218 41.5301 86.5859 41.5796 86.2667 41.5721C85.9446 41.57 85.6502 41.5097 85.3834 41.3912C85.11 41.2657 84.8738 41.0837 84.6748 40.8451C84.4759 40.6065 84.3243 40.3151 84.2201 39.9708C84.0054 39.2616 84.0761 38.6426 84.4322 38.1138C84.5981 37.8689 84.8179 37.6529 85.0918 37.4659C85.3628 37.2843 85.6746 37.1401 86.0271 37.0334ZM88.2956 38.717C88.1199 38.1363 87.8205 37.738 87.3974 37.5219C87.0259 37.3265 86.585 37.306 86.0749 37.4604C85.8509 37.5282 85.6528 37.6289 85.4804 37.7626C85.3039 37.8975 85.1651 38.0595 85.0639 38.2486C84.8386 38.6563 84.8145 39.1526 84.9915 39.7374C85.1752 40.3292 85.4773 40.729 85.8978 40.9367C86.2764 41.1255 86.7146 41.1446 87.2123 40.9939C87.4362 40.9261 87.6365 40.8248 87.8129 40.6899C87.9865 40.5604 88.1239 40.4011 88.2252 40.212C88.4508 39.7905 88.4742 39.2922 88.2956 38.717ZM79.3589 34.5898C79.7114 34.4831 80.0466 34.4315 80.3646 34.4349C80.6838 34.4424 80.9774 34.5074 81.2454 34.6301C81.8142 34.879 82.2047 35.3539 82.4169 36.0548C82.5236 36.4073 82.5582 36.7387 82.5208 37.0488C82.4804 37.3644 82.3745 37.65 82.2028 37.9057C82.0424 38.1534 81.8267 38.3681 81.5557 38.5498C81.2805 38.7326 80.9652 38.8801 80.6098 38.9922C80.2573 39.0989 79.9214 39.1485 79.6022 39.141C79.2801 39.1389 78.9857 39.0786 78.7189 38.9601C78.4455 38.8346 78.2093 38.6526 78.0103 38.414C77.8113 38.1754 77.6585 37.8798 77.5518 37.5273C77.4438 37.1706 77.41 36.8345 77.4503 36.5189C77.4878 36.2088 77.5923 35.9259 77.7639 35.6702C77.9285 35.4212 78.1484 35.2052 78.4235 35.0223C78.6945 34.8407 79.0063 34.6965 79.3589 34.5898ZM81.6292 36.2796C81.4522 35.6948 81.1534 35.2985 80.7329 35.0908C80.545 34.9937 80.3388 34.9407 80.1143 34.9317C79.8856 34.9239 79.6509 34.9565 79.4104 35.0293C79.1864 35.0971 78.9882 35.1978 78.8159 35.3314C78.6394 35.4663 78.5006 35.6283 78.3993 35.8174C78.1741 36.2252 78.15 36.7214 78.327 37.3062C78.5015 37.8827 78.8009 38.2811 79.2252 38.5013C79.605 38.6942 80.048 38.7141 80.554 38.5609C80.7738 38.4944 80.9719 38.3937 81.1484 38.2588C81.3208 38.1251 81.4575 37.9637 81.5588 37.7746C81.7844 37.3532 81.8078 36.8549 81.6292 36.2796Z" fill="#A98056"/>
</svg>
