<svg width="399" height="383" viewBox="0 0 399 383" fill="none" xmlns="http://www.w3.org/2000/svg">
<path opacity="0.5" fill-rule="evenodd" clip-rule="evenodd" d="M174.623 2.73253C213.105 6.24959 244.744 28.7515 278.296 47.9285C316.736 69.9 364.902 82.7022 384.243 122.544C404.381 164.027 401.939 216.882 380.002 257.443C359.338 295.651 311.478 305.707 273.646 327.033C241.122 345.367 211.415 366.889 174.623 373.215C131.692 380.596 82.5663 391.584 47.346 365.94C12.129 340.297 5.00229 290.438 1.30764 247.02C-1.80238 210.472 19.4832 178.729 28.3877 143.147C38.244 103.761 26.9305 55.7449 56.2103 27.6307C86.0394 -1.01104 133.45 -1.0306 174.623 2.73253Z" stroke="#A77E56"/>
</svg>
