<svg width="484" height="484" viewBox="0 0 484 484" fill="none" xmlns="http://www.w3.org/2000/svg">
<path opacity="0.5" fill-rule="evenodd" clip-rule="evenodd" d="M215.635 47.1568C250.933 51.2234 282.129 67.9693 316.007 81.4613C360.14 99.0377 422.717 89.0023 443.762 138.011C464.745 186.876 414.861 234.73 404.048 286.486C394.406 332.64 412.488 390.816 384.027 423.929C355.524 457.09 307.474 448.246 266.462 446.562C230.844 445.099 197.813 432.03 164.745 414.922C127.791 395.803 88.2792 379.78 63.8869 341.753C36.3605 298.841 18.6472 245.719 22.7255 193.518C26.9627 139.284 47.8615 84.153 86.2906 54.9967C122.841 27.266 171.319 42.0515 215.635 47.1568Z" stroke="#A77E56"/>
</svg>
