<svg width="730" height="676" viewBox="0 0 730 676" fill="none" xmlns="http://www.w3.org/2000/svg">
<path opacity="0.5" fill-rule="evenodd" clip-rule="evenodd" d="M283.509 583.557C237.845 565.106 198.026 539.817 161.575 506.696C118.384 467.45 64.5582 431.79 53.4378 374.501C41.8076 314.586 76.1895 257.807 102.581 202.774C133.061 139.214 148.987 46.7876 217.839 31.6759C288.965 16.0655 341.227 98.5895 403.22 136.79C444.237 162.065 481.355 187.194 519.003 217.256C569.594 257.654 644.348 280.105 661.034 342.659C678.077 406.552 642.263 474.696 601.581 526.829C563.01 576.258 505.709 609.799 443.986 620.807C388.568 630.691 335.702 604.646 283.509 583.557Z" stroke="#A77E56"/>
</svg>
