<svg width="220" height="220" viewBox="0 0 220 220" fill="none" xmlns="http://www.w3.org/2000/svg">
<path d="M190.996 102.489C190.581 103.408 189.911 103.881 188.986 103.906C188.567 103.918 188.182 103.842 187.832 103.679C187.39 103.475 187.035 103.147 186.767 102.696C186.45 102.156 186.279 101.473 186.257 100.648C186.25 100.406 186.255 100.131 186.273 99.824C186.29 99.5209 186.294 99.1835 186.284 98.812L186.263 98.0473L188.079 98.075C188.529 98.0712 188.875 98.066 189.117 98.0593L192.123 97.9764C192.707 97.9603 193.266 97.9383 193.801 97.9106C193.883 97.9083 193.946 97.9044 193.989 97.8989C194.166 97.8897 194.358 97.8801 194.565 97.87C194.773 97.86 194.987 97.8519 195.207 97.8459L195.348 102.952L194.667 102.971C194.71 102.014 194.733 101.128 194.737 100.31C194.743 99.9296 194.74 99.4801 194.725 98.9616C194.466 98.9558 194.064 98.9561 193.519 98.9625C193.299 98.9643 192.957 98.9715 192.495 98.9843L191.361 99.0156C191.388 99.3607 191.403 99.6154 191.408 99.7796C191.439 100.898 191.302 101.802 190.996 102.489ZM187.378 102.277C187.757 102.682 188.296 102.875 188.996 102.855C189.609 102.838 190.08 102.583 190.408 102.09C190.666 101.702 190.826 101.177 190.89 100.514C190.917 100.254 190.927 99.9744 190.919 99.6763C190.914 99.4949 190.899 99.2791 190.875 99.029L186.831 99.1406C186.838 99.3825 186.834 99.6485 186.821 99.9386C186.802 100.199 186.795 100.419 186.8 100.601C186.82 101.331 187.013 101.89 187.378 102.277Z" fill="#A98056"/>
<path d="M192.348 108.211C192.82 108.262 193.465 108.315 194.28 108.371C194.444 108.379 194.734 108.395 195.149 108.417L194.603 113.568L193.932 113.497C194.05 112.797 194.172 111.975 194.298 111.032L194.491 109.456L191.074 109.093C190.973 110.126 190.897 110.97 190.845 111.625C190.817 111.926 190.789 112.292 190.761 112.724L190.097 112.654C190.15 112.238 190.191 111.927 190.222 111.722L190.245 111.561L190.394 110.41L190.558 109.039L186.669 108.646C186.578 109.549 186.502 110.491 186.441 111.471L186.367 112.727L185.703 112.657L186.251 107.487C186.734 107.56 187.319 107.644 188.004 107.738C188.441 107.793 188.785 107.834 189.034 107.86L192.348 108.211Z" fill="#A98056"/>
<path d="M183.874 123.052C183.732 122.656 183.674 122.147 183.7 121.526C183.714 121.204 183.771 120.842 183.871 120.439C184.027 119.814 184.283 119.254 184.638 118.759C184.992 118.269 185.421 117.868 185.927 117.558C186.442 117.241 187.005 117.036 187.616 116.944C188.232 116.852 188.866 116.888 189.521 117.051C190.544 117.307 191.359 117.751 191.968 118.383C192.511 118.956 192.86 119.644 193.016 120.449C193.157 121.188 193.127 121.96 192.926 122.765C192.76 123.428 192.522 123.992 192.21 124.457C192.053 124.69 191.91 124.87 191.781 124.998L191.271 124.524C191.275 124.525 191.322 124.487 191.412 124.412C191.505 124.328 191.608 124.207 191.724 124.049C191.842 123.895 191.96 123.709 192.077 123.489C192.2 123.248 192.298 122.976 192.374 122.674C192.517 122.1 192.537 121.537 192.434 120.985C192.31 120.322 192.02 119.753 191.564 119.278C191.021 118.706 190.263 118.299 189.29 118.056C188.728 117.916 188.182 117.871 187.653 117.922C187.123 117.976 186.636 118.115 186.193 118.339C185.749 118.562 185.374 118.861 185.067 119.234C184.76 119.607 184.545 120.033 184.422 120.51C184.279 121.08 184.259 121.654 184.36 122.231C184.401 122.46 184.444 122.633 184.49 122.752L184.558 122.936L183.874 123.052Z" fill="#A98056"/>
<path d="M181.875 134.673C181.243 134.403 180.639 134.162 180.062 133.949L179.703 133.816L179.237 133.653L179.685 132.604L185.332 135.013C185.546 135.104 185.838 135.224 186.207 135.372L186.538 135.506L187.052 135.704L187.465 135.859C187.545 135.673 187.615 135.514 187.675 135.385L188.248 134.107L188.508 133.499C188.655 133.153 188.871 132.637 189.155 131.95L189.448 131.229C189.507 131.08 189.578 130.906 189.663 130.708L184.488 128.499C183.867 128.235 183.269 127.996 182.693 127.783C182.332 127.648 182.058 127.548 181.87 127.481L182.346 126.366C182.794 126.581 183.33 126.834 183.954 127.123C184.356 127.304 184.67 127.443 184.897 127.539L187.944 128.839C188.477 129.067 189.08 129.305 189.753 129.555C189.912 129.613 190.188 129.714 190.582 129.859L189.931 131.386L189.937 131.388L188.899 133.821L188.594 134.536L188.311 135.198C188.248 135.336 188.164 135.528 188.058 135.774L187.86 136.239L187.473 137.146C187.029 136.932 186.495 136.681 185.871 136.392C185.461 136.207 185.145 136.068 184.922 135.973L181.875 134.673Z" fill="#A98056"/>
<path d="M181.897 141.608C182.221 141.872 182.553 142.132 182.893 142.386C183.15 142.577 183.415 142.764 183.687 142.949C183.758 142.83 183.857 142.671 183.986 142.471C184.128 142.233 184.225 142.075 184.276 141.995C184.348 141.866 184.4 141.777 184.433 141.726L184.875 142.009L181.045 147.978C180.649 147.699 180.166 147.363 179.596 146.972C179.222 146.722 178.934 146.531 178.73 146.401L175.925 144.601C175.354 144.235 174.802 143.898 174.27 143.592C173.936 143.399 173.683 143.254 173.508 143.158L174.104 142.23L179.276 145.549C179.56 145.731 179.926 145.961 180.374 146.239L181.012 146.625L181.212 146.745C181.257 146.676 181.302 146.61 181.347 146.547C181.441 146.402 181.518 146.285 181.58 146.196L181.885 145.745C182.028 145.523 182.137 145.357 182.213 145.246C182.505 144.807 182.702 144.507 182.805 144.347C182.931 144.151 183.03 144.001 183.101 143.898C183.166 143.796 183.263 143.637 183.391 143.422L183.218 143.295C182.514 142.792 181.917 142.342 181.427 141.946C180.018 140.811 178.985 139.796 178.327 138.902C177.798 138.182 177.52 137.562 177.494 137.042C177.478 136.755 177.538 136.506 177.674 136.295C177.706 136.244 177.755 136.183 177.821 136.112C177.899 136.023 177.983 135.957 178.073 135.912L178.203 135.841L178.571 136.108L178.464 136.155C178.356 136.204 178.261 136.292 178.179 136.419C178.144 136.474 178.113 136.533 178.087 136.599C177.978 136.873 178.048 137.264 178.296 137.773C178.581 138.346 179.181 139.087 180.096 139.998C180.594 140.487 181.194 141.024 181.897 141.608Z" fill="#A98056"/>
<path d="M174.949 155.473L168.86 153.287C168.139 153.022 167.417 152.781 166.695 152.562L165.785 152.285L166.691 151.277C166.688 151.28 166.751 151.311 166.88 151.368L167.649 151.685L168.133 151.884L168.991 152.229C169.009 152.209 169.054 152.166 169.127 152.097C169.197 152.032 169.279 151.95 169.375 151.85C169.418 151.802 169.453 151.766 169.48 151.743C169.717 151.492 169.951 151.238 170.182 150.981L171.101 149.958C171.303 149.733 171.499 149.509 171.689 149.284C171.709 149.256 171.739 149.219 171.78 149.174C171.837 149.103 171.941 148.975 172.09 148.79L171.722 147.997C171.574 147.69 171.463 147.451 171.39 147.28C171.282 147.044 171.197 146.864 171.136 146.738L171.011 146.47L171.527 145.896L171.591 146.067L172.044 147.154C172.184 147.495 172.407 148.014 172.71 148.711L173.039 149.46L175.482 154.88L174.949 155.473ZM172.368 149.354C172.196 149.525 172.043 149.686 171.907 149.837L171.539 150.247L170.564 151.332C170.009 151.949 169.678 152.328 169.569 152.469L174.672 154.335L172.368 149.354Z" fill="#A98056"/>
<path d="M167.198 162.26C167.591 161.915 168.065 161.481 168.619 160.958C168.902 160.689 169.117 160.482 169.265 160.336L169.688 160.844L164.591 165.087L164.168 164.579C164.505 164.355 164.971 164.017 165.568 163.565C165.848 163.361 166.133 163.14 166.425 162.902L162.817 158.568C162.366 158.026 161.946 157.538 161.556 157.104L160.97 156.461L161.857 155.723C162.153 156.112 162.514 156.579 162.94 157.124C163.215 157.469 163.432 157.735 163.589 157.925L167.198 162.26Z" fill="#A98056"/>
<path d="M151.025 166.616C150.67 166.028 150.32 165.479 149.977 164.97C149.763 164.65 149.599 164.408 149.485 164.245L150.428 163.674L152.693 167.418L152.874 167.317C153.003 167.238 153.111 167.175 153.199 167.128L154.124 166.591L155.131 165.989C155.457 165.792 155.865 165.54 156.356 165.233L156.708 165.013L157.267 164.659L157.546 164.483L156.734 163.14C156.383 162.56 156.036 162.015 155.692 161.505C155.479 161.185 155.316 160.945 155.204 160.785L156.208 160.178C156.287 160.317 156.428 160.571 156.63 160.938C156.97 161.551 157.293 162.11 157.6 162.617L159.314 165.452C159.563 165.862 159.911 166.409 160.36 167.092C160.465 167.241 160.629 167.483 160.851 167.818L159.908 168.388L157.858 164.999C157.838 165.006 157.788 165.033 157.711 165.08L157.558 165.165C157.142 165.397 156.701 165.653 156.235 165.935C156.052 166.041 155.771 166.208 155.394 166.436L154.917 166.725C154.673 166.872 154.342 167.077 153.925 167.34C153.663 167.498 153.412 167.655 153.172 167.81C153.072 167.871 153.014 167.908 152.998 167.923L153.609 168.933C153.852 169.336 154.199 169.879 154.647 170.562C154.74 170.698 154.902 170.938 155.136 171.282L154.126 171.893C153.894 171.467 153.608 170.953 153.269 170.35C153.044 169.961 152.869 169.663 152.743 169.456L151.025 166.616Z" fill="#A98056"/>
<path d="M146.75 171.142C146.53 171.246 146.284 171.351 146.01 171.458C144.987 171.856 144.102 172.026 143.356 171.968C142.874 171.933 142.462 171.797 142.119 171.559C141.774 171.327 141.516 170.992 141.345 170.553C141.193 170.162 141.134 169.772 141.168 169.384C141.214 168.893 141.402 168.448 141.734 168.05C142.13 167.576 142.716 167.188 143.493 166.886C143.719 166.798 143.98 166.711 144.275 166.623C144.566 166.538 144.885 166.428 145.231 166.293L145.944 166.016L146.528 167.729C146.686 168.159 146.808 168.485 146.894 168.707L147.985 171.51C148.196 172.054 148.405 172.573 148.612 173.068C148.642 173.144 148.666 173.202 148.686 173.241C148.754 173.404 148.828 173.582 148.907 173.774C148.987 173.965 149.066 174.164 149.146 174.369L148.101 174.776C147.995 174.456 147.903 174.19 147.826 173.979C147.677 173.55 147.456 172.957 147.161 172.199L146.75 171.142ZM141.708 174.453C141.918 174.993 142.152 175.56 142.412 176.155L142.73 176.866L141.642 177.289C141.512 176.895 141.337 176.385 141.118 175.761C140.972 175.363 140.855 175.05 140.765 174.82L139.486 171.533C139.273 170.986 139.028 170.39 138.75 169.747L138.398 168.952L139.486 168.529C139.643 168.991 139.837 169.549 140.067 170.201C140.219 170.615 140.34 170.937 140.429 171.167L141.708 174.453ZM143.721 167.381C143.04 167.646 142.579 168.016 142.337 168.49C142.084 168.983 142.084 169.556 142.338 170.208C142.56 170.78 142.959 171.138 143.534 171.28C143.985 171.392 144.534 171.366 145.18 171.203C145.435 171.141 145.701 171.056 145.978 170.948C146.148 170.882 146.346 170.796 146.573 170.689L145.106 166.919C144.853 167.018 144.6 167.102 144.349 167.172C144.071 167.257 143.862 167.327 143.721 167.381Z" fill="#A98056"/>
<path d="M127.793 171.479L129.003 177.504C129.115 178.059 129.255 178.672 129.425 179.343L133.317 170.37L134.435 170.145C134.497 170.56 134.539 170.849 134.563 171.012C134.667 171.705 134.778 172.346 134.896 172.935L135.549 176.183C135.664 176.76 135.804 177.388 135.967 178.07L136.177 178.92L134.989 179.159C134.907 178.576 134.816 177.992 134.717 177.408C134.637 176.966 134.573 176.626 134.525 176.389L133.522 171.393L129.649 180.224L129.65 180.231L128.455 180.471C128.368 179.906 128.271 179.326 128.165 178.73C128.085 178.288 128.021 177.948 127.974 177.711L127.32 174.457C127.188 173.8 127.046 173.167 126.893 172.559C126.8 172.185 126.727 171.9 126.675 171.703L127.793 171.479ZM133.669 181.705C133.646 181.591 133.602 181.483 133.537 181.381C133.47 181.284 133.385 181.204 133.284 181.141C133.052 180.994 132.79 180.949 132.497 181.008C132.15 181.078 131.912 181.222 131.784 181.442C131.683 181.617 131.643 181.838 131.666 182.107L131.228 182.162C131.194 181.971 131.191 181.779 131.219 181.589C131.247 181.402 131.308 181.231 131.4 181.076C131.496 180.916 131.627 180.779 131.794 180.666C131.956 180.554 132.15 180.476 132.375 180.431C132.807 180.344 133.183 180.416 133.503 180.647C133.648 180.755 133.771 180.889 133.874 181.049C133.973 181.214 134.045 181.394 134.088 181.588L133.669 181.705Z" fill="#A98056"/>
<path d="M112.069 176.744C111.179 176.267 110.753 175.567 110.79 174.643C110.807 174.224 110.909 173.845 111.095 173.506C111.328 173.079 111.679 172.747 112.147 172.51C112.708 172.23 113.4 172.106 114.225 172.139C114.467 172.149 114.741 172.173 115.046 172.211C115.347 172.249 115.684 172.275 116.055 172.29L116.819 172.321L116.669 174.131C116.643 174.58 116.625 174.925 116.615 175.167L116.495 178.173C116.471 178.756 116.456 179.315 116.447 179.851C116.444 179.933 116.444 179.996 116.446 180.039C116.443 180.217 116.44 180.409 116.436 180.616C116.432 180.824 116.426 181.038 116.417 181.258L111.313 181.054L111.34 180.374C112.291 180.481 113.175 180.564 113.99 180.623C114.369 180.655 114.818 180.682 115.336 180.702C115.359 180.444 115.386 180.042 115.417 179.499C115.43 179.279 115.446 178.938 115.464 178.476L115.509 177.342C115.163 177.345 114.908 177.344 114.744 177.337C113.625 177.293 112.734 177.095 112.069 176.744ZM112.524 173.148C112.095 173.499 111.866 174.024 111.838 174.723C111.813 175.337 112.036 175.823 112.506 176.184C112.876 176.467 113.389 176.662 114.046 176.771C114.304 176.816 114.582 176.844 114.88 176.856C115.061 176.863 115.278 176.863 115.529 176.856L115.69 172.814C115.448 172.804 115.183 172.783 114.895 172.75C114.637 172.714 114.417 172.692 114.236 172.685C113.506 172.655 112.935 172.81 112.524 173.148Z" fill="#A98056"/>
<path d="M101.422 179.889C100.761 179.756 100.169 179.522 99.6453 179.188C99.1168 178.856 98.6838 178.445 98.3462 177.954C98.0053 177.458 97.778 176.901 97.6643 176.283C97.5456 175.668 97.5553 175.017 97.6935 174.331C97.8385 173.611 98.0936 172.99 98.4587 172.468C98.8187 171.95 99.263 171.539 99.7914 171.235C100.296 170.94 100.85 170.75 101.454 170.664C102.057 170.583 102.674 170.605 103.305 170.732C103.97 170.866 104.565 171.096 105.09 171.423C105.615 171.753 106.046 172.159 106.386 172.642C106.732 173.131 106.966 173.68 107.085 174.291C107.2 174.905 107.188 175.555 107.05 176.241C106.862 177.173 106.474 177.952 105.885 178.579C105.33 179.168 104.652 179.576 103.853 179.803C103.067 180.029 102.256 180.057 101.422 179.889ZM101.557 179.348C101.807 179.398 102.077 179.415 102.367 179.398C102.653 179.381 102.943 179.331 103.237 179.249C103.898 179.052 104.466 178.708 104.939 178.217C105.486 177.648 105.847 176.927 106.023 176.054C106.134 175.499 106.155 174.959 106.085 174.433C106.013 173.912 105.855 173.437 105.611 173.009C105.365 172.567 105.036 172.194 104.626 171.891C104.214 171.592 103.733 171.385 103.183 171.27C102.929 171.219 102.658 171.197 102.37 171.206C102.077 171.217 101.787 171.265 101.501 171.348C100.843 171.529 100.278 171.862 99.8053 172.349C99.2604 172.909 98.8967 173.643 98.7142 174.55C98.6033 175.101 98.5831 175.639 98.6536 176.164C98.7233 176.694 98.8799 177.175 99.1235 177.608C99.373 178.055 99.7056 178.428 100.121 178.728C100.532 179.031 101.011 179.238 101.557 179.348Z" fill="#A98056"/>
<path d="M86.8275 168.688C87.0789 168.049 87.3027 167.438 87.4989 166.856C87.6235 166.491 87.7161 166.214 87.7768 166.024L88.8025 166.427L87.2022 170.5L87.3929 170.582C87.5337 170.637 87.6495 170.685 87.7405 170.726L88.7289 171.135L89.8186 171.57C90.1726 171.709 90.6207 171.881 91.1629 172.084L91.5514 172.23L92.1716 172.46L92.4817 172.575L93.0554 171.115C93.3036 170.483 93.5258 169.876 93.7221 169.294C93.8467 168.93 93.9385 168.655 93.9975 168.469L95.0896 168.898C95.0271 169.045 94.9112 169.311 94.7418 169.695C94.4616 170.337 94.2132 170.933 93.9967 171.484L92.7852 174.568C92.6097 175.014 92.3867 175.623 92.1162 176.394C92.0618 176.568 91.9692 176.845 91.8383 177.226L90.8126 176.822L92.2612 173.136C92.2427 173.124 92.1912 173.101 92.1067 173.068L91.9461 172.998C91.51 172.808 91.0385 172.614 90.5317 172.414C90.3361 172.333 90.0332 172.212 89.6229 172.05L89.104 171.847C88.8386 171.742 88.475 171.604 88.0132 171.432C87.7276 171.32 87.4505 171.215 87.1819 171.119C87.0733 171.076 87.0081 171.053 86.9864 171.049L86.5549 172.147C86.3826 172.586 86.1612 173.191 85.8906 173.962C85.8386 174.118 85.7468 174.393 85.6152 174.787L84.517 174.356C84.7142 173.913 84.9493 173.374 85.2223 172.738C85.3947 172.323 85.5252 172.003 85.6137 171.778L86.8275 168.688Z" fill="#A98056"/>
<path d="M79.4106 166.439C79.6216 166.077 79.9387 165.524 80.362 164.78C80.6563 164.266 80.9319 163.771 81.1889 163.296L81.4429 162.821C81.5067 162.703 81.5366 162.643 81.5329 162.641L82.502 163.206L82.3472 163.445C82.1175 163.797 81.8067 164.296 81.4149 164.943C81.2828 165.161 81.0873 165.492 80.8284 165.937L80.3031 166.839L80.3744 169.086C80.396 169.719 80.4375 170.523 80.4991 171.499L80.5146 171.666C80.5363 172.024 80.5548 172.28 80.5702 172.434L79.3378 171.716C79.3437 171.714 79.3491 171.645 79.354 171.508C79.3643 171.043 79.3671 170.605 79.3625 170.192L79.3552 168.17L79.3541 167.824C79.3519 167.433 79.3495 167.184 79.3466 167.077C78.9644 167.269 78.7482 167.379 78.6982 167.404L78.3767 167.57L76.5098 168.508L75.7742 168.882L75.5908 168.978C75.4369 169.053 75.3327 169.108 75.2783 169.141C75.156 169.205 75.0957 169.24 75.0973 169.246L74.3803 168.828L74.503 168.772C74.5288 168.762 74.5984 168.732 74.712 168.684C74.7319 168.675 74.7528 168.665 74.7749 168.653C74.7948 168.644 74.8177 168.635 74.8435 168.625L75.352 168.396C75.7286 168.23 76.1818 168.019 76.7114 167.763L77.4639 167.398L79.4106 166.439Z" fill="#A98056"/>
<path d="M70.692 155.447C71.1114 155.481 71.5989 155.638 72.1546 155.918C72.4423 156.063 72.7488 156.264 73.0742 156.521C73.5793 156.921 73.9842 157.384 74.2888 157.912C74.5901 158.437 74.7781 158.993 74.8529 159.581C74.9291 160.181 74.8835 160.779 74.7161 161.374C74.5459 161.972 74.2517 162.536 73.8335 163.065C73.1793 163.892 72.4386 164.452 71.6114 164.746C70.8663 165.005 70.095 165.039 69.2974 164.849C68.5661 164.673 67.8751 164.328 67.2242 163.813C66.6887 163.39 66.2731 162.94 65.9775 162.463C65.8297 162.225 65.7243 162.021 65.6612 161.85L66.3037 161.581C66.301 161.584 66.3155 161.642 66.3472 161.756C66.3856 161.874 66.4532 162.019 66.55 162.189C66.6408 162.36 66.7623 162.544 66.9146 162.742C67.0838 162.953 67.2904 163.155 67.5345 163.348C67.9989 163.715 68.5035 163.965 69.0483 164.099C69.7039 164.259 70.3419 164.229 70.9623 164.009C71.7074 163.75 72.3909 163.227 73.013 162.44C73.3722 161.986 73.6379 161.508 73.8099 161.004C73.9785 160.499 74.0523 159.998 74.0314 159.502C74.0104 159.006 73.8931 158.541 73.6794 158.107C73.4657 157.674 73.167 157.303 72.7832 156.994C72.3222 156.629 71.8078 156.374 71.24 156.228C71.015 156.171 70.839 156.139 70.712 156.132L70.5165 156.118L70.692 155.447Z" fill="#A98056"/>
<path d="M57.8126 147.646C57.5898 146.662 57.8394 145.881 58.5616 145.304C58.8889 145.042 59.2416 144.87 59.6195 144.789C60.0954 144.685 60.576 144.732 61.0613 144.931C61.6404 145.17 62.1879 145.612 62.7036 146.257C62.8548 146.446 63.0162 146.668 63.1876 146.924C63.3564 147.176 63.5569 147.448 63.7891 147.738L64.2671 148.335L62.8012 149.409C62.4448 149.683 62.1721 149.895 61.9832 150.047L59.6345 151.926C59.179 152.29 58.746 152.645 58.3357 152.99C58.2716 153.041 58.224 153.082 58.1929 153.113C58.0573 153.227 57.9098 153.35 57.7505 153.483C57.5913 153.616 57.4256 153.752 57.2535 153.889L54.0618 149.901L54.5933 149.475C55.136 150.264 55.6525 150.986 56.1426 151.64C56.3667 151.948 56.6408 152.304 56.9648 152.709C57.1754 152.557 57.4959 152.314 57.9265 151.981C58.1013 151.846 58.3693 151.635 58.7303 151.346L59.6161 150.637C59.3866 150.378 59.2206 150.184 59.118 150.056C58.4186 149.182 57.9835 148.379 57.8126 147.646ZM60.8265 145.633C60.2804 145.539 59.734 145.71 59.1874 146.148C58.7082 146.531 58.4865 147.019 58.5224 147.61C58.5508 148.074 58.7395 148.59 59.0885 149.158C59.2235 149.382 59.3842 149.61 59.5705 149.843C59.6839 149.985 59.8257 150.148 59.9958 150.333L63.1543 147.806C63.0031 147.617 62.8455 147.403 62.6814 147.163C62.5397 146.944 62.4121 146.764 62.2987 146.622C61.8423 146.052 61.3516 145.722 60.8265 145.633Z" fill="#A98056"/>
<path d="M53.2837 143.896C52.8763 144.141 52.3305 144.487 51.6461 144.934C51.5099 145.026 51.2695 145.189 50.9252 145.421L48.2548 140.983L48.8325 140.635C49.1609 141.265 49.5591 141.994 50.027 142.822L50.8236 144.196L53.7677 142.425C53.2256 141.54 52.7778 140.821 52.4243 140.267C52.2646 140.01 52.066 139.701 51.8283 139.34L52.4005 138.995C52.6092 139.359 52.7633 139.632 52.8629 139.814L52.9409 139.956L53.5169 140.964L54.2121 142.157L57.5517 140.125C57.0801 139.35 56.5729 138.553 56.0301 137.735L55.3317 136.687L55.9039 136.343L58.5843 140.798C58.1546 141.031 57.638 141.317 57.0343 141.655C56.6522 141.875 56.3537 142.049 56.1389 142.178L53.2837 143.896Z" fill="#A98056"/>
<path d="M51.0943 126.948C51.4462 127.179 51.7992 127.55 52.1534 128.061C52.3367 128.326 52.5096 128.649 52.6723 129.031C52.9247 129.623 53.0584 130.224 53.0736 130.833C53.087 131.438 52.9859 132.017 52.7702 132.569C52.55 133.132 52.224 133.635 51.7923 134.078C51.3567 134.522 50.8287 134.876 50.2084 135.14C49.2383 135.553 48.3198 135.691 47.453 135.553C46.6746 135.424 45.9807 135.086 45.3713 134.537C44.8134 134.033 44.3718 133.399 44.0466 132.635C43.779 132.007 43.6293 131.413 43.5976 130.853C43.5817 130.574 43.587 130.344 43.6135 130.163L44.3063 130.234C44.3023 130.236 44.2871 130.294 44.2608 130.409C44.2378 130.531 44.2281 130.691 44.2317 130.886C44.2296 131.08 44.2481 131.3 44.2873 131.546C44.335 131.812 44.4198 132.089 44.5417 132.375C44.7738 132.92 45.0971 133.381 45.5117 133.759C46.0107 134.213 46.5853 134.492 47.2354 134.596C48.0137 134.724 48.8641 134.592 49.7865 134.199C50.3193 133.972 50.7816 133.679 51.1734 133.32C51.5635 132.956 51.8679 132.552 52.0868 132.106C52.3057 131.66 52.425 131.196 52.4448 130.713C52.4645 130.23 52.3799 129.761 52.1907 129.307C51.9603 128.766 51.6308 128.295 51.2021 127.896C51.0316 127.738 50.8922 127.626 50.784 127.559L50.6191 127.453L51.0943 126.948Z" fill="#A98056"/>
<path d="M45.6823 116.472C46.3491 116.306 46.9766 116.134 47.5648 115.956L47.9313 115.845L48.4016 115.695L48.6772 116.802L42.7199 118.285C42.4934 118.341 42.1883 118.422 41.8046 118.526L41.4601 118.619L40.9301 118.771L40.507 118.896C40.5561 119.093 40.5958 119.262 40.626 119.401L40.9392 120.766L41.099 121.408C41.1898 121.773 41.3292 122.315 41.5172 123.034L41.7177 123.786C41.7606 123.94 41.8081 124.122 41.8603 124.331L47.3207 122.972C47.9749 122.809 48.5961 122.639 49.1843 122.461C49.5534 122.351 49.8328 122.266 50.0226 122.206L50.3155 123.382C49.828 123.481 49.2482 123.603 48.5762 123.748C48.1463 123.846 47.8119 123.925 47.5728 123.985L44.3582 124.785C43.7963 124.925 43.1714 125.098 42.4836 125.305C42.3221 125.354 42.0406 125.44 41.639 125.562L41.238 123.952L41.2317 123.953L40.5927 121.387L40.4047 120.632L40.2309 119.934C40.1985 119.786 40.15 119.582 40.0853 119.322L39.9631 118.831L39.725 117.875C40.2083 117.777 40.786 117.655 41.4581 117.51C41.8963 117.41 42.2329 117.331 42.4677 117.272L45.6823 116.472Z" fill="#A98056"/>
<path d="M41.4818 110.954C41.0645 110.938 40.6435 110.931 40.2189 110.934C39.8983 110.937 39.574 110.946 39.2458 110.963C39.2608 111.101 39.2773 111.288 39.2956 111.525C39.3254 111.8 39.344 111.985 39.3513 112.08C39.3711 112.226 39.3834 112.329 39.3881 112.389L38.8645 112.429L38.3205 105.358C38.8048 105.342 39.3925 105.319 40.0836 105.287C40.5324 105.262 40.8775 105.239 41.1188 105.221L44.4411 104.965C45.1177 104.913 45.7607 104.848 46.3703 104.771C46.7525 104.724 47.0422 104.687 47.2394 104.659L47.3239 105.758L41.1963 106.229C40.8602 106.255 40.4296 106.292 39.9046 106.341L39.1628 106.418L38.9306 106.442C38.9369 106.524 38.9408 106.604 38.9425 106.682C38.9558 106.854 38.9644 106.995 38.9684 107.103L38.9972 107.647C39.0174 107.909 39.0305 108.108 39.0365 108.242C39.0683 108.768 39.0915 109.126 39.1061 109.316C39.124 109.548 39.1356 109.727 39.1409 109.853C39.1502 109.973 39.1688 110.158 39.1966 110.408L39.4109 110.404C40.2761 110.381 41.0237 110.38 41.6538 110.401C43.4613 110.457 44.8974 110.643 45.9621 110.96C46.8183 111.215 47.4135 111.542 47.7476 111.941C47.9336 112.161 48.0362 112.396 48.0554 112.645C48.06 112.706 48.0574 112.784 48.0474 112.88C48.0392 112.998 48.0125 113.102 47.9674 113.192L47.9062 113.327L47.4518 113.336L47.509 113.234C47.566 113.13 47.5887 113.002 47.5771 112.851C47.5721 112.787 47.5605 112.72 47.5423 112.652C47.4641 112.368 47.1724 112.098 46.6672 111.842C46.0947 111.557 45.1689 111.327 43.8898 111.152C43.198 111.062 42.3953 110.996 41.4818 110.954Z" fill="#A98056"/>
<path d="M38.6646 95.7025L44.8402 93.7745C45.5749 93.5507 46.296 93.3084 47.0035 93.0475L47.8966 92.7201L47.7819 94.0701C47.7823 94.0658 47.7139 94.0795 47.5767 94.1112L46.7715 94.3225L46.2658 94.4552L45.3733 94.6982C45.3711 94.724 45.3615 94.7861 45.3444 94.8844C45.3278 94.9784 45.3114 95.0941 45.2954 95.2316C45.2899 95.2962 45.2836 95.3455 45.2763 95.3796C45.2384 95.7234 45.2049 96.0675 45.1756 96.412L45.0592 97.7814C45.0336 98.0829 45.0126 98.3804 44.9964 98.674C44.9977 98.7088 44.9959 98.7563 44.9907 98.8166C44.9874 98.9074 44.9821 99.0718 44.9748 99.3097L45.7467 99.7202C46.0501 99.8761 46.2825 99.9999 46.4438 100.092C46.6719 100.215 46.8483 100.308 46.9731 100.371L47.2346 100.51L47.1692 101.279L47.0149 101.181L45.9983 100.587C45.6803 100.4 45.1901 100.12 44.5278 99.7467L43.8135 99.3477L38.5971 96.4971L38.6646 95.7025ZM44.4133 99.0278C44.4467 98.7877 44.472 98.5665 44.4892 98.3641L44.5358 97.815L44.6594 96.3616C44.7296 95.5348 44.7658 95.0326 44.7679 94.8549L39.5711 96.4432L44.4133 99.0278Z" fill="#A98056"/>
<path d="M40.7556 85.6132C40.6493 86.1254 40.5329 86.7572 40.4062 87.5088C40.3431 87.8935 40.2963 88.1888 40.266 88.3947L39.6221 88.2444L41.1297 81.7861L41.7737 81.9365C41.6402 82.3181 41.4716 82.869 41.268 83.5892C41.1684 83.921 41.0737 84.2695 40.984 84.6347L46.4764 85.9168C47.1624 86.077 47.7919 86.2129 48.365 86.3245L49.2198 86.4841L48.9575 87.6078C48.4868 87.4757 47.9172 87.3206 47.2488 87.1423C46.8214 87.0337 46.4878 86.9514 46.2479 86.8954L40.7556 85.6132Z" fill="#A98056"/>
<path d="M51.03 72.3867C51.6683 72.6413 52.278 72.8683 52.8593 73.0676C53.2229 73.194 53.4995 73.2881 53.689 73.3497L53.2806 74.3733L49.2162 72.752L49.1333 72.9422C49.0773 73.0827 49.0288 73.1984 48.988 73.2891L48.5736 74.2754L48.1328 75.3629C47.9919 75.7161 47.8181 76.1633 47.6116 76.7044L47.4639 77.0922L47.2309 77.7112L47.1144 78.0207L48.5716 78.602C49.2019 78.8534 49.8076 79.0787 50.3888 79.278C50.7525 79.4045 51.0271 79.4977 51.2125 79.5577L50.7777 80.6476C50.6308 80.5843 50.3659 80.467 49.9829 80.2956C49.3422 80.0121 48.7469 79.7607 48.1969 79.5413L45.12 78.3139C44.6744 78.1361 44.0666 77.91 43.2967 77.6354C43.1233 77.5802 42.8468 77.4862 42.467 77.3533L42.8754 76.3297L46.5544 77.7973C46.5665 77.7788 46.5893 77.7274 46.6229 77.6431L46.6938 77.483C46.886 77.0478 47.083 76.5773 47.2848 76.0715C47.3672 75.8764 47.4901 75.5741 47.6535 75.1647L47.86 74.6469C47.9657 74.3819 48.1058 74.019 48.2804 73.5582C48.3941 73.2732 48.4997 72.9966 48.5974 72.7285C48.6406 72.6201 48.6642 72.555 48.6682 72.5334L47.5723 72.0962C47.1348 71.9217 46.5311 71.6971 45.7612 71.4226C45.6054 71.3697 45.3309 71.2765 44.9375 71.1428L45.3746 70.047C45.8162 70.2464 46.3542 70.4842 46.9884 70.7605C47.4027 70.9351 47.7223 71.0672 47.9471 71.1569L51.03 72.3867Z" fill="#A98056"/>
<path d="M51.7117 66.198C51.824 65.9829 51.9573 65.7503 52.1115 65.5001C52.6876 64.5657 53.2905 63.8965 53.9203 63.4927C54.3259 63.23 54.7371 63.0901 55.1539 63.0729C55.5693 63.0497 55.9775 63.1617 56.3785 63.4089C56.7354 63.629 57.0174 63.9044 57.2247 64.2353C57.4843 64.6542 57.6017 65.1226 57.5769 65.6405C57.5472 66.2568 57.3135 66.92 56.8758 67.6301C56.7488 67.8361 56.5937 68.0629 56.4106 68.3105C56.2298 68.5544 56.0418 68.8345 55.8468 69.1509L55.4453 69.8021L53.9465 68.7867C53.5611 68.5389 53.2672 68.3526 53.0649 68.2279L50.5043 66.6493C50.0077 66.3431 49.5279 66.0549 49.0649 65.7847C48.995 65.7416 48.9405 65.7106 48.9014 65.6916C48.7483 65.6023 48.5824 65.505 48.4035 65.3998C48.2246 65.2946 48.0414 65.1842 47.8538 65.0685L48.4423 64.1139C48.7202 64.3055 48.9537 64.4621 49.1427 64.5837C49.5199 64.8366 50.0544 65.1762 50.746 65.6026L51.7117 66.198ZM53.7371 60.5163C53.2441 60.2123 52.7149 59.9013 52.1495 59.5832L51.4668 59.208L52.0792 58.2147C52.4211 58.4509 52.8677 58.7516 53.4193 59.117C53.7753 59.3467 54.0581 59.5261 54.2678 59.6554L57.2698 61.5062C57.7701 61.8146 58.3251 62.1415 58.9347 62.4869L59.6946 62.9097L59.0822 63.903C58.6778 63.6283 58.187 63.3003 57.6097 62.919C57.239 62.6803 56.9488 62.4963 56.7391 62.367L53.7371 60.5163ZM56.3952 67.3719C56.7785 66.7501 56.9237 66.177 56.8307 65.6526C56.7357 65.1066 56.3902 64.6499 55.7942 64.2825C55.2718 63.9604 54.7383 63.9158 54.1936 64.1487C53.766 64.3318 53.3437 64.6833 52.9268 65.2031C52.7612 65.4056 52.6002 65.6339 52.4437 65.8877C52.3485 66.0422 52.2424 66.2307 52.1256 66.4531L55.5691 68.5761C55.7119 68.3443 55.8625 68.1249 56.0206 67.9177C56.191 67.6826 56.3158 67.5006 56.3952 67.3719Z" fill="#A98056"/>
<path d="M66.6304 54.4995L62.0318 50.4223C61.6082 50.0467 61.1262 49.6425 60.5858 49.2096L62.893 58.7148L62.136 59.5686C61.8367 59.2743 61.6284 59.0694 61.5113 58.954C61.0103 58.4636 60.5351 58.0192 60.0856 57.6207L57.6069 55.4229C57.1671 55.033 56.6766 54.6155 56.1355 54.1704L55.4549 53.6189L56.2591 52.7118C56.676 53.1276 57.1002 53.5384 57.5318 53.9441C57.8624 54.2488 58.1182 54.4814 58.2993 54.642L62.112 58.0224L59.8766 48.6415L59.8718 48.6372L60.6803 47.7252C61.09 48.1231 61.5169 48.5276 61.961 48.9387C62.2916 49.2434 62.5475 49.476 62.7286 49.6365L65.2122 51.8385C65.7134 52.2829 66.2085 52.7017 66.6975 53.0948C66.9968 53.3371 67.2267 53.5207 67.3873 53.6458L66.6304 54.4995ZM55.7769 49.8844C55.8642 49.9618 55.9643 50.0216 56.077 50.0638C56.1894 50.0999 56.305 50.1129 56.4238 50.1027C56.698 50.0801 56.934 49.9572 57.1318 49.7341C57.3669 49.4689 57.4692 49.2102 57.4388 48.9579C57.4145 48.7573 57.3121 48.5568 57.1317 48.3564L57.4484 48.048C57.591 48.1803 57.7088 48.3309 57.8016 48.4998C57.8912 48.6659 57.9459 48.8386 57.9659 49.0181C57.9862 49.2036 57.9639 49.3917 57.8988 49.5824C57.8366 49.7698 57.7295 49.9492 57.5775 50.1206C57.2851 50.4504 56.9416 50.6196 56.5472 50.628C56.3667 50.6296 56.1872 50.5976 56.0087 50.5317C55.8299 50.4598 55.6646 50.3595 55.513 50.2309L55.7769 49.8844Z" fill="#A98056"/>
<path d="M76.0001 40.8166C76.9969 40.6606 77.7593 40.9624 78.2871 41.7219C78.5263 42.0661 78.6736 42.4296 78.729 42.8121C78.8006 43.2939 78.7211 43.7702 78.4904 44.241C78.2124 44.8027 77.7344 45.3191 77.0565 45.7901C76.8578 45.9283 76.625 46.0742 76.3582 46.2281C76.095 46.3794 75.8108 46.5611 75.5056 46.7732L74.8774 47.2098L73.9054 45.6748C73.656 45.3008 73.4622 45.0144 73.3241 44.8157L71.6075 42.3455C71.2745 41.8664 70.9498 41.4105 70.6333 40.9778C70.5865 40.9104 70.5489 40.8602 70.5207 40.8272C70.4161 40.6841 70.3028 40.5287 70.1808 40.3608C70.0589 40.1929 69.935 40.0184 69.8092 39.8374L74.0042 36.9222L74.3926 37.4811C73.5688 37.9694 72.8142 38.436 72.1286 38.8808C71.8064 39.0837 71.4324 39.3331 71.0065 39.6291C71.1438 39.8494 71.3643 40.1856 71.668 40.6377C71.7902 40.8212 71.9833 41.1028 72.2472 41.4826L72.8946 42.4142C73.1687 42.2027 73.3732 42.0501 73.508 41.9563C74.4272 41.3175 75.2579 40.9376 76.0001 40.8166ZM77.8052 43.9593C77.9363 43.4209 77.802 42.8642 77.4025 42.2893C77.0522 41.7853 76.581 41.5313 75.9886 41.5271C75.5234 41.5241 74.9959 41.6776 74.406 41.9875C74.1733 42.1071 73.9345 42.252 73.6897 42.4222C73.5406 42.5258 73.3681 42.6562 73.1721 42.8134L75.4806 46.1353C75.6794 45.9972 75.9038 45.8544 76.1539 45.7069C76.3817 45.5802 76.5701 45.4651 76.7191 45.3615C77.3189 44.9446 77.6809 44.4773 77.8052 43.9593Z" fill="#A98056"/>
<path d="M82.597 31.8873C83.2045 31.5949 83.8179 31.4244 84.4372 31.3757C85.0585 31.3213 85.6519 31.3882 86.2174 31.5765C86.7887 31.7668 87.3059 32.0742 87.7693 32.4987C88.2346 32.9174 88.6191 33.4422 88.9228 34.0731C89.2414 34.7351 89.4124 35.3843 89.4357 36.0206C89.461 36.6511 89.3544 37.2468 89.1159 37.8077C88.8913 38.3475 88.5641 38.8335 88.1342 39.2659C87.7025 39.6943 87.1966 40.0482 86.6163 40.3275C86.0049 40.6217 85.3914 40.7971 84.7759 40.8536C84.1585 40.9061 83.5689 40.8422 83.0072 40.6617C82.4358 40.481 81.9183 40.1833 81.4549 39.7684C80.9934 39.3478 80.6109 38.8221 80.3072 38.1912C79.8948 37.3345 79.7347 36.4787 79.8268 35.6237C79.9143 34.819 80.2086 34.085 80.7095 33.4218C81.2007 32.7681 81.8299 32.2566 82.597 31.8873ZM82.8155 32.4009C82.5857 32.5115 82.3602 32.6608 82.1389 32.8489C81.9216 33.035 81.7202 33.2495 81.5348 33.4922C81.1263 34.0485 80.8812 34.6653 80.7995 35.3426C80.7065 36.126 80.8531 36.9188 81.2392 37.721C81.4848 38.2312 81.7941 38.6746 82.1673 39.0514C82.5387 39.4243 82.951 39.7078 83.4042 39.9022C83.867 40.1063 84.3536 40.2054 84.864 40.1996C85.3726 40.1899 85.8809 40.0651 86.389 39.8253C86.6227 39.7128 86.852 39.5665 87.077 39.3862C87.304 39.2002 87.5063 38.9877 87.6839 38.7488C88.0999 38.208 88.3497 37.6009 88.4333 36.9276C88.53 36.1519 88.3778 35.3474 87.9767 34.5141C87.733 34.0078 87.4246 33.5663 87.0514 33.1896C86.6763 32.8089 86.2612 32.5195 85.8061 32.3213C85.3375 32.1151 84.847 32.0178 84.3346 32.0295C83.8242 32.0353 83.3178 32.1591 82.8155 32.4009Z" fill="#A98056"/>
<path d="M100.994 32.0224C101.179 32.6842 101.369 33.3065 101.563 33.8893C101.684 34.2551 101.777 34.5319 101.843 34.7199L100.782 35.0169L99.6024 30.8029L99.4008 30.8525C99.2552 30.8933 99.1339 30.925 99.037 30.9476L98.0017 31.2171L96.8699 31.5271C96.5037 31.6296 96.0429 31.7631 95.4875 31.9274L95.0897 32.0455L94.4564 32.2362L94.1398 32.3315L94.5625 33.8423C94.7454 34.4958 94.9341 35.1139 95.1286 35.6967C95.2489 36.0625 95.3415 36.3373 95.4064 36.5211L94.2764 36.8373C94.2375 36.6821 94.1699 36.4004 94.0736 35.992C93.9098 35.3108 93.7482 34.6851 93.5886 34.1149L92.6959 30.9247C92.5666 30.4627 92.3774 29.8425 92.1281 29.064C92.0667 28.8927 91.9735 28.6159 91.8485 28.2335L92.9098 27.9365L93.9773 31.7509C93.9993 31.7493 94.054 31.7362 94.1414 31.7118L94.3117 31.6708C94.7741 31.5594 95.2676 31.4302 95.792 31.2835C95.9971 31.2306 96.3119 31.1447 96.7364 31.0259L97.2733 30.8757C97.548 30.7988 97.9214 30.6898 98.3936 30.5487C98.6891 30.466 98.973 30.3821 99.2454 30.2969C99.3577 30.2655 99.4237 30.2447 99.4434 30.2348L99.1254 29.0985C98.9985 28.6449 98.8104 28.0288 98.5611 27.2504C98.5085 27.0945 98.4159 26.8198 98.2833 26.426L99.4195 26.1081C99.5292 26.58 99.6667 27.1519 99.8323 27.8236C99.9451 28.2588 100.034 28.5929 100.099 28.826L100.994 32.0224Z" fill="#A98056"/>
<path d="M108.266 29.3441C108.316 29.7603 108.397 30.3927 108.507 31.2413C108.583 31.8286 108.661 32.3894 108.743 32.9237L108.826 33.4556C108.847 33.5881 108.859 33.6541 108.863 33.6536L107.75 33.7876L107.728 33.5029C107.7 33.0841 107.647 32.4984 107.569 31.746C107.543 31.4923 107.499 31.1102 107.438 30.5995L107.313 29.5633L105.901 27.8136C105.502 27.3218 104.984 26.7051 104.346 25.9635L104.233 25.8399C104 25.5676 103.831 25.3747 103.726 25.2611L105.142 25.0906C105.138 25.0955 105.176 25.1541 105.255 25.2664C105.526 25.6429 105.789 25.9944 106.041 26.321L107.267 27.93L107.476 28.2051C107.714 28.516 107.866 28.7132 107.932 28.7966C108.121 28.4126 108.228 28.1951 108.252 28.1443L108.409 27.8186L109.332 25.9444L109.694 25.2022L109.782 25.0153C109.86 24.8623 109.91 24.7561 109.933 24.6967C109.992 24.5721 110.019 24.5079 110.014 24.5041L110.838 24.405L110.774 24.5237C110.76 24.5472 110.722 24.6127 110.661 24.7202C110.65 24.7389 110.639 24.7597 110.629 24.7827C110.618 24.8015 110.606 24.8226 110.591 24.8461L110.323 25.3354C110.123 25.6947 109.889 26.1364 109.621 26.6605L109.241 27.405L108.266 29.3441Z" fill="#A98056"/>
<path d="M121.85 32.8554C121.495 33.081 121.011 33.2498 120.399 33.3618C120.082 33.4197 119.716 33.4441 119.302 33.435C118.658 33.4208 118.055 33.2952 117.494 33.0581C116.938 32.8211 116.452 32.4906 116.038 32.0665C115.615 31.6336 115.291 31.1294 115.066 30.5538C114.841 29.9739 114.736 29.347 114.75 28.6729C114.773 27.6186 115.026 26.725 115.509 25.9921C115.947 25.3359 116.542 24.8432 117.293 24.5138C117.982 24.2134 118.742 24.0722 119.571 24.0904C120.254 24.1054 120.857 24.2137 121.38 24.4154C121.641 24.5162 121.849 24.6159 122.002 24.7143L121.652 25.3162C121.652 25.3119 121.605 25.2741 121.512 25.2029C121.41 25.1315 121.269 25.0571 121.089 24.9796C120.913 24.898 120.705 24.8242 120.465 24.7584C120.202 24.6922 119.916 24.6556 119.605 24.6488C119.013 24.6358 118.459 24.7404 117.944 24.9625C117.324 25.2299 116.833 25.6385 116.471 26.1882C116.033 26.8443 115.803 27.6736 115.781 28.6761C115.769 29.255 115.845 29.7971 116.011 30.3022C116.182 30.8074 116.425 31.2515 116.741 31.6345C117.057 32.0175 117.431 32.3175 117.862 32.5345C118.294 32.7515 118.756 32.8675 119.249 32.8826C119.837 32.8955 120.401 32.789 120.942 32.5631C121.156 32.4727 121.315 32.3919 121.421 32.3207L121.585 32.2141L121.85 32.8554Z" fill="#A98056"/>
</svg>
