<svg width="17" height="16" viewBox="0 0 17 16" fill="none" xmlns="http://www.w3.org/2000/svg">
<path d="M3.89489 0C2.27651 0 0.973389 1.30312 0.973389 2.9215V13.0785C0.973389 14.6969 2.27651 16 3.89489 16H9.39988V9.74499H7.74589V7.49299H9.39988V5.569C9.39988 4.0574 10.3771 2.6695 12.6284 2.6695C13.5399 2.6695 14.2139 2.757 14.2139 2.757L14.1609 4.86001C14.1609 4.86001 13.4735 4.85351 12.7234 4.85351C11.9115 4.85351 11.7814 5.22756 11.7814 5.84852V7.49301H14.2254L14.1189 9.745H11.7814V16H14.0519C15.6702 16 16.9734 14.6969 16.9734 13.0785V2.92151C16.9734 1.30313 15.6702 1.6e-05 14.0519 1.6e-05H3.89487L3.89489 0Z" fill="#C29E81"/>
</svg>
