<svg width="17" height="16" viewBox="0 0 17 16" fill="none" xmlns="http://www.w3.org/2000/svg">
<path d="M11.429 0H6.51769C2.03583 0 0.973358 1.06247 0.973358 5.54433V10.4557C0.973358 14.9375 2.03583 16 6.51769 16H11.429C15.9109 16 16.9734 14.9375 16.9734 10.4557V5.54433C16.9734 1.06247 15.9004 0 11.429 0ZM13.89 11.4136H12.7285C12.2885 11.4136 12.153 11.0647 11.3615 10.2627C10.6741 9.5962 10.3696 9.5077 10.2001 9.5077C9.96058 9.5077 9.89258 9.5752 9.89258 9.90369V10.9532C9.89258 11.2346 9.80408 11.4036 9.0591 11.4036C7.82714 11.4036 6.46019 10.6587 5.50172 9.27071C4.05626 7.23677 3.66077 5.71332 3.66077 5.39833C3.66077 5.22884 3.72827 5.07034 4.05376 5.07034H5.21773C5.51222 5.07034 5.62421 5.20584 5.73871 5.52083C6.31419 7.18228 7.27266 8.63773 7.66815 8.63773C7.81414 8.63773 7.88164 8.57023 7.88164 8.19774V6.4818C7.83714 5.69032 7.42066 5.62232 7.42066 5.34133C7.42066 5.20584 7.53265 5.07034 7.71215 5.07034H9.54259C9.79008 5.07034 9.88108 5.20584 9.88108 5.49733V7.81226C9.88108 8.06225 9.99308 8.15075 10.0606 8.15075C10.2066 8.15075 10.3316 8.06225 10.6021 7.79126C11.438 6.85379 12.037 5.40833 12.037 5.40833C12.115 5.23884 12.2505 5.08034 12.545 5.08034H13.709C14.0579 5.08034 14.1359 5.25984 14.0579 5.50983C13.912 6.18681 12.4875 8.19724 12.4875 8.19724C12.365 8.40024 12.318 8.48874 12.4875 8.71523C12.6125 8.88472 13.019 9.23621 13.2895 9.5512C13.787 10.1162 14.1694 10.5902 14.2714 10.9182C14.3859 11.2436 14.2169 11.4131 13.8885 11.4131L13.89 11.4136Z" fill="#C29E81"/>
</svg>
