<svg width="289" height="336" viewBox="0 0 289 336" fill="none" xmlns="http://www.w3.org/2000/svg">
<path opacity="0.5" fill-rule="evenodd" clip-rule="evenodd" d="M18.0962 165.797C24.2796 139.791 38.1068 118.297 50.1382 94.4237C65.812 63.3234 65.809 15.2669 99.1153 5.03751C132.324 -5.16188 157.667 37.6605 189.474 51.6296C217.837 64.0865 256.67 57.1172 274.824 82.2072C293.004 107.334 282.484 142.36 277.233 172.92C272.672 199.461 260.996 222.747 246.748 245.604C230.825 271.146 216.61 298.958 189.945 312.941C159.854 328.72 124.272 335.985 91.4963 327.015C57.4444 317.696 24.5202 295.783 9.89831 263.667C-4.00867 233.121 10.3334 198.447 18.0962 165.797Z" stroke="#A77E56"/>
</svg>
