<svg width="162" height="163" viewBox="0 0 162 163" fill="none" xmlns="http://www.w3.org/2000/svg">
<path opacity="0.5" fill-rule="evenodd" clip-rule="evenodd" d="M126.286 46.0972C131.301 56.5782 130.33 68.2359 130.518 79.8721C130.733 93.2038 134.828 107.625 127.458 118.796C119.783 130.427 105.675 137.991 91.7577 138.616C78.647 139.204 68.6599 128.406 57.2901 121.944C47.5157 116.389 37.3469 112.056 30.0345 103.537C21.5019 93.597 11.0776 82.6168 12.3132 69.5471C13.5487 56.4787 25.404 46.9084 36.1148 39.2228C45.1308 32.7533 56.6573 33.3276 67.2736 30.11C79.0246 26.5485 89.7561 16.1829 101.572 19.3839C113.609 22.6449 120.919 34.883 126.286 46.0972Z" stroke="#A77E56" stroke-width="0.5"/>
</svg>
