<svg width="691" height="698" viewBox="0 0 691 698" fill="none" xmlns="http://www.w3.org/2000/svg">
<path opacity="0.5" fill-rule="evenodd" clip-rule="evenodd" d="M237.829 136.025C278.955 127.172 320.567 134.415 363.876 136.903C420.296 140.145 486.298 104.697 529.471 152.783C572.517 200.728 535.863 274.641 544.489 338.07C552.181 394.631 595.709 454.354 577.123 503.18C558.51 552.078 501.203 560.339 454.639 574.108C414.198 586.065 372.006 583.738 328.155 576.796C279.149 569.039 228.522 565.808 186.001 531.583C138.017 492.961 96.9248 438.888 80.5849 377.527C63.6089 313.778 64.9168 242.624 96.2412 194.514C126.034 148.757 186.199 147.139 237.829 136.025Z" stroke="#A77E56"/>
</svg>
