<svg width="844" height="851" viewBox="0 0 844 851" fill="none" xmlns="http://www.w3.org/2000/svg">
<path opacity="0.5" fill-rule="evenodd" clip-rule="evenodd" d="M290.186 165.174C340.4 154.365 391.208 163.208 444.088 166.246C512.977 170.205 593.563 126.923 646.277 185.635C698.837 244.176 654.082 334.423 664.614 411.869C674.006 480.93 727.154 553.85 704.46 613.467C681.734 673.171 611.762 683.257 554.908 700.068C505.531 714.668 454.014 711.827 400.473 703.351C340.638 693.88 278.822 689.935 226.904 648.147C168.316 600.989 118.143 534.966 98.1926 460.046C77.465 382.209 79.062 295.33 117.309 236.589C153.686 180.72 227.146 178.744 290.186 165.174Z" stroke="#A77E56"/>
</svg>
