<svg width="592" height="851" viewBox="0 0 592 851" fill="none" xmlns="http://www.w3.org/2000/svg">
<path opacity="0.5" fill-rule="evenodd" clip-rule="evenodd" d="M38.1865 165.174C88.3999 154.365 139.208 163.208 192.088 166.246C260.977 170.205 341.563 126.923 394.277 185.635C446.837 244.176 402.082 334.423 412.614 411.869C422.006 480.93 475.154 553.85 452.46 613.467C429.734 673.171 359.762 683.257 302.908 700.068C253.531 714.668 202.014 711.827 148.473 703.351C88.6377 693.88 26.8217 689.935 -25.0957 648.147C-83.6837 600.989 -133.857 534.966 -153.807 460.046C-174.535 382.209 -172.938 295.33 -134.691 236.589C-98.3145 180.72 -24.8536 178.744 38.1865 165.174Z" stroke="#A77E56"/>
</svg>
