<svg width="622" height="509" viewBox="0 0 622 509" fill="none" xmlns="http://www.w3.org/2000/svg">
<path opacity="0.5" fill-rule="evenodd" clip-rule="evenodd" d="M297.053 11.0185C351.545 12.3708 405.43 0.605505 456.316 20.1463C519.819 44.5325 604.635 68.2407 619.134 134.702C633.917 202.46 546.739 247.809 519.939 311.773C496.61 367.451 519.711 443.37 473.52 482.238C427.167 521.242 357.162 506.862 297.053 499.323C243.522 492.608 194.195 472.701 150.065 441.665C105.308 410.188 68.089 370.738 44.2129 321.505C17.2628 265.934 -10.7425 204.237 6.10513 144.818C23.1524 84.6943 75.1644 38.2072 131.942 12.0967C183.2 -11.4758 240.652 9.61886 297.053 11.0185Z" stroke="#A77E56"/>
</svg>
