<svg width="78" height="68" viewBox="0 0 78 68" fill="none" xmlns="http://www.w3.org/2000/svg">
<path d="M33.0297 50.3108L33.0394 50.314L33.8712 47.8645L33.8611 47.8614L33.8579 47.8604C28.3941 46.105 23.6753 44.589 20.1668 42.7451C16.5362 40.8372 14.3924 38.6981 13.216 35.8093C12.101 33.0713 12.0165 30.1839 12.9776 27.6788C13.9248 25.2109 15.8262 23.29 18.3318 22.2696C20.1671 21.5222 22.0861 21.4098 24.0349 21.9354C25.7722 22.4042 27.2153 23.3034 28.12 23.9754C28.5854 24.3209 29.1872 24.3952 29.7301 24.1741C30.2729 23.953 30.6516 23.4795 30.7432 22.9072C30.9214 21.7942 31.3258 20.1426 32.241 18.5937C33.2682 16.8561 34.7198 15.5959 36.5554 14.8484C39.0608 13.8282 41.7634 13.8742 44.165 14.9784C46.6028 16.0994 48.5594 18.2244 49.6744 20.9623C50.8508 23.8512 50.8113 26.8794 49.5467 30.7807L52.0271 31.54C53.4711 27.0863 53.4919 23.4122 52.0931 19.9773C50.7341 16.6401 48.3171 14.035 45.2869 12.6416C42.2206 11.2318 38.7756 11.1706 35.5865 12.4693C33.2028 13.44 31.3215 15.0702 29.9952 17.3144C29.3256 18.4472 28.8145 19.708 28.4687 21.0767C27.2654 20.3388 26.0187 19.7939 24.7484 19.451C22.2317 18.7719 19.7468 18.9197 17.363 19.8904C14.1736 21.1893 11.7518 23.6396 10.5427 26.7905C9.34797 29.9044 9.43823 33.457 10.7973 36.7942C12.196 40.2291 14.778 42.8433 18.9227 45.0215C22.6304 46.9699 27.4493 48.5181 33.0297 50.3108Z" fill="#A98056"/>
<path d="M44.5639 63.7787C43.9406 63.6585 43.3825 63.3206 42.992 62.8268C41.5166 60.9647 40.087 59.2065 38.8256 57.6556L38.8192 57.6475C35.1212 53.1001 31.9278 49.1731 29.8841 45.5171C27.5995 41.43 26.8624 37.8305 27.5646 34.1888C28.2469 30.6506 30.1099 27.6243 32.8103 25.6669C35.5429 23.6863 38.9094 22.9545 42.2908 23.6065C44.8181 24.0938 46.9811 25.326 48.7196 27.2684C49.5969 28.2489 50.3442 29.3859 50.95 30.6609C51.9867 29.7026 53.1029 28.925 54.2822 28.3411C56.6183 27.1843 59.0843 26.8448 61.6116 27.3321C64.9927 27.9841 67.8461 29.9153 69.6463 32.7699C71.4253 35.5911 72.0291 39.0931 71.3468 42.6312C70.6446 46.2729 68.6223 49.3404 64.9818 52.2846C61.7251 54.9188 57.301 57.3767 52.1779 60.2228C50.4273 61.195 48.4433 62.2973 46.3766 63.4802C45.831 63.7927 45.1869 63.8988 44.5639 63.7787ZM41.8045 26.1289C39.1479 25.6166 36.5064 26.1888 34.3659 27.74C32.1935 29.3148 30.6887 31.7805 30.129 34.6833C29.5384 37.7461 30.1676 40.7085 32.1689 44.2884C34.1031 47.7488 37.231 51.5951 40.8525 56.0487L40.8593 56.0568C42.1253 57.6138 43.5605 59.3789 45.0468 61.2546C47.1353 60.0651 49.127 58.9584 50.8846 57.9825C55.9021 55.1947 60.2354 52.7879 63.3177 50.2948C66.5062 47.7156 68.1919 45.1996 68.7825 42.1368C69.3422 39.234 68.8622 36.3855 67.431 34.1159C66.0211 31.88 63.7814 30.3667 61.1252 29.8545C59.1791 29.4792 57.2751 29.7431 55.4661 30.6386C53.8539 31.4372 52.6138 32.6005 51.8571 33.436C51.468 33.8656 50.8923 34.0558 50.3167 33.9448C49.7412 33.8338 49.2774 33.4432 49.076 32.8997C48.6846 31.8429 47.9659 30.3018 46.7659 28.961C45.4196 27.457 43.7502 26.5041 41.8045 26.1289Z" fill="#A98056"/>
<path d="M62.7409 5.11997C63.4484 5.11997 64.0209 4.54685 64.0209 3.83998V1.27999C64.0209 0.573117 63.4484 0 62.7409 0C62.0334 0 61.4609 0.573117 61.4609 1.27999V3.83998C61.4609 4.54685 62.0334 5.11997 62.7409 5.11997Z" fill="#A98056"/>
<path d="M64.0209 11.5202V8.96017C64.0209 8.25329 63.4484 7.68018 62.7409 7.68018C62.0334 7.68018 61.4609 8.25329 61.4609 8.96017V11.5202C61.4609 12.227 62.0334 12.8001 62.7409 12.8001C63.4484 12.8001 64.0209 12.227 64.0209 11.5202Z" fill="#A98056"/>
<path d="M61.4626 6.40011C61.4626 5.69323 60.8901 5.12012 60.1826 5.12012H57.6226C56.9151 5.12012 56.3427 5.69323 56.3427 6.40011C56.3427 7.10699 56.9151 7.6801 57.6226 7.6801H60.1826C60.8901 7.6801 61.4626 7.10699 61.4626 6.40011Z" fill="#A98056"/>
<path d="M65.3016 7.6801H67.8616C68.5691 7.6801 69.1416 7.10699 69.1416 6.40011C69.1416 5.69323 68.5691 5.12012 67.8616 5.12012H65.3016C64.5941 5.12012 64.0216 5.69323 64.0216 6.40011C64.0216 7.10699 64.5941 7.6801 65.3016 7.6801Z" fill="#A98056"/>
<path d="M6.39828 55.6341C7.10579 55.6341 7.67827 55.061 7.67827 54.3541V51.7942C7.67827 51.0873 7.10579 50.5142 6.39828 50.5142C5.69076 50.5142 5.11829 51.0873 5.11829 51.7942V54.3541C5.11829 55.061 5.69076 55.6341 6.39828 55.6341Z" fill="#A98056"/>
<path d="M7.67827 62.0343V59.4743C7.67827 58.7675 7.10579 58.1943 6.39828 58.1943C5.69076 58.1943 5.11829 58.7675 5.11829 59.4743V62.0343C5.11829 62.7412 5.69076 63.3143 6.39828 63.3143C7.10579 63.3143 7.67827 62.7412 7.67827 62.0343Z" fill="#A98056"/>
<path d="M5.11997 56.9143C5.11997 56.2074 4.54749 55.6343 3.83998 55.6343H1.27999C0.572477 55.6343 0 56.2074 0 56.9143C0 57.6211 0.572477 58.1943 1.27999 58.1943H3.83998C4.54749 58.1943 5.11997 57.6211 5.11997 56.9143Z" fill="#A98056"/>
<path d="M8.95895 58.1943H11.5189C12.2264 58.1943 12.7989 57.6211 12.7989 56.9143C12.7989 56.2074 12.2264 55.6343 11.5189 55.6343H8.95895C8.25143 55.6343 7.67896 56.2074 7.67896 56.9143C7.67896 57.6211 8.25143 58.1943 8.95895 58.1943Z" fill="#A98056"/>
<path d="M7.2073 41.3561C7.02136 41.1812 6.80317 41.0424 6.56601 40.9474C6.09358 40.7506 5.56233 40.7506 5.08896 40.9474C4.60135 41.1242 4.21714 41.5101 4.04069 41.9987C3.73048 42.723 3.89176 43.5633 4.44767 44.1212C5.00453 44.6782 5.84313 44.8398 6.56601 44.5299C6.80127 44.4301 7.01757 44.2923 7.2073 44.1212C7.76321 43.5633 7.92448 42.723 7.61522 41.9987C7.5213 41.761 7.3828 41.5424 7.2073 41.3561Z" fill="#A98056"/>
<path d="M22.7504 54.9562C22.5645 54.7813 22.3463 54.6425 22.1091 54.5475C21.6367 54.3507 21.1054 54.3507 20.632 54.5475C20.1444 54.7243 19.7602 55.1102 19.5838 55.5988C19.2736 56.3231 19.4348 57.1634 19.9908 57.7213C20.5476 58.2783 21.3862 58.4399 22.1091 58.13C22.3444 58.0302 22.5607 57.8924 22.7504 57.7213C23.3063 57.1634 23.4676 56.3231 23.1583 55.5988C23.0644 55.3611 22.9259 55.1425 22.7504 54.9562Z" fill="#A98056"/>
<path d="M75.7725 13.5999C76.2895 13.6056 76.7865 13.4029 77.1517 13.0381C77.517 12.6723 77.72 12.1758 77.7152 11.6594C77.7076 11.1458 77.5065 10.6541 77.1517 10.2817C77.0559 10.1945 76.9516 10.1159 76.8406 10.0495C76.741 9.97279 76.63 9.9131 76.5105 9.87425C76.3938 9.8155 76.2686 9.77571 76.1396 9.7577C75.891 9.69991 75.6321 9.69991 75.3835 9.7577C75.2621 9.7795 75.1445 9.81835 75.0335 9.87425C74.9092 9.91689 74.7916 9.97564 74.6825 10.0495C74.582 10.1216 74.4852 10.1993 74.3932 10.2817C74.0375 10.6531 73.8354 11.1458 73.8297 11.6594C73.824 12.1758 74.027 12.6723 74.3922 13.0381C74.7584 13.4029 75.2555 13.6056 75.7725 13.5999Z" fill="#A98056"/>
<path d="M68.5636 22.7418C69.1195 23.2998 69.959 23.4681 70.6876 23.1664C71.4171 22.8647 71.8904 22.1526 71.8857 21.3658C71.8781 20.8532 71.677 20.3623 71.3222 19.9907C71.2245 19.9131 71.1277 19.8365 71.011 19.759C70.9114 19.6824 70.8004 19.6228 70.6809 19.584C70.5642 19.5254 70.439 19.4857 70.31 19.4677C69.9382 19.3892 69.5511 19.4299 69.2039 19.584C68.9668 19.6776 68.7486 19.8157 68.5636 19.9907C68.2079 20.3614 68.0058 20.8532 68.0001 21.3658C67.9944 21.8812 68.1974 22.3767 68.5636 22.7418Z" fill="#A98056"/>
</svg>
