<svg width="18" height="19" viewBox="0 0 18 19" fill="none" xmlns="http://www.w3.org/2000/svg">
<path d="M16.8953 3.50858L16.8527 3.39785C16.7146 3.03892 16.2399 2.96377 15.9977 3.26249L15.9231 3.3545C15.9038 3.37895 13.9456 5.76292 11.3695 6.13078C10.8805 6.20072 10.424 6.29169 9.98278 6.39346C10.1039 4.39042 9.28629 2.47949 7.54934 0.700466L7.46657 0.615979C7.19778 0.341626 6.73287 0.460188 6.6283 0.829755L6.59587 0.944378C6.58961 0.964278 5.99717 3.0037 4.49219 3.92193C2.84337 4.93112 1.79324 6.04664 1.28722 7.32931C0.776049 8.54165 0.762972 9.90652 1.25083 11.1284C1.59225 11.9667 2.25384 12.6342 3.08899 12.9831C3.17075 13.0142 3.25405 13.0412 3.33858 13.0638C3.29495 13.6308 3.34491 14.2011 3.48641 14.7519C3.17996 14.7786 2.88715 14.7922 2.6131 14.7922C2.01824 14.8038 1.42481 14.742 0.84618 14.6087C0.588231 14.5493 0.319669 14.6822 0.228816 14.9308L0.179781 15.065C0.0818711 15.3329 0.22738 15.6298 0.504482 15.6975C1.19431 15.8662 1.90393 15.9443 2.61538 15.9293C3.05573 15.9277 3.49561 15.9002 3.93273 15.8469C4.11964 16.1749 4.34906 16.4768 4.615 16.7447C5.53586 17.6 6.7611 18.0505 8.0167 17.9955C9.93768 17.9516 11.7928 17.2868 13.3043 16.1005L13.4709 15.9697C15.0344 14.745 19.7859 11.0244 16.8953 3.50858ZM3.53219 11.9236C3.53081 11.9286 3.52541 11.9314 3.52052 11.9295C2.95872 11.6962 2.51574 11.2448 2.293 10.6787C1.9239 9.73357 1.94146 8.68117 2.3419 7.7489C2.75467 6.70219 3.64959 5.76804 5.08293 4.89246C6.08292 4.22319 6.86643 3.27729 7.33784 2.17019C8.37666 3.32725 8.90854 4.84683 8.82494 6.3906C8.81414 6.59007 8.67361 6.75513 8.48496 6.82083C7.34052 7.21938 6.29459 7.86141 5.42008 8.70409C4.51856 9.59257 3.86737 10.7031 3.53219 11.9236ZM12.7721 15.072L12.6016 15.2067C10.2892 17.038 6.86707 17.3877 5.42008 15.9407C5.32439 15.8447 5.23512 15.7425 5.15286 15.6348C7.38827 15.1258 10.0937 13.8414 12.8858 10.9516C13.0777 10.753 13.0656 10.4357 12.8629 10.2481L12.7621 10.1548C12.5595 9.96715 12.243 9.98042 12.0509 10.1788C9.32654 12.9928 6.71967 14.1681 4.62069 14.591C4.46472 14.0598 4.41885 13.5024 4.48594 12.9529C4.65924 11.6411 5.27165 10.4267 6.22346 9.50746C7.39526 8.33509 9.13164 7.5988 11.5304 7.25653C13.2805 6.91785 14.8865 6.05556 16.1357 4.78386C18.0666 10.926 14.2493 13.9155 12.7721 15.072Z" fill="#A98056" stroke="#A98056" stroke-width="0.2"/>
<path d="M13.4467 8.59772C13.2731 8.812 13.2998 9.1265 13.5106 9.30423L13.6158 9.39284C13.8271 9.57098 14.1431 9.54416 14.3171 9.32941C14.3506 9.28803 14.3841 9.24639 14.4177 9.20451C14.5905 8.9887 14.5497 8.67393 14.3307 8.50514L14.2229 8.42207C14.0042 8.25343 13.6904 8.29443 13.5175 8.50983C13.4939 8.53926 13.4703 8.56855 13.4467 8.59772Z" fill="#A98056" stroke="#A98056" stroke-width="0.2"/>
</svg>
