<svg width="106" height="60" viewBox="0 0 106 60" fill="none" xmlns="http://www.w3.org/2000/svg">
<path d="M68.9876 49.9102C69.7775 49.7801 70.5365 49.5053 71.2266 49.0995L70.7286 47.9414L70.4738 48.1113C70.2409 48.2562 69.9984 48.3852 69.7481 48.4973C68.9436 48.8554 68.0731 49.0409 67.1925 49.0416C66.5437 49.0409 65.904 48.8889 65.3241 48.5977C64.7421 48.3031 64.2301 47.8871 63.8225 47.3778C63.3897 46.8392 63.0599 46.2255 62.8497 45.5673C62.6162 44.8429 62.5002 44.0857 62.5061 43.3245C62.4642 42.1068 62.7466 40.8997 63.3245 39.827C63.7556 39.0476 64.416 38.4196 65.2161 38.0281C65.9116 37.6827 66.6785 37.5055 67.455 37.5109C67.8826 37.5069 68.3091 37.5549 68.7251 37.6537C69.0543 37.736 69.3779 37.8391 69.694 37.9625C69.928 38.0518 70.1519 38.1657 70.3619 38.3022C70.5124 38.4026 70.5858 38.4566 70.5858 38.4721L71.1609 37.341C70.8404 37.1635 70.5029 37.0186 70.1534 36.9086C69.2458 36.6151 68.297 36.4691 67.3431 36.4763C66.1894 36.4585 65.0458 36.693 63.9923 37.1634C62.9349 37.6315 62.0411 38.4044 61.4252 39.3831C60.7125 40.5743 60.3562 41.9448 60.3984 43.3322C60.3894 44.2671 60.5652 45.1946 60.9157 46.0615C61.2469 46.8738 61.7484 47.6057 62.3864 48.2078C63.0167 48.8087 63.7627 49.275 64.5791 49.5782C65.4572 49.9037 66.3874 50.0659 67.3238 50.0569C67.8819 50.0643 68.4394 50.0151 68.9876 49.9102Z" fill="#A77E56"/>
<path d="M12.0326 36.7776L7.25739 47.5363L2.9956 36.7776H0.482539L0 49.7598H1.16968L1.50166 39.0397L6.02595 49.7598H7.46585L12.3569 38.9625L12.7738 49.7598H14.8468L14.3604 36.7776H12.0326Z" fill="#A77E56"/>
<path d="M23.5599 49.7598V43.9848L27.7483 36.7776H26.4242L23.031 42.8923L19.3367 36.7776H16.7542L21.5564 44.228V49.7598H23.5599Z" fill="#A77E56"/>
<path d="M47.1924 49.2577C47.0719 49.1617 46.9595 49.0559 46.8566 48.9412C46.5162 48.5684 46.216 48.1608 45.961 47.7252C45.5162 46.9784 45.1178 46.2048 44.7681 45.409C44.5398 44.8503 44.1618 44.3654 43.6757 44.0077C43.3001 43.7582 42.8668 43.6093 42.4172 43.5753C43.2768 43.3972 44.0751 42.9981 44.7334 42.4172C45.0134 42.1606 45.2362 41.8478 45.3872 41.4993C45.5382 41.1507 45.614 40.7743 45.6097 40.3944C45.6348 39.8927 45.5461 39.3918 45.3502 38.9292C45.1543 38.4666 44.8564 38.0543 44.4786 37.7231C43.6499 37.0231 42.3542 36.6731 40.5913 36.6731H36.1056V49.7596H38.1747V43.8803H40.1049C40.3659 43.8848 40.6254 43.9225 40.8769 43.9923C41.0757 44.0453 41.2656 44.1273 41.4405 44.2355C41.7601 44.4743 42.0312 44.7716 42.2396 45.1117L43.0387 46.5709C43.3282 47.0882 43.6139 47.5592 43.8957 47.98C44.1837 48.41 44.5162 48.8086 44.8878 49.1689C45.1754 49.4551 45.5237 49.6728 45.9069 49.8059C46.0807 49.8459 46.2577 49.8705 46.4358 49.8792C46.5103 49.8842 46.5851 49.8842 46.6597 49.8792C46.8338 49.8801 47.0074 49.8607 47.177 49.8213C47.4237 49.7731 47.6514 49.6552 47.8332 49.4816C47.6014 49.4764 47.3771 49.398 47.1924 49.2577ZM41.07 42.9654C40.6358 43.0652 40.1913 43.1131 39.7459 43.1082H38.1747V37.6343H40.2902C41.1318 37.5827 41.9656 37.8211 42.6527 38.3099C42.9501 38.5762 43.1826 38.907 43.3325 39.277C43.4824 39.647 43.5456 40.0464 43.5174 40.4446C43.5314 40.8373 43.439 41.2264 43.2501 41.5709C43.0613 41.9154 42.7828 42.2025 42.4442 42.4018C42.0226 42.6686 41.5575 42.8594 41.07 42.9654Z" fill="#A77E56"/>
<path d="M57.982 48.76H52.122L52.1027 43.3826H57.2215V42.433H52.1027V37.7929H57.9087V36.7776H50.0066V49.7598H57.982V48.76Z" fill="#A77E56"/>
<path d="M81.9772 48.76H76.1173L76.098 43.3826H81.2129V42.433H76.098V37.7929H81.9V36.7776H74.0018V49.7598H81.9772V48.76Z" fill="#A77E56"/>
<path d="M93.4193 37.8313C92.9508 37.4294 92.402 37.132 91.8095 36.9589C91.0581 36.7364 90.2769 36.6309 89.4933 36.6462H85.3126V49.7713H87.4088V44.1816H88.6711C89.449 44.187 90.2253 44.1106 90.9873 43.9538C91.9311 43.7963 92.8181 43.3974 93.5621 42.7957C93.8839 42.5155 94.1403 42.1679 94.3131 41.7777C94.4858 41.3875 94.5708 40.9641 94.5619 40.5374C94.564 40.0368 94.471 39.5403 94.2879 39.0744C94.0994 38.5979 93.8019 38.1722 93.4193 37.8313ZM92.1299 41.7457C91.7459 42.381 91.1275 42.8399 90.4082 43.0235C89.7053 43.2306 88.9754 43.3321 88.2426 43.3246H87.3972V37.6152H89.2694C90.1105 37.577 90.9357 37.8521 91.5856 38.3872C91.869 38.673 92.0877 39.0163 92.2269 39.394C92.3661 39.7716 92.4225 40.1747 92.3924 40.576C92.4032 40.9846 92.3116 41.3893 92.1261 41.7534L92.1299 41.7457Z" fill="#A77E56"/>
<path d="M96.0288 36.7776V37.7272H99.9702V45.6293V49.7598H102.059V45.6293V37.7272H106V36.7776H96.0288Z" fill="#A77E56"/>
<path d="M44.5944 22.5753V27.4084H61.1938V22.5753C62.6223 21.7519 63.7953 20.5495 64.5831 19.101C66.1273 16.1865 65.4478 13.3839 62.7688 11.7934C61.6371 11.1091 60.299 10.8492 58.9934 11.06C58.7624 10.5828 58.4648 10.1409 58.1094 9.74746C56.9243 8.44654 55.1871 7.79028 52.9559 7.79028C50.7246 7.79028 48.9025 8.49286 47.7058 9.82081C47.3689 10.1977 47.0846 10.6184 46.8604 11.0716C45.5287 10.8356 44.1566 11.0921 43.0001 11.7934C40.321 13.3839 39.6262 16.1865 41.1896 19.101C41.9813 20.5518 43.1599 21.7545 44.5944 22.5753ZM59.4026 25.5902H46.3972V23.3667H59.4026V25.5902ZM59.6844 14.2216C59.6854 13.7453 59.644 13.2699 59.5609 12.801C60.3709 12.7277 61.1831 12.9172 61.877 13.3414C64.3669 14.8238 63.6644 17.0512 63.0351 18.2479C61.8539 20.456 59.3833 21.9962 58.0438 21.3361C57.7883 21.218 57.5546 21.0574 57.3528 20.8613C57.4994 20.6799 57.6461 20.4753 57.7851 20.2861C58.9907 18.4905 59.6504 16.3841 59.6844 14.2216ZM49.0454 11.0252C49.9023 10.0717 51.2226 9.59305 52.9674 9.59305C54.7123 9.59305 55.9746 10.037 56.7891 10.9635C57.5497 11.875 57.947 13.0352 57.9048 14.2216C57.8657 16.0383 57.2968 17.804 56.268 19.3017C55.2605 20.7648 53.9981 21.6179 52.7937 21.6179C51.5893 21.6179 50.408 20.8073 49.4507 19.3983C48.4705 17.9301 47.9344 16.2105 47.9066 14.4455C47.9181 13.4418 48.1112 12.0637 49.0454 11.0252ZM43.942 13.3414C44.6365 12.9185 45.4482 12.7291 46.2582 12.801C46.1532 13.3337 46.1002 13.8754 46.0999 14.4184C46.1227 16.5447 46.7668 18.6178 47.9529 20.3826C48.0919 20.5872 48.2347 20.7687 48.3814 20.9617C48.197 21.1181 47.9917 21.248 47.7715 21.3477C46.4358 21.9885 43.9613 20.4483 42.7801 18.2595C42.1547 17.0512 41.4521 14.8238 43.942 13.3414Z" fill="#A77E56"/>
<path d="M52.9439 7.79012C53.5212 7.79191 54.0808 7.59087 54.5249 7.2221C54.969 6.85332 55.2695 6.34025 55.3739 5.77248C55.4782 5.20471 55.3798 4.61832 55.0959 4.11572C54.8119 3.61311 54.3604 3.22623 53.8202 3.02263C54.9783 0.521143 58.1824 1.04615 58.1824 1.04615C58.1824 1.04615 58.0588 0 57.6342 0C54.9899 0 53.8511 2.31619 53.5847 2.94542C53.3759 2.88813 53.1605 2.85828 52.9439 2.85663C52.2897 2.85663 51.6623 3.11652 51.1997 3.57913C50.7371 4.04173 50.4772 4.66915 50.4772 5.32337C50.4772 5.9776 50.7371 6.60502 51.1997 7.06762C51.6623 7.53023 52.2897 7.79012 52.9439 7.79012ZM52.1719 3.77153C52.282 3.77076 52.3898 3.80271 52.4817 3.86333C52.5737 3.92394 52.6455 4.01049 52.6882 4.112C52.7308 4.2135 52.7424 4.32539 52.7214 4.43348C52.7004 4.54156 52.6477 4.64097 52.5702 4.7191C52.4926 4.79723 52.3935 4.85055 52.2856 4.87232C52.1777 4.89408 52.0657 4.8833 51.9639 4.84134C51.8621 4.79939 51.775 4.72814 51.7138 4.63664C51.6525 4.54515 51.6198 4.43752 51.6198 4.32741C51.6188 4.18167 51.6754 4.04143 51.7774 3.93729C51.8794 3.83315 52.0184 3.77356 52.1641 3.77153H52.1719Z" fill="#A77E56"/>
<path d="M24.3892 55.9709H23.7716L22.4127 57.4108V55.9709H21.9109V58.8314H22.4127V58.0015L22.8567 57.5421L23.8333 58.8314H24.4394L23.2002 57.2024L24.3892 55.9709Z" fill="#A77E56"/>
<path d="M26.7328 55.9241C26.4407 55.9264 26.1558 56.0151 25.9142 56.1791C25.6725 56.3432 25.4848 56.5751 25.3748 56.8457C25.2647 57.1162 25.2373 57.4133 25.296 57.6995C25.3547 57.9856 25.4968 58.248 25.7044 58.4534C25.912 58.6589 26.1758 58.7982 26.4625 58.8539C26.7493 58.9096 27.0461 58.8791 27.3155 58.7663C27.5849 58.6535 27.8149 58.4634 27.9764 58.22C28.1378 57.9766 28.2236 57.6908 28.2229 57.3987C28.2244 57.2033 28.1869 57.0096 28.1123 56.8289C28.0378 56.6483 27.9279 56.4844 27.789 56.347C27.6501 56.2095 27.4851 56.1013 27.3037 56.0287C27.1223 55.956 26.9282 55.9205 26.7328 55.9241ZM26.7328 58.4178C26.6017 58.4164 26.4722 58.3887 26.352 58.3363C26.2318 58.2839 26.1233 58.208 26.033 58.113C25.9427 58.018 25.8723 57.9058 25.8261 57.7831C25.7798 57.6604 25.7587 57.5297 25.7638 57.3987C25.757 57.2682 25.7768 57.1376 25.8221 57.0149C25.8673 56.8922 25.9369 56.78 26.0268 56.685C26.1167 56.5901 26.2249 56.5144 26.345 56.4626C26.465 56.4107 26.5943 56.3838 26.7251 56.3835C26.8562 56.3844 26.9857 56.4116 27.1061 56.4635C27.2265 56.5154 27.3352 56.5909 27.4259 56.6856C27.5166 56.7802 27.5874 56.8921 27.6341 57.0146C27.6808 57.1371 27.7025 57.2677 27.6979 57.3987C27.7041 57.5297 27.6838 57.6605 27.6382 57.7834C27.5926 57.9063 27.5227 58.0188 27.4325 58.114C27.3424 58.2091 27.2339 58.2851 27.1137 58.3374C26.9934 58.3896 26.8639 58.417 26.7328 58.4178Z" fill="#A77E56"/>
<path d="M31.3107 57.1599H29.948V55.9709H29.4462V58.8314H29.948V57.627H31.3107V58.8314H31.8125V55.9709H31.3107V57.1599Z" fill="#A77E56"/>
<path d="M35.4688 55.9746H33.4769V56.3606C33.5183 57.0479 33.3939 57.7351 33.114 58.3641H32.8361V59.4489H33.2761L33.3263 58.839H35.3375V59.4489H35.7545L35.8239 58.3873H35.4688V55.9746ZM34.967 58.3834H33.6467C33.876 57.869 33.9869 57.3097 33.971 56.7467V56.4224H34.9785L34.967 58.3834Z" fill="#A77E56"/>
<path d="M37.3794 58.0594V55.9709H36.8853V58.8314H37.3601L38.8 56.7469V58.8314H39.2941V55.9709H38.827L37.3794 58.0594Z" fill="#A77E56"/>
<path d="M40.4445 56.438H41.3516V58.8314H41.8573V56.438H42.7645V55.9709H40.4445V56.438Z" fill="#A77E56"/>
<path d="M44.4089 57.6116H45.8411V57.1638H44.4089V56.4226H46.0264V55.9709H43.9071V58.8314H46.0457V58.3798H44.4089V57.6116Z" fill="#A77E56"/>
<path d="M48.3817 55.9746H47.2583V58.8351H47.7601V57.9048H48.3276C48.953 57.9048 49.4857 57.5689 49.4857 56.9281C49.4857 56.2873 49.0495 55.9746 48.3817 55.9746ZM48.3431 57.4608H47.7601V56.434H48.3431C48.7291 56.434 48.9568 56.6077 48.9568 56.9435C48.9568 57.2794 48.7214 57.457 48.3431 57.457V57.4608Z" fill="#A77E56"/>
<path d="M51.9402 58.4183C51.6812 58.4023 51.4381 58.2882 51.2604 58.0992C51.0827 57.9102 50.9837 57.6605 50.9837 57.4011C50.9837 57.1416 51.0827 56.892 51.2604 56.703C51.4381 56.514 51.6812 56.3998 51.9402 56.3839C52.0902 56.3873 52.2381 56.4204 52.3753 56.4814C52.5124 56.5424 52.6361 56.6299 52.7392 56.739L53.0635 56.353C52.9181 56.2052 52.7434 56.0893 52.5506 56.0129C52.3578 55.9364 52.1512 55.9011 51.944 55.9091C51.5652 55.9258 51.2073 56.0874 50.9443 56.3605C50.6813 56.6336 50.5333 56.9973 50.5308 57.3765C50.5283 57.7556 50.6716 58.1212 50.931 58.3977C51.1904 58.6742 51.5462 58.8405 51.9247 58.8622C52.1431 58.8687 52.3603 58.8268 52.5605 58.7393C52.7608 58.6519 52.9391 58.5211 53.0828 58.3565L52.7585 58.0284C52.6575 58.1476 52.5323 58.244 52.3912 58.3112C52.2501 58.3784 52.0964 58.4149 51.9402 58.4183Z" fill="#A77E56"/>
<path d="M56.7002 55.9709H56.0826L54.7238 57.4108V55.9709H54.2219V58.8314H54.7238V58.0015L55.1716 57.5421L56.1444 58.8314H56.7543L55.5151 57.2024L56.7002 55.9709Z" fill="#A77E56"/>
<path d="M58.291 58.0594V55.9709H57.7969V58.8314H58.2717L59.7116 56.7469V58.8314H60.2057V55.9709H59.7348L58.291 58.0594Z" fill="#A77E56"/>
<path d="M62.0503 58.0594V55.9709H61.5562V58.8314H62.031L63.4709 56.7469V58.8314H63.965V55.9709H63.4979L62.0503 58.0594Z" fill="#A77E56"/>
<path d="M63.4209 55.1756L63.116 55.1177C63.1013 55.1965 63.0595 55.2678 62.9978 55.3191C62.9361 55.3704 62.8584 55.3984 62.7782 55.3984C62.698 55.3984 62.6203 55.3704 62.5586 55.3191C62.4969 55.2678 62.4551 55.1965 62.4404 55.1177L62.1316 55.1756C62.1472 55.3353 62.2228 55.4831 62.3432 55.5891C62.4636 55.6952 62.6198 55.7516 62.7801 55.7469C62.9397 55.7514 63.0949 55.6948 63.2141 55.5886C63.3332 55.4824 63.4072 55.3346 63.4209 55.1756Z" fill="#A77E56"/>
<path d="M68.4505 57.0825H67.6552V56.4263H69.2881V55.9746H67.1688V58.8351H68.4389C69.0913 58.8351 69.5005 58.5224 69.5005 57.9511C69.5005 57.3798 69.099 57.0825 68.4505 57.0825ZM68.3153 58.3796H67.6552V57.5187H68.4041C68.7902 57.5187 68.987 57.6616 68.987 57.9395C68.987 58.2908 68.7477 58.3796 68.3269 58.3796H68.3153Z" fill="#A77E56"/>
<path d="M71.8554 57.6347L70.9675 55.9709H70.4039L71.5968 58.1366C71.5539 58.2222 71.4899 58.2954 71.4109 58.3495C71.3319 58.4035 71.2404 58.4365 71.1451 58.4454C71.0221 58.4482 70.9007 58.4175 70.7938 58.3566L70.6047 58.7427C70.7756 58.8382 70.9686 58.8875 71.1644 58.8855C71.3656 58.8812 71.5604 58.8147 71.7222 58.6951C71.884 58.5755 72.0047 58.4087 72.0677 58.2176L73.1834 55.9825H72.6391L71.8554 57.6347Z" fill="#A77E56"/>
<path d="M74.0681 56.438H74.9753V58.8314H75.481V56.438H76.3882V55.9709H74.0681V56.438Z" fill="#A77E56"/>
<path d="M78.0244 58.0594V55.9709H77.5303V58.8314H78.0051L79.445 56.7469V58.8314H79.9391V55.9709H79.4682L78.0244 58.0594Z" fill="#A77E56"/>
<path d="M83.7687 55.9709H83.1549L81.7922 57.4108V55.9709H81.2904V58.8314H81.7922V58.0015L82.24 57.5421L83.2128 58.8314H83.8228L82.5836 57.2024L83.7687 55.9709Z" fill="#A77E56"/>
</svg>
