<svg width="578" height="654" viewBox="0 0 578 654" fill="none" xmlns="http://www.w3.org/2000/svg">
<path opacity="0.5" fill-rule="evenodd" clip-rule="evenodd" d="M501.064 263.127C511.302 311.455 532.993 356.493 526.418 405.462C518.212 466.574 515.075 546.333 459.444 573.078C402.729 600.344 344.406 533.007 282.316 522.814C228.269 513.941 166.093 550.256 122.09 517.695C77.933 485.02 75.9416 420.278 69.9878 365.698C64.6855 317.09 71.9115 269.418 90.0521 223.991C108.45 177.918 135.469 136.816 173.923 105.424C217.328 69.9894 265.919 32.3381 321.909 34.7108C378.562 37.1117 430.513 73.2044 465.475 117.779C497.038 158.021 490.468 213.105 501.064 263.127Z" stroke="#A77E56"/>
</svg>
