<svg width="50" height="55" viewBox="0 0 50 55" fill="none" xmlns="http://www.w3.org/2000/svg">
<path d="M44.6638 3.73333C45.1797 3.73333 45.5971 3.31543 45.5971 2.8V0.933333C45.5971 0.4179 45.1797 0 44.6638 0C44.1479 0 43.7305 0.4179 43.7305 0.933333V2.8C43.7305 3.31543 44.1479 3.73333 44.6638 3.73333Z" fill="#A98056"/>
<path d="M44.6638 5.6001C44.1479 5.6001 43.7305 6.018 43.7305 6.53343V8.4001C43.7305 8.91553 44.1479 9.33343 44.6638 9.33343C45.1797 9.33343 45.5971 8.91553 45.5971 8.4001V6.53343C45.5971 6.018 45.1795 5.6001 44.6638 5.6001Z" fill="#A98056"/>
<path d="M40.9333 5.60006H42.8C43.3159 5.60006 43.7333 5.18216 43.7333 4.66673C43.7333 4.1513 43.3159 3.7334 42.8 3.7334H40.9333C40.4174 3.7334 40 4.1513 40 4.66673C40 5.18216 40.4174 5.60006 40.9333 5.60006Z" fill="#A98056"/>
<path d="M46.531 5.60006H48.3977C48.9136 5.60006 49.331 5.18216 49.331 4.66673C49.331 4.1513 48.9136 3.7334 48.3977 3.7334H46.531C46.0151 3.7334 45.5977 4.1513 45.5977 4.66673C45.5977 5.18216 46.0151 5.60006 46.531 5.60006Z" fill="#A98056"/>
<path d="M48.9977 20.9957C49.5489 20.9957 49.9955 20.5489 49.9955 19.9977C49.9955 19.4466 49.5486 19 48.9977 19C48.4468 19 48 19.4468 48 19.9977C48 20.5486 48.4468 20.9957 48.9977 20.9957Z" fill="#A98056"/>
<path d="M6.5 16.0167H4C3.44772 16.0167 3 16.4644 3 17.0167V19.0167M33.5 16.0167H35C35.5523 16.0167 36 16.4644 36 17.0167V19.0167" stroke="#A98056" stroke-width="1.6" stroke-linecap="round"/>
<path d="M38 27.5167V20.0167C38 19.4644 37.5523 19.0167 37 19.0167H2C1.44772 19.0167 1 19.4644 1 20.0167V42.0167C1 42.569 1.44771 43.0167 2 43.0167H37C37.5523 43.0167 38 42.569 38 42.0167V35.2667" stroke="#A98056" stroke-width="1.6"/>
<path d="M33.5 19.0167L34.2408 17.9125C34.5458 17.4578 34.4284 16.8424 33.9775 16.5318L22.4358 8.58261C21.9816 8.26983 21.36 8.3837 21.0462 8.83716L14.0023 19.0167" stroke="#A98056" stroke-width="1.6"/>
<path d="M6.17597 19.5167L6.74818 12.0138C6.79017 11.4631 7.27064 11.0508 7.82132 11.0928L19 11.9453" stroke="#A98056" stroke-width="1.6"/>
<path d="M17.9977 28.0124C18.5489 28.0124 18.9955 27.5656 18.9955 27.0145C18.9955 26.4633 18.5486 26.0167 17.9977 26.0167C17.4468 26.0167 17 26.4636 17 27.0145C17 27.5654 17.4468 28.0124 17.9977 28.0124Z" fill="#A98056"/>
<path d="M1 23.0167H38" stroke="#A77E56" stroke-width="1.6"/>
<path d="M1 39.0167H7.5M38 39.0167L11.5 39.0167" stroke="#A77E56" stroke-width="1.6" stroke-linecap="round"/>
<mask id="path-13-inside-1" fill="white">
<path d="M27 31.5167C27 29.0314 29.0147 27.0167 31.5 27.0167H39C39.5523 27.0167 40 27.4644 40 28.0167V35.0167C40 35.569 39.5523 36.0167 39 36.0167H31.5C29.0147 36.0167 27 34.002 27 31.5167Z"/>
</mask>
<path d="M27 31.5167C27 29.0314 29.0147 27.0167 31.5 27.0167H39C39.5523 27.0167 40 27.4644 40 28.0167V35.0167C40 35.569 39.5523 36.0167 39 36.0167H31.5C29.0147 36.0167 27 34.002 27 31.5167Z" stroke="#A98056" stroke-width="3.2" mask="url(#path-13-inside-1)"/>
<circle cx="31.5" cy="31.5167" r="2" stroke="#A98056"/>
</svg>
