<svg width="59" height="57" viewBox="0 0 59 57" fill="none" xmlns="http://www.w3.org/2000/svg">
<path d="M13.7541 40.7314C13.9138 41.1433 14.3773 41.3478 14.7892 41.188C15.2012 41.0283 15.4056 40.5649 15.2459 40.1529L13.7541 40.7314ZM44.0989 8.83353L43.3566 9.13176L43.3566 9.13176L44.0989 8.83353ZM9.15394 21.1219L41.8093 8.46027L41.2309 6.96848L8.57553 19.6301L9.15394 21.1219ZM15.2459 40.1529L8.46892 22.6745L6.97713 23.2529L13.7541 40.7314L15.2459 40.1529ZM43.3566 9.13176L48.0437 20.7983L49.5283 20.2018L44.8413 8.5353L43.3566 9.13176ZM41.8093 8.46027C42.4219 8.22273 43.1117 8.52206 43.3566 9.13176L44.8413 8.5353C44.2697 7.11266 42.6603 6.41423 41.2309 6.96848L41.8093 8.46027ZM8.57553 19.6301C7.13372 20.1891 6.41809 21.8111 6.97713 23.2529L8.46892 22.6745C8.22933 22.0566 8.53602 21.3615 9.15394 21.1219L8.57553 19.6301Z" fill="#A77E56"/>
<path d="M10.8285 28.1964L14.4982 26.5M45.9557 14.3842L29.998 20.5" stroke="#A77E56" stroke-width="1.6" stroke-linecap="round"/>
<path d="M15 28H51.5" stroke="#A77E56" stroke-width="1.7"/>
<rect x="14.8" y="20.8001" width="37.4" height="24.4" rx="1.2" stroke="#A77E56" stroke-width="1.6"/>
<path d="M19 33.0001H38M19 36.0001H38" stroke="#A98056" stroke-width="1.6" stroke-linecap="round" stroke-linejoin="round"/>
<path d="M19 39.0001H38" stroke="#A98056" stroke-width="1.6" stroke-linecap="round" stroke-linejoin="round"/>
<path d="M56.9307 1.97228H55.9446V0.986142C55.9446 0.441549 55.503 0 54.9584 0C54.4138 0 53.9723 0.441549 53.9723 0.986142V1.97228H52.9861C52.4415 1.97228 52 2.41383 52 2.95843C52 3.50302 52.4415 3.94457 52.9861 3.94457H53.9723V4.93071C53.9723 5.4753 54.4138 5.91685 54.9584 5.91685C55.503 5.91685 55.9446 5.4753 55.9446 4.93071V3.94457H56.9307C57.4753 3.94457 57.9168 3.50302 57.9168 2.95843C57.9168 2.41383 57.4753 1.97228 56.9307 1.97228Z" fill="#A98056"/>
<path d="M14.9307 52.9723H13.9446V51.9861C13.9446 51.4415 13.503 51 12.9584 51C12.4138 51 11.9723 51.4415 11.9723 51.9861V52.9723H10.9861C10.4415 52.9723 10 53.4138 10 53.9584C10 54.503 10.4415 54.9446 10.9861 54.9446H11.9723V55.9307C11.9723 56.4753 12.4138 56.9169 12.9584 56.9169C13.503 56.9169 13.9446 56.4753 13.9446 55.9307V54.9446H14.9307C15.4753 54.9446 15.9168 54.503 15.9168 53.9584C15.9168 53.4138 15.4753 52.9723 14.9307 52.9723Z" fill="#A98056"/>
<path d="M41.9977 2.9957C42.5489 2.9957 42.9955 2.54887 42.9955 1.99773C42.9955 1.4466 42.5486 1 41.9977 1C41.4468 1 41 1.44683 41 1.99773C41 2.54863 41.4468 2.9957 41.9977 2.9957Z" fill="#A98056"/>
<path d="M3.5 46.9998C3.5 47.8284 2.82853 48.5 2 48.5C1.17194 48.5 0.5 47.8279 0.5 46.9998C0.5 46.1718 1.17178 45.5 2 45.5C2.82829 45.5 3.5 46.1714 3.5 46.9998Z" stroke="#A77E56"/>
<path d="M57.9977 18.9957C58.5489 18.9957 58.9955 18.5489 58.9955 17.9977C58.9955 17.4466 58.5486 17 57.9977 17C57.4468 17 57 17.4468 57 17.9977C57 18.5486 57.4468 18.9957 57.9977 18.9957Z" fill="#A98056"/>
</svg>
