<svg width="20" height="21" viewBox="0 0 20 21" fill="none" xmlns="http://www.w3.org/2000/svg">
<path d="M19.7663 19.3135L14.7962 14.3434C16.1506 12.6869 16.8165 10.5733 16.6562 8.43958C16.4959 6.30589 15.5216 4.31544 13.9349 2.87995C12.3482 1.44445 10.2704 0.673735 8.13136 0.727218C5.99233 0.7807 3.95568 1.65429 2.44268 3.16729C0.929679 4.68029 0.0560909 6.71694 0.00260835 8.85597C-0.0508742 10.995 0.719841 13.0728 2.15534 14.6595C3.59083 16.2462 5.58128 17.2205 7.71497 17.3808C9.84866 17.5411 11.9623 16.8752 13.6188 15.5208L18.5889 20.4909C18.7459 20.6425 18.9563 20.7265 19.1746 20.7246C19.3929 20.7227 19.6017 20.6351 19.7561 20.4807C19.9105 20.3264 19.9981 20.1175 20 19.8992C20.0019 19.6809 19.9179 19.4705 19.7663 19.3135ZM8.35314 15.7389C7.03568 15.7389 5.74781 15.3483 4.65238 14.6163C3.55695 13.8844 2.70317 12.8441 2.199 11.6269C1.69483 10.4097 1.56292 9.07036 1.81994 7.77822C2.07697 6.48607 2.71138 5.29916 3.64297 4.36758C4.57455 3.43599 5.76146 2.80158 7.05361 2.54455C8.34575 2.28753 9.6851 2.41944 10.9023 2.92361C12.1194 3.42778 13.1598 4.28156 13.8917 5.37699C14.6237 6.47242 15.0143 7.76029 15.0143 9.07775C15.0124 10.8438 14.3099 12.537 13.0611 13.7857C11.8123 15.0345 10.1192 15.737 8.35314 15.7389Z" fill="#A98056"/>
</svg>
