<svg width="63" height="56" viewBox="0 0 63 56" fill="none" xmlns="http://www.w3.org/2000/svg">
<path d="M26.7776 40.7851L26.7855 40.7877L27.4597 38.802L27.4516 38.7995L27.449 38.7986C23.0197 37.3756 19.1944 36.1466 16.3502 34.6518C13.407 33.1052 11.669 31.3711 10.7154 29.0292C9.81148 26.8097 9.74295 24.469 10.5221 22.4382C11.29 20.4375 12.8313 18.8803 14.8626 18.0531C16.3504 17.4472 17.906 17.3561 19.4859 17.7822C20.8942 18.1622 22.0641 18.8912 22.7975 19.4359C23.1748 19.716 23.6626 19.7762 24.1027 19.597C24.5428 19.4178 24.8498 19.0339 24.9241 18.57C25.0685 17.6677 25.3963 16.3288 26.1383 15.0732C26.971 13.6646 28.1477 12.643 29.6357 12.037C31.6668 11.2099 33.8577 11.2472 35.8046 12.1424C37.7808 13.0511 39.367 14.7738 40.2708 16.9933C41.2245 19.3352 41.1925 21.7901 40.1674 24.9528L42.1781 25.5683C43.3487 21.9578 43.3656 18.9794 42.2316 16.1949C41.1299 13.4895 39.1706 11.3776 36.714 10.248C34.2283 9.10521 31.4356 9.05556 28.8503 10.1083C26.9179 10.8953 25.3929 12.2168 24.3176 14.0361C23.7748 14.9544 23.3605 15.9765 23.0802 17.0861C22.1047 16.4879 21.094 16.0461 20.0643 15.7682C18.024 15.2176 16.0096 15.3375 14.0772 16.1244C11.4917 17.1773 9.5284 19.1637 8.54823 21.718C7.57969 24.2423 7.65286 27.1223 8.75457 29.8277C9.88851 32.6122 11.9816 34.7314 15.3416 36.4972C18.3472 38.0767 22.2538 39.3318 26.7776 40.7851Z" fill="#A98056"/>
<path d="M36.1265 51.7031C35.6212 51.6057 35.1688 51.3317 34.8522 50.9314C33.6561 49.4219 32.4972 47.9966 31.4747 46.7393L31.4695 46.7327C28.4716 43.0463 25.8829 39.8628 24.2261 36.8991C22.374 33.5858 21.7765 30.6678 22.3458 27.7156C22.8989 24.8474 24.4091 22.3941 26.5982 20.8072C28.8135 19.2016 31.5426 18.6084 34.2838 19.137C36.3326 19.532 38.086 20.5309 39.4953 22.1055C40.2065 22.9004 40.8124 23.8221 41.3034 24.8557C42.1438 24.0789 43.0487 23.4484 44.0047 22.9751C45.8985 22.0373 47.8976 21.7621 49.9464 22.1571C52.6873 22.6857 55.0005 24.2512 56.4599 26.5654C57.902 28.8524 58.3915 31.6914 57.8384 34.5596C57.2692 37.5118 55.6297 39.9985 52.6786 42.3853C50.0385 44.5207 46.452 46.5132 42.2989 48.8204C40.8797 49.6086 39.2714 50.5022 37.596 51.4611C37.1536 51.7144 36.6315 51.8005 36.1265 51.7031ZM33.8895 21.1818C31.7359 20.7665 29.5946 21.2303 27.8593 22.4878C26.0982 23.7644 24.8784 25.7633 24.4246 28.1165C23.9458 30.5994 24.4559 33.0009 26.0783 35.903C27.6463 38.7082 30.1819 41.8263 33.1178 45.4366L33.1233 45.4432C34.1496 46.7054 35.3131 48.1363 36.518 49.6569C38.211 48.6926 39.8256 47.7955 41.2505 47.0043C45.318 44.7444 48.8308 42.7932 51.3295 40.7722C53.9143 38.6813 55.2808 36.6417 55.7596 34.1588C56.2133 31.8056 55.8242 29.4964 54.664 27.6565C53.5211 25.844 51.7054 24.6172 49.5521 24.202C47.9745 23.8977 46.431 24.1117 44.9645 24.8377C43.6575 25.485 42.6522 26.4281 42.0388 27.1053C41.7234 27.4536 41.2567 27.6078 40.7901 27.5178C40.3235 27.4278 39.9476 27.1112 39.7843 26.6706C39.4669 25.8139 38.8844 24.5646 37.9116 23.4777C36.8202 22.2584 35.4668 21.4859 33.8895 21.1818Z" fill="#A98056"/>
<path d="M50.8631 4.15057C51.4366 4.15057 51.9007 3.68597 51.9007 3.11293V1.03764C51.9007 0.464605 51.4366 0 50.8631 0C50.2895 0 49.8254 0.464605 49.8254 1.03764V3.11293C49.8254 3.68597 50.2895 4.15057 50.8631 4.15057Z" fill="#A98056"/>
<path d="M51.9007 9.33882V7.26353C51.9007 6.6905 51.4366 6.22589 50.8631 6.22589C50.2895 6.22589 49.8254 6.6905 49.8254 7.26353V9.33882C49.8254 9.91186 50.2895 10.3765 50.8631 10.3765C51.4366 10.3765 51.9007 9.91186 51.9007 9.33882Z" fill="#A98056"/>
<path d="M49.8256 5.18822C49.8256 4.61518 49.3615 4.15057 48.788 4.15057H46.7127C46.1391 4.15057 45.675 4.61518 45.675 5.18822C45.675 5.76126 46.1391 6.22586 46.7127 6.22586H48.788C49.3615 6.22586 49.8256 5.76126 49.8256 5.18822Z" fill="#A98056"/>
<path d="M52.9383 6.22586H55.0136C55.5871 6.22586 56.0512 5.76126 56.0512 5.18822C56.0512 4.61518 55.5871 4.15057 55.0136 4.15057H52.9383C52.3647 4.15057 51.9006 4.61518 51.9006 5.18822C51.9006 5.76126 52.3647 6.22586 52.9383 6.22586Z" fill="#A98056"/>
<path d="M5.18803 45.1005C5.76159 45.1005 6.22568 44.6359 6.22568 44.0629V41.9876C6.22568 41.4146 5.76159 40.95 5.18803 40.95C4.61448 40.95 4.15039 41.4146 4.15039 41.9876V44.0629C4.15039 44.6359 4.61448 45.1005 5.18803 45.1005Z" fill="#A98056"/>
<path d="M6.22568 50.2888V48.2135C6.22568 47.6404 5.76159 47.1758 5.18803 47.1758C4.61448 47.1758 4.15039 47.6404 4.15039 48.2135V50.2888C4.15039 50.8618 4.61448 51.3264 5.18803 51.3264C5.76159 51.3264 6.22568 50.8618 6.22568 50.2888Z" fill="#A98056"/>
<path d="M4.15057 46.1381C4.15057 45.5651 3.68649 45.1005 3.11293 45.1005H1.03764C0.464086 45.1005 0 45.5651 0 46.1381C0 46.7111 0.464086 47.1758 1.03764 47.1758H3.11293C3.68649 47.1758 4.15057 46.7111 4.15057 46.1381Z" fill="#A98056"/>
<path d="M7.26347 47.1758H9.33876C9.91232 47.1758 10.3764 46.7111 10.3764 46.1381C10.3764 45.5651 9.91232 45.1005 9.33876 45.1005H7.26347C6.68992 45.1005 6.22583 45.5651 6.22583 46.1381C6.22583 46.7111 6.68992 47.1758 7.26347 47.1758Z" fill="#A98056"/>
<path d="M5.84336 33.526C5.69263 33.3842 5.51575 33.2717 5.32349 33.1946C4.94051 33.0351 4.50984 33.0351 4.12609 33.1946C3.73081 33.338 3.41935 33.6508 3.27631 34.0469C3.02483 34.6341 3.15557 35.3152 3.60622 35.7676C4.05765 36.2191 4.73748 36.3501 5.32349 36.0989C5.51421 36.018 5.68955 35.9063 5.84336 35.7676C6.29401 35.3152 6.42475 34.6341 6.17404 34.0469C6.09791 33.8542 5.98563 33.677 5.84336 33.526Z" fill="#A98056"/>
<path d="M18.4435 44.5509C18.2927 44.4092 18.1158 44.2967 17.9236 44.2196C17.5406 44.0601 17.1099 44.0601 16.7262 44.2196C16.3309 44.3629 16.0194 44.6758 15.8764 45.0719C15.6249 45.659 15.7557 46.3402 16.2063 46.7925C16.6577 47.2441 17.3376 47.3751 17.9236 47.1239C18.1143 47.043 18.2896 46.9312 18.4435 46.7925C18.8941 46.3402 19.0248 45.659 18.7741 45.0719C18.698 44.8792 18.5857 44.702 18.4435 44.5509Z" fill="#A98056"/>
<path d="M61.4251 11.0249C61.8442 11.0295 62.2472 10.8651 62.5432 10.5694C62.8393 10.2729 63.0039 9.87041 63 9.45178C62.9939 9.03545 62.8309 8.63679 62.5432 8.33492C62.4656 8.26425 62.381 8.20049 62.291 8.14673C62.2103 8.08451 62.1203 8.03612 62.0234 8.00462C61.9288 7.957 61.8273 7.92474 61.7227 7.91014C61.5212 7.86329 61.3113 7.86329 61.1098 7.91014C61.0114 7.92781 60.916 7.9593 60.8261 8.00462C60.7253 8.03919 60.63 8.08681 60.5415 8.14673C60.46 8.2051 60.3816 8.26809 60.307 8.33492C60.0186 8.63602 59.8548 9.03545 59.8502 9.45178C59.8456 9.87041 60.0101 10.2729 60.3062 10.5694C60.603 10.8651 61.006 11.0295 61.4251 11.0249Z" fill="#A98056"/>
<path d="M55.5819 18.4358C56.0325 18.8881 56.7131 19.0246 57.3037 18.78C57.8951 18.5355 58.2788 17.9582 58.275 17.3203C58.2688 16.9048 58.1058 16.5069 57.8182 16.2056C57.739 16.1427 57.6605 16.0806 57.5659 16.0177C57.4852 15.9556 57.3952 15.9073 57.2983 15.8759C57.2037 15.8284 57.1022 15.7962 56.9976 15.7816C56.6962 15.718 56.3824 15.7509 56.101 15.8759C55.9087 15.9518 55.7318 16.0637 55.5819 16.2056C55.2935 16.5061 55.1297 16.9048 55.1251 17.3203C55.1205 17.7381 55.285 18.1399 55.5819 18.4358Z" fill="#A98056"/>
</svg>
