<svg width="41" height="47" viewBox="0 0 41 47" fill="none" xmlns="http://www.w3.org/2000/svg">
<path d="M26.5565 2.45557C26.8956 2.45557 27.1704 2.18069 27.1704 1.84166V0.613846C27.1704 0.274816 26.8956 -6.10352e-05 26.5565 -6.10352e-05C26.2175 -6.10352e-05 25.9426 0.274816 25.9426 0.613846V1.84166C25.9426 2.18069 26.2175 2.45557 26.5565 2.45557Z" fill="#A98056"/>
<path d="M26.5565 3.68347C26.2175 3.68347 25.9426 3.95835 25.9426 4.29738V5.52519C25.9426 5.86422 26.2175 6.1391 26.5565 6.1391C26.8956 6.1391 27.1704 5.86422 27.1704 5.52519V4.29738C27.1704 3.95835 26.8956 3.68347 26.5565 3.68347Z" fill="#A98056"/>
<path d="M24.1007 3.68338H25.3285C25.6676 3.68338 25.9424 3.4085 25.9424 3.06947C25.9424 2.73044 25.6676 2.45557 25.3285 2.45557H24.1007C23.7617 2.45557 23.4868 2.73044 23.4868 3.06947C23.4868 3.4085 23.7617 3.68338 24.1007 3.68338Z" fill="#A98056"/>
<path d="M27.7848 3.68356H29.0126C29.3517 3.68356 29.6265 3.40869 29.6265 3.06966C29.6265 2.73063 29.3517 2.45575 29.0126 2.45575H27.7848C27.4458 2.45575 27.1709 2.73063 27.1709 3.06966C27.1709 3.40869 27.4458 3.68356 27.7848 3.68356V3.68356Z" fill="#A98056"/>
<path d="M30.3931 9.20874C29.9693 9.20874 29.6257 9.55235 29.6257 9.97612C29.6257 10.3999 29.9693 10.7435 30.3931 10.7435C30.8169 10.7435 31.1605 10.3999 31.1605 9.97612C31.1605 9.55235 30.8169 9.20874 30.3931 9.20874Z" fill="#A98056"/>
<path d="M2 39.2967C4.30215 39.9255 6.70337 40.6012 9.67384 39.9986M28.8585 29.4593C24.9878 35.4802 16.623 38.5888 9.67384 39.9986M9.67384 39.9986C19.6498 51.5748 34.9975 41.4385 38.0671 31.6228C40.1662 24.9103 38.0671 13.662 38.0671 12.5768C38.0671 10.9034 39.8791 16.9037 22.7194 20.8792M9.67384 39.9986C9.23483 38.5293 9.04295 36.411 9.52651 34.0637M22.7194 20.8792C13.5247 23.0093 10.4517 29.5727 9.52651 34.0637M22.7194 20.8792C23.9472 17.1956 16.5803 3.99684 16.5803 6.43784C15.8129 10.1358 14.3662 12.9027 11.2086 14.7401C3.53477 19.2054 1.23262 30.0878 9.52651 34.0637" stroke="#A98056" stroke-width="2.30215" stroke-linecap="round"/>
</svg>
