<svg width="56" height="54" viewBox="0 0 56 54" fill="none" xmlns="http://www.w3.org/2000/svg">
<path d="M2.94956 24.4163C2.94956 23.8652 2.50273 23.4183 1.95159 23.4183C1.40046 23.4183 0.953857 23.8652 0.953857 24.4163C0.953857 24.9674 1.40069 25.414 1.95159 25.414C2.50249 25.414 2.94956 24.9674 2.94956 24.4163Z" fill="#A98056"/>
<path d="M5.45042 4.60003C5.96586 4.60003 6.38375 4.18213 6.38375 3.6667V1.80003C6.38375 1.2846 5.96586 0.866699 5.45042 0.866699C4.93499 0.866699 4.51709 1.2846 4.51709 1.80003V3.6667C4.51709 4.18213 4.93499 4.60003 5.45042 4.60003Z" fill="#A98056"/>
<path d="M5.45042 6.46667C4.93499 6.46667 4.51709 6.88457 4.51709 7.40001V9.26667C4.51709 9.78211 4.93499 10.2 5.45042 10.2C5.96586 10.2 6.38375 9.78211 6.38375 9.26667V7.40001C6.38375 6.88457 5.96586 6.46667 5.45042 6.46667Z" fill="#A98056"/>
<path d="M1.71702 6.46664H3.58369C4.09912 6.46664 4.51702 6.04874 4.51702 5.53331C4.51702 5.01788 4.09912 4.59998 3.58369 4.59998H1.71702C1.20159 4.59998 0.783691 5.01788 0.783691 5.53331C0.783691 6.04874 1.20159 6.46664 1.71702 6.46664Z" fill="#A98056"/>
<path d="M7.31712 6.46664H9.18379C9.69922 6.46664 10.1171 6.04874 10.1171 5.53331C10.1171 5.01788 9.69922 4.59998 9.18379 4.59998H7.31712C6.80169 4.59998 6.38379 5.01788 6.38379 5.53331C6.38379 6.04874 6.80169 6.46664 7.31712 6.46664Z" fill="#A98056"/>
<path d="M48.8504 19.5333C50.6515 19.5333 52.1171 18.0678 52.1171 16.2667C52.1171 14.4656 50.6515 13 48.8504 13C47.0493 13 45.5837 14.4656 45.5837 16.2667C45.5837 18.0678 47.0493 19.5333 48.8504 19.5333ZM48.8504 14.8667C49.6225 14.8667 50.2504 15.4946 50.2504 16.2667C50.2504 17.0388 49.6225 17.6667 48.8504 17.6667C48.0783 17.6667 47.4504 17.0388 47.4504 16.2667C47.4504 15.4946 48.0783 14.8667 48.8504 14.8667Z" fill="#A98056"/>
<path d="M54.2182 29.9519C53.6671 29.9519 53.2205 30.3987 53.2205 30.9499C53.2205 31.501 53.6673 31.9476 54.2182 31.9476C54.7691 31.9476 55.2162 31.5008 55.2162 30.9499C55.2162 30.399 54.7693 29.9519 54.2182 29.9519Z" fill="#A98056"/>
<path d="M52.2155 47.5334H47.4504V29.2085C47.4504 26.9613 45.6225 25.1334 43.3752 25.1334H34.0741C34.8742 24.6777 35.6288 24.0817 36.2271 23.2973C38.6638 20.1043 37.4367 15.2431 37.3832 15.0377C37.2747 14.6222 36.8778 14.3387 36.4681 14.3396C36.2558 14.3424 31.2431 14.4425 28.8068 17.6364C28.6734 17.8114 28.5553 17.9929 28.4431 18.1768C26.2056 15.9043 22.4032 15.8262 22.231 15.8241C21.7667 15.8098 21.4235 16.1066 21.3159 16.5227C21.2695 16.7014 20.2034 20.9287 22.3304 23.7163C22.777 24.3018 23.3242 24.7621 23.9082 25.1336H12.3256C10.0783 25.1336 8.25039 26.9615 8.25039 29.2088V47.5334H3.58372C3.06829 47.5334 2.65039 47.9513 2.65039 48.4667V48.69C2.65039 51.14 4.64376 53.1334 7.09376 53.1334H48.7055C51.1555 53.1334 53.1489 51.14 53.1489 48.69V48.4667C53.1489 47.9513 52.731 47.5334 52.2155 47.5334ZM45.5837 32.6V41H10.1171V32.6H45.5837ZM35.7249 16.2648C35.9328 17.5822 36.1442 20.329 34.7433 22.1651C33.3482 23.9931 30.6366 24.5185 29.3092 24.6686C29.1013 23.3512 28.8899 20.6044 30.2908 18.7683C31.6859 16.9403 34.3975 16.4149 35.7249 16.2648ZM22.981 17.7551C24.1371 17.8996 26.2959 18.3627 27.4185 19.8337C27.4941 19.9326 27.5571 20.0376 27.6213 20.1419C27.1961 21.7594 27.2638 23.4053 27.4036 24.5216C26.2294 24.2773 24.6999 23.7443 23.8147 22.584C22.6921 21.1126 22.8155 18.908 22.981 17.7551ZM12.3256 27H43.3752C44.593 27 45.5837 27.9908 45.5837 29.2085V30.7334H10.1171V29.2085C10.1171 27.9908 11.1078 27 12.3256 27ZM10.1171 42.8667H45.5837V47.5334H10.1171V42.8667ZM48.7055 51.2667H7.09376C5.91939 51.2667 4.92539 50.4764 4.61646 49.4H51.1828C50.8739 50.4764 49.8799 51.2667 48.7055 51.2667Z" fill="#A98056"/>
<path d="M42.7555 36.5313C43.2866 36.5313 43.7171 36.1008 43.7171 35.5697C43.7171 35.0387 43.2866 34.6082 42.7555 34.6082C42.2244 34.6082 41.7939 35.0387 41.7939 35.5697C41.7939 36.1008 42.2244 36.5313 42.7555 36.5313Z" fill="#A98056"/>
<path d="M38.9091 39.4162C39.4401 39.4162 39.8706 38.9857 39.8706 38.4546C39.8706 37.9235 39.4401 37.493 38.9091 37.493C38.378 37.493 37.9475 37.9235 37.9475 38.4546C37.9475 38.9857 38.378 39.4162 38.9091 39.4162Z" fill="#A98056"/>
<path d="M31.216 39.4162C31.747 39.4162 32.1775 38.9857 32.1775 38.4546C32.1775 37.9235 31.747 37.493 31.216 37.493C30.6849 37.493 30.2544 37.9235 30.2544 38.4546C30.2544 38.9857 30.6849 39.4162 31.216 39.4162Z" fill="#A98056"/>
<path d="M23.5231 39.4162C24.0542 39.4162 24.4847 38.9857 24.4847 38.4546C24.4847 37.9235 24.0542 37.493 23.5231 37.493C22.992 37.493 22.5615 37.9235 22.5615 38.4546C22.5615 38.9857 22.9918 39.4162 23.5231 39.4162Z" fill="#A98056"/>
<path d="M15.8302 39.4162C16.3613 39.4162 16.7918 38.9857 16.7918 38.4546C16.7918 37.9235 16.3613 37.493 15.8302 37.493C15.2992 37.493 14.8687 37.9235 14.8687 38.4546C14.8687 38.9857 15.2992 39.4162 15.8302 39.4162Z" fill="#A98056"/>
<path d="M35.0624 36.5313C35.5935 36.5313 36.024 36.1008 36.024 35.5697C36.024 35.0387 35.5935 34.6082 35.0624 34.6082C34.5313 34.6082 34.1008 35.0387 34.1008 35.5697C34.1008 36.1008 34.5313 36.5313 35.0624 36.5313Z" fill="#A98056"/>
<path d="M27.3695 36.5313C27.9006 36.5313 28.3311 36.1008 28.3311 35.5697C28.3311 35.0387 27.9006 34.6082 27.3695 34.6082C26.8385 34.6082 26.408 35.0387 26.408 35.5697C26.408 36.1008 26.8385 36.5313 27.3695 36.5313Z" fill="#A98056"/>
<path d="M19.6767 36.5313C20.2077 36.5313 20.6382 36.1008 20.6382 35.5697C20.6382 35.0387 20.2077 34.6082 19.6767 34.6082C19.1456 34.6082 18.7151 35.0387 18.7151 35.5697C18.7149 36.1008 19.1456 36.5313 19.6767 36.5313Z" fill="#A98056"/>
<path d="M12.9452 36.5313C13.4763 36.5313 13.9068 36.1008 13.9068 35.5697C13.9068 35.0387 13.4763 34.6082 12.9452 34.6082C12.4141 34.6082 11.9836 35.0387 11.9836 35.5697C11.9836 36.1008 12.4141 36.5313 12.9452 36.5313Z" fill="#A98056"/>
</svg>
