<svg width="61" height="64" viewBox="0 0 61 64" fill="none" xmlns="http://www.w3.org/2000/svg">
<path d="M24.3201 62.0001C19.51 62.0001 14.8079 60.5737 10.8085 57.9014C6.80903 55.229 3.69186 51.4306 1.85116 46.9866C0.0104609 42.5426 -0.471091 37.6526 0.467399 32.9349C1.40589 28.2173 3.72227 23.8838 7.12361 20.4827C10.525 17.0815 14.8585 14.7653 19.5762 13.827C24.2939 12.8888 29.1839 13.3706 33.6278 15.2115C38.0717 17.0524 41.8699 20.1697 44.5421 24.1693C47.2143 28.1689 48.6405 32.871 48.6402 37.6811C48.6329 44.1289 46.0683 50.3105 41.5089 54.8696C36.9496 59.4287 30.7679 61.9931 24.3201 62.0001ZM24.3201 15.0829C19.8506 15.0829 15.4815 16.4083 11.7652 18.8914C8.04897 21.3745 5.1525 24.9039 3.4421 29.0332C1.73169 33.1625 1.28417 37.7062 2.15613 42.0898C3.02809 46.4735 5.18036 50.5001 8.34077 53.6605C11.5012 56.8209 15.5278 58.9732 19.9114 59.8451C24.2951 60.7171 28.8388 60.2696 32.9681 58.5592C37.0974 56.8488 40.6267 53.9523 43.1098 50.236C45.593 46.5198 46.9183 42.1506 46.9183 37.6811C46.9114 31.6899 44.5282 25.946 40.2918 21.7095C36.0553 17.473 30.3114 15.0899 24.3201 15.0829Z" fill="#A77E56"/>
<path d="M24.3197 53.9642C21.099 53.9642 17.9505 53.0091 15.2725 51.2198C12.5945 49.4304 10.5073 46.8871 9.27475 43.9115C8.04221 40.9358 7.71972 37.6616 8.34807 34.5027C8.97641 31.3438 10.5274 28.4421 12.8048 26.1647C15.0822 23.8872 17.9839 22.3363 21.1428 21.7079C24.3017 21.0796 27.576 21.4021 30.5516 22.6346C33.5272 23.8672 36.0705 25.9544 37.8599 28.6324C39.6493 31.3104 40.6043 34.4588 40.6043 37.6796C40.6001 41.9973 38.883 46.1368 35.83 49.1899C32.777 52.2429 28.6374 53.9599 24.3197 53.9642ZM24.3197 23.1181C21.4395 23.1181 18.6239 23.9722 16.229 25.5724C13.8342 27.1726 11.9677 29.4471 10.8655 32.1081C9.76329 34.7692 9.47497 37.6973 10.037 40.5222C10.599 43.3471 11.986 45.942 14.0228 47.9785C16.0595 50.0151 18.6545 51.402 21.4794 51.9638C24.3044 52.5255 27.2325 52.237 29.8934 51.1346C32.5544 50.0322 34.8287 48.1655 36.4287 45.7705C38.0288 43.3756 38.8827 40.5599 38.8824 37.6796C38.8779 33.8189 37.3421 30.1175 34.612 27.3877C31.8819 24.6578 28.1805 23.1223 24.3197 23.1181Z" fill="#A77E56"/>
<path d="M24.3194 45.9288C22.6879 45.9288 21.093 45.445 19.7364 44.5386C18.3799 43.6321 17.3226 42.3438 16.6982 40.8365C16.0739 39.3292 15.9105 37.6706 16.2288 36.0704C16.5471 34.4703 17.3328 33.0004 18.4864 31.8468C19.6401 30.6931 21.1099 29.9075 22.7101 29.5892C24.3102 29.2709 25.9688 29.4342 27.4761 30.0586C28.9835 30.6829 30.2718 31.7402 31.1782 33.0968C32.0846 34.4533 32.5684 36.0482 32.5684 37.6797C32.566 39.8668 31.6961 41.9635 30.1496 43.51C28.6032 45.0565 26.5064 45.9263 24.3194 45.9288ZM24.3194 31.1537C23.0284 31.1537 21.7664 31.5366 20.693 32.2538C19.6195 32.9711 18.7829 33.9906 18.289 35.1833C17.795 36.376 17.6658 37.6885 17.9177 38.9547C18.1697 40.2209 18.7914 41.3839 19.7044 42.2967C20.6173 43.2095 21.7805 43.831 23.0467 44.0827C24.3129 44.3345 25.6253 44.205 26.818 43.7108C28.0107 43.2166 29.03 42.3799 29.747 41.3063C30.4641 40.2328 30.8467 38.9707 30.8465 37.6797C30.8447 35.9493 30.1564 34.2903 28.9327 33.0667C27.709 31.8432 26.0498 31.1552 24.3194 31.1537Z" fill="#A77E56"/>
<path d="M51.2684 11.6008C51.0982 11.6007 50.9319 11.5501 50.7905 11.4555C50.649 11.3609 50.5388 11.2265 50.4737 11.0693C50.4086 10.912 50.3915 10.739 50.4247 10.5721C50.4579 10.4052 50.5397 10.2519 50.66 10.1315L54.2645 6.52582C54.427 6.36907 54.6445 6.28239 54.8702 6.28446C55.096 6.28653 55.3118 6.37717 55.4714 6.53688C55.631 6.69658 55.7214 6.91256 55.7233 7.1383C55.7251 7.36404 55.6382 7.58148 55.4813 7.74378L51.8768 11.3494C51.797 11.4294 51.7021 11.4927 51.5977 11.5358C51.4933 11.579 51.3814 11.6011 51.2684 11.6008Z" fill="#A77E56"/>
<path d="M24.3231 38.5428C24.1529 38.5427 23.9866 38.4921 23.8452 38.3975C23.7037 38.3029 23.5935 38.1685 23.5284 38.0113C23.4633 37.854 23.4462 37.681 23.4794 37.5141C23.5125 37.3472 23.5944 37.1939 23.7147 37.0735L45.0433 15.7472C45.2065 15.5951 45.4223 15.5123 45.6454 15.5162C45.8684 15.5202 46.0812 15.6105 46.239 15.7683C46.3967 15.926 46.4871 16.1388 46.491 16.3619C46.4949 16.5849 46.4122 16.8008 46.2601 16.964L24.9315 38.2903C24.8518 38.3706 24.7571 38.4342 24.6526 38.4776C24.5482 38.5209 24.4362 38.5431 24.3231 38.5428Z" fill="#A77E56"/>
<path d="M49.4984 17.7769C49.4569 17.7767 49.4154 17.7736 49.3744 17.7677L45.5414 17.2075C45.3551 17.1838 45.1814 17.1006 45.0462 16.9703C44.9109 16.84 44.8213 16.6696 44.7907 16.4843L44.1938 12.6043C44.173 12.4707 44.1841 12.3341 44.2262 12.2056C44.2683 12.0771 44.3402 11.9604 44.436 11.865L50.0494 6.25161C50.1619 6.13931 50.3033 6.06035 50.4579 6.02348C50.6125 5.98661 50.7743 5.99327 50.9254 6.04271C51.0765 6.09216 51.2109 6.18246 51.3138 6.30362C51.4167 6.42478 51.4841 6.57206 51.5084 6.72915L52.0089 9.98009L55.2392 10.4622C55.3968 10.4864 55.5446 10.5537 55.6663 10.6567C55.7879 10.7597 55.8787 10.8944 55.9285 11.0458C55.9783 11.1973 55.9852 11.3596 55.9485 11.5147C55.9117 11.6698 55.8327 11.8117 55.7201 11.9247L50.1068 17.5255C49.9452 17.6864 49.7264 17.7768 49.4984 17.7769ZM46.3989 15.5958L49.1999 16.0044L53.2957 11.9167L51.1548 11.5964C50.9693 11.5727 50.7963 11.4897 50.6617 11.3598C50.527 11.2299 50.4379 11.0601 50.4075 10.8755L50.0631 8.67489L45.9616 12.7742L46.3989 15.5958Z" fill="#A77E56"/>
<path d="M6.20657 10.9624C6.52277 10.5109 6.41314 9.88861 5.96173 9.57241C5.51032 9.25622 4.88818 9.36598 4.57198 9.81739C4.25579 10.2688 4.36555 10.8909 4.81677 11.207C5.26798 11.5231 5.89038 11.4138 6.20657 10.9624Z" fill="#A98056"/>
<path d="M55.0648 48.5754C56.2032 49.3727 57.7783 49.0953 58.5756 47.9569C59.373 46.8186 59.0955 45.2435 57.9572 44.4462C56.8188 43.6488 55.2438 43.9263 54.4464 45.0646C53.6491 46.2029 53.9265 47.778 55.0648 48.5754ZM57.1308 45.6259C57.6188 45.9678 57.7377 46.6426 57.3958 47.1306C57.054 47.6185 56.3792 47.7374 55.8912 47.3956C55.4032 47.0538 55.2844 46.379 55.6262 45.891C55.968 45.403 56.6428 45.2841 57.1308 45.6259Z" fill="#A98056"/>
<path d="M47.7475 54.0167C48.1592 54.3051 48.7289 54.2047 49.0174 53.793C49.3058 53.3812 49.2054 52.8115 48.7937 52.5231C48.3819 52.2347 47.8122 52.335 47.5238 52.7468C47.2354 53.1585 47.3357 53.7283 47.7475 54.0167ZM48.4948 52.9498C48.6713 53.0735 48.7143 53.3176 48.5906 53.4941C48.467 53.6706 48.2229 53.7136 48.0464 53.5899C47.8699 53.4663 47.8269 53.2222 47.9505 53.0457C48.0742 52.8692 48.3182 52.8262 48.4948 52.9498Z" fill="#A98056"/>
<path d="M21.0004 2.4C21.3317 2.4 21.6004 2.13135 21.6004 1.8V0.600001C21.6004 0.26865 21.3317 0 21.0004 0C20.669 0 20.4004 0.26865 20.4004 0.600001V1.8C20.4004 2.13135 20.669 2.4 21.0004 2.4Z" fill="#A98056"/>
<path d="M21.0004 3.6001C20.669 3.6001 20.4004 3.86875 20.4004 4.2001V5.4001C20.4004 5.73145 20.669 6.0001 21.0004 6.0001C21.3317 6.0001 21.6004 5.73145 21.6004 5.4001V4.2001C21.6004 3.86875 21.3317 3.6001 21.0004 3.6001Z" fill="#A98056"/>
<path d="M18.6 3.5999H19.8C20.1314 3.5999 20.4 3.33125 20.4 2.9999C20.4 2.66855 20.1314 2.3999 19.8 2.3999H18.6C18.2687 2.3999 18 2.66855 18 2.9999C18 3.33125 18.2687 3.5999 18.6 3.5999Z" fill="#A98056"/>
<path d="M22.1996 3.5999H23.3996C23.731 3.5999 23.9996 3.33125 23.9996 2.9999C23.9996 2.66855 23.731 2.3999 23.3996 2.3999H22.1996C21.8683 2.3999 21.5996 2.66855 21.5996 2.9999C21.5996 3.33125 21.8683 3.5999 22.1996 3.5999Z" fill="#A98056"/>
<path d="M52.9992 59.2C53.441 59.2 53.7992 58.8418 53.7992 58.4V56.8C53.7992 56.3582 53.441 56 52.9992 56C52.5574 56 52.1992 56.3582 52.1992 56.8V58.4C52.1992 58.8418 52.5574 59.2 52.9992 59.2Z" fill="#A98056"/>
<path d="M52.9992 60.8C52.5574 60.8 52.1992 61.1583 52.1992 61.6001V63.2001C52.1992 63.6419 52.5574 64.0001 52.9992 64.0001C53.441 64.0001 53.7992 63.6419 53.7992 63.2001V61.6001C53.7992 61.1583 53.441 60.8 52.9992 60.8Z" fill="#A98056"/>
<path d="M49.8 60.8H51.4C51.8418 60.8 52.2 60.4418 52.2 60C52.2 59.5582 51.8418 59.2 51.4 59.2H49.8C49.3582 59.2 49 59.5582 49 60C49 60.4418 49.3582 60.8 49.8 60.8Z" fill="#A98056"/>
<path d="M54.6008 60.8H56.2008C56.6426 60.8 57.0008 60.4418 57.0008 60C57.0008 59.5582 56.6426 59.2 56.2008 59.2H54.6008C54.159 59.2 53.8008 59.5582 53.8008 60C53.8008 60.4418 54.159 60.8 54.6008 60.8Z" fill="#A98056"/>
</svg>
