<svg width="62" height="56" viewBox="0 0 62 56" fill="none" xmlns="http://www.w3.org/2000/svg">
<path d="M23.9707 9.35486H43.2261M23.9707 9.35486L7.67773 19.5271M23.9707 9.35486L33.5984 19.5271M43.2261 9.35486L61.0003 19.5271M43.2261 9.35486L33.5984 19.5271M61.0003 19.5271L33.5984 54.4032M61.0003 19.5271H49.8914M7.67773 19.5271L33.5984 54.4032M7.67773 19.5271H17.3054M33.5984 19.5271V54.4032M33.5984 19.5271H49.8914M33.5984 19.5271H17.3054M33.5984 54.4032L49.8914 19.5271M33.5984 54.4032L17.3054 19.5271" stroke="#A77E56" stroke-width="1.8" stroke-linecap="round" stroke-linejoin="round"/>
<path d="M58.1106 44C57.6039 44 57.1934 44.4108 57.1934 44.9173C57.1934 45.4237 57.6039 45.8348 58.1106 45.8348C58.6171 45.8348 59.0279 45.424 59.0279 44.9173C59.0279 44.4106 58.6171 44 58.1106 44Z" fill="#A98056"/>
<path d="M0.91727 25C0.410583 25 0 25.4108 0 25.9173C0 26.4237 0.410583 26.8348 0.91727 26.8348C1.42374 26.8348 1.83454 26.424 1.83454 25.9173C1.83454 25.4106 1.42374 25 0.91727 25Z" fill="#A98056"/>
<path d="M9.2897 3.43226C9.764 3.43226 10.1478 3.04806 10.1478 2.57419V0.858064C10.1478 0.384198 9.764 0 9.2897 0C8.81541 0 8.43164 0.384198 8.43164 0.858064V2.57419C8.43164 3.04806 8.81541 3.43226 9.2897 3.43226Z" fill="#A98056"/>
<path d="M10.1478 7.72238V6.00626C10.1478 5.53239 9.764 5.14819 9.2897 5.14819C8.81541 5.14819 8.43164 5.53239 8.43164 6.00626V7.72238C8.43164 8.19625 8.81541 8.58045 9.2897 8.58045C9.764 8.58045 10.1478 8.19625 10.1478 7.72238Z" fill="#A98056"/>
<path d="M8.43225 4.29044C8.43225 3.81657 8.04849 3.43237 7.57419 3.43237H5.85806C5.38377 3.43237 5 3.81657 5 4.29044C5 4.7643 5.38377 5.1485 5.85806 5.1485H7.57419C8.04849 5.1485 8.43225 4.7643 8.43225 4.29044Z" fill="#A98056"/>
<path d="M11.0065 5.1485H12.7226C13.1969 5.1485 13.5807 4.7643 13.5807 4.29044C13.5807 3.81657 13.1969 3.43237 12.7226 3.43237H11.0065C10.5322 3.43237 10.1484 3.81657 10.1484 4.29044C10.1484 4.7643 10.5322 5.1485 11.0065 5.1485Z" fill="#A98056"/>
<path d="M51.0032 49.5161C49.3474 49.5161 48 50.8635 48 52.5193C48 54.1752 49.3474 55.5226 51.0032 55.5226C52.6591 55.5226 54.0064 54.1752 54.0064 52.5193C54.0064 50.8635 52.6591 49.5161 51.0032 49.5161ZM51.0032 53.8064C50.2934 53.8064 49.7161 53.2292 49.7161 52.5193C49.7161 51.8095 50.2934 51.2322 51.0032 51.2322C51.7131 51.2322 52.2903 51.8095 52.2903 52.5193C52.2903 53.2292 51.7128 53.8064 51.0032 53.8064Z" fill="#A98056"/>
</svg>
