<svg width="25" height="17" viewBox="0 0 25 17" fill="none" xmlns="http://www.w3.org/2000/svg">
<path d="M24.8411 8.01398C24.6178 7.70846 19.2963 0.533203 12.4999 0.533203C5.70343 0.533203 0.381739 7.70846 0.158643 8.01369C-0.052881 8.30353 -0.052881 8.69665 0.158643 8.98649C0.381739 9.29201 5.70343 16.4673 12.4999 16.4673C19.2963 16.4673 24.6178 9.29196 24.8411 8.98674C25.0529 8.69694 25.0529 8.30353 24.8411 8.01398ZM12.4999 14.8189C7.49357 14.8189 3.15757 10.0566 1.87403 8.49967C3.15591 6.94142 7.48283 2.18155 12.4999 2.18155C17.5059 2.18155 21.8416 6.94308 23.1257 8.5008C21.8438 10.059 17.5169 14.8189 12.4999 14.8189Z" fill="#ABA5A0"/>
<path d="M12.4998 3.55444C9.7731 3.55444 7.55469 5.77286 7.55469 8.49952C7.55469 11.2262 9.7731 13.4446 12.4998 13.4446C15.2264 13.4446 17.4448 11.2262 17.4448 8.49952C17.4448 5.77286 15.2264 3.55444 12.4998 3.55444ZM12.4998 11.7962C10.6819 11.7962 9.20308 10.3173 9.20308 8.49952C9.20308 6.6817 10.6819 5.20283 12.4998 5.20283C14.3176 5.20283 15.7965 6.6817 15.7965 8.49952C15.7965 10.3173 14.3176 11.7962 12.4998 11.7962Z" fill="#ABA5A0"/>
</svg>
