<svg width="35" height="35" viewBox="0 0 35 35" fill="none" xmlns="http://www.w3.org/2000/svg">
<g clip-path="url(#clip0)">
<path d="M30.6015 4.40139C27.7632 1.56311 23.9896 0 19.9758 0C15.9619 0 12.1883 1.56311 9.35004 4.40139C6.51183 7.2396 4.94866 11.0132 4.94866 15.027C4.94866 18.6968 6.25596 22.1652 8.64909 24.9021L0.303574 33.2477C-0.0972851 33.6485 -0.0972851 34.2984 0.303574 34.6994C0.504004 34.8997 0.766709 35 1.02935 35C1.29198 35 1.55476 34.8998 1.75512 34.6993L10.1007 26.3538C12.8376 28.7468 16.306 30.0542 19.9758 30.0542C23.9897 30.0542 27.7632 28.4911 30.6015 25.6528C33.4397 22.8146 35.0028 19.041 35.0028 15.0271C35.0028 11.0132 33.4397 7.2396 30.6015 4.40139ZM29.1498 24.2012C24.0912 29.2598 15.8604 29.2598 10.8017 24.2012C5.74313 19.1426 5.74313 10.9117 10.8017 5.85307C13.3313 3.3235 16.653 2.05912 19.9758 2.05912C23.2978 2.05912 26.6209 3.32411 29.1499 5.85307C34.2084 10.9116 34.2084 19.1425 29.1498 24.2012Z" fill="white"/>
</g>
<defs>
<clipPath id="clip0">
<rect width="35" height="35" fill="white"/>
</clipPath>
</defs>
</svg>
